<?xml version="1.0" standalone="no"?>
<!DOCTYPE svg PUBLIC "-//W3C//DTD SVG 1.1//EN" "http://www.w3.org/Graphics/SVG/1.1/DTD/svg11.dtd" >
<svg xmlns="http://www.w3.org/2000/svg" xmlns:xlink="http://www.w3.org/1999/xlink" version="1.1">
<metadata>
Created by FontForge 20170924 at Sat Jan  5 18:26:44 2019
 By www-data
Shorif Jonota (c) All Rights Reserved by Lipighor Font Foundry
</metadata>
<defs>
<font id="ShorifJonota" horiz-adv-x="0" >
  <font-face 
    font-family="Shorif Jonota"
    font-weight="400"
    font-stretch="normal"
    units-per-em="1000"
    panose-1="2 0 5 6 0 0 0 2 0 3"
    ascent="800"
    descent="-200"
    x-height="367"
    cap-height="485"
    bbox="-502 -307 882 770"
    underline-thickness="50"
    underline-position="-100"
    unicode-range="U+001D-25CC"
  />
<missing-glyph horiz-adv-x="610" 
d="M408 411v-27l81 27h67v-386h-69l-16 93v209l-63 -21v-70h-81v91l-60 -20v-207h60v71h81v-146h-226v330l162 56h64zM476 486l-232 -16l-98 -30v-415h-90v475l222 65h278v-125h-80v46z" />
    <glyph glyph-name=".notdef" horiz-adv-x="610" 
d="M408 411v-27l81 27h67v-386h-69l-16 93v209l-63 -21v-70h-81v91l-60 -20v-207h60v71h81v-146h-226v330l162 56h64zM476 486l-232 -16l-98 -30v-415h-90v475l222 65h278v-125h-80v46z" />
    <glyph glyph-name=".null" horiz-adv-x="1" 
 />
    <glyph glyph-name=".null" horiz-adv-x="1" 
 />
    <glyph glyph-name="nonmarkingreturn" horiz-adv-x="1" 
 />
    <glyph glyph-name="nonmarkingreturn.1" unicode=" " horiz-adv-x="241" 
 />
    <glyph glyph-name="exclam" unicode="!" horiz-adv-x="230" 
d="M187 444v0v-374h-87v374h87zM144 -89v0q-22 0 -37.5 15.5t-15.5 37.5q0 21 15.5 36.5t37.5 15.5q21 0 36.5 -15.5t15.5 -36.5q0 -22 -15.5 -37.5t-36.5 -15.5z" />
    <glyph glyph-name="parenleft" unicode="(" horiz-adv-x="231" 
d="M183 -99v0q-37 34 -69 131.5t-36 224.5q-1 92 19 169t41.5 125t24.5 52l32 -17l32 -18q-2 -2 -21 -45t-37.5 -113t-17.5 -151q5 -127 33 -207.5t47 -95.5z" />
    <glyph glyph-name="parenright" unicode=")" horiz-adv-x="213" 
d="M56 -99l-48 55q18 15 46.5 95.5t33.5 207.5q1 81 -17.5 151t-37.5 113t-21 45l32 18l32 17q3 -4 24.5 -52t41.5 -125t19 -169q-5 -127 -36.5 -224.5t-68.5 -131.5v0z" />
    <glyph glyph-name="comma" unicode="," horiz-adv-x="185" 
d="M69 -38v0q-33 -1 -51 26q-17 29 -3 59q16 29 57 34h10.5t24 -3t29.5 -13.5t26 -30.5q10 -18 6 -63t-47 -98l-58 35q19 13 26.5 30t6.5 30q-11 -4 -27 -6z" />
    <glyph glyph-name="hyphen" unicode="-" horiz-adv-x="277" 
d="M245 283v0v-73h-210v73h210z" />
    <glyph glyph-name="period" unicode="." horiz-adv-x="178" 
d="M54 49v0q0 21 15 36t36 15t36.5 -15t15.5 -36q0 -22 -15.5 -37t-36.5 -15t-36 15t-15 37z" />
    <glyph glyph-name="slash" unicode="/" horiz-adv-x="311" 
d="M303 512v0l-221 -536l-67 28l220 536z" />
    <glyph glyph-name="colon" unicode=":" horiz-adv-x="244" 
d="M124 312v0q-22 0 -38 16t-16 38q0 23 16 39t38 16q23 0 39 -16t16 -39q0 -22 -16 -38t-39 -16zM124 61v0q-22 0 -38 16t-16 38q0 23 16 39t38 16q23 0 39 -16t16 -39q0 -22 -16 -38t-39 -16z" />
    <glyph glyph-name="semicolon" unicode=";" horiz-adv-x="328" 
d="M177 116v0q-27 -1 -42 21q-15 24 -2 48q13 25 47 29h8t20 -2.5t24.5 -11t21.5 -25.5q8 -15 4.5 -52t-38.5 -81l-48 29q16 11 22 24.5t5 24.5q-9 -3 -22 -4zM182 327v0q-23 0 -39 16t-16 39q0 22 16 38t39 16q22 0 38 -16t16 -38q0 -23 -16 -39t-38 -16z" />
    <glyph glyph-name="question" unicode="?" horiz-adv-x="430" 
d="M125 -5l-3 -3q0 22 15.5 37.5t38.5 15.5q22 0 37.5 -15.5t15.5 -37.5q0 -23 -15.5 -38.5t-37.5 -15.5q-23 0 -38.5 15.5t-12.5 41.5zM366 429l3 -2q22 -51 4 -107.5t-78 -100.5q-97 -67 -94 -137l-73 -2q1 74 40.5 122.5t83.5 76.5q41 30 52 62.5t0 56.5q-4 10 -19 20
t-36 13q-13 2 -29 -1t-31 -18q-11 -13 -12 -19q7 4 23 4q26 0 44 -18t18 -43q0 -26 -21 -46q-22 -19 -53 -17.5t-53 19.5q-31 32 -34 77q-3 54 35 93q49 52 123 42q75 -6 107 -75z" />
    <glyph glyph-name="bracketleft" unicode="[" horiz-adv-x="177" 
d="M56 584h136v-73h-63v-506h63v-73h-136v652v0z" />
    <glyph glyph-name="backslash" unicode="\" horiz-adv-x="400" 
d="M74 599v0q149 -309 297 -617q2 -4 -2.5 -9.5t-12 -10t-14 -6t-8.5 1.5l-1 1v1q-6 -3 -11 -4t-6 2l-1 1v1q-6 -3 -11 -4t-6 2l-88 182l-210 434q-1 4 3.5 9.5t12 10t14 6.5t8.5 -1q0 -1 1 -2v-1q6 3 11 4t6 -1v-2q1 0 1 -1q6 3 11 4t6 -1z" />
    <glyph glyph-name="bracketright" unicode="]" horiz-adv-x="159" 
d="M122 584v0v-652h-136v73h63v506h-63v73h136z" />
    <glyph glyph-name="braceleft" unicode="{" horiz-adv-x="237" 
d="M138 -115q-13 9 -24 29.5t-11 56.5q0 44 3 96q1 32 1.5 65.5t-1.5 47.5q-5 8 -20 18.5t-35 16.5l-7 2v29v7v29l7 2q20 6 35 16.5t20 18.5q2 14 1.5 47.5t-1.5 65.5q-3 52 -3 96q0 35 11 56t24 30q21 17 42 20t31 1h46v-73h-49h-2l-3 1q-3 0 -8.5 -0.5t-10.5 -4.5
q-8 -8 -8 -30q0 -42 2 -93q3 -71 2 -104t-9 -46q-10 -19 -32 -36q22 -17 32 -36q8 -12 9 -45t-2 -104q-2 -51 -2 -93q0 -22 8 -31q5 -3 10.5 -3.5t8.5 -0.5l3 1h2h49v-73h-46q-10 -2 -31 1t-42 20v0z" />
    <glyph glyph-name="braceright" unicode="}" horiz-adv-x="215" 
d="M93 -115v0q-22 -17 -42.5 -20t-30.5 -1h-46v73h48h3l3 -1q3 0 8.5 0.5t9.5 3.5q9 9 9 31q0 42 -3 93q-3 71 -2 104t9 45q11 19 32 36q-21 17 -32 36q-8 13 -9 46t2 104q3 51 3 93q0 22 -9 30q-4 4 -9.5 4.5t-8.5 0.5l-3 -1h-3h-48v73h46q10 2 30.5 -1t42.5 -20
q12 -9 23 -30t11 -56q0 -44 -2 -96q-1 -32 -2 -65.5t1 -47.5q6 -8 21 -18.5t35 -16.5l7 -2v-29v-7v-29l-7 -2q-20 -6 -35 -16.5t-21 -18.5q-2 -14 -1 -47.5t2 -65.5q2 -52 2 -96q0 -36 -11 -56.5t-23 -29.5z" />
    <glyph glyph-name="percent" unicode="%" horiz-adv-x="497" 
d="M152 -16v0l-65 33l239 463l65 -33zM138 278v0q-41 0 -71 30t-30 71q0 42 30 71.5t71 29.5q42 0 71.5 -29.5t29.5 -71.5q0 -41 -29.5 -71t-71.5 -30zM138 407v0q-11 0 -19.5 -8t-8.5 -20q0 -11 8.5 -19.5t19.5 -8.5q12 0 20 8.5t8 19.5q0 12 -8 20t-20 8zM251 119v0
q0 44 31.5 75.5t75.5 31.5q45 0 76.5 -31.5t31.5 -75.5t-31.5 -75.5t-76.5 -31.5q-44 0 -75.5 31.5t-31.5 75.5zM393 119v0q0 14 -10 24t-25 10q-14 0 -24 -10t-10 -24t10 -24.5t24 -10.5q15 0 25 10.5t10 24.5z" />
    <glyph glyph-name="asterisk" unicode="*" horiz-adv-x="422" 
d="M61 202v0l57 57h-80v73h80l-57 56l52 52l56 -57v80h73v-80l57 57l52 -52l-57 -56h80v-73h-80l57 -57l-52 -52l-57 57v-80h-73v80l-56 -57z" />
    <glyph glyph-name="multiply" unicode="&#xd7;" horiz-adv-x="348" 
d="M31 149v0l94 99l-104 99l50 53l104 -99l95 99l52 -50l-94 -99l96 -91l-51 -52l-95 90l-94 -99z" />
    <glyph glyph-name="quoteleft" unicode="&#x2018;" horiz-adv-x="232" 
d="M142 436v0q33 2 52 -25q17 -29 2 -59q-16 -29 -57 -34l-10 -0.5t-24.5 3t-29.5 14t-26 30.5q-10 18 -5.5 63t46.5 98l58 -35q-19 -13 -26.5 -30t-6.5 -30q11 4 27 5z" />
    <glyph glyph-name="quoteright" unicode="&#x2019;" horiz-adv-x="225" 
d="M90 407v0q-33 -1 -51 26q-18 29 -3 59q16 29 57 34l10 0.5t24.5 -3t29.5 -14t26 -30.5q10 -18 6 -63t-47 -98l-58 35q19 13 26.5 30t6.5 30q-11 -4 -27 -6z" />
    <glyph glyph-name="quotesinglbase" unicode="&#x201a;" horiz-adv-x="273" 
d="M108 -33v0q-33 -1 -51 26q-18 29 -3 58q16 30 57 35h10t24.5 -3.5t29.5 -13.5t26 -31q10 -17 6 -62t-47 -99l-58 35q19 14 26.5 30.5t6.5 30.5q-11 -5 -27 -6z" />
    <glyph glyph-name="quotedblleft" unicode="&#x201c;" horiz-adv-x="425" 
d="M140 436v0q33 2 51 -26q18 -29 3 -58q-16 -29 -57 -34q0 -1 -10 -1t-24.5 3.5t-29.5 13.5t-26 31q-10 18 -5.5 63t46.5 98l58 -35q-19 -14 -26.5 -30.5t-6.5 -29.5q11 4 27 5zM330 436v0q33 2 51 -26q18 -29 3 -58q-16 -29 -57 -34q0 -1 -10 -1t-24.5 3.5t-29.5 13.5
t-26 31q-10 18 -5.5 63t46.5 98l58 -35q-19 -14 -26.5 -30.5t-6.5 -29.5q11 4 27 5z" />
    <glyph glyph-name="quotedblright" unicode="&#x201d;" horiz-adv-x="430" 
d="M291 407v0q-33 -1 -52 26q-17 29 -2 58q16 29 57 35h9.5t24.5 -3.5t29.5 -13.5t25.5 -31q11 -17 6.5 -62t-46.5 -99l-58 35q19 14 26.5 30.5t6.5 29.5q-11 -4 -27 -5zM101 407v0q-33 -1 -52 26q-17 29 -2 58q16 29 57 35h9.5t24.5 -3.5t29.5 -13.5t25.5 -31
q11 -17 6.5 -62t-46.5 -99l-58 35q19 14 26.5 30.5t6.5 29.5q-11 -4 -27 -5z" />
    <glyph glyph-name="uni0981" unicode="&#x981;" 
d="M-226 666q0 -28 17 -45.5t41 -17.5t41 17.5t17 45.5h68q0 -57 -37 -94t-89 -37t-89.5 37t-37.5 94h69zM-137 652v0q0 -13 -9 -22t-22 -9t-22 9t-9 21q0 13 9 22t22 9t22 -9t9 -21z" />
    <glyph glyph-name="uni0982" unicode="&#x982;" horiz-adv-x="342" 
d="M315 331v0q0 -49 -35 -84t-84 -35q-50 0 -85 35t-35 84q0 50 35 85t85 35q49 0 84 -35t35 -85zM149 331v0q0 -19 14 -32.5t33 -13.5t32.5 13.5t13.5 32.5q0 20 -13.5 33.5t-32.5 13.5t-33 -13.5t-14 -33.5zM44 135v0l8 73q4 1 45 -11t103.5 -50t131.5 -118l-23 -90
q-64 88 -123 130t-98.5 54.5t-43.5 11.5z" />
    <glyph glyph-name="uni0983" unicode="&#x983;" horiz-adv-x="281" 
d="M141 262v0q-43 0 -73.5 30.5t-30.5 73.5q0 42 30.5 72.5t73.5 30.5q42 0 72.5 -30.5t30.5 -72.5q0 -43 -30.5 -73.5t-72.5 -30.5zM141 396v0q-13 0 -22 -9t-9 -21q0 -13 9 -22t22 -9q12 0 21 9t9 22q0 12 -9 21t-21 9zM141 28v0q-44 0 -75 30.5t-31 74.5q0 43 31 74
t75 31q43 0 74 -31t31 -74q0 -44 -31 -74.5t-74 -30.5zM141 165v0q-14 0 -23.5 -9.5t-9.5 -22.5q0 -14 9.5 -23.5t23.5 -9.5q13 0 22.5 9.5t9.5 23.5q0 13 -9.5 22.5t-22.5 9.5z" />
    <glyph glyph-name="uni0985" unicode="&#x985;" horiz-adv-x="621" 
d="M623 402h-57v-402h-73v80l-56 60q-54 -104 -179 -104q-93 0 -152.5 54t-77.5 153v2l-14 109l73 9l13 -108q26 -146 158 -146q57 0 91.5 32t34.5 86q0 52 -29 79q-27 24 -71 19q-22 -3 -34.5 -21t-12.5 -38q0 -3 1 -7q17 37 55 37q24 0 41 -17t17 -42v-6q-1 -10 -6 -19
q0 -2 -1 -3q-6 -13 -22.5 -24.5t-47.5 -15.5h-4q-37 -1 -59 12q-2 1 -4 3q-4 2 -8 5q0 1 -1 1l-2 2v1q-1 0 -2 1l-2 2q-3 3 -5 6q-10 11 -15 25q-2 4 -2 6l-1 2q-4 13 -5 28q-1 47 29 87t83 48q76 7 127 -38q53 -49 53 -133v-1l37 -39v215h-495v73h625v-73z" />
    <glyph glyph-name="uni0986" unicode="&#x986;" horiz-adv-x="764" 
d="M566 402v-402h-73v80l-56 60q-54 -104 -179 -104q-93 0 -152.5 54t-77.5 153v2l-14 109l73 9l13 -108q26 -146 158 -146q57 0 91.5 32t34.5 86q0 52 -29 79q-27 24 -71 19q-22 -3 -34.5 -21t-12.5 -38q0 -3 1 -7q17 37 55 37q24 0 41 -17t17 -42v-6q-1 -10 -6 -19
q0 -2 -1 -3q-6 -13 -22.5 -24.5t-47.5 -15.5h-4q-37 -1 -59 12q-2 1 -4 3q-4 2 -8 5q0 1 -1 1l-2 2v1q-1 0 -2 1l-2 2q-3 3 -5 6q-10 11 -15 25q-2 4 -2 6l-1 2q-4 13 -5 28q-1 47 29 87t83 48q76 7 127 -38q53 -49 53 -133v-1l37 -39v215h-495v73h771v-73h-56v-402h-73v402
h-74z" />
    <glyph glyph-name="uni0987" unicode="&#x987;" horiz-adv-x="370" 
d="M190 568v0q-46 2 -77 -10t-47 -24.5t-17 -14.5l-55 48q2 3 25 22t66.5 36.5t108.5 15.5q46 -3 73 -21t40 -38q33 -53 30 -107h37v-73h-374v73h264q2 34 -16 65q-19 27 -58 28zM190 101v0l206 -100l-32 -65l-349 165l13 72q63 -10 133.5 -2.5t98.5 31.5q12 12 16 31t-2 37
q-3 14 -17.5 30.5t-39.5 22.5q-83 13 -108 -21q-4 -6 -5.5 -13t-0.5 -11q0 -3 1 -6q18 28 49 28q32 0 49 -30h0.5h0.5v0q6 -12 6 -25q0 -22 -15 -38v0v-1h-1q0 -1 -1 -1q-5 -6 -12 -9v0v-1h-2q-7 -4 -14 -5q-51 -14 -92 17q-36 28 -42 72q-4 45 30 77q61 53 176 34
q83 -20 108 -99q21 -82 -32 -140q-45 -40 -122 -50z" />
    <glyph glyph-name="uni0988" unicode="&#x988;" horiz-adv-x="485" 
d="M322 568v0q-46 1 -77.5 -10.5t-47.5 -24t-16 -14.5l-55 48q1 3 24 22t67 36.5t108 15.5q46 -3 73.5 -21t40.5 -38q33 -53 30 -107h28v-73h-498v73h397q2 34 -17 65q-18 27 -57 28zM382 85v0q12 -50 68 -76l-32 -65q-83 41 -106 121q-16 60 -3 118q-16 -18 -30 -37
q-40 -55 -79.5 -76.5t-74.5 -20.5q-31 0 -56.5 10.5t-44.5 23.5l40 60q30 -22 69 -20.5t87 65.5q16 22 22 47t1 45q-3 11 -9 21t-16 15q-30 15 -58 12.5t-39 -15.5q-4 -4 -8.5 -11t-3.5 -15q0 -4 2 -8q17 21 44 21q23 0 39 -16t16 -39q0 -19 -10 -33l-2 -2.5t-5 -5.5
q-25 -19 -55 -19q-31 0 -58 16q-4 3 -9 7q-38 33 -35 82q6 49 44 79q74 50 170 10q49 -25 64 -80v-3t1 -2q38 35 68.5 52t39.5 20q2 1 3 1l17 -31l18 -32q-3 -1 -37 -24l-4 -8q-14 -20 -31.5 -70.5t-6.5 -116.5z" />
    <glyph glyph-name="uni0989" unicode="&#x989;" horiz-adv-x="493" 
d="M420 582v0q32 -53 29 -107h45v-73h-226v-139q30 14 56 39.5t44 49.5l87 -8q8 -37 9 -105t-27.5 -131t-107.5 -87q-31 -7 -61 -7q-78 0 -141 49q-102 87 -96 268l73 -3q-6 -145 69 -209q58 -46 138 -27q53 16 68.5 68.5t11.5 106.5q-49 -57 -123 -80q-14 -4 -29 -4h-8h-35
v219h-201v73h382q2 34 -16 65q-18 26 -57 28q-46 1 -77 -10.5t-46.5 -24t-16.5 -14.5l-55 48q2 3 24.5 21.5t66 36t107.5 15.5q46 -3 73 -21t40 -37z" />
    <glyph glyph-name="uni098A" unicode="&#x98a;" horiz-adv-x="500" 
d="M431 581v0q33 -52 30 -106h42v-73h-223v-139q29 13 55 39t44 50l87 -8q8 -37 9 -105t-27 -131.5t-108 -86.5q-31 -7 -61 -7q-78 0 -140 49q-55 45 -80 122v1q-1 0 -1 1q-15 13 -23 37t-12 49.5t-4.5 43l-0.5 17.5l36 -3q1 -11 3 -31t6.5 -39.5t11.5 -27.5l-1.5 10.5
t-3 26t-2.5 31.5t0 29l47 -2q-6 -146 69 -210q58 -46 138 -27q53 17 68.5 69t11.5 106q-49 -56 -122 -79q-15 -4 -30 -4h-8h-35v219h-209v73h391q2 34 -17 65q-18 26 -57 27q-46 2 -76.5 -9.5t-46.5 -24t-17 -14.5l-54 47q1 3 24 22t66.5 36t106.5 16q46 -4 73 -21.5
t40 -37.5z" />
    <glyph glyph-name="uni098B" unicode="&#x98b;" horiz-adv-x="560" 
d="M451 475v0h114v-73h-41v-388h-73v33l-47 52v-99h-73v30q-28 46 -64 72t-70 37t-57 13t-26 2l-42 59l206 146q-20 8 -40 21q-11 -19 -23 -32q-21 -18 -46.5 -24t-51.5 -6q-11 0 -21 2q-39 8 -61 43q-20 35 -9 73q5 16 14 29q19 24 48 34q32 12 62 -3q17 -11 23 -30.5
t-4 -38.5q-15 -22 -38 -22q-20 0 -33 14q-1 -2 -2 -5q-2 -7 2 -13q2 -4 7 -8t8 -5q12 -2 28 2t30 16q22 23 18 57l72 6v-3v-3q8 -19 29.5 -29.5t40.5 -14.5v56h73v-268l47 -52v247v73zM331 145v0v162l-130 -92q62 -14 130 -70z" />
    <glyph glyph-name="uni098F" unicode="&#x98f;" horiz-adv-x="477" 
d="M372 475v0h73v-475h-73v52q-3 13 -10 25t-20 18q-30 11 -73 -15q-53 -32 -113 -27.5t-98 57.5q-23 37 -28 70t1 59t13.5 41.5t9.5 17.5l60 -41q0 -1 -4.5 -9.5t-7 -23.5t0.5 -34t16 -40q20 -27 53.5 -25t57.5 17q75 46 139 21q1 -1 2 -1l1 -1v240q-39 0 -82 -20
q-28 -16 -34 -40q-5 -21 9 -43q15 26 43 26q20 0 33.5 -13.5t15.5 -32.5q1 -24 -13.5 -42t-36.5 -24q-33 -6 -63 10q-37 19 -52.5 57.5t-6.5 79.5q14 54 69 85q65 31 118 31v0z" />
    <glyph glyph-name="uni0990" unicode="&#x990;" horiz-adv-x="598" 
d="M547 484v0q32 -47 38.5 -116t-25.5 -124q-11 -20 -40 -40t-81 -22v-182h-73v53q-3 13 -10.5 25t-20.5 18q-30 11 -73 -15q-52 -32 -112.5 -27.5t-97.5 56.5q-24 37 -28.5 70t1 59t13.5 42t9 17l61 -40q-1 -1 -5 -10t-7 -24t0 -33.5t16 -40.5q21 -26 54 -24.5t57 16.5
q76 46 140 21q1 0 1 -1h2v240q-40 -1 -82 -21q-29 -16 -35 -39q-4 -20 7 -40q15 23 41 23q25 0 42 -23q14 -28 0 -57q-10 -21 -32 -30q-19 -7 -40 -2q-50 11 -74.5 53.5t-13.5 92.5q14 54 69 86q64 30 118 30v0h73v-220q20 0 32.5 5.5t19 12t8.5 11.5q20 35 14 82.5
t-25 75.5q-26 33 -59 60q-41 31 -60 68q-9 23 -10.5 46t0.5 39.5t3 20.5l71 -15q-2 -9 -2.5 -27.5t5.5 -34.5q4 -8 15.5 -19t24.5 -23q37 -29 71 -73z" />
    <glyph glyph-name="uni0993" unicode="&#x993;" horiz-adv-x="471" 
d="M439 202v0q23 -62 -11 -131q-19 -35 -61.5 -61.5t-92.5 -27.5q-8 0 -16 1q-217 20 -233 332l73 5q8 -112 33.5 -167.5t61.5 -75t74 -22.5q27 -2 56 13.5t40 35.5q20 40 8 72q-8 19 -24 25q-21 8 -37 6q1 0 1.5 -3t0.5 -7v-7v-4q-1 -12 -7 -22q-8 -13 -22.5 -17.5
t-29.5 -2.5q-18 2 -31 13q-13 14 -15 35t5 38q10 17 26 27q36 24 79 23q16 16 26 37t5 44q-5 19 -17.5 31.5t-25.5 15.5q-42 11 -72 -6q-17 -10 -19 -31q-1 -7 1 -12q15 14 35 14q32 0 43.5 -29.5t-9.5 -55.5q-12 -12 -29 -15q-9 -2 -19.5 -3t-19.5 2q-37 12 -58 41t-16 68
q7 53 51 82q58 35 132 15q29 -8 56 -33.5t38 -65.5q6 -19 2.5 -50.5t-28.5 -69.5q31 -20 46 -57z" />
    <glyph glyph-name="uni0994" unicode="&#x994;" horiz-adv-x="579" 
d="M509 484v0q31 -45 39 -107.5t-21 -114.5q-20 -40 -84 -60q23 -62 -11 -131q-14 -26 -42 -48q-49 -38 -112 -41q-8 0 -16 1q-197 19 -228 275q-3 27 -5 57l73 5q3 -53 11 -93q22 -104 66 -136.5t92 -35.5q25 -2 51.5 11.5t40.5 31.5l4 6q15 29 11 61q-3 18 -16 29
q-21 15 -48 13q1 0 1 -3t0.5 -7t0.5 -7v-4q-1 -12 -7 -22q-7 -12 -19.5 -16.5t-26.5 -3.5v0h-1q-6 0 -12 1q-38 12 -39 53q1 44 42 65q31 17 67 17q16 16 26.5 37t5.5 44q-5 19 -17.5 31.5t-25.5 15.5q-15 5 -30 5q-25 0 -43 -11q-16 -10 -18 -31q-1 -2 -1 -4l1 -1v-4
q14 11 32 11.5t32 -9.5q18 -15 19.5 -37t-13.5 -39q-12 -12 -29 -15q-23 -6 -45 1q-21 8 -37 22q-32 30 -32 75v9v0v1q8 53 52 82q34 22 79 23q27 0 53 -8q27 -8 47 -25q41 -36 48 -86t-20 -97q43 2 60 30q17 30 11 71.5t-26 70.5q-26 33 -59 60q-41 31 -60 68
q-9 23 -10.5 46t0.5 39.5t3 20.5l36 -8l35 -7q-2 -9 -2.5 -27.5t5.5 -34.5q4 -8 15.5 -19t25.5 -23q37 -29 71 -73z" />
    <glyph glyph-name="uni0995" unicode="&#x995;" horiz-adv-x="542" 
d="M510 271v0q10 -55 -21 -103q-10 -15 -26 -26q-19 -12 -46 -9.5t-41 21.5q-11 14 -11 33q0 21 15.5 36.5t37.5 15.5q11 0 21 -4q2 11 0 22q-14 53 -80 59v-318h-72v28q-37 60 -82.5 91.5t-82.5 43t-48 12.5h-6l-37 62l256 151v16h-289v73h289h72h185v-73h-185v-14
q124 -9 151 -117zM287 144v0v157l-129 -76q61 -21 129 -81z" />
    <glyph glyph-name="uni0996" unicode="&#x996;" horiz-adv-x="446" 
d="M387 475v0h75v-73h-75v-402h-73v20q-25 50 -67 76t-85.5 36t-74 10.5t-32.5 0.5l-11 71q54 13 97.5 29t60.5 39q15 23 19 48q-22 -25 -56 -36q-75 -19 -124 47q-37 59 -5 123q18 30 55 35.5t60 -22.5q15 -16 15 -38q0 -23 -16.5 -39.5t-39.5 -16.5q-5 0 -10 1q1 -1 2 -3
q6 -9 17 -15t25 -2q19 6 32 25t20 39t9 30l3 12h64l2 -4q2 -3 9 -23.5t11.5 -53.5t-1.5 -71.5t-30 -76.5q-20 -27 -54 -46q56 -17 105 -58v265v73h73z" />
    <glyph glyph-name="uni0997" unicode="&#x997;" horiz-adv-x="464" 
d="M484 402v0h-75v-402h-72v280q-14 29 -47 68t-77 52q-47 9 -76 -16q-14 -11 -22 -28q30 9 63.5 7t64.5 -26q58 -52 38 -135q-30 -94 -134 -111l-9 72q58 9 73 59q10 38 -14 59q-14 11 -32.5 10.5t-36 -6.5t-29 -12t-12.5 -7l-56 30q-1 91 59 144q57 46 137 30
q67 -17 110 -66v71h72h75v-73z" />
    <glyph glyph-name="uni0998" unicode="&#x998;" horiz-adv-x="409" 
d="M25 335v0q-5 39 9 67h-39v73h417v-73h-45v-402h-72v39q-37 47 -109 68.5t-129 25.5l-32 77l68 48q-38 15 -52.5 38t-15.5 39zM295 136v0v266h-163q-6 -2 -15 -9t-16 -18.5t-5 -27.5q4 -14 21.5 -19.5t37.5 -6t29 0.5l46 33l42 -59l-142 -100q84 -13 165 -60z" />
    <glyph glyph-name="uni0999" unicode="&#x999;" horiz-adv-x="461" 
d="M300 90v0q45 21 55 72q-35 -22 -87 -14q-50 9 -76 51q-22 38 -23 83q-39 17 -64.5 43.5t-38.5 48t-14 24.5l66 30l6.5 -11.5t19 -27t31.5 -28.5q7 34 10 42q10 31 37.5 51t63.5 21q68 -1 92 -62q6 -19 7 -38q0 -44 -35 -76v0l-1 -1q-2 -1 -4 -3q-1 0 -1 -1
q-37 -25 -101 -25q2 -19 10 -32q9 -15 27 -18q22 -4 37 4.5t24.5 21.5t13.5 24t5 12l1 4l72 -42q5 -50 -14 -118.5t-94 -102.5q-29 -11 -68 -11q-31 0 -63.5 8.5t-62.5 28.5q-37 22 -70 76.5t-39 155.5l73 2q4 -126 76 -174q36 -23 72 -24.5t57 6.5zM254 382v0
q-6 -18 -10 -41q24 1 38 4.5t20 7.5t7 7q4 6 3.5 14t-3.5 15q-4 14 -21 14h-1q-10 -1 -20 -6.5t-13 -14.5z" />
    <glyph glyph-name="uni099A" unicode="&#x99a;" horiz-adv-x="399" 
d="M-5 402v0v73h408v-73h-293v-2q7 -9 43 -28t107 -31q63 -8 88 -45q24 -35 13 -88q-6 -30 -31.5 -74t-85.5 -78t-167 -37v0v0h-5v0v0v0l-34 -1v384h-43zM110 313v0v-221q97 11 136 52.5t44 79.5q2 7 2.5 16t-3.5 14q-8 11 -39 16q-94 15 -140 43z" />
    <glyph glyph-name="uni099B" unicode="&#x99b;" horiz-adv-x="467" 
d="M-7 402v0v73h480v-73h-361v-14q8 -10 35.5 -23.5t84.5 -18.5q30 -3 52 -23q60 -1 95.5 -27t48.5 -61q16 -43 2.5 -86t-52.5 -71q-65 -44 -160 -62l192 -82l-28 -66l-332 141h-2h-4l8 72q173 -15 285 56q21 16 25.5 35.5t-2.5 36.5q-12 31 -49 39q-2 -11 -7 -21
q-16 -38 -66 -72t-149 -40q-2 -1 -5 -1h-44v288h-47zM112 301v0v-112q39 4 73 20t51 49q2 5 0 9q-1 2 -3.5 4t-7.5 3q-72 7 -113 27z" />
    <glyph glyph-name="uni099C" unicode="&#x99c;" horiz-adv-x="566" 
d="M-10 402v0v73h586v-73h-264q36 -25 87.5 -42.5t105.5 0.5l43 -54q-3 -3 -18 -31t-29 -73.5t-12.5 -103t31.5 -119.5l-65 -33q-46 100 -38 187.5t35 145.5q-64 2 -116 27t-83 49q-36 -40 -36 -72q0 -5 2 -8t7 -6q18 -9 49 -4.5t59 23.5l56 -19q1 -3 5.5 -27t4 -57.5
t-15 -67.5t-51.5 -57q-40 -23 -87 -23q-39 0 -77 17q-43 17 -85.5 74.5t-62.5 175.5l71 11q25 -154 107 -195q29 -13 54.5 -10.5t42.5 12.5q21 13 27 36t4 46q-75 -27 -134 0q-48 28 -48 79q0 32 16 63t37 56h-208z" />
    <glyph glyph-name="uni099D" unicode="&#x99d;" horiz-adv-x="532" 
d="M368 0h-72v32q-51 82 -143 116q-61 21 -88 21h-2l-38 62l21 15q156 107 250 151v5h-299v73h371v-267l47 -52v319h124v-73h-52v-388h-72v35l-47 51v-100zM296 146v170q-70 -37 -148 -88q70 -18 148 -82z" />
    <glyph glyph-name="uni099E" unicode="&#x99e;" horiz-adv-x="662" 
d="M625 236v0q19 -49 -8 -104q-15 -27 -49 -48.5t-73 -21.5h-12q-22 3 -40 8v-70h-73v57q-3 13 -10 25t-21 18q-29 11 -73 -15q-52 -32 -112 -27.5t-98 57.5q-23 36 -28 69.5t1 59.5t13.5 41.5t9.5 17.5l60 -41q0 -1 -4.5 -10t-7.5 -23.5t0.5 -33.5t16.5 -40
q20 -27 53 -25.5t58 17.5q75 46 139 20h2l1 -1v236q-39 0 -82 -20q-28 -16 -34 -40q-5 -18 6 -38q16 33 49 33q19 0 33.5 -12.5t18.5 -31.5v0l1 -4v0v-1q1 -7 -1 -21t-12.5 -28.5t-35.5 -22.5q-51 -12 -84 15q-15 9 -27 27v0v0q-3 4 -5 8v0v0q-25 47 -14 94q14 54 69 85
q35 19 70.5 25t87.5 5h33v-33q52 15 93 2q58 -19 75 -80q4 -14 2.5 -36.5t-17.5 -50.5q19 -16 29 -41zM552 165v0q12 26 5 45q-2 6 -6 10q-4 -18 -17.5 -29t-32.5 -11q-27 0 -40.5 22t-8.5 48q3 11 9.5 21.5t16.5 17.5q21 11 44 11q10 10 15.5 22t2.5 25q-3 11 -10.5 18.5
t-14.5 9.5q-15 4 -33 2t-31 -11q-2 -2 -4.5 -5t-3.5 -6v-5v-1v-10v-6v-32v-26v-37v-89q19 -11 48 -14q18 -1 36 9t25 21z" />
    <glyph glyph-name="uni099F" unicode="&#x99f;" horiz-adv-x="447" 
d="M451 402v0h-319v-336q54 0 117 18t91 65q17 35 15 58t-10 34q-14 25 -40 28q-19 2 -34 -5q18 -8 28 -25.5t7 -37.5q-8 -35 -40.5 -46.5t-61.5 7.5q-34 26 -33 66.5t27 71.5q43 46 114 42q63 -8 97 -66q38 -72 -4 -160q-30 -55 -85.5 -81.5t-113.5 -34t-89 -7.5
q-20 0 -24 1l-34 2v406h-62v73h361q0 32 -17 60q-18 26 -57 27q-46 2 -77 -9.5t-47 -24.5t-17 -15l-55 48q1 3 24 22t67 36.5t108 15.5q46 -3 73.5 -21t40.5 -37q31 -50 30 -102h20v-73z" />
    <glyph glyph-name="uni09A0" unicode="&#x9a0;" horiz-adv-x="418" 
d="M168 552v0q12 -42 27 -77h227v-73h-142q58 -57 96 -146q39 -118 -38 -202q-52 -51 -122 -52q-27 0 -55 10q-75 30 -100.5 89.5t-22.5 100.5l2 23l29 12q31 11 53 27t32 53q8 40 -9 85h-155v73h127q-10 26 -19 57q-11 39 -7 69.5t14.5 52t20.5 32.5t11 12l24 -28l24 -27
q-3 -1 -10 -12t-11 -30.5t4 -48.5zM229 351v0q1 -25 -5 -51q-15 -57 -47 -84t-65 -39q2 -24 17.5 -52.5t55.5 -44.5q57 -18 102 25q46 51 21 126q-30 72 -79 120z" />
    <glyph glyph-name="uni09A1" unicode="&#x9a1;" horiz-adv-x="495" 
d="M-6 402v0v73h505v-73h-231v-137q29 14 55 40t44 50l87 -8q8 -38 9 -105.5t-27 -131t-108 -86.5q-31 -8 -61 -8q-78 0 -140 49q-103 87 -96 269l72 -3q-5 -146 70 -210q57 -46 138 -27q52 16 67.5 68.5t11.5 106.5q-49 -56 -122 -80q-15 -3 -29 -3h-9h-34v216h-202z" />
    <glyph glyph-name="uni09A2" unicode="&#x9a2;" horiz-adv-x="449" 
d="M453 402v0h-318v-336q54 0 117.5 17.5t91.5 65.5q16 35 14 58t-9 34q-15 25 -40 28q-21 2 -37 -5q24 -12 31 -37q5 -13 3.5 -28t-9.5 -26q-14 -17 -36 -21.5t-42 3.5q-43 21 -44.5 66.5t26.5 78.5q43 46 114 41q63 -7 97 -65q39 -73 -3 -160q-30 -55 -86 -81.5t-114 -34
t-89 -7.5q-20 0 -23 1l-35 2v406h-64v73h455v-73z" />
    <glyph glyph-name="uni09A3" unicode="&#x9a3;" horiz-adv-x="495" 
d="M345 475v0h163v-73h-83v-402h-73v263q-45 158 -173 141q-26 -5 -47.5 -26t-27.5 -43q-12 -52 16 -92q5 -8 14.5 -15.5t23.5 -8.5q27 -2 42 7q-38 18 -38 55q0 22 15 38.5t38 19.5q35 1 56 -27t18 -61q-5 -43 -34 -73q-34 -33 -88 -33q-7 0 -14 1q-56 5 -92 54
q-47 68 -28 153q11 41 48 77.5t89 45.5q36 6 83 -3.5t92 -49.5v52z" />
    <glyph glyph-name="uni09A4" unicode="&#x9a4;" horiz-adv-x="508" 
d="M517 475v0v-73h-524v73h524zM430 339v0q51 -49 51 -131q0 -84 -55.5 -137t-142.5 -53q-44 0 -91.5 16.5t-86.5 63t-60 133.5l-1 3l-16 106l72 11l16 -105q35 -155 167 -155q57 0 91 32t34 85q0 51 -27 77q-18 15 -38 19t-36 3q-25 -3 -36.5 -21t-11.5 -34q0 -4 1 -8
q19 31 53 31q26 0 44 -17.5t18 -43.5q0 -10 -4 -20v0l-2.5 -6.5t-10 -15t-22 -16t-38.5 -10.5q-32 -2 -55 11t-36 31t-16 30v1v0q-4 15 -5 31q0 46 30 84.5t86 44.5q78 5 128 -40z" />
    <glyph glyph-name="uni09A5" unicode="&#x9a5;" horiz-adv-x="440" 
d="M315 475v0h138v-73h-65v-402h-73v48q-44 45 -120 67.5t-122 23.5l-18 78q23 9 68 31t70 45q20 21 14 56q-6 34 -29 46q-15 7 -33.5 6.5t-33.5 -9.5t-16 -22q0 -6 1 -11q16 26 46 26q21 0 36.5 -15t15.5 -37q0 -37 -37 -51q-37 -15 -76 -5q-33 12 -48 43q-18 39 -6 76
t47 59q67 36 136 6q55 -29 69 -100q11 -72 -34 -120q-25 -23 -60 -44q68 -19 130 -59v264v66v7z" />
    <glyph glyph-name="uni09A6" unicode="&#x9a6;" horiz-adv-x="405" 
d="M-2 402v0v73h413v-73h-287v-160q34 42 87.5 80t128.5 57l38 -55q-2 -3 -16.5 -30.5t-27 -73t-10.5 -102t31 -117.5l-64 -33q-43 91 -39.5 171.5t25.5 138.5q-53 -32 -86.5 -72t-50 -71t-16.5 -35v-1h-73v303h-53z" />
    <glyph glyph-name="uni09A7" unicode="&#x9a7;" horiz-adv-x="411" 
d="M280 475v0h133v-73h-61v-408h-72v38q-29 47 -68 75t-76 41.5t-62 17t-27 3.5l-38 62l87 52l-7 2.5t-17 8.5t-20 15.5t-17 23.5q-14 29 -10.5 61.5t19.5 52.5q22 32 57 48q39 18 86.5 7.5t62.5 -55.5q7 -27 -5 -52q-12 -24 -36 -32t-47 5q-33 19 -28 56q-16 -8 -22 -18v0
l-2 -5.5t-2 -15.5t4 -23q7 -15 26 -21t42 -5q4 1 8 4l46 28l46 28v76v3zM280 146v0v165l-141 -86q68 -18 141 -79z" />
    <glyph glyph-name="uni09A8" unicode="&#x9a8;" horiz-adv-x="431" 
d="M-3 475v0h440v-73h-46v-402h-72v187q0 42 -39.5 70.5t-82.5 28.5t-69.5 -26.5t-26.5 -69.5q0 -39 30 -65q6 -5 13 -8q2 26 20 43.5t43 17.5q23 0 40.5 -15t21.5 -37q7 -34 -13 -62q-25 -29 -62.5 -30.5t-71.5 13.5q-43 19 -68 58t-25 85q0 74 47.5 121.5t120.5 47.5
q64 0 122 -39v82h-322v73z" />
    <glyph glyph-name="uni09AA" unicode="&#x9aa;" horiz-adv-x="536" 
d="M408 396v0v79h130v-73h-58v-402h-72v259q-5 12 -14 29l-204 -163l-45 56l20 16q19 25 18 58q0 11 -4.5 23.5t-17.5 24.5q-15 11 -28.5 13.5t-24.5 -0.5t-18 -7t-9 -5v-1v0l-63 35l18 33q31 61 102.5 93.5t160.5 8.5q67 -24 109 -77zM254 269v0l100 79q-32 40 -76 56
q-40 11 -75 4.5t-60 -24.5q33 -1 70 -31q37 -33 41 -84z" />
    <glyph glyph-name="uni09AB" unicode="&#x9ab;" horiz-adv-x="590" 
d="M593 475v0v-73h-401q35 -29 61 -59l26 -30l-32 -23q-46 -33 -98 -74q77 -13 153 -64v223l35 2q7 1 36.5 0.5t66.5 -6.5t65 -22q33 -22 45.5 -60t4.5 -75q-8 -40 -37 -71.5t-73 -27.5q-28 3 -48 23q-17 21 -15.5 46t18 44.5t42.5 19.5q25 0 42 -17q5 29 -12 50
q-15 16 -40.5 19.5t-48.5 3.5q-4 0 -8 1v-305h-73v38q-18 40 -55.5 63.5t-79 34.5t-71.5 14.5t-32 3.5l-32 60q14 16 45 40.5t64 47.5q16 12 29 22q-28 25 -56.5 46.5t-43.5 31.5h-74v73h597z" />
    <glyph glyph-name="uni09AC" unicode="&#x9ac;" horiz-adv-x="426" 
d="M-10 402v0v73h439v-73h-45v-402h-73v35q-23 43 -73.5 70.5t-103.5 42t-84 14.5l-36 81q45 35 129 81.5t144 77.5h-297zM311 144v0v182q-41 -23 -86.5 -49.5t-80.5 -49.5q85 -24 167 -83z" />
    <glyph glyph-name="uni09AD" unicode="&#x9ad;" horiz-adv-x="500" 
d="M506 475v0v-73h-513v73h513zM460 283v0q1 -10 1 -45t-8 -79t-31 -78q-47 -62 -138 -68h-8q-46 0 -91 19.5t-75 54.5q-37 47 -54 96.5t-21.5 86.5t-4.5 46v1l73 5v0q-1 -5 2.5 -36t17 -72.5t43.5 -79.5q46 -49 115 -48q56 4 82 38q11 16 17 44q-33 -27 -80 -29
q-42 0 -67.5 13.5t-37.5 29.5q-41 49 -29 123q18 68 88 84q64 10 98 -36q24 -37 9 -78l-2 -6q-21 -43 -68 -38q-19 4 -31 17.5t-12 32.5q0 20 13 34q-6 -2 -12 -7.5t-8 -16.5q-8 -40 10 -62q14 -18 48 -17q25 1 45.5 22.5t33.5 46t16 35.5z" />
    <glyph glyph-name="uni09AE" unicode="&#x9ae;" horiz-adv-x="472" 
d="M-3 475v0h478v-73h-50v-402h-73v136q-12 36 -52 63t-95 20q-47 -8 -67 -22.5t-24 -30.5t-4 -25q0 -31 25 -48q9 -6 21 -9q-3 9 -3 19q0 30 21 51t51 21q31 0 49.5 -20.5t23 -49t-7.5 -54.5q-21 -36 -63 -43q-22 -5 -44 -5q-48 0 -88 26q-58 43 -58 112q0 24 10.5 56
t44.5 59t101 39v0h1q-7 38 -27 60.5t-42 33t-32 13.5h-96v73zM352 255v0v147h-129q37 -41 44 -108q48 -11 85 -39z" />
    <glyph glyph-name="uni09AF" unicode="&#x9af;" horiz-adv-x="450" 
d="M413 0v0h-73v18q-36 61 -115.5 87t-146.5 25l-45 81l164 109q-32 26 -71 48t-65 34h-66v73h463v-73h-45v-402zM148 195v0q47 -6 98 -21.5t94 -46.5v275h-132q38 -27 66 -60l31 -37z" />
    <glyph glyph-name="uni09B0" unicode="&#x9b0;" horiz-adv-x="424" 
d="M382 0v0h-73v32q-23 44 -71.5 73.5t-100.5 46.5t-86 23l-32 74q43 36 115.5 78.5t131.5 74.5h-272v73h434v-73h-46v-402zM129 234v0q90 -26 180 -91v197q-91 -52 -180 -106zM97 60v0q0 21 15.5 36t36.5 15t36 -15t15 -36q0 -22 -15 -37t-36 -15t-36.5 15t-15.5 37z" />
    <glyph glyph-name="uni09B2" unicode="&#x9b2;" horiz-adv-x="545" 
d="M-3 475v0h565v-73h-54v-402h-73v230q-1 6 -6.5 19t-16 24.5t-26.5 13.5q-12 2 -24 -9q-13 -14 -19.5 -33t-5.5 -29l-72 -1l-2.5 8.5t-8.5 20t-16.5 22.5t-25.5 16q-21 8 -49 4.5t-47 -40.5q-6 -14 -8.5 -42t6.5 -53q9 -22 30 -30h2q1 -1 2 -1q-9 16 -9 34q0 28 19.5 48
t47.5 20q18 0 34 -9q42 -29 33.5 -76t-45.5 -75q-52 -31 -109 -9q-54 19 -80 69q-31 88 -4 157q26 64 82 82.5t118 -2.5q18 -6 32 -19t25 -26q2 -1 3 -3q8 11 17 20q39 35 84 29q22 -4 39 -14v56h-438v73z" />
    <glyph glyph-name="uni09B6" unicode="&#x9b6;" horiz-adv-x="523" 
d="M403 475v0h123v-73h-50v-402h-73v308q0 55 -36.5 75.5t-71.5 17.5q-18 -1 -36.5 -20.5t-18.5 -56.5q0 -23 8 -41q2 24 18.5 39.5t39.5 15.5q31 0 45.5 -21.5t15 -50t-10.5 -51.5q-7 -12 -19 -19.5t-25 -10.5q-32 -9 -63 1q-14 5 -25 13q-1 1 -4.5 3.5t-7.5 6t-6.5 6.5
l-2.5 3q-40 -45 -99 -35q-22 5 -41.5 19t-28.5 35q-5 16 -5 29.5t3 23.5t6 15l3 5q18 28 50 28q24 0 41.5 -17t17.5 -42q0 -6 -2 -13q19 21 19 58q0 38 -13.5 58t-27.5 20h-129v73h129q48 0 81 -51q42 50 88 50q58 5 108 -39v40z" />
    <glyph glyph-name="uni09B7" unicode="&#x9b7;" horiz-adv-x="454" 
d="M339 19v0q-37 61 -118 85t-148 26l-42 80l164 110q-32 26 -71 48t-64 34h-63v73h459v-73h-44v-402h-73v19zM339 402v0h-131q41 -28 69 -61q28 -18 62 -42v103zM252 271v0l-109 -74q47 -6 99 -22.5t97 -47.5v80q-12 10 -36 27.5t-51 36.5z" />
    <glyph glyph-name="uni09B8" unicode="&#x9b8;" horiz-adv-x="462" 
d="M424 0v0h-73v214q-12 33 -26 47.5t-22 14.5q-7 0 -13 -6.5t-8 -11.5q-7 -12 -19.5 -36t-25.5 -54q-39 -91 -105 -91q-40 0 -66.5 14.5t-41.5 30.5l45 59q5 -7 20 -19t43 -12q17 0 38 47q1 1 1 3q1 1 1 2q2 65 -15 104.5t-42 60t-46.5 28t-28.5 7.5h-44v73h471v-73h-43
v-402zM310 349v0q22 -3 41 -15v68h-169q32 -34 50 -89q32 39 78 36z" />
    <glyph glyph-name="uni09B9" unicode="&#x9b9;" horiz-adv-x="390" 
d="M394 475v0v-73h-169l16 -2q83 -20 108 -99q21 -82 -32 -140q-45 -40 -122 -50l206 -100l-32 -66l-349 166l13 72q63 -10 133.5 -2.5t98.5 31.5q12 12 16 31t-2 37q-3 14 -17.5 30.5t-39.5 22.5q-83 13 -108 -21q-4 -6 -5.5 -13t-0.5 -11q0 -3 1 -6q18 28 49 28
q19 0 34 -11.5t20 -29.5q8 -43 -25 -60.5t-69 -11.5q-22 3 -40 16q-38 28 -42.5 73.5t29.5 79.5q32 28 83 36h-150v73h396z" />
    <glyph glyph-name="uni09DC" unicode="&#x9dc;" horiz-adv-x="495" 
d="M-6 402v0v73h505v-73h-231v-137q29 14 55 40t44 50l87 -8q8 -38 9 -105.5t-27 -131t-108 -86.5q-31 -8 -61 -8q-78 0 -140 49q-103 87 -96 269l72 -3q-5 -146 70 -210q57 -46 138 -27q52 16 67.5 68.5t11.5 106.5q-49 -56 -122 -80q-15 -3 -29 -3h-9h-34v216h-202z
M209 -63v0q0 21 15 36t36 15q22 0 37 -15t15 -36t-15 -36.5t-37 -15.5q-21 0 -36 15.5t-15 36.5z" />
    <glyph glyph-name="uni09DD" unicode="&#x9dd;" horiz-adv-x="448" 
d="M453 402v0h-318v-336q54 0 117.5 17.5t91.5 65.5q16 35 14 58t-9 34q-15 25 -40 28q-21 2 -37 -5q24 -12 31 -37q5 -13 3.5 -28t-9.5 -26q-14 -17 -36 -21.5t-42 3.5q-43 21 -44.5 66.5t26.5 78.5q43 46 114 41q63 -7 97 -65q39 -73 -3 -160q-30 -55 -86 -81.5t-114 -34
t-89 -7.5q-20 0 -23 1l-35 2v406h-64v73h455v-73zM151 -81v0q0 22 15 37t37 15q21 0 36 -15t15 -37q0 -21 -15 -36t-36 -15q-22 0 -37 15t-15 36z" />
    <glyph glyph-name="uni09DF" unicode="&#x9df;" horiz-adv-x="452" 
d="M413 0v0h-73v18q-36 61 -115.5 87t-146.5 25l-45 81l164 109q-32 26 -71 48t-65 34h-66v73h463v-73h-45v-402zM148 195v0q47 -6 98 -21.5t94 -46.5v275h-132q38 -27 66 -60l31 -37zM147 30v0q0 21 15.5 36t36.5 15t36 -15t15 -36q0 -22 -15 -37t-36 -15t-36.5 15
t-15.5 37z" />
    <glyph glyph-name="uni09F1" unicode="&#x9f1;" horiz-adv-x="426" 
d="M-10 402v0v73h439v-73h-45v-402h-73v35q-23 43 -73.5 70.5t-103.5 42t-84 14.5l-36 81q45 35 129 81.5t144 77.5h-297zM311 144v0v182q-41 -23 -86.5 -49.5t-80.5 -49.5q85 -24 167 -83zM77 132q141 -31 187 -89v-103q-71 94 -187 110v82z" />
    <glyph glyph-name="uni09F0" unicode="&#x9f0;" horiz-adv-x="424" 
d="M166 241l-22 -14q85 -24 167 -83v26q-59 57 -145 71zM311 266v60q-26 -15 -54 -31q32 -13 54 -29zM-10 402v73h439v-73h-45v-402h-73v35q-23 43 -73.5 70.5t-103.5 42t-84 14.5l-36 81q45 35 129 81.5t144 77.5h-297z" />
    <glyph glyph-name="uni09BC" unicode="&#x9bc;" 
d="M-374 -107v0q0 21 15 36t37 15q21 0 36 -15t15 -36t-15 -36.5t-36 -15.5q-22 0 -37 15.5t-15 36.5z" />
    <glyph glyph-name="uni09BE" unicode="&#x9be;" horiz-adv-x="165" 
d="M-3 475h171v-73h-56v-402h-72v402h-43v73z" />
    <glyph glyph-name="uni09BF" unicode="&#x9bf;" horiz-adv-x="152" 
d="M92 683v0q50 26 146 15.5t249 -96.5l-16 -74q-156 89 -240 97t-109 -8q-32 -15 -46.5 -37.5t-18.5 -37.5l33 -67h65v-73h-51v-400h-72v400h-72v73h49l-28 57l1 12q0 3 8.5 28.5t32 57.5t69.5 53z" />
    <glyph glyph-name="uni09C0" unicode="&#x9c0;" horiz-adv-x="166" 
d="M40 475q2 12 4 27q5 38 -4 70q-51 132 -303 65q-27 -9 -38 -17t-12 -12q4 -8 33.5 -16t86.5 2q38 7 74.5 -1t53.5 -72q7 -26 7 -46h98zM-131 476q0 6 -1 12q-3 20 -12 30q-10 9 -34 4q-79 -15 -136 3.5t-70 64.5q-4 10 -1.5 30.5t24 44t75.5 42.5q197 48 283.5 8
t111.5 -119q11 -35 10 -73q-1 -26 -4 -48h56v-73h-58v-404h-74v404h-170v74z" />
    <glyph glyph-name="uni09C1" unicode="&#x9c1;" 
d="M-97 -111v0q26 6 31 35q-29 13 -46 9q-22 -5 -17 -27q5 -23 32 -17zM9 24v-57q85 -39 102 -107l-44 -40q-25 56 -73 83q-33 -65 -80 -75q-44 -10 -75 12q-30 22 -40 67q-7 30 15 55q19 22 51 30q34 7 72 -2v34h72z" />
    <glyph glyph-name="uni09C2" unicode="&#x9c2;" 
d="M-44 -37q-17 -6 -37.5 -19.5t-20.5 -29.5q0 -13 11 -18q8 -4 21.5 -2t26.5 11q15 12 23.5 26t11.5 24t3 11l1 4l65 11l121 -145l-56 -47l-84 102q-15 -24 -42 -45q-60 -41 -122 -16q-48 24 -53 79q0 51 37 82q11 9 22 17v59h72v-104z" />
    <glyph glyph-name="uni09C3" unicode="&#x9c3;" 
d="M-50 -42l-92 -59l166 -67l-27 -67l-227 91l-13 65l121 78v54h72v-95z" />
    <glyph glyph-name="uni09C7" unicode="&#x9c7;" horiz-adv-x="204" 
d="M197 402q-20 -15 -53.5 -58t-49.5 -111q-20 -127 39 -196q11 -11 24 -18v1l-1 1q0 28 20 48t48 20q30 0 48 -20t20 -48q1 -13 -3 -26q-13 -38 -49.5 -52.5t-73.5 -5.5q-2 1 -5 1q-52 15 -87 56q-29 36 -43 80q-26 85 -8 173q15 70 47 119q13 20 25 36h-97v73h296v-73h-97
z" />
    <glyph glyph-name="bn_ekaar.init" horiz-adv-x="204" 
d="M292 21v0q1 -13 -3 -26q-13 -38 -49.5 -52.5t-73.5 -5.5q-2 1 -5 1q-52 15 -87 56q-29 36 -43 80q-26 85 -8 173q15 70 47 119t60.5 75t32.5 27l9 7h122v-73h-97q-20 -15 -53.5 -58t-49.5 -111q-20 -127 39 -196q11 -11 24 -18v1l-1 1q0 28 20 48t48 20q30 0 48 -20
t20 -48z" />
    <glyph glyph-name="uni09C8" unicode="&#x9c8;" horiz-adv-x="200" 
d="M193 -68q-23 0 -55.5 12.5t-61.5 42.5q-64 72 -64 191q0 37 7 69q23 97 71 153t66 66q23 23 23 56q0 12 -5.5 18.5t-29.5 6.5q-17 0 -37.5 -4t-44.5 -4q-8 0 -28 1t-45 27q-24 31 -24 63q0 38 19 68l62 -38l-2 -5q-3 -5 -4.5 -12t-1.5 -14q0 -18 22 -18q16 0 37.5 4
t44.5 4q87 0 107 -70q3 -13 3 -27q0 -23 -8 -47h63v-73h-114q-20 -15 -53 -58q-55 -70 -55 -172q0 -83 44 -135q10 -11 23 -17v1q0 28 20 48t48 20q21 0 40 -13q27 -22 27 -60l-1 -17q-12 -44 -55 -60q-19 -7 -38 -7zM239 402h-243v73h243v-73z" />
    <glyph glyph-name="bn_aikaar.init" horiz-adv-x="200" 
d="M287 25v0q1 -13 -1 -26q-12 -44 -55 -60q-41 -14 -83.5 2t-71.5 46q-48 54 -59 127t2 133q23 97 71 153t66 66q13 13 19 32t3 34q-1 4 -4 7.5t-10 5.5q-24 4 -56 -2q-30 -6 -62 -4t-57 28q-28 35 -24 71.5t19 59.5l31 -19l31 -19l-2.5 -5t-4 -12t-1.5 -14.5t5 -13.5
q6 -5 22.5 -4t32.5 4q40 8 83 1q53 -15 68 -67q8 -35 -5 -74h61v-73h-112q-20 -15 -53.5 -58t-49.5 -111q-20 -127 39 -196q10 -11 23 -17v0v1q0 28 20 48t48 20q21 0 40 -13q25 -20 27 -51z" />
    <glyph glyph-name="uni09CB" unicode="&#x9cb;" horiz-adv-x="647" 
d="M197 402q-20 -15 -53.5 -58t-49.5 -111q-20 -127 39 -196q11 -11 24 -18v1l-1 1q0 28 20 48t48 20q30 0 48 -20t20 -48q1 -13 -3 -26q-13 -38 -49.5 -52.5t-73.5 -5.5q-2 1 -5 1q-52 15 -87 56q-29 36 -43 80q-26 85 -8 173q15 70 47 119q13 20 25 36h-97v73h281v-73h-82
zM578 475h181v-73h-56v-402h-72v402h-53v73zM350 128l-35 -35l-51 51l35 35q9 -16 22 -29t29 -22zM290 201h-50v73h50q-5 -17 -5 -37q0 -19 5 -36zM299 296l-35 35l51 51l35 -35q-16 -9 -29 -22t-22 -29zM372 356v50h73v-50q-17 5 -36 5q-20 0 -37 -5zM467 347l35 35l51 -51
l-35 -36q-8 16 -22 30q-13 13 -29 22zM527 274h50v-73h-50q5 17 5 36q0 20 -5 37zM518 179l35 -35l-51 -51l-35 35q16 9 29 22q14 14 22 29zM445 119v-50h-73v50q17 -5 37 -5q19 0 36 5z" />
    <glyph glyph-name="uni09CC" unicode="&#x9cc;" horiz-adv-x="800" 
d="M197 402q-20 -15 -53.5 -58t-49.5 -111q-20 -127 39 -196q11 -11 24 -18v1l-1 1q0 28 20 48t48 20q30 0 48 -20t20 -48q1 -13 -3 -26q-13 -38 -49.5 -52.5t-73.5 -5.5q-2 1 -5 1q-52 15 -87 56q-29 36 -43 80q-26 85 -8 173q15 70 47 119q13 20 25 36h-97v73h281v-73h-82
zM350 128l-35 -35l-51 51l35 35q9 -16 22 -29t29 -22zM290 201h-50v73h50q-5 -17 -5 -37q0 -19 5 -36zM299 296l-35 35l51 51l35 -35q-16 -9 -29 -22t-22 -29zM372 356v50h73v-50q-17 5 -36 5q-20 0 -37 -5zM467 347l35 35l51 -51l-35 -36q-8 16 -22 30q-13 13 -29 22z
M527 274h50v-73h-50q5 17 5 36q0 20 -5 37zM518 179l35 -35l-51 -51l-35 35q16 9 29 22q14 14 22 29zM445 119v-50h-73v50q17 -5 37 -5q19 0 36 5zM813 475v0v-73h-59v-399h-73v399h-67v73h70q4 19 2 28.5t-4 12.5q-14 18 -44 27t-52 12q-55 13 -73.5 50t-12.5 70l36 -6
l36 -5q-4 -31 27 -37q31 -4 74.5 -19t69.5 -54q21 -34 15 -79h55z" />
    <glyph glyph-name="uni09CD" unicode="&#x9cd;" 
d="M120 -137l-49 -53l-136 125l49 53z" />
    <glyph glyph-name="uni09CE" unicode="&#x9ce;" horiz-adv-x="335" 
d="M169 226h1q56 -38 94 -99.5t0 -148.5l-67 33q16 27 8 63t-80 92q-145 114 -80 239q27 44 71.5 60t86.5 10q85 -15 104 -82q17 -77 -42 -127q-25 -17 -56 -12q-27 2 -46 18t-19 44q0 25 17.5 43t42.5 18q19 0 32 -9q0 2 -1 7q-7 19 -43 25q-22 4 -45.5 -3.5t-36.5 -28.5
q-22 -45 3.5 -83t55.5 -59z" />
    <glyph glyph-name="uni09D7" unicode="&#x9d7;" horiz-adv-x="159" 
d="M166 475v0v-73h-59v-399h-73v399h-38v73h41q4 19 2 28.5t-4 11.5q-14 19 -44 28t-52 12q-55 12 -73.5 49.5t-12.5 70.5l36 -6l36 -5q-4 -32 27 -37q32 -5 75 -20t70 -53q20 -34 14 -79h55z" />
    <glyph glyph-name="uni09E6" unicode="&#x9e6;" horiz-adv-x="428" 
d="M255 451v0q78 -16 120.5 -83t29.5 -153q-16 -83 -79 -133q-53 -40 -113 -40q-15 0 -31 3q-77 15 -122 85q-42 68 -28 151q18 86 80.5 134t142.5 36zM333 228v0q9 55 -17 98t-74 53q-9 2 -18 2q-42 0 -76 -31.5t-44 -81.5q-9 -55 18 -100q27 -42 73 -51q46 -8 86 23
q41 33 52 88z" />
    <glyph glyph-name="uni09E7" unicode="&#x9e7;" horiz-adv-x="420" 
d="M143 451v0q36 -13 94.5 -51t105.5 -96t48 -131q-6 -98 -96 -141q-43 -19 -89 -19q-73 -2 -128 38q-42 37 -45 85.5t23 82.5q4 5 9 10q50 43 114 24q33 -10 51 -39t12 -62q-16 -44 -58 -44q-24 0 -41.5 17.5t-17.5 42.5q0 5 1 10q-7 -5 -9 -8q-8 -10 -9 -28t17 -35
q27 -21 66 -22.5t74 13.5q18 8 34.5 26t18.5 51q-1 49 -39 92.5t-85.5 74t-77.5 41.5q-47 21 -59 56t-3 62l70 -22v0q-2 -9 1.5 -15t9 -9t8.5 -4z" />
    <glyph glyph-name="uni09E8" unicode="&#x9e8;" horiz-adv-x="389" 
d="M258 234v0q18 12 18 37q0 43 -35 62.5t-89 32.5q-34 8 -56 19q-42 24 -50 58.5t-1 56.5l70 -20v0q-2 -6 0 -15t14 -16q6 -3 17.5 -6t23.5 -7q35 -8 76.5 -24.5t72 -49t30.5 -91.5t-48 -96q-45 -31 -111 -36l259 -160l-38 -62l-384 237l-5 81l20 -6q65 -19 125 -17.5
t91 22.5z" />
    <glyph glyph-name="uni09E9" unicode="&#x9e9;" horiz-adv-x="548" 
d="M516 329v0q27 -136 -48 -224q-19 -21 -53 -38.5t-85 -18.5q-20 0 -42 3q-75 14 -125.5 62.5t-80 106.5t-42.5 101t-12 46l71 15q0 -3 11 -38.5t34.5 -83.5t62 -87t93.5 -50q74 -11 114 32q51 59 31 158q-12 43 -39.5 61.5t-54.5 18.5q-18 1 -35.5 -7t-23.5 -28
q-7 -31 3 -47q1 26 19 43.5t43 17.5q30 0 45.5 -19.5t15 -45.5t-16.5 -47q-24 -28 -61 -35q-42 -7 -78 15q-26 19 -39 55.5t-1 82.5q30 87 131 88q51 -1 98 -34.5t65 -102.5z" />
    <glyph glyph-name="uni09EA" unicode="&#x9ea;" horiz-adv-x="400" 
d="M39 134v0q16 63 82 102q-49 27 -70 70q-25 51 -3 101q22 45 70 69.5t99 17.5v0q47 -8 79 -30q60 -45 61 -104q1 -20 -12 -46.5t-51 -53.5l-10 -8q87 -50 91 -132q-3 -91 -108 -120q-34 -9 -66 -9q-80 1 -129 47q-43 44 -33 96zM116 338v0q19 -37 82 -55q25 16 55 36
q9 7 19.5 18t11.5 24q-1 21 -31 44q-18 12 -48 18h-10q-24 0 -47.5 -13t-33.5 -33q-8 -19 2 -39zM110 119v0q-3 -14 12 -28q16 -16 48 -23.5t80 2.5q51 14 52 49q0 24 -23.5 48t-68.5 38q-2 -1 -5 -3q-1 -1 -3 -2q-44 -26 -66 -43.5t-26 -37.5z" />
    <glyph glyph-name="uni09EB" unicode="&#x9eb;" horiz-adv-x="398" 
d="M149 35v0q-58 20 -94.5 71t-36.5 113q2 78 26.5 141.5t49.5 101.5t29 42l28 -23l28 -23q0 -1 -10 -15q3 -12 11 -26t22 -21q22 -10 59 6q14 21 16 23l56 -46q-1 -1 -14.5 -21t-30.5 -53.5t-29 -74.5q-1 -6 -1 -10t1 -6t2 -2q10 -11 35.5 -15.5t46.5 -3.5l4 1l31 -53
l-3 -5q-47 -65 -93.5 -86.5t-82.5 -21.5q-31 0 -50 7zM126 368v0q-32 -64 -35 -149q0 -38 22.5 -70t57.5 -44q50 -16 99 23q-38 8 -65 37q-11 12 -17 32.5t1 50.5q10 39 25 71q-24 2 -45 12q-27 15 -43 37z" />
    <glyph glyph-name="uni09EC" unicode="&#x9ec;" horiz-adv-x="472" 
d="M99 86v0q-43 64 -56 132t-15 125l-1 4l73 5v-4q2 -50 13 -109t45 -110q11 -15 35 -27.5t56 -14.5q19 -1 42.5 6t44.5 29q17 21 25 57.5t9 77.5q-33 -28 -65 -47.5t-48 -27.5l-61 37v199q1 3 0 8.5t-5.5 12t-14.5 9.5l24 69q43 -17 57 -49t12 -54v-141q31 19 57.5 42
t37.5 46l77 -31q5 -50 -2 -126t-48 -130q-55 -60 -136 -60q-5 0 -9 1q-97 7 -147 71z" />
    <glyph glyph-name="uni09ED" unicode="&#x9ed;" horiz-adv-x="380" 
d="M321 -22v0q-3 1 -13 14.5t-20 39.5t-10 67v73q-13 1 -32 -1t-34 -3q-65 -11 -110 1q-50 20 -64 82q-15 87 62 159q87 80 162 66q29 -6 47.5 -20.5t27.5 -28t10 -16.5l4 -8v-304q0 -24 4.5 -38.5t9 -21.5t5.5 -7l-1 1zM204 240v0q41 5 74 5v139q-4 6 -11.5 12t-19.5 9h-8
q-36 0 -90 -48q-32 -31 -37.5 -56t-1.5 -36q2 -12 7.5 -19t9.5 -8q10 -3 33 -1.5t44 3.5z" />
    <glyph glyph-name="uni09EE" unicode="&#x9ee;" horiz-adv-x="463" 
d="M343 325v0q-39 0 -47 -16q0 -1 -1 -2q46 -22 59 -78q13 -82 -63 -149q-74 -63 -139 -63q-12 0 -24 3q-28 6 -46 19.5t-27 25.5t-10 16l-4 8v282q0 21 -4.5 34t-9 19t-4.5 7l1 -1l45 57q3 -2 13.5 -14.5t20.5 -37.5t10 -64v-65q14 0 32.5 1.5t34.5 2.5q21 3 42 4
q2 17 12 32q35 54 112 52q14 0 20 3t8 5q7 7 9.5 16t2.5 14l72 -1q0 -2 -1.5 -16t-8.5 -31.5t-24 -34.5q-10 -11 -30 -19.5t-51 -8.5zM244 136v0q30 27 35.5 48.5t2.5 30.5q-2 11 -7 17t-9 8q-11 3 -34 1.5t-45 -3.5q-41 -5 -74 -4v-125q4 -5 11.5 -10.5t18.5 -7.5
q40 -7 101 45z" />
    <glyph glyph-name="uni09EF" unicode="&#x9ef;" horiz-adv-x="427" 
d="M388 125v0q30 61 11 120q-27 75 -127 125q-58 28 -84 46.5t-31.5 32t-1.5 25.5l-71 17q-14 -67 32 -109t124 -78q73 -36 89 -82q11 -31 -6 -64q-18 -28 -63 -46q7 39 -2 74q-16 58 -69 79q-54 19 -104 -8q-41 -26 -54.5 -72t15.5 -87q13 -17 34.5 -28.5t43.5 -8.5
q20 4 33 19t13 35q0 23 -16 39.5t-39 16.5q-7 0 -13 -2q7 17 20 25q19 10 41 3q3 -1 7.5 -3.5t9.5 -9t8 -17.5q5 -21 -1 -46t-21 -44l-14 -18l53 -40q15 2 51 13.5t74 34t58 58.5z" />
    <glyph glyph-name="uni09F3" unicode="&#x9f3;" horiz-adv-x="365" 
d="M66 460v0q-13 6 -31 3t-28 -7l-28 68q4 2 23 7t45 5.5t52 -11.5q15 -7 30 -24t23 -49q9 -47 -2 -110h37v-73h-51l-12 -46q-11 -46 -18 -84q-4 -20 -3 -32t3 -18t4 -7q12 -10 49 -4q52 9 84 37t30 60q-2 9 -8 15q-1 -21 -16 -36t-36 -15q-30 0 -46 24t-6 53
q14 35 44.5 48.5t65.5 5.5q33 -9 50 -34.5t20 -53.5q5 -64 -43.5 -112.5t-126.5 -63.5q-19 -3 -36 -3q-49 0 -77 28q-39 39 -24 121q8 40 20 88q3 14 7 29h-68v73h83q11 58 5 94q-3 12 -7 17t-8 7z" />
    <glyph glyph-name="uni0964" unicode="&#x964;" horiz-adv-x="212" 
d="M183 442v-422h-72v422h72z" />
    <glyph glyph-name="uni0965" unicode="&#x965;" horiz-adv-x="445" 
d="M251 37v0q0 -8 -5.5 -10.5t-11.5 0t-6 10.5v7q-1 0 -2 1q-5 -2 -9 0q-5 -2 -9 0q-5 -2 -10 0q-4 -2 -9 0q-5 -2 -10.5 0.5t-5.5 9.5v374q0 7 5.5 9.5t10.5 0.5q5 2 9 0q5 2 10 0q4 2 9 0q4 2 9 0q4 2 9 0q5 2 10.5 -0.5t5.5 -9.5v-18v-356v-18zM389 37v0q0 -8 -6 -10.5
t-11.5 0t-5.5 10.5v7q-1 0 -2 1q-5 -2 -9 0q-5 -2 -10 0q-4 -2 -9 0q-4 -2 -9 0q-5 -2 -10.5 0.5t-5.5 9.5v374q0 7 5.5 9.5t10.5 0.5q5 2 9 0q5 2 9 0q5 2 10 0q4 2 9 0q4 2 9 0q5 2 10.5 -0.5t5.5 -9.5v-18v-356v-18z" />
    <glyph glyph-name="bn_k_ka" horiz-adv-x="526" 
d="M229 108q29 -13 65 -37v65q-28 -11 -65 -28zM363 263v-322h-69v31q-24 40 -56.5 61t-59.5 29t-36 8l-5 -1l-31 57l187 99v40zM286 320l2 -2l-145 -79q75 -18 143 -58v139zM362 196q106 -7 130 -93q10 -45 -17 -83q-10 -12 -23 -22q-16 -9 -40 -7t-36 18q-10 11 -10 25
q0 17 13.5 29t32.5 12q9 0 21 -4q1 11 0 21q-12 44 -71 40v64zM363 398q55 -3 90.5 -31t45.5 -69q10 -43 -18 -79q-10 -13 -24 -22q-16 -8 -40 -6t-35 16q-11 10 -11 24q0 17 13.5 28.5t32.5 11.5q10 0 21 -4q2 11 0 20q-12 42 -75 38v73zM363 73l-53 20q2 4 2 10
q0 13 -8 27t-26 3q-13 0 -23 -8l-7 -7l-32 13q-41 26 -78 33q-40 7 -61 7q-8 1 -10 1l-46 96l263 134h-290v73h536v-73h-167v-329z" />
    <glyph glyph-name="bn_k_tta" horiz-adv-x="575" 
d="M580 402v0h-260v-4h2.5t6.5 -0.5t7 -0.5h4q32 -2 67 -13t50 -43q12 -29 3 -59q-7 -19 -23 -33q-7 -7 -18 -10.5t-21 -3.5q-18 0 -31.5 13.5t-13.5 31.5q0 26 25 40q-27 8 -58 6v-266q26 1 55 3t49 8q27 9 35.5 24t7.5 24q1 12 -4 22t-14 13l-4 2h-1q4 -9 4 -20
q0 -23 -18 -37.5t-42 -11.5q-25 4 -39 25q-17 28 -5 59t39 47q42 24 94 4q63 -30 63 -107q-8 -84 -95 -114q-32 -9 -73.5 -11.5t-67.5 -2.5h-22l-35 1v106q-28 32 -87.5 59.5t-113.5 43.5l-21 73q32 20 101.5 55t120.5 60v17h-254v73h492q1 36 -21 65q-34 40 -100 35
q-49 -5 -89.5 -23t-65.5 -35.5t-26 -18.5l-47 55q3 4 33 24.5t79 42.5t110 28q104 7 162 -63q38 -48 38 -110h22v-73zM247 188v0v115q-66 -32 -117 -58q59 -21 117 -57z" />
    <glyph glyph-name="bn_k_tt_ra" horiz-adv-x="576" 
d="M580 402v0h-260v-4h2.5t6.5 -0.5t7 -0.5h4q32 -2 67 -13t50 -43q12 -29 3 -59q-7 -19 -23 -33q-7 -7 -18 -10.5t-21 -3.5q-18 0 -31.5 13.5t-13.5 31.5q0 26 25 40q-27 8 -58 6v-266q26 1 55 3t49 8q27 9 35.5 24t7.5 24q1 12 -4 22t-14 13l-4 2h-1q4 -9 4 -20
q0 -23 -18 -37.5t-42 -11.5q-25 4 -39 25q-17 28 -5 59t39 47q42 24 94 4q63 -30 63 -107q-8 -84 -95 -114q-32 -9 -73.5 -11.5t-67.5 -2.5h-22l-35 1v106q-28 32 -87.5 59.5t-113.5 43.5l-21 73q32 20 101.5 55t120.5 60v17h-254v73h492q1 36 -21 65q-34 40 -100 35
q-49 -5 -89.5 -23t-65.5 -35.5t-26 -18.5l-47 55q3 4 33 24.5t79 42.5t110 28q104 7 162 -63q38 -48 38 -110h22v-73zM247 188v0v115q-66 -32 -117 -58q59 -21 117 -57zM453 17v-164h-71h-1l-1 1l-2 4q-5 5 -11 11.5t-10.5 11.5t-5.5 5q-19 19 -47 17t-51 -12
q-57 -24 -117 -6q-38 14 -68.5 48.5t-30.5 74.5h1q1 0 2 1q2 0 5 2l17.5 7.5l21 9l17.5 7.5q3 1 4 2l2 1l1 1q-1 -38 24.5 -62.5t62.5 -25.5q28 2 53 12q20 7 41 11q50 2 90 -30v73h74z" />
    <glyph glyph-name="bn_k_ta" horiz-adv-x="607" 
d="M0 402v0v73h611v-73h-611zM557 196v0q12 -14 19 -32q7 -21 -3 -47t-31 -34q-16 -7 -35 -3q-21 7 -32 25t-5 40q3 11 9 19q-10 5 -22 6q-12 0 -24 -3q7 -11 12 -23q20 -55 -14 -113q-21 -33 -64.5 -54.5t-88.5 -22.5q-8 0 -15 1q-35 1 -87.5 25.5t-97.5 93t-57 200.5l72 5
q20 -234 177 -252q30 -2 59 12t39 29q17 28 9 50q-7 17 -24 23q-11 3 -21 4q3 -8 3 -17q0 -23 -16.5 -39t-39.5 -16t-39 16t-16 39t15.5 41.5t34.5 29.5q22 13 48 20h1q13 11 23 27t7 32q-4 15 -16.5 25.5t-25.5 14.5q-23 5 -44.5 3t-35.5 -11q-12 -8 -13 -20v-2
q12 12 30 12q12 0 22 -6q17 -10 22.5 -30.5t-5.5 -37.5q-12 -16 -33 -22t-41 -4q-20 1 -36 13q-17 13 -24 34q-26 75 38 124q32 20 69.5 22.5t67.5 -5.5q31 -7 59 -31t37 -63q6 -20 -2 -55q19 4 40 3q56 -4 95 -46z" />
    <glyph glyph-name="bn_k_t_ba" horiz-adv-x="610" 
d="M-3 402v0v73h616v-73h-616zM553 196v0q12 -14 19 -32q7 -21 -3 -47t-31 -34q-16 -7 -35 -3q-21 7 -31.5 25t-5.5 40q3 11 9 19q-10 5 -21 6q-13 0 -25 -3q8 -11 12 -23q20 -55 -14 -113q-7 -11 -17 -21v-246h-55v19q-19 32 -45 48.5t-51 23t-42 7l-17 0.5l-26 51l78 42
q-37 4 -87.5 30t-93 93.5t-54.5 195.5l73 5q19 -234 176 -252q30 -2 59 12t39 29q17 28 9 50q-7 17 -24 23q-11 3 -20 4q2 -8 2 -17q0 -23 -16 -39t-40 -16q-23 0 -39 16t-16 39t15.5 41.5t34.5 29.5q22 13 48 20h1q13 11 23 27t7 32q-3 15 -15.5 25.5t-26.5 14.5
q-23 5 -44.5 3t-35.5 -11q-11 -8 -13 -20v-2q12 12 30 12q12 0 22 -6q17 -10 23 -30.5t-5 -37.5q-13 -16 -34 -22t-41 -4q-20 1 -36 13q-16 13 -24 34q-26 75 38 124q33 20 70 22.5t67 -5.5q31 -7 59 -31t38 -63q6 -20 -3 -55q19 4 40 3q57 -4 95 -46zM355 -130v0v76
l-69 -40q35 -5 69 -36z" />
    <glyph glyph-name="bn_k_t_ra" horiz-adv-x="596" 
d="M-5 402v0v73h605v-73h-605zM546 196v0q13 -14 19 -32q7 -21 -2.5 -47t-31.5 -34q-16 -7 -34 -3q-22 7 -32.5 25t-5.5 40q3 11 10 19q-10 5 -22 6q-13 0 -24 -3q7 -11 11 -23q13 -34 3 -72v-259h-71l-4.5 5t-10.5 11.5t-11 11.5l-5 5q-20 19 -47.5 17t-50.5 -11
q-58 -25 -117 -6q-38 14 -68.5 48t-30.5 75l7 3t18 7.5t21.5 9l17.5 7.5l7 3q-1 -38 24.5 -62t62.5 -25q27 1 53 11q20 8 41 11q50 3 90 -30v76q-46 -25 -96 -26q-7 0 -15 1q-35 1 -87.5 25.5t-97.5 93t-57 200.5l73 5q19 -234 177 -252q29 -2 58.5 12t38.5 29q17 28 9 50
q-6 17 -24 23q-11 3 -20 4q3 -8 3 -17q0 -23 -16.5 -39t-39.5 -16t-39.5 16t-16.5 39t15.5 41.5t34.5 29.5q23 13 48 20h1q13 11 23 27t8 32q-4 15 -16.5 25.5t-26.5 14.5q-22 5 -43.5 3t-35.5 -11q-12 -8 -14 -20v-2q13 12 30 12q12 0 23 -6q16 -10 22 -30.5t-5 -37.5
q-13 -16 -34 -22t-40 -4q-21 1 -37 13q-16 13 -24 34q-25 75 38 124q33 20 70 22.5t68 -5.5q31 -7 58.5 -31t37.5 -63q6 -20 -3 -55q20 4 40 3q57 -4 95 -46z" />
    <glyph glyph-name="bn_k_na" horiz-adv-x="530" 
d="M353 388v0q124 -9 151 -117q11 -55 -20 -103q-11 -16 -27 -27q-18 -12 -45.5 -9t-41.5 22q-11 14 -11 32q0 22 15.5 37.5t37.5 15.5q11 0 21 -4q2 11 0 22q-13 53 -80 59v-181v-147v-94h-72v88q-12 15 -34 33.5t-53 24.5q-75 13 -95 -34q-3 -6 -3 -17q22 25 56 25
q30 0 51 -20.5t21 -49.5q0 -28 -19 -47.5t-47 -22.5v0h-7q-48 1 -73.5 18t-34.5 32q-18 29 -19.5 59t8.5 53q6 16 24.5 37t54.5 34.5t94 4.5q-47 35 -86 47.5t-51 13.5l-7 -1l-37 76l257 146v8h-285v73h285h72h179v-73h-179v-14zM281 301v0l-129 -76q61 -21 129 -81v157z
" />
    <glyph glyph-name="bn_k_ba" horiz-adv-x="528" 
d="M229 108q29 -13 65 -37v65q-28 -11 -65 -28zM363 263v-322h-69v31q-24 40 -56.5 61t-59.5 29t-36 8l-5 -1l-31 57l187 99v40zM286 320l2 -2l-145 -79q75 -18 143 -58v139zM363 398q55 -3 90.5 -31t45.5 -69q10 -43 -18 -79q-10 -13 -24 -22q-16 -8 -40 -6t-35 16
q-11 10 -11 24q0 17 13.5 28.5t32.5 11.5q10 0 21 -4q2 11 0 20q-12 42 -75 38v73zM363 73l-53 20q2 4 2 10q0 13 -8 27t-26 3q-13 0 -23 -8l-7 -7l-32 13q-41 26 -78 33q-40 7 -61 7q-8 1 -10 1l-46 96l263 134h-290v73h536v-73h-167v-329z" />
    <glyph glyph-name="bn_k_ma" horiz-adv-x="649" 
d="M513 475v0h73h65v-73h-65v-508h-73v88q-11 15 -33 33.5t-54 24.5q-74 13 -94 -34q-3 -6 -3 -17q22 25 55 25q30 0 51.5 -20.5t21.5 -49.5q0 -28 -19 -47.5t-47 -22.5v0h-8q-47 1 -72.5 18t-34.5 32q-19 29 -20 59t9 53q1 3 4 8q-37 52 -80 79.5t-77.5 38t-44.5 11.5
l-7 -1l-37 76l257 146v8h-284v73h284h72h161zM151 225v0q61 -21 129 -81v157zM513 81v0v321h-161v-14q124 -9 151 -117q11 -55 -20 -103q-11 -16 -27 -27q-18 -12 -45.5 -9t-41.5 22q-11 14 -11 32q0 22 15.5 37.5t37.5 15.5q11 0 21 -4q2 11 0 22q-13 53 -80 59v-206
q34 10 86 2q44 -8 75 -31z" />
    <glyph glyph-name="bn_k_ra" horiz-adv-x="633" 
d="M-3 402v0v73h641v-73h-641zM510 294v0q43 0 70 -31q28 -30 28 -73q0 -21 -6 -36.5t-16 -27.5q-12 -16 -34 -24.5t-46 -8.5h-2h-9h-1h-1q-22 0 -37.5 16t-15.5 38t15.5 38t37.5 16t37 -15q2 3 2 8q0 30 -34 30q-23 0 -52 -19q-5 -3 -23 -17v-64v-15v-130h-72v8
q-4 35 -13 45.5t-24.5 14t-47.5 -3.5q-66 -17 -123.5 -8t-90.5 75q-16 38 -12.5 73t12.5 58t12 26l31 -18l32 -17q0 -1 -4 -9.5t-7.5 -22t-4 -29t6.5 -31.5q5 -12 15 -22.5t37 -13t80 9.5q66 13 101 -3v1v14v190q-40 0 -83 -20q-28 -16 -34 -40q-5 -21 9 -43q15 26 43 26
q20 0 33.5 -13.5t15.5 -33.5q1 -23 -13.5 -41t-36.5 -24q-33 -6 -63 9q-37 20 -52.5 58.5t-6.5 79.5q14 54 69 85q65 31 119 30v1h72v-127q44 31 87 31z" />
    <glyph glyph-name="bn_k_la" horiz-adv-x="597" 
d="M207 239v0q63 1 129 -58v134zM336 -12v19q-9 30 -23 37q-10 5 -27 -4q-5 -3 -8.5 -19t-3.5 -33l-65 -3q0 9 2 31q-7 11 -19.5 21t-31.5 14q-61 10 -77 -27q-3 -6 -3 -15q18 21 46 21q24 0 41.5 -17t17.5 -40t-15.5 -39t-38.5 -18h-6q-39 1 -59.5 14.5t-28.5 26.5
q-15 23 -16 47.5t7 42.5q5 13 20 30.5t44.5 28.5t77.5 4q40 -9 64 -32q8 12 22 19q34 17 59 13q-47 51 -99.5 64t-80.5 12q-9 0 -13 1l-6 -1l-37 76l248 140h-331v73h603v-73h-191q124 -9 151 -117q11 -56 -20 -103q-11 -16 -27 -27q-18 -12 -45.5 -9t-41.5 21
q-11 14 -11 33q0 22 15.5 37.5t37.5 15.5q11 0 21 -5q2 11 0 23q-13 53 -80 58v-341h-72z" />
    <glyph glyph-name="bn_k_ssa" horiz-adv-x="639" 
d="M0 402v0v73h641v-73h-191v-69q51 2 96 -15q39 -20 54 -58.5t5 -76.5q-17 -60 -77 -70q-7 -2 -14 -2q-6 0 -11 1v0v0v1q-22 4 -36 20t-14 38q0 25 18 42.5t43 17.5q12 0 23 -5q-4 20 -20 29q-27 10 -67 9v-280h-73v72q0 7 -7.5 26t-25.5 39t-51 29q-51 10 -79.5 -5
t-33.5 -35q-1 -4 -2 -9q18 15 41 15q27 0 46.5 -19.5t19.5 -46.5t-18 -45.5t-45 -20.5v0q-43 -1 -66.5 14t-33.5 31q-29 45 -12 103q12 36 45.5 62t83.5 32q-20 44 -69 42q-23 0 -36 -6q10 -15 10 -33q0 -24 -17 -40.5t-40 -16.5q-24 0 -41 16.5t-17 40.5q0 2 1 4v0h-1
q0 26 24.5 58.5t76.5 45.5q-14 30 -36.5 45.5t-34.5 19.5h-59zM317 219v0q36 -11 60 -30v75q-40 0 -73 17q-33 20 -45 54.5t-12 66.5h-71q21 -26 30 -65q37 -7 67.5 -34t43.5 -84zM377 333v0v69h-60q0 -21 5.5 -37.5t14.5 -22.5q16 -8 40 -9z" />
    <glyph glyph-name="bn_k_ss_nna" horiz-adv-x="640" 
d="M-4 402v0v73h648v-73h-198v-69q55 3 103 -15q40 -20 55 -58.5t5 -76.5q-17 -60 -78 -70q-7 -2 -15 -2q-5 0 -10 1v0h-1v1q-21 4 -35.5 20t-14.5 38q0 25 18 42.5t43 17.5q13 0 24 -5q-4 20 -20 29q-30 11 -74 9v-289v-47h-37h-36v44q-15 10 -38 10q-11 0 -19 -2
q11 -14 11 -33q0 -22 -15.5 -38t-37.5 -16q-23 0 -38.5 13.5t-15.5 40.5v7v0v2l1 1q1 16 9 26q11 22 35.5 40t66.5 18h3h2q18 0 36 -5v66q-5 19 -22.5 42.5t-52.5 33.5q-49 10 -75.5 -5t-31.5 -34q-1 -4 -2 -9q17 15 39 15q26 0 44.5 -19.5t18.5 -46.5t-15.5 -45.5
t-44.5 -20.5v0v0h-1h-1h-1q-7 0 -15 2q-31 6 -49.5 19.5t-26.5 27.5q-27 43 -11 99q19 63 94 88q-20 19 -54 19q-23 0 -36 -6q10 -15 10 -33q0 -24 -16.5 -40.5t-40.5 -16.5t-39 18.5t-15 42.5v7v3h1v1v1q4 27 27.5 54t68.5 38q-14 30 -36.5 45.5t-34.5 19.5h-59zM313 249v0
q36 -10 60 -28v43q-38 1 -70 17q-33 20 -45 54.5t-13 66.5h-73q21 -26 30 -65q31 -6 58.5 -26t43.5 -60q1 -1 3 -1q3 0 6 -1zM373 333v0v69h-57q1 -21 6.5 -37.5t15.5 -22.5q13 -7 35 -9z" />
    <glyph glyph-name="bn_k_ss_ba" horiz-adv-x="635" 
d="M-7 402v0v73h646v-73h-196v-66q54 3 102 -16q40 -20 55 -61t6 -80q-18 -64 -79 -74q-7 -2 -15 -2q-5 0 -10 1v0h-1v0q-21 5 -35.5 22t-14.5 40q0 26 18 44.5t43 18.5q13 0 25 -5q-5 21 -21 30q-30 11 -73 9v-173v-162v-64h-60q-11 18 -22.5 28t-30.5 19q-39 19 -77 22
l-22 58q45 37 139 80v31q-5 19 -22.5 42.5t-53.5 33.5q-48 10 -74.5 -5t-31.5 -34q-2 -5 -3 -12q21 18 46 18q26 0 44.5 -18t18.5 -45t-17.5 -47t-48.5 -22v0h-1v0h-1h-1q-13 0 -24 4q-53 16 -68 45q-27 43 -11 99q20 63 95 88q-21 19 -55 19q-22 0 -35 -6q10 -15 10 -33
q0 -24 -17 -40.5t-41 -16.5q-23 0 -40 16.5t-17 40.5v4v0v0v1l1 1q1 9 4 17q8 26 31 50t65 35q-14 30 -37 45.5t-34 19.5h-59zM310 249v0q36 -10 60 -28v42q-39 2 -71 18q-32 20 -44.5 54t-13.5 67h-72q21 -26 30 -65q31 -6 58 -26t43 -60q2 -1 3 -1q4 0 7 -1zM326 -28v0
q6 -2 10 -4q10 -4 18 -8t16 -9v43q-13 -4 -22.5 -8.5t-21.5 -13.5zM370 337v0v65h-58q2 -20 7 -35.5t14 -21.5q14 -7 37 -8z" />
    <glyph glyph-name="bn_k_ss_ma" horiz-adv-x="680" 
d="M-6 402v0v73h688v-73h-52v-474h-73v25q-3 19 -20.5 46t-57.5 39q-48 11 -74.5 -4t-31.5 -35q-2 -5 -3 -12q21 18 46 18q26 0 44 -18t18 -45t-17 -46.5t-49 -21.5v0v0h-1v0h-1q-13 0 -24 3q-53 16 -68 45q-27 43 -11 99q15 48 64 76v5q-5 19 -22 42.5t-53 33.5
q-48 10 -74.5 -5t-32.5 -34q-1 -5 -2 -12q21 18 46 18t43.5 -18t18.5 -45t-17.5 -47t-48.5 -22v0v0h-1h-1h-1q-13 0 -23 4q-53 16 -68 45q-27 43 -11 99q19 63 95 88q-21 19 -55 19q-22 0 -36 -6q10 -15 10 -33q0 -24 -16.5 -40.5t-40.5 -16.5t-40.5 16.5t-16.5 40.5v4v0v0
v1v1q1 9 5 17q8 26 31 50t64 35q-14 30 -36.5 45.5t-34.5 19.5h-59zM312 249v0q35 -10 59 -28v49q-39 1 -72 17q-32 18 -44 51t-12 64h-72q20 -26 29 -65q31 -6 58.5 -26t43.5 -60q1 -1 3 -1q3 0 7 -1zM371 337v0v65h-59q1 -20 6 -35.5t14 -21.5q15 -7 39 -8zM495 109v0
q37 -10 62 -30v58q-16 -10 -35 -13q-7 -1 -15 -1q-5 0 -10 1v0v0v0q-22 4 -36 19.5t-14 37.5q0 23 17.5 40t42.5 17q13 0 24 -4q-5 19 -21 27q-26 10 -66 9v-155q24 1 51 -6zM557 312v0v90h-113v-65q51 2 95 -15q10 -4 18 -10z" />
    <glyph glyph-name="bn_k_ss_ra" horiz-adv-x="630" 
d="M633 402v0h-187v-65q51 2 95 -15q39 -19 53.5 -56.5t5.5 -73.5q-17 -58 -76 -68q-7 -1 -15 -1q-5 0 -10 1v0v0v0q-22 4 -35.5 19.5t-13.5 37.5q0 23 17.5 40t41.5 17q13 0 24 -4q-5 19 -21 27q-26 10 -66 9v-109v-104v-155h-71l-3 4.5t-7.5 10.5t-7.5 11l-3 5
q-20 19 -52 18t-56 -10q-58 -25 -117 -6q-37 14 -60 48t-23 74l7.5 1.5t18 4t21 4.5t18 3.5l7.5 1.5q1 -31 18 -51t52 -20q28 1 53 11q20 8 41 11q50 6 90 -23v106q-6 19 -23 40.5t-51 31.5q-48 10 -74.5 -5t-32.5 -34q-1 -5 -2 -12q21 18 46 18q26 0 44 -18t18 -45
t-17.5 -47t-48.5 -22v0v0h-1h-1v0q-14 0 -24 4q-53 16 -68 45q-27 43 -11 99q19 63 95 88q-21 19 -55 19q-22 0 -36 -6q10 -15 10 -33q0 -24 -16.5 -40.5t-40.5 -16.5t-40.5 16.5t-16.5 40.5v4v0v0v1v1q1 9 5 17q8 26 31 50t64 35q-14 30 -36.5 45.5t-34.5 19.5h-59v73h637
v-73zM314 249v0q35 -10 60 -28v49q-40 1 -73 17q-32 18 -44 51t-12 64h-72q20 -26 29 -65q31 -6 58.5 -26t43.5 -60q1 -1 3 -1q3 0 7 -1zM374 337v0v65h-60q1 -20 6 -35.5t15 -21.5q14 -7 39 -8z" />
    <glyph glyph-name="bn_k_sa" horiz-adv-x="635" 
d="M639 475v-73h-51v-419h-73v41q-7 11 -22.5 22t-44.5 14t-77 -11q-20 -7 -47 -25q-28 -18 -61 -34t-72 -16q-11 0 -22 1q-35 6 -60.5 24t-42 39.5t-25 38t-8.5 19.5l68 26q0 -1 5 -11t15 -24t24.5 -25t34.5 -15q37 -3 73 20q-56 62 -112 84t-73 22l-6 -1l-37 76l256 146v8
h-285v73h643zM152 225v0q61 -21 129 -81v157zM354 120v0q34 10 63 12q-31 1 -46 22q-11 14 -11 32q0 22 15.5 37.5t36.5 15.5q12 0 22 -4q1 11 -1 22q-13 53 -79 59v-196zM515 116v0v286h-161v-14q123 -9 151 -117q10 -55 -21 -103q-11 -16 -26 -27q-10 -6 -23 -8
q48 -1 80 -17z" />
    <glyph glyph-name="bn_kh_ba" horiz-adv-x="442" 
d="M314 475v0h73h60v-73h-60l1 -438h-61q-28 32 -74 54t-91 26l-26 68q32 26 85 54q-39 16 -76 21.5t-61.5 6t-26.5 0.5l-27 79q125 9 173 40q9 9 13 19.5t6 21.5q-22 -21 -56 -31q-74 -16 -123 40q-37 51 -6 105q18 26 55 31t60 -19q15 -13 15 -32q0 -20 -14 -35.5
t-42 -12.5h-4h-6q1 0 1 -1q1 0 1 -1q6 -8 17 -13t25 -2q19 6 31.5 22t20 33t9.5 25l2 11h64l2 -4q2 -2 9.5 -20.5t13 -47.5t0 -62.5t-30.5 -66.5q-7 -9 -16.5 -15t-21.5 -11q-5 -2 -11 -5q42 -13 78 -39q9 4 19 8v191v0v73zM316 51v0v11v77q-17 -6 -32 -12q-28 -13 -51 -31
q45 -19 83 -45z" />
    <glyph glyph-name="bn_kh_ra" horiz-adv-x="467" 
d="M337 475v0h137v-73h-65v-156h1v-258h-71l-4.5 5t-10.5 11.5t-10.5 11.5l-4.5 5q-20 19 -47.5 17t-50.5 -12l-12 -4q-27 -10 -54.5 -16t-54.5 2q-53 20 -81 71q16 10 35 22.5t29 17.5q18 -43 71 -45q27 2 56 18q25 12 47 16q34 3 64 -13q-25 16 -60.5 26t-70 15t-58.5 6.5
t-25 1.5l-36 81q55 8 101 21.5t63 37.5q15 22 19 47q-22 -25 -56 -36q-74 -19 -123 46q-36 59 -5 122q18 30 54.5 35.5t60.5 -21.5q14 -16 14 -38q0 -23 -16 -39t-39 -16q-6 0 -10 1q0 -2 1 -3q6 -10 17 -16t25 -2q19 7 32 26t20 38.5t9 29.5l3 12h63l2 -4q2 -3 9 -23.5
t11.5 -53.5t-1.5 -71t-30 -75q-19 -28 -53 -47q55 -7 104 -44v94h1v156v73z" />
    <glyph glyph-name="bn_ga_ukaar" horiz-adv-x="511" 
d="M293 -25v0q-70 0 -119.5 25.5t-80.5 56.5t-46 51l-2 3l57 45l2 -3q21 -32 71.5 -69.5t138.5 -34.5q74 8 87 60q6 38 -20 60q-18 -39 -58 -39q-26 0 -44.5 18.5t-18.5 44.5q0 27 18.5 45.5t44.5 18.5q16 0 29 -7q16 15 30.5 36.5t13.5 38.5q-7 31 -28 56l-86 -127l-26 61
q-14 31 -37 59t-43 29q-38 -5 -52 -29q34 2 63 -14q36 -22 46 -71q7 -41 -11 -70t-47 -47l-68 46v1q1 0 10 4t20.5 11.5t19 17.5t5.5 22q-4 19 -12 23q-16 10 -67 -5l-3 -1l-43 35v2q0 40 29 89t104 58q41 2 71.5 -22t50.5 -54l63 94l31 -26q5 -3 22.5 -21t35 -46t24.5 -64
q4 -32 -8.5 -61t-31.5 -50q57 -50 44 -130q-8 -41 -44 -76t-107 -42q-15 -2 -28 -2z" />
    <glyph glyph-name="bn_g_ga" horiz-adv-x="701" 
d="M577 475v0h73h56v-73h-56v-415h-73v291q-14 29 -47 68.5t-78 51.5q-46 10 -76 -15q-14 -12 -22 -28q30 8 64 6t65 -26q58 -53 38 -136q-30 -95 -135 -112l-10 72q59 9 75 60q9 38 -14 59q-15 11 -33.5 11t-36 -6t-29.5 -12.5t-13 -6.5l-56 29q0 28 5 53q-33 40 -78 52
q-47 10 -77 -15q-13 -12 -22 -28q30 8 64 6t65 -26q59 -53 38 -136q-30 -95 -134 -112l-10 72q58 9 74 60q10 38 -14 59q-14 11 -33 11t-36.5 -6t-29 -12.5t-12.5 -6.5l-56 29q-2 93 59 146q57 46 139 30q56 -14 96 -53q10 13 22 23q57 46 138 30q67 -17 110 -66v72z" />
    <glyph glyph-name="bn_g_da" horiz-adv-x="683" 
d="M400 475v0h75h213v-73h-213h-75v-159q68 91 217 136l38 -56q-3 -3 -17 -30.5t-27 -73t-11 -102.5t32 -118l-65 -33q-43 91 -39.5 172t25.5 139q-74 -46 -111 -102.5t-42 -73.5v-7l-72 16v4h-1v167q-15 29 -47.5 67t-76.5 50q-46 10 -76 -15q-13 -11 -22 -28q30 9 64 6.5
t65 -26.5q58 -52 38 -135q-31 -94 -134 -112l-10 72q58 10 74 60q9 38 -14 59q-15 11 -33.5 10.5t-36 -6.5t-29 -12t-12.5 -6l-56 29q-1 92 59 145q57 46 138 30q66 -17 109 -65v71h1h72z" />
    <glyph glyph-name="bn_g_dha" horiz-adv-x="573" 
d="M581 402v0h-173v-121l82 22l53 -53q-12 -59 -19.5 -149.5t14.5 -146.5l-65 -32q-27 63 -24 149t15 150l-56 -15v-257h-72v23q-35 41 -92.5 63.5t-101.5 30.5l-37 71l231 119v52q-15 25 -45 57.5t-65 42.5q-46 10 -81 -13q-2 -2 -4 -3q29 3 57 -2.5t47 -25.5
q33 -40 13 -90q-12 -23 -35.5 -41t-50.5 -28l-40 58q22 2 37.5 14.5t21.5 26.5q2 4 2 6t-0.5 3t-1.5 2q-8 7 -38.5 4.5t-63.5 -13.5l-52 34l1 4q10 71 66 111q61 40 138 24q55 -15 94 -55v51h245v-73zM336 69v0v105l-108 -55q54 -17 108 -50z" />
    <glyph glyph-name="bn_g_dh_ba" horiz-adv-x="576" 
d="M336 69v0v105l-108 -55q54 -17 108 -50zM274 3q28 -13 64 -37v65q-27 -11 -64 -28zM408 159v-323h-69v31q-25 41 -57 61.5t-59 28.5t-36 9l-6 -1l-30 56l187 100v40zM285 15q-19 12 -41 21q-58 22 -102 30l-37 71l231 119v52q-15 25 -45 57.5t-65 42.5q-46 10 -81 -13
q-2 -2 -4 -3q29 3 57 -2.5t47 -25.5q33 -40 13 -90q-12 -23 -35.5 -41t-50.5 -28l-40 58q22 2 37.5 14.5t21.5 26.5q2 4 2 6t-0.5 3t-1.5 2q-8 7 -38.5 4.5t-63.5 -13.5l-52 34l1 4q10 71 66 111q61 40 138 24q55 -15 94 -55v51h245v-73h-173v-121l82 22l53 -53
q-12 -59 -19.5 -149.5t14.5 -146.5l-65 -32q-27 63 -24 149t15 150l-56 -15v-257h-57l4 4q13 14 13 34t-13.5 34.5t-32.5 14.5t-32 -14q-3 -4 -5 -7z" />
    <glyph glyph-name="bn_g_dh_ra" horiz-adv-x="579" 
d="M587 402v0h-173v-121l81 22l54 -53q-13 -59 -20 -149.5t15 -146.5l-66 -32q-26 63 -23 149t14 150l-55 -15v-257h-73v23q-35 41 -92 63.5t-101 30.5l-37 71l230 119v52q-15 25 -44.5 57.5t-64.5 42.5q-47 10 -81 -13q-2 -2 -4 -3q29 3 56.5 -2.5t47.5 -25.5
q33 -40 12 -90q-11 -23 -34.5 -41t-50.5 -28l-41 58q23 2 38.5 14.5t21.5 26.5q1 3 1 5.5t-0.5 3.5t-0.5 2q-9 7 -39 4.5t-63 -13.5l-53 34l1 4q11 71 66 111q61 40 139 24q54 -15 93 -55v51h246v-73zM341 69v0v105l-108 -55q55 -17 108 -50zM414 14v-115h-78
q-11 12 -32.5 22.5t-51.5 3.5q-21 -6 -40 -12q-40 -14 -78.5 -18t-79.5 21q-35 26 -45 62.5t-6 62.5l72 -8v-6q0 -7 1.5 -16.5t5.5 -18.5t12 -15q17 -12 38.5 -9.5t57.5 14.5q19 7 43 13q56 15 108 -11v30h73z" />
    <glyph glyph-name="bn_g_na" horiz-adv-x="468" 
d="M414 168v-199h-75v73q-9 16 -32 36.5t-51 25.5q-60 8 -74 -31q-2 -13 5 -24l4 -5v-1q0 22 15 36.5t36 14.5q32 0 48 -34q6 -17 0.5 -34t-17.5 -30q-22 -23 -55 -27q-24 -4 -49 5q-23 11 -38 32q-14 20 -19 44q-2 23 3 43q11 36 48 62.5t103 19.5q49 -10 76 -34v27h72z
M342 152v161q-13 25 -46 61t-77 43q-31 2 -57 -7q26 1 51 -14q57 -36 52 -100q-12 -83 -101 -118l-24 69q25 9 38.5 25t14.5 31q2 20 -17 31q-20 9 -49.5 -5t-45.5 -29l-68 33q37 159 211 156q72 -10 118 -59v45h134v-73h-62v-250h-72z" />
    <glyph glyph-name="bn_g_ba" horiz-adv-x="471" 
d="M476 402v0h-62v-144v0v-265h-61q-28 33 -74 54q-46 22 -91 27l-26 68q32 26 85 54q33 18 75 37q9 4 19 8h1v0v38v34q-13 25 -46 61t-77 43q-31 2 -57 -7q26 1 51 -14q57 -36 52 -100q-12 -83 -101 -118l-24 69q25 9 38.5 25t14.5 31q2 20 -17 31q-20 9 -49.5 -5
t-45.5 -29l-68 33q37 159 211 156q72 -10 118 -59v45h72h62v-73zM259 126v0q45 -19 83 -45v87q-16 -5 -31 -12q-29 -12 -52 -30z" />
    <glyph glyph-name="bn_g_ma" horiz-adv-x="619" 
d="M324 475v0h297v-73h-46v-472h-73v123q-16 32 -52.5 54t-85.5 16q-39 -6 -58 -18.5t-25.5 -26.5t-7.5 -27t3 -23.5t8.5 -17.5t6.5 -9q4 -3 11.5 -7t21.5 -6v1v1q0 30 20 51t49 21t49 -21t20 -51q0 -10 -2 -20q-9 -31 -38 -45q-32 -12 -67 -11q-37 -1 -71 12q-30 11 -53 32
q-40 42 -34 108q12 93 127 123v119q-15 25 -45 57.5t-64 42.5q-52 11 -84 -12q-12 -9 -19 -23q34 7 70 3t59 -29q40 -46 24 -104q-7 -24 -31.5 -50.5t-78.5 -45.5l-47 61q74 20 87 57q5 18 -8 34q-7 7 -39 5t-70 -14l-53 36q5 53 23.5 84t39.5 45q58 42 142 24
q55 -15 94 -55v51zM502 151v0v251h-106v-207q73 -8 106 -44z" />
    <glyph glyph-name="bn_g_ra" horiz-adv-x="493" 
d="M425 -15h-71l-4.5 5t-10.5 11.5t-10.5 11l-5.5 5.5q-19 18 -46.5 16t-51.5 -11q-55 -21 -115 -6q-48 13 -73.5 47.5t-25.5 74.5l7.5 3t18 7.5l21 9l17.5 7.5l7 3q-2 -38 20.5 -63t65.5 -23q27 2 51 11q21 7 42 11q50 2 90 -30v206q-14 29 -46.5 67t-76.5 50
q-46 10 -76 -15q-14 -11 -22 -28q30 9 63.5 6.5t64.5 -26.5q58 -52 38 -134q-30 -94 -134 -112l-9 72q58 9 74 59q9 38 -15 59q-14 11 -32.5 11t-36 -6t-29 -12.5t-12.5 -6.5l-56 29q-1 92 59 144q56 49 137 33q66 -18 110 -68v72h72h77v-73h-76v-417z" />
    <glyph glyph-name="bn_g_ra_ukaar" horiz-adv-x="655" 
d="M514 370v0q48 -3 68.5 -20.5t27.5 -34.5q15 -30 13.5 -61.5t-13.5 -53.5q-8 -15 -28.5 -34.5t-57 -29t-93.5 4.5q-3 0 -5 1h-1v-157h-71l-4.5 5t-10.5 11.5t-10.5 11l-5.5 5.5q-19 18 -46.5 16t-51.5 -11q-55 -21 -115 -6q-48 13 -73.5 47.5t-25.5 74.5l7.5 3t18 7.5
l21 9l17.5 7.5l7 3q-2 -38 20.5 -63t65.5 -23q27 2 51 11q21 7 42 11q50 2 90 -30v206q-14 29 -46.5 67t-76.5 50q-46 10 -76 -15q-14 -11 -22 -28q30 9 63.5 6.5t64.5 -26.5q58 -52 38 -134q-30 -94 -134 -112l-9 72q58 9 74 59q9 38 -15 59q-14 11 -32.5 11t-36 -6
t-29 -12.5t-12.5 -6.5l-56 29q-1 92 59 144q56 49 137 33q66 -18 110 -68v72h72h235v-73h-234v-181q11 -7 24 -10q73 -20 97 24q2 4 3 9q-20 -14 -48 -12q-30 4 -48.5 25.5t-16.5 50.5q3 25 19.5 41.5t41.5 20.5v0v0v0q9 1 17 0z" />
    <glyph glyph-name="bn_g_ra_uukaar" horiz-adv-x="623" 
d="M351 475v0h72h203v-73h-202v-102q56 43 139 64l38 -55q-4 -5 -23.5 -45.5t-29 -105t15.5 -140.5l-72 -14q-38 157 7 259q-45 -27 -75 -60v-218h-71l-4.5 5t-10.5 11.5t-10.5 11.5t-5.5 5q-19 19 -46.5 17t-50.5 -11q-56 -21 -116 -6q-48 12 -73.5 46.5t-25.5 75.5l7.5 3
t18 7.5l21 9l17.5 7.5l7 3q-2 -38 20.5 -63t66.5 -24q26 3 50 12q21 7 42 10q50 3 90 -30v206q-14 30 -46.5 68t-76.5 50q-46 9 -76 -15q-13 -12 -22 -28q30 8 64 6t64 -26q58 -52 38 -135q-30 -94 -133 -111l-10 72q58 9 74 59q9 38 -15 59q-14 11 -32.5 10.5t-36 -6.5
t-29 -12t-12.5 -7l-56 30q-1 91 59 144q57 46 138 31q66 -18 109 -66v71z" />
    <glyph glyph-name="bn_g_la" horiz-adv-x="479" 
d="M346 475v0h73h67v-73h-67v-408h-73v50q-1 10 -5 23t-11.5 23.5t-19.5 10.5q-6 0 -13 -3q-13 -6 -15.5 -25.5t-1.5 -33.5l-67 -2v14v0v1q0 4 -2.5 15.5t-11.5 23t-28 16.5q-52 9 -69 -28q-2 -4 -2 -9q16 15 37 15q22 0 38 -16.5t16 -39.5q0 -22 -14 -38t-35 -18v-1h-6
q-35 0 -53.5 14t-25.5 27q-14 23 -15 47.5t7 42.5q4 13 19 30t43 27.5t72 2.5q36 -8 55 -29q9 11 23 19q28 13 49.5 12.5t35.5 -7.5v121v19q-12 25 -45 61t-77 43q-31 2 -57 -7q26 1 51 -14q57 -35 52 -100q-11 -79 -100 -110l-37 63q26 10 44.5 25t20.5 29q2 20 -17 31
q-20 9 -49 -5t-46 -28l-67 33q37 158 211 155q71 -10 116 -59v60z" />
    <glyph glyph-name="bn_gh_na" horiz-adv-x="414" 
d="M-3 402v0v73h419v-73h-43v-409h-73v28q0 7 -3.5 16.5t-13 18.5t-27.5 12q-54 9 -72 -26q-1 -4 -2 -9q17 15 40 15q24 0 41 -15.5t17 -38.5q0 -21 -15.5 -36.5t-38.5 -16.5v0q-3 -1 -6 -1q-37 0 -56.5 13.5t-26.5 25.5q-15 22 -15.5 45t6.5 41q7 17 34.5 39t83.5 21
q-46 16 -98 17t-87 -3l-39 83l75 52q-36 9 -52.5 27.5t-19.5 34.5q-4 19 0 34t11 28l2 4h-41zM137 402v0h-2q-6 -3 -15 -9t-14 -15.5t-1 -25.5q4 -14 18 -18t30.5 -2t28.5 5q3 0 6 1l47 33l45 -58l-146 -102q90 2 166 -45v236h-163z" />
    <glyph glyph-name="bn_gh_ba" horiz-adv-x="430" 
d="M-3 402v0v73h436v-73h-57v-409v0v-21h-60q-10 17 -22 27t-30 19q-39 18 -77 22l-22 58q22 17 54 36q-42 9 -84 9t-70 -4l-39 83l75 52q-36 9 -52.5 27.5t-19.5 34.5q-4 19 0 34t11 28l2 4h-45zM260 79v0q6 -3 10 -4q10 -5 18 -8.5t16 -8.5v27v16q-13 -4 -22.5 -8.5
t-21.5 -13.5zM140 402v0h-1q-7 -3 -15.5 -9t-14 -15.5t-1.5 -25.5q5 -14 19 -18t30 -2t28 5q4 0 7 1l46 33l46 -58l-146 -102q84 1 155 -39q4 2 7 4q2 1 4 1v225h-164z" />
    <glyph glyph-name="bn_gh_ra" horiz-adv-x="458" 
d="M-2 402v0v73h463v-73h-42v-409v0v-8h-71l-5 5t-11 11.5t-10.5 11.5l-4.5 5q-20 19 -47.5 17t-50.5 -11q-56 -21 -116 -6q-48 13 -73.5 47.5t-25.5 74.5l7 3l17.5 7.5l21 9t18 7.5l7.5 3q-3 -38 20 -63t67 -24q26 3 50 12q21 7 43 11q50 2 90 -30v12q-39 44 -113.5 51
t-124.5 0l-39 83l76 52q-37 9 -53.5 27.5t-19.5 34.5q-4 19 0.5 34t10.5 28l2 4h-86zM183 402v0h-2q-6 -3 -15 -9t-14 -15.5t-1 -25.5q4 -14 18 -18t30.5 -2t28.5 5q4 0 6 1l47 33l46 -58l-147 -102q90 2 165 -44v235h-162z" />
    <glyph glyph-name="bn_ng_ka" horiz-adv-x="599" 
d="M-6 402v0v73h613v-73h-40q14 -23 14 -44q0 -30 -21 -52t-51 -22q-61 0 -113 58v-50v0h-1v-19q134 -9 164 -114q11 -54 -22 -101q-12 -15 -29 -26q-20 -11 -50 -8.5t-44 20.5q-6 7 -9.5 19.5t-3.5 21.5q0 21 17 34.5t41 13.5q6 0 12.5 -3t10.5 -7q2 11 0 22q-15 52 -87 57
v-257h-79v19q-47 67 -106.5 83t-98.5 13l-52 87l257 131v2q-34 2 -79 37l-4 2q-10 9 -22.5 17t-25.5 11q-49 8 -57 -35q-1 -3 -1 -6q18 20 41 20q27 0 43 -17t16 -39q0 -21 -17 -38t-44 -20v0q-10 -3 -20 -3q-36 0 -64 27q-37 40 -28 92q12 49 46 74h-11h-95zM316 70v0v118
l-119 -63q33 -4 59 -15t60 -40zM490 402v0h-51q18 -45 50 -45q18 0 18 12q0 24 -17 33zM316 365v0v37h-69q20 -13 34 -24l3 -3q18 -14 32 -18v8z" />
    <glyph glyph-name="bn_ng_k_ra" horiz-adv-x="635" 
d="M-3 402v0v73h642v-73h-35q14 -23 14 -44q0 -30 -21 -52q-20 -22 -50 -22q-61 0 -113 58v-50v0v0v-19q133 -9 163 -114q11 -54 -23 -101q-11 -15 -28 -26q-20 -11 -50 -8.5t-44 20.5q-6 7 -9.5 19.5t-3.5 21.5q0 21 17 34.5t40 13.5q7 0 13.5 -3t10.5 -7q2 11 -1 22
q-14 51 -85 57v-324h-73l-5 5.5t-11 12.5t-10.5 12.5t-5.5 5.5q-20 21 -48 18.5t-53 -12.5q-57 -23 -119 -7q-49 14 -75.5 52t-26.5 82l7.5 3.5t18.5 8t21.5 9.5t18 8.5l7.5 3.5q-2 -41 21 -68.5t69 -26.5q26 3 52 13q21 8 43 11q34 4 64 -13q-43 42 -89.5 53.5t-81.5 10.5
l-53 91l249 127v2q-34 2 -80 37l-3 2q-11 9 -23 17t-25 11q-49 8 -58 -35v-6q17 20 41 20q27 0 43 -17t16 -39q0 -21 -17 -38t-45 -20v0q-10 -3 -20 -3q-35 0 -64 27q-37 40 -27 92q12 49 46 74h-11h-130zM528 402v0h-52q19 -45 51 -45q18 0 18 12q0 24 -17 33zM354 188v0
l-119 -63q32 -4 58.5 -15t60.5 -40v118zM353 365v0v37h-68q20 -13 33 -24l4 -3q18 -14 31 -18v8z" />
    <glyph glyph-name="bn_ng_ga" horiz-adv-x="499" 
d="M406 363v0q-23 -15 -56 -16t-67 19q35 -24 50 -60q2 -6 4 -13q39 35 67.5 53.5t31.5 19.5l36 -64q-1 0 -40 -33t-52.5 -78.5t-6.5 -97.5q12 -63 80 -105l-39 -62q-94 60 -113 154q-5 29 -3 58q-86 -101 -190 -97q-52 0 -98 21l30 67q44 -22 100.5 -12.5t104.5 72.5
q15 22 20.5 47t-0.5 44q-3 7 -13.5 19t-30.5 18q-25 7 -55.5 4.5t-48.5 -24.5q-6 -7 -9 -17.5t-1 -19.5q0 -2 1 -4v0q17 23 43.5 25.5t48 -13t21.5 -44.5q0 -25 -20 -43q-15 -13 -33 -15.5t-36 1.5q-36 5 -65 27t-34 61q-2 22 6.5 48.5t24.5 43.5q62 62 173 39q25 -5 45 -19
q-20 13 -38 35h-245v73h270v-1q2 -4 11.5 -18t24 -28t30.5 -19q26 -6 44.5 11t20.5 46v9h0.5h0.5v0h101v-73h-65q-11 -25 -31 -39z" />
    <glyph glyph-name="bn_ng_g_ra" horiz-adv-x="508" 
d="M427 -141h-74l-5 5.5t-11 12.5t-11 12.5l-5 5.5q-20 21 -48.5 18.5t-53.5 -12.5q-58 -23 -121 -7q-80 26 -98 99l73 34q16 -60 87 -60q27 2 52 12q22 8 44 12q53 3 94 -33v55h77v-154zM415 362v0q-23 -14 -56 -15t-66 19q34 -24 49 -60q2 -6 4 -13q39 34 67.5 53t32.5 20
l35 -64l-39.5 -33.5t-53 -79t-6.5 -96.5q12 -63 80 -105l-39 -62q-94 59 -112 154q-6 29 -4 57q-86 -100 -189 -97q-53 0 -99 22l31 66q43 -21 99.5 -11.5t104.5 71.5q16 23 21.5 48t-1.5 43q-3 8 -13.5 20t-30.5 18q-25 7 -55.5 4.5t-48.5 -24.5q-6 -7 -9 -17.5t-1 -20.5
q0 -2 1 -3v0q18 23 44 25t47.5 -13t21.5 -44q0 -25 -20 -44q-14 -12 -32.5 -14.5t-36.5 0.5q-36 6 -64.5 28t-33.5 60q-2 23 6 49.5t24 43.5q62 62 173 39q25 -6 45 -19q-20 12 -37 35h-256v73h280l1 -1q2 -4 11 -18t23.5 -28t31.5 -20q25 -5 43.5 12t21.5 46v9v0v0v0h102
v-73h-66q-11 -26 -31 -40z" />
    <glyph glyph-name="bn_ng_ma" horiz-adv-x="517" 
d="M240 178l-2 -1q33 16 38 42q-19 -12 -62 -6q-41 8 -63 43q-18 31 -19 64q-28 13 -48.5 34t-31 38.5t-12.5 25.5l61 28q1 -6 6 -14.5t14.5 -20t16.5 -17.5q4 20 7 26q8 26 31 42.5t53 17.5q57 -1 77 -52q5 -16 6 -31q0 -37 -29 -64h-1v-1l-4 -2q0 -1 -1 -1
q-30 -20 -76 -21q1 -8 7 -17q5 -10 17 -12q16 -2 26.5 3.5t17 15t10 17.5t3.5 9l2 10l65 -38q4 -43 -11.5 -98t-75.5 -83q-24 -9 -56 -9q-24 0 -50.5 7t-50.5 23q-31 18 -57 62t-31 129l67 2q3 -101 57 -138q28 -17 55 -18t44 5zM208 400q-4 -13 -6 -25q12 0 22 3t14.5 5.5
t4.5 3.5q2 4 2 9t-2 10q-3 7 -12 7h-1q-7 0 -22 -13zM249 475h277v-73h-65v-489h-72v88q-12 16 -34 34.5t-53 24.5q-75 12 -95 -34q-3 -7 -3 -17q22 24 56 24q30 0 51 -20.5t21 -49.5q0 -27 -19 -46.5t-47 -22.5v-1h-7q-48 2 -73.5 18.5t-34.5 32.5q-18 28 -19.5 58.5
t8.5 52.5l4 8q27 51 84 67q34 10 86 2q43 -9 75 -31v301h-140v73z" />
    <glyph glyph-name="bn_ng_ra" horiz-adv-x="458" 
d="M300 90v0q45 21 55 72q-35 -22 -87 -14q-50 9 -76 51q-22 38 -23 83q-39 17 -64.5 43.5t-38.5 48t-14 24.5l66 30l6.5 -11.5t19 -27t31.5 -28.5q7 34 10 42q10 31 37.5 51t63.5 21q68 -1 92 -62q6 -19 7 -38q0 -44 -35 -76v0l-1 -1q-2 -1 -4 -3q-1 0 -1 -1
q-37 -25 -101 -25q2 -19 10 -32q9 -15 27 -18q22 -4 37 4.5t24.5 21.5t13.5 24t5 12l1 4l72 -42q5 -50 -14 -118.5t-94 -102.5q-29 -11 -68 -11q-31 0 -63.5 8.5t-62.5 28.5q-37 22 -70 76.5t-39 155.5l73 2q4 -126 76 -174q36 -23 72 -24.5t57 6.5zM254 382v0
q-6 -18 -10 -41q24 1 38 4.5t20 7.5t7 7q4 6 3.5 14t-3.5 15q-4 14 -21 14h-1q-10 -1 -20 -6.5t-13 -14.5zM428 -141h-74l-5 5.5t-11 12.5t-11 12.5l-5 5.5q-20 21 -48.5 18.5t-53.5 -12.5q-58 -23 -121 -7q-80 26 -98 99l73 34q16 -60 87 -60q27 2 52 12q22 8 44 12
q53 3 94 -33v167l77 65v-331z" />
    <glyph glyph-name="bn_c_nya" horiz-adv-x="768" 
d="M740 87v0q18 -49 -9 -104q-14 -27 -48.5 -48.5t-72.5 -21.5h-13q-21 3 -39 8v-70h-73v57q-3 13 -10.5 25t-20.5 18q-29 11 -73 -15q-52 -32 -112 -27.5t-98 57.5q-19 29 -26 57q-20 -2 -37 -2h-14l-34 2v379h-64v73h781v-73h-644v-13q9 -10 31 -17t45 -12q35 -7 75 -23
t63 -50q9 7 20 13q64 30 118 30v0h73v-36q52 13 92 1q58 -19 76 -80q4 -14 2 -36.5t-18 -50.5q20 -16 30 -41zM217 120q50 23 69 91q9 32 -10.5 48t-83.5 30q-30 7 -59 17v-211q36 3 84 25zM485 17v0v240q-40 0 -82 -20q-28 -16 -34 -40q-6 -21 8 -44q10 23 30 31
q10 3 21.5 1.5t20.5 -6.5q15 -9 21.5 -26t4.5 -34q-2 -26 -23 -38t-44 -12q-19 0 -45 8t-45 34q-43 -51 -102 -71q4 -16 16 -34q20 -27 53 -25.5t58 17.5q75 46 139 20h2q0 -1 1 -1zM666 16v0q13 26 6 45q-2 5 -5 8q-17 -26 -47 -26q-22 0 -38 15.5t-16 36.5q0 28 28 45
q20 10 42 11q10 10 15.5 22t2.5 25q-3 11 -10.5 18.5t-14.5 8.5q-13 4 -31 2.5t-31 -9.5q-5 -3 -7 -6t-2 -6v-206q19 -11 48 -14q17 -1 35.5 9t24.5 21z" />
    <glyph glyph-name="bn_c_ra" horiz-adv-x="486" 
d="M-2 402v0v73h495v-73h-293v-2q7 -9 43 -28t107 -31q63 -8 88 -45q24 -35 13 -88q-6 -30 -31.5 -74t-85.5 -78t-167 -37v0v0h-5v0v0v0l-34 -1v384h-130zM200 313v0v-221q97 11 136 52.5t44 79.5q2 7 2.5 16t-3.5 14q-8 11 -39 16q-94 15 -140 43zM428 -123h-74l-5 5.5
t-11 12.5t-11 12.5l-5 5.5q-20 21 -48.5 18.5t-53.5 -12.5q-58 -23 -121 -7q-80 26 -98 99l73 34q16 -60 87 -60q27 2 52 12q22 8 44 12q53 3 94 -33v167l77 65v-331z" />
    <glyph glyph-name="bn_ch_ba" horiz-adv-x="500" 
d="M-7 402v0v73h480v-73h-361v-14q8 -10 35.5 -23.5t84.5 -18.5q30 -3 52 -23q60 -1 95.5 -27t48.5 -61q16 -43 2.5 -86t-52.5 -71q-65 -44 -160 -62l192 -82l-28 -66l-332 141h-2h-4l8 72q173 -15 285 56q21 16 25.5 35.5t-2.5 36.5q-12 31 -49 39q-2 -11 -7 -21
q-16 -38 -66 -72t-149 -40q-2 -1 -5 -1h-44v288h-47zM112 301v0v-112q39 4 73 20t51 49q2 5 0 9q-1 2 -3.5 4t-7.5 3q-72 7 -113 27zM223 -120q28 -13 64 -37v65q-27 -11 -64 -28zM357 -48v-239h-69v31q-25 40 -57 61t-59.5 29t-35.5 9l-6 -2l-30 57l129 69q38 -18 90 -18
q20 0 38 3z" />
    <glyph glyph-name="bn_ch_ra" horiz-adv-x="520" 
d="M-8 402v0v73h531v-73h-361v-14q8 -10 35.5 -23.5t83.5 -19.5q31 -3 53 -23q60 -1 95.5 -26.5t48.5 -60.5q16 -44 2.5 -87t-52.5 -71q-65 -44 -160 -62l192 -82l-28 -66l-332 141q-1 0 -2 1h-4l8 72q173 -15 285 56q20 15 25 35t-2 37q-12 30 -49 39q-2 -11 -7 -21
q-17 -39 -66.5 -73t-148.5 -40h-5h-44v288h-98zM162 301v0v-112q39 4 72.5 19.5t51.5 48.5q2 5 -1 10q0 1 -2.5 3t-7.5 3q-73 7 -113 28zM427 -61v-162h-74v1l-2 1l-3 3q-5 6 -11 13t-11 12l-5 6q-20 21 -48.5 18.5t-53.5 -12.5q-58 -23 -121 -7q-80 26 -98 99l73 34
q16 -60 87 -60q27 2 52 12q22 8 44 12q53 3 94 -33v63h77z" />
    <glyph glyph-name="bn_j_ja" horiz-adv-x="703" 
d="M-3 402v0v73h708v-73h-372v0v0h-13q16 -19 46 -33t78 -12q14 9 20 12q2 2 3 2v0v-1q13 -21 31.5 -43t50 -37.5t76.5 -9.5l59 -54h-1h-1q-17 -31 -33.5 -104.5t10.5 -149.5l-68 -29q-31 80 -25.5 148.5t22.5 110.5q-46 0 -82 21.5t-54 43.5q-28 -35 -33 -76q-1 -6 1 -8
t4 -3q7 -4 22.5 -0.5t35.5 19.5l1 2l53 -9l2 -3q1 -2 7.5 -17.5t10 -40t-2 -53t-28.5 -55.5q-41 -45 -103 -45q-12 0 -25 2q-96 17 -158 138l68 29q45 -84 101 -94q41 -6 62 17q16 22 14 45q-50 -21 -93 -1q-47 26 -45 82q4 55 32 93q-89 25 -126 81q-21 -20 -34.5 -40
t-9.5 -36q1 -2 2 -4.5t4 -4.5t10 -4q16 -2 33 4t28 19l66 -24q3 -54 -19.5 -114.5t-104.5 -75.5q-9 -1 -17 -1h-1q-68 0 -113 42q-71 66 -71 226h73q0 -126 48 -173q27 -25 75 -21q20 2 31.5 16t17.5 33q-31 -8 -60 -3q-57 13 -72 65q-10 37 4 69.5t39 58.5h-184z" />
    <glyph glyph-name="bn_j_j_ba" horiz-adv-x="698" 
d="M508 -71q29 -13 65 -37v65q-27 -11 -65 -28zM642 66v-304h-69v31q-25 40 -57 61t-59.5 29t-35.5 9l-6 -2l-30 57l228 117q-60 -66 -9 -66q21 0 38 68zM314 135q42 -73 94 -82q41 -6 62 17q16 22 14 45q-50 -21 -93 -1q-47 26 -45 82q4 55 32 93q-89 25 -126 81
q-21 -20 -34.5 -40t-9.5 -36q1 -2 2 -4.5t4 -4.5t10 -4q16 -2 33 4t28 19l66 -24q3 -54 -19 -114q-7 -18 -18 -31zM642 -35l-51 -22q-31 80 -25.5 148.5t22.5 110.5q-46 0 -82 21.5t-54 43.5q-28 -35 -33 -76q-1 -6 1 -8t4 -3q7 -4 22.5 -0.5t35.5 19.5l1 2l53 -9l2 -3
q1 -2 7.5 -17.5t10 -40t-2 -53t-28.5 -55.5q-41 -45 -103 -45q-12 0 -25 2q-87 15 -146 116q-11 -4 -24 -6q-9 -1 -17 -1h-1q-68 0 -113 42q-71 66 -71 226h73q0 -126 48 -173q27 -25 75 -21q20 2 31.5 16t17.5 33q-31 -8 -60 -3q-57 13 -72 65q-10 37 4 69.5t39 58.5h-184
v73h708v-73h-385q16 -19 46 -33t78 -12q14 9 20 12q2 2 3 2v-1q13 -21 31.5 -43t50 -37.5t76.5 -9.5l59 -54h-2q-17 -31 -33 -104q-8 -33 -7 -65v-92z" />
    <glyph glyph-name="bn_j_jha" horiz-adv-x="687" 
d="M565 438v0v37h137v-73h-64v-415h-73v28q-17 40 -48 66v-94h-73v28q-16 36 -62 63.5t-86 42.5q-26 -24 -73 -31q-8 -1 -16 -1h-2q-67 0 -113 42q-71 66 -71 226h74q0 -126 47 -173q27 -25 75 -21q30 4 42 31v3q1 0 1 1h1q3 7 5 14q-30 -8 -60 -3q-56 13 -72 65
q-9 37 4.5 69.5t38.5 58.5h-23v0h-159v73h582v-73h-260q15 -19 45.5 -33t78.5 -12l74 -30h2v-153q20 -13 48 -37v265v36zM281 304v0l67 -24q0 -18 -2 -38q51 24 86 40l-16 2q-17 2 -29 3t-13 2q-89 25 -125 81q-22 -20 -35 -40t-9 -36q0 -2 1 -4.5t4.5 -4.5t9.5 -4
q16 -2 33.5 4t27.5 19zM366 170v0q39 -17 78 -45v82q-36 -17 -78 -37z" />
    <glyph glyph-name="bn_j_nya" horiz-adv-x="641" 
d="M651 475v0v-73h-335q33 -22 80 -40q26 22 59.5 31t72.5 -5q67 -26 66 -91q-2 -23 -13 -45q32 -27 36 -81q-2 -66 -60 -98q-28 -15 -62 -15q-55 1 -118 37q-15 -21 -40 -37q-41 -23 -88 -23q-39 0 -78 17q-42 17 -85 74.5t-64 177.5l72 35q24 -180 108 -221
q29 -13 55 -10.5t43 13.5q20 13 26.5 36t4.5 46q-67 -41 -128 -17q-29 16 -42.5 43.5t-13.5 52.5q0 33 16.5 64.5t37.5 55.5h-211v73h661zM503 320v0q-29 9 -51 -7t-36 -37t-17 -29q7 -32 3 -82q36 -23 61 -29.5t40 -4t20 5.5q20 11 21 34q-2 17 -12 27q-17 -12 -37 -18
q-10 -5 -21 -5q-23 0 -38.5 16t-15.5 39q0 22 15.5 38t38.5 16q18 0 33 -11q12 14 13 28q0 2 -0.5 5.5t-4.5 7t-12 6.5zM346 304v0q-57 26 -90 51q-36 -41 -36 -73q0 -9 5 -16.5t11 -10.5q18 -8 45.5 2t54.5 30q5 8 10 17z" />
    <glyph glyph-name="bn_j_ba" horiz-adv-x="581" 
d="M-5 402v0v73h591v-73h-261q24 -22 69.5 -38t109.5 -4l44 -62q-2 -1 -7 -8.5t-10 -16.5q-4 -7 -8 -13q-20 -36 -28 -155l9 -238h-62q-13 16 -27.5 26.5t-38.5 18.5q-49 17 -95 12l-36 66q36 27 93 56l22 12q22 14 50 27q7 3 15 6q-4 123 26 186q-68 10 -115 35t-70 46
q-10 -10 -20 -24t-15 -25q-8 -22 -5 -45q3 -17 18 -26q12 -7 26.5 -2.5t25.5 12.5q12 9 24 19q0 1 1 1l3 3l6.5 6.5t7 6.5t4.5 2q1 0 9.5 -3t19.5 -6.5t19.5 -6.5l8.5 -3q1 -3 6 -27t4 -58.5t-15.5 -68.5t-51.5 -58q-41 -23 -88 -23q-40 0 -79 17q-43 18 -86 76t-64 178
l73 31q22 -178 108 -218q30 -13 55.5 -10.5t42.5 12.5q21 14 27 37t5 46q-30 -29 -71 -36q-41 -3 -74 23q-40 41 -40 93q0 33 16.5 64.5t37.5 56.5h-210zM431 -48v0v68q-17 -5 -32 -12q-29 -13 -52 -31q57 -6 84 -25z" />
    <glyph glyph-name="bn_j_ra" horiz-adv-x="551" 
d="M-3 402v0v73h558v-73h-227q22 -16 61.5 -31t92.5 -14l43 -54v0q-2 0 -18 -41t-21 -134q-2 -58 0.5 -110.5t5.5 -87l3 -34.5h-72l-3 3.5t-7.5 8.5t-7.5 8.5l-3 3.5q-21 20 -50.5 15t-54.5 -15q-2 -1 -4 -1q-56 -21 -117 -6q-84 26 -98 102l71 31q10 -65 87 -67q26 3 51 12
q21 7 43 11q9 1 17 2q18 4 33.5 3.5t31.5 -11.5l-1.5 38t-2.5 96q2 95 16 147q-70 16 -111 41t-54 39q-7 -8 -16 -21t-15 -27q-9 -22 -6 -45q3 -17 18 -26q13 -6 27 -2t25 12q13 9 24 19q0 1 1 1l3 3l7 7t7 6.5t5 2.5q0 -1 8.5 -3.5t19.5 -6.5t19.5 -7l8.5 -3q2 -3 6.5 -27
t3.5 -58.5t-15.5 -68.5t-51.5 -57q-40 -24 -88 -24q-40 0 -79 18q-43 17 -86 75t-64 178l73 32q22 -179 108 -219q30 -13 55.5 -10.5t43.5 13.5q20 13 26.5 36t4.5 46q-30 -29 -70 -36q-42 -2 -75 23q-40 41 -40 93q0 33 16.5 64.5t37.5 56.5h-204z" />
    <glyph glyph-name="bn_jh_ra" horiz-adv-x="582" 
d="M414 0h-72v32q-51 82 -144 115q-60 22 -87 22h-2l-38 62l21 14q156 108 250 152v5h-345v73h417v-267l47 -52v319h124v-73h-52v-388h-72v35l-47 51v-100zM342 145v170q-71 -36 -148 -88q70 -17 148 -82zM414 113v-115h-78q-11 12 -32.5 22.5t-51.5 3.5q-21 -6 -40 -12
q-40 -14 -78.5 -18t-79.5 21q-35 26 -45 62.5t-6 62.5l72 -9v-6q0 -6 1.5 -15.5t5.5 -18.5t12 -15q17 -12 38.5 -9.5t57.5 14.5q19 7 43 13q56 15 108 -11v30h73z" />
    <glyph glyph-name="bn_ny_ca" horiz-adv-x="578" 
d="M533 228v0q19 -50 -8 -105q-15 -28 -49.5 -49.5t-72.5 -21.5q-7 0 -13 1q-21 2 -40 8v-71v0v354v-1v-2v-10v-6v-32v-26v-37v-90q19 -11 49 -14q17 -1 35.5 9t24.5 21q13 26 6 45q-2 6 -7 10q-4 -18 -17.5 -29t-31.5 -11q-28 0 -41.5 22t-7.5 48q2 12 8.5 22.5t16.5 17.5
q21 11 45 11q9 10 15 22t3 25q-3 12 -10.5 19t-14.5 9q-15 4 -33 2.5t-32 -11.5q-2 -2 -4.5 -5t-2.5 -6q-1 -1 -1 -3v124v0v-33q53 14 93 2q59 -20 76 -80q4 -15 2.5 -37.5t-17.5 -50.5q20 -17 29 -41zM277 441v0v34h73v-51v-137v-304h-73v28q-23 36 -59.5 56.5t-73.5 29.5
t-93 12l-39 63q71 42 148 77t117 50v47q-7 11 -29.5 33t-57.5 30q-69 11 -88 -31q-3 -6 -3 -16q21 22 52 22q28 0 47.5 -18.5t19.5 -45.5q0 -25 -17.5 -43t-43.5 -20v-1h-7q-44 1 -68 16.5t-32 29.5q-17 26 -18 54t8 48q5 15 22.5 34.5t51 32t87.5 4.5q45 -9 76 -34z
M161 168v0q59 -14 116 -52v104q-48 -20 -116 -52z" />
    <glyph glyph-name="bn_ny_cha" horiz-adv-x="597" 
d="M532 354v0q42 -54 6 -115q-20 -31 -65 -45q5 -20 1 -45q-19 -77 -140 -111l184 -87l-30 -66l-303 142l10 71q95 -4 149.5 20.5t57.5 41.5q2 11 0 19q-23 -25 -70 -40q-42 -14 -85 -14q-27 0 -50 6.5t-38 22.5q-23 28 -9 62q8 18 18 37q28 44 41 104q1 5 -1 15.5t-7 17.5
q-4 7 -13.5 14.5t-23.5 9.5q-18 2 -30.5 -5t-18.5 -17q-4 -6 -5 -12q14 15 36 15q21 0 36 -14.5t15 -35.5q0 -22 -16 -37q-18 -19 -49 -21v0q-22 -2 -43.5 5t-37.5 27q-15 22 -15 52t15 57q38 63 121 56q53 -9 80 -41q10 16 26 29q55 47 118 33q64 -19 64 -87q-1 -10 -3 -21
q40 -8 75 -43zM309 208v0q22 7 31 13t10 9q-1 2 -6 7q-8 9 -20 21q-4 3 -7 6q-25 22 -47 50q-15 -42 -35 -85q-7 -16 -13 -29q30 -8 87 8zM478 279v0q4 5 4 14q-3 23 -27.5 35.5t-45.5 15.5q-9 -5 -20 -5.5t-18 -0.5q-17 1 -28.5 13t-11.5 29t12.5 29.5t29.5 12.5q7 0 14 -2
v0v1q0 5 -1.5 8t-3.5 4l-4 2q-15 3 -28.5 -2.5t-23.5 -14.5q-10 -10 -14 -18t-4 -10q4 -16 26.5 -40t39.5 -40q13 -12 23 -23q9 -9 15 -19q15 -5 35.5 -4t30.5 15z" />
    <glyph glyph-name="bn_ny_ja" horiz-adv-x="631" 
d="M585 315v0q8 -11 12.5 -30t-2.5 -46q-16 -53 -65 -67q-5 -1 -11 -2q-10 -23 -17 -67t3 -102l-71 -15q-12 63 -6 113.5t17 82.5q-14 6 -29 15q2 -37 -12 -76.5t-55 -65.5q-41 -24 -88 -24q-40 0 -78 18q-43 17 -85.5 74.5t-63.5 177.5l72 11q25 -156 108 -197
q29 -13 55 -10.5t43 13.5q20 13 26 36t5 45q-76 -26 -135 1q-49 28 -49 79q0 31 14.5 60.5t34.5 53.5t37 40q-4 2 -9 4q-11 8 -37 12q-38 5 -62 -23q28 -18 28 -50q0 -25 -17.5 -42.5t-41.5 -17.5q-37 0 -50 26.5t-8.5 59t20.5 55.5q53 71 140 61q87 -11 109 -51
q16 -24 8 -52q1 -5 4 -11q30 43 75.5 70t102.5 9q66 -27 65 -90q-2 -25 -16 -49q17 -10 29 -29zM241 265v0q13 -6 35 -5.5t45 9.5q-36 43 -51 84q-16 -18 -27 -37.5t-11 -36.5q0 -4 1.5 -7.5t7.5 -6.5zM525 259v0q1 5 1 8.5t-0.5 5.5t-1.5 3q-4 5 -11.5 9t-14.5 6
q-1 -1 -3 -1q0 -1 -1 -1q-15 -12 -36 -12q-23 0 -39.5 15t-16.5 37q0 21 16.5 36.5t39.5 15.5q16 0 29 -8q11 13 12 24q0 1 -0.5 4t-4.5 6.5t-13 6.5q-26 8 -50 -9t-41 -41.5t-24 -36.5q48 -49 90 -68.5t55 -15.5q2 0 4.5 1.5t5 4.5t4.5 10z" />
    <glyph glyph-name="bn_ny_jha" horiz-adv-x="662" 
d="M620 238v0q18 -50 -9 -104q-17 -32 -58 -54v-296h-61v32l-53 58v-90h-73v21q-29 48 -68 76t-76.5 41.5t-63 17.5t-26.5 4l-38 62l226 138q-16 3 -32.5 -1t-30.5 -10q-56 -26 -112 -23.5t-87 48.5q-35 63 -21 112.5t39 71.5l25 -26l26 -26q-2 -1 -7.5 -8.5t-9.5 -20
t-2.5 -29.5t12.5 -36q12 -16 43 -14t64 17q77 35 134 8q2 -2 5 -3v198q-40 -1 -83 -21q-32 -18 -37 -45q-4 -20 10 -36q0 -1 1 -2q-1 5 -1 10q0 21 15 36t36 15q16 0 30 -11q24 -20 21 -52t-27 -51q-11 -8 -22 -12q-22 -10 -45 -10q-38 0 -65 30q-34 43 -25 96q12 60 73 95
q65 31 119 30v1h73v-31q52 14 91 2q58 -20 76 -80q4 -14 2 -37t-18 -51q20 -16 30 -40zM366 -80v0v159v0q-1 4 -2 7l-139 -85q68 -19 141 -81zM492 -76v0v139h-1h-1q-6 0 -13 1q-20 2 -38 7v-88zM546 167v0q13 25 6 44q-3 8 -8 11q-14 -29 -44 -29q-28 0 -40.5 25t-2.5 50
q8 18 25 27q17 7 35 6q9 10 15 22.5t3 25.5q-3 11 -10.5 18t-14.5 9q-13 4 -31 2.5t-31 -9.5q-5 -4 -7 -7t-2 -5v0v-208q18 -9 47 -13q17 -1 35.5 9.5t24.5 21.5z" />
    <glyph glyph-name="bn_ny_ra" horiz-adv-x="662" 
d="M625 236v0q19 -49 -8 -104q-15 -27 -49 -48.5t-73 -21.5h-12q-22 3 -40 8v-70h-73v57q-3 13 -10 25t-21 18q-29 11 -73 -15q-52 -32 -112 -27.5t-98 57.5q-23 36 -28 69.5t1 59.5t13.5 41.5t9.5 17.5l60 -41q0 -1 -4.5 -10t-7.5 -23.5t0.5 -33.5t16.5 -40
q20 -27 53 -25.5t58 17.5q75 46 139 20h2l1 -1v236q-39 0 -82 -20q-28 -16 -34 -40q-5 -18 6 -38q16 33 49 33q19 0 33.5 -12.5t18.5 -31.5v0l1 -4v0v-1q1 -7 -1 -21t-12.5 -28.5t-35.5 -22.5q-51 -12 -84 15q-15 9 -27 27v0v0q-3 4 -5 8v0v0q-25 47 -14 94q14 54 69 85
q35 19 70.5 25t87.5 5h33v-33q52 15 93 2q58 -19 75 -80q4 -14 2.5 -36.5t-17.5 -50.5q19 -16 29 -41zM552 165v0q12 26 5 45q-2 6 -6 10q-4 -18 -17.5 -29t-32.5 -11q-27 0 -40.5 22t-8.5 48q3 11 9.5 21.5t16.5 17.5q21 11 44 11q10 10 15.5 22t2.5 25q-3 11 -10.5 18.5
t-14.5 9.5q-15 4 -33 2t-31 -11q-2 -2 -4.5 -5t-3.5 -6v-5v-1v-10v-6v-32v-26v-37v-89q19 -11 48 -14q18 -1 36 9t25 21zM444 -107h-74l-5 5.5t-11 12.5t-11 12.5l-5 5.5q-20 21 -48.5 18.5t-53.5 -12.5q-58 -23 -121 -7q-80 26 -98 99l73 34q16 -60 87 -60q27 2 52 12
q22 8 44 12q53 3 97 -33v55h73z" />
    <glyph glyph-name="bn_tt_tta" horiz-adv-x="425" 
d="M430 402v0h-319v-289q54 -1 117.5 14t90.5 62q24 49 8 78q-13 23 -42 26q-27 2 -45 -9q34 -15 34 -48q0 -35 -32.5 -47t-61.5 4q-9 6 -17 15t-10 20q-4 17 -2 35q3 35 26 62q43 46 114 41q67 -8 100 -63q34 -64 -6 -146q-16 -31 -42 -52q18 -21 27.5 -51.5t3.5 -70.5
q-14 -66 -97 -99q-41 -17 -94 -17q-41 0 -85 13.5t-85 45.5l46 57q47 -36 99.5 -41.5t92.5 10.5q45 18 51 44q4 28 -4.5 45.5t-19.5 25.5q-44 -16 -88 -21.5t-75 -5.5q-37 0 -44 2l-33 3v357h-42v73h341q1 32 -17 60q-18 26 -57 27q-46 2 -77 -9.5t-47 -24.5t-17 -15l-55 48
q2 3 25 22t66.5 36.5t107.5 15.5q46 -3 73.5 -21t40.5 -37q31 -50 30 -102h20v-73z" />
    <glyph glyph-name="bn_tt_ba" horiz-adv-x="427" 
d="M430 402v0h-319v-289q54 -1 117.5 14t90.5 62q24 49 8 78q-13 23 -42 26q-27 2 -45 -9q34 -15 34 -48q0 -35 -32.5 -47t-61.5 4q-9 6 -17 15t-10 20q-4 17 -2 35q3 35 26 62q43 46 114 41q67 -8 100 -63q34 -64 -6 -146q-16 -31 -42 -52l-65 -38q-44 -16 -88 -21.5
t-75 -5.5q-37 0 -44 2l-33 3v357h-42v73h341q1 32 -17 60q-18 26 -57 27q-46 2 -77 -9.5t-47 -24.5t-17 -15l-55 48q2 3 25 22t66.5 36.5t107.5 15.5q46 -3 73.5 -21t40.5 -37q31 -50 30 -102h20v-73zM224 -23q29 -13 65 -37v65q-28 -11 -65 -28zM358 123v-312h-69v31
q-25 40 -57 61t-59.5 29t-35.5 9l-6 -2l-30 57l228 117z" />
    <glyph glyph-name="bn_tt_ra" horiz-adv-x="468" 
d="M469 402v0h-319v-289q54 -1 117.5 14t90.5 62q24 49 8 78q-13 23 -42 26q-27 2 -45 -9q34 -15 34 -48q0 -35 -32.5 -47t-61.5 4q-9 6 -17 15t-10 20q-4 17 -2 35q3 35 26 62q43 46 114 41q67 -8 100 -63q34 -64 -6 -146q-16 -31 -42 -52q-28 -24 -65 -38
q-44 -16 -88 -21.5t-75 -5.5q-37 0 -44 2l-33 3v357h-82v73h381q1 32 -17 60q-18 26 -57 27q-46 2 -77 -9.5t-47 -24.5t-17 -15l-55 48q2 3 25 22t66.5 36.5t107.5 15.5q46 -3 73.5 -21t40.5 -37q31 -50 30 -102h20v-73zM429 -135h-74l-5 5.5t-11 12.5t-11 12.5l-5 5.5
q-20 21 -48.5 18.5t-53.5 -12.5q-58 -23 -121 -7q-80 26 -98 99l73 34q16 -60 87 -60q27 2 52 12q22 8 44 12q53 3 94 -33v167l77 65v-331z" />
    <glyph glyph-name="bn_tth_ra" horiz-adv-x="471" 
d="M221 551v0q13 -41 28 -76h227v-73h-143q59 -57 96 -147q40 -118 -37 -201q-52 -52 -122 -52q-28 0 -55 9q-76 31 -101 90t-22 101l1 23l30 12q31 11 53 27t32 53q8 40 -9 85h-200v73h172q-10 25 -19 56q-11 40 -7.5 70.5t14.5 51.5t20.5 32t11.5 12l23 -27l24 -27
q-2 -2 -9.5 -12.5t-11 -30.5t3.5 -49zM283 350v0q1 -24 -5 -50q-16 -57 -47.5 -84.5t-64.5 -39.5q2 -23 17.5 -52t54.5 -45q58 -17 102 25q47 51 21 126q-30 72 -78 120zM427 -147h-74l-5 5.5t-11 12.5t-11 12.5l-5 5.5q-20 21 -48.5 18.5t-53.5 -12.5q-58 -23 -121 -7
q-80 26 -98 99l73 34q16 -60 87 -60q27 2 52 12q22 8 44 12q53 3 94 -33v154l76 78z" />
    <glyph glyph-name="bn_dd_dda" horiz-adv-x="714" 
d="M291 127q-14 -7 -31 -12q-25 -6 -49 -6q-62 0 -112 39q-81 69 -76 221l73 -4q-4 -115 49 -160q41 -33 97 -19q35 11 46 47.5t9 54.5q-24 -29 -83 -47q-12 -3 -24 -3h-42v164h-153v73h721v-73h-232v-136q29 13 55.5 39t44.5 50l87 -8q8 -37 9 -105t-27.5 -131.5
t-107.5 -86.5q-31 -7 -61 -7q-78 0 -141 49q-31 26 -52 61zM221 402v-80q8 3 27 22t35 41l78 -7q8 -36 8.5 -89t-21.5 -104q-2 -3 -3 -6q16 -35 44 -58q58 -46 138 -27q53 17 68 69t11 106q-48 -56 -122 -79q-14 -4 -29 -4h-43v216h-191z" />
    <glyph glyph-name="bn_dd_ra" horiz-adv-x="493" 
d="M-6 402v0v73h505v-73h-231v-137q29 14 55 40t44 50l87 -8q8 -38 9 -105.5t-27 -131t-108 -86.5q-31 -8 -61 -8q-78 0 -140 49q-103 87 -96 269l72 -3q-5 -146 70 -210q57 -46 138 -27q52 16 67.5 68.5t11.5 106.5q-49 -56 -122 -80q-15 -3 -29 -3h-9h-34v216h-202z
M428 106v-229h-74q0 1 -1 1l-1 1q-1 1 -3 4q-5 5 -11 12t-11 13l-5 5q-20 21 -48.5 18.5t-53.5 -12.5q-58 -23 -121 -7q-80 26 -98 99l73 34q16 -60 87 -60q27 2 52 12q22 8 44 12q53 3 94 -33v130h77z" />
    <glyph glyph-name="bn_ddh_ra" horiz-adv-x="465" 
d="M470 402v0h-319v-289q54 -1 117.5 14t90.5 62q24 49 8 78q-13 23 -42 26q-27 2 -45 -9q34 -15 34 -48q0 -35 -32.5 -47t-61.5 4q-9 6 -17 15t-10 20q-4 17 -2 35q3 35 26 62q43 46 114 41q67 -8 100 -63q34 -64 -6 -146q-16 -31 -42 -52q-28 -24 -65 -38
q-44 -16 -88 -21.5t-75 -5.5q-37 0 -44 2l-33 3v357h-82v73h474v-73zM430 -135h-74l-5 5.5t-11 12.5t-11 12.5l-5 5.5q-20 21 -48.5 18.5t-53.5 -12.5q-58 -23 -121 -7q-80 26 -98 99l73 34q16 -60 87 -60q27 2 52 12q22 8 44 12q53 3 94 -33v167l77 65v-331z" />
    <glyph glyph-name="bn_nn_tta" horiz-adv-x="705" 
d="M316 294q-53 118 -151 105q-23 -4 -41.5 -22.5t-23.5 -37.5q-11 -45 14 -80q4 -7 12 -13.5t19 -6.5q24 -2 30 2q-30 14 -30 50q0 22 14.5 38t37.5 19q34 1 54 -26t17 -59q-4 -40 -32 -69q-32 -31 -83 -31l-13 1q-53 5 -87 51q-44 63 -26 143q10 38 45 72t83 43
q34 5 77 -3q43 -9 85 -46v-108zM316 475h299q0 32 -17 60q-18 26 -57 27q-46 2 -77 -9.5t-47 -24.5t-17 -15l-55 48q1 3 24 22t67 36.5t108 15.5q46 -3 73.5 -21t40.5 -37q31 -50 30 -102h20v-73h-319v-336q54 0 117 18t91 65q16 35 14 58t-9 34q-15 25 -40 28q-19 2 -34 -5
q18 -8 28 -25.5t7 -37.5q-8 -35 -40.5 -46.5t-62.5 7.5q-33 26 -32 66.5t27 71.5q43 46 114 42q63 -8 97 -66q38 -73 -4 -160q-30 -55 -85.5 -81.5t-113.5 -34t-89 -7.5q-20 0 -24 1l-34 2v406v0v73z" />
    <glyph glyph-name="bn_nn_ttha" horiz-adv-x="636" 
d="M388 552v0q12 -42 27 -77h227v-73h-142q58 -57 96 -146q39 -118 -38 -202q-52 -51 -122 -52q-27 0 -55 10q-75 30 -101 75.5t-23 86.5l2 23l29 12q31 11 53.5 41t32.5 67q8 40 -9 85l-28 73q-10 26 -19 57q-11 39 -7 69.5t14.5 52t20.5 32.5t11 12l24 -28l24 -27
q-3 -1 -10 -12t-11 -30.5t4 -48.5zM449 351v0q1 -25 -5 -51q-15 -57 -47.5 -98t-65.5 -53q2 -24 18 -38.5t56 -30.5q57 -18 102 25q46 51 21 126q-30 72 -79 120zM346 247q-56 148 -181 152q-23 -4 -41.5 -22.5t-23.5 -37.5q-11 -45 14 -80q4 -7 12 -13.5t19 -6.5
q24 -2 30 2q-30 14 -30 50q0 22 14.5 38t37.5 19q34 1 54 -26t17 -59q-4 -40 -32 -69q-32 -31 -83 -31l-13 1q-53 5 -87 51q-44 63 -26 143q10 38 45 72t83 43q34 5 77 -3q120 -35 159 -154z" />
    <glyph glyph-name="bn_nn_dda" horiz-adv-x="526" 
d="M309 374q-72 67 -135 57q-22 -3 -40.5 -21.5t-23.5 -36.5q-10 -45 13 -81q5 -6 13 -12t20 -8q22 -2 30 4q-30 13 -30 48q0 22 14 37.5t36 17.5q33 1 52.5 -24.5t16.5 -57.5q-5 -38 -31 -67q-31 -29 -82 -29h-11q-52 5 -85 50q-42 62 -25 138q10 39 43.5 72t81.5 41
q32 5 75 -4q54 -12 101 -55l20 49h49l4 -3q2 -1 14.5 -17t26.5 -43.5t22 -66.5q8 -76 -38 -134q1 -1 1 -2q2 0 3 -1q17 -12 33.5 -37.5t20.5 -67.5q4 -63 -52 -114q-60 -48 -136 -48q-27 0 -54 6q-144 36 -215 195l67 29q18 -46 58 -90.5t107 -62.5q73 -16 125 27
q29 25 28 52q-3 31 -20 47q-18 -19 -45 -19q-26 0 -44.5 18.5t-18.5 44.5t18.5 44.5t44.5 18.5q8 0 15 -1q14 15 23.5 37.5t6.5 45.5q-4 19 -10 35l-27 -65l-56 27l-1 13q0 7 -3 14z" />
    <glyph glyph-name="bn_nn_dd_ra" horiz-adv-x="533" 
d="M309 374q-72 67 -135 57q-22 -3 -40.5 -21.5t-23.5 -36.5q-10 -45 13 -81q5 -6 13 -12t20 -8q22 -2 30 4q-30 13 -30 48q0 22 14 37.5t36 17.5q33 1 52.5 -24.5t16.5 -57.5q-5 -38 -31 -67q-31 -29 -82 -29h-11q-52 5 -85 50q-42 62 -25 138q10 39 43.5 72t81.5 41
q32 5 75 -4q54 -12 101 -55l20 49h49l4 -3q2 -1 14.5 -17t26.5 -43.5t22 -66.5q8 -76 -38 -134q1 -1 1 -2q2 0 3 -1q17 -12 33.5 -37.5t20.5 -67.5q4 -63 -52 -114q-60 -48 -136 -48q-27 0 -54 6q-144 36 -215 195l67 29q18 -46 58 -90.5t107 -62.5q73 -16 125 27
q29 25 28 52q-3 31 -20 47q-18 -19 -45 -19q-26 0 -44.5 18.5t-18.5 44.5t18.5 44.5t44.5 18.5q8 0 15 -1q14 15 23.5 37.5t6.5 45.5q-4 19 -10 35l-27 -65l-56 27l-1 13q0 7 -3 14zM447 15v-202h-71q0 1 -1 1l-1 1q-1 1 -2 3q-5 5 -11 11.5t-11 11.5l-5 5q-20 19 -47.5 17
t-50.5 -11q-58 -25 -117 -6q-38 14 -68.5 48t-30.5 75h1q1 1 2 1q1 1 4 2q7 3 18 7.5t21.5 9l17.5 7.5q3 1 4 2q1 0 2 1h1q-1 -38 24.5 -62t62.5 -25q27 1 53 11q20 8 41 11q50 3 90 -30v111h74z" />
    <glyph glyph-name="bn_nn_ddha" horiz-adv-x="700" 
d="M316 294q-53 118 -151 105q-23 -4 -41.5 -22.5t-23.5 -37.5q-11 -45 14 -80q4 -7 12 -13.5t19 -6.5q24 -2 30 2q-30 14 -30 50q0 22 14.5 38t37.5 19q34 1 54 -26t17 -59q-4 -40 -32 -69q-32 -31 -83 -31l-13 1q-53 5 -87 51q-44 63 -26 143q10 38 45 72t83 43
q34 5 77 -3q43 -9 85 -46v-108zM316 475h392v-73h-319v-336q54 0 117 18t91 65q16 35 14 58t-9 34q-15 25 -40 28q-19 2 -34 -5q18 -8 28 -25.5t7 -37.5q-8 -35 -40.5 -46.5t-62.5 7.5q-33 26 -32 66.5t27 71.5q43 46 114 42q63 -8 97 -66q38 -73 -4 -160
q-30 -55 -85.5 -81.5t-113.5 -34t-89 -7.5q-20 0 -24 1l-34 2v406v0v73z" />
    <glyph glyph-name="bn_nn_nna" horiz-adv-x="467" 
d="M346 -59v323q-46 157 -173 140q-26 -5 -47.5 -26t-27.5 -43q-11 -52 16 -92q5 -8 15 -15t23 -9q27 -2 42 8q-38 17 -38 54q0 23 15 39t38 19q35 1 56 -26.5t18 -61.5q-5 -42 -35 -72q-33 -33 -87 -33q-7 0 -14 1q-55 4 -92 54q-46 68 -27 152q11 41 48 77.5t88 45.5
q36 5 82.5 -4t99.5 -59v62h123v-73h-51v-461h-72zM384 -1h-31v28q-37 126 -138 112q-20 -3 -36.5 -19.5t-21.5 -33.5q-9 -41 13 -72q3 -6 10.5 -11t16.5 -7q21 -1 22 0q-25 11 -25 46q0 22 14 37t36 18q33 1 52 -24.5t16 -56.5q-4 -37 -31 -64q-29 -29 -77 -29q-6 0 -12 1
q-49 3 -82 48q-40 59 -23 132q9 36 41.5 68t77.5 40q31 4 71.5 -4t69.5 -34v37h37v-212z" />
    <glyph glyph-name="bn_nn_ba" horiz-adv-x="466" 
d="M346 -59v323q-46 157 -173 140q-26 -5 -47.5 -26t-27.5 -43q-11 -52 16 -92q5 -8 15 -15t23 -9q27 -2 42 8q-38 17 -38 54q0 23 15 39t38 19q35 1 56 -26.5t18 -61.5q-5 -42 -35 -72q-33 -33 -87 -33q-7 0 -14 1q-55 4 -92 54q-46 68 -27 152q11 41 48 77.5t88 45.5
q36 5 82.5 -4t99.5 -59v62h123v-73h-51v-461h-72zM345 35v0v85l-89 -45q46 -12 89 -40zM418 204v-299h-72v28q-21 32 -54 49.5t-67 25t-57.5 9t-24.5 1.5l-26 65l229 118v3h72z" />
    <glyph glyph-name="bn_nn_ma" horiz-adv-x="617" 
d="M563 475v0v0h61v-73h-61v-425h-73v69q-3 18 -20 45t-58 40q-47 10 -73.5 -5t-31.5 -34q-2 -5 -3 -13q21 18 46 18t43.5 -17.5t18.5 -44.5t-17.5 -46.5t-48.5 -21.5v0v0h-1h-1v0q-14 0 -24 3q-53 16 -68 45q-27 43 -11 98q21 68 105 91v60q-46 157 -173 140
q-26 -5 -47.5 -26t-27.5 -43q-11 -52 16 -92q5 -8 15 -15t23 -9q27 -2 42 8q-38 17 -38 54q0 23 15 39t38 19q35 1 56 -26.5t18 -61.5q-5 -42 -35 -72q-33 -33 -87 -33q-7 0 -14 1q-55 4 -92 54q-46 68 -27 152q11 41 48 77.5t88 45.5q36 5 82.5 -4t91.5 -50v53h152v0h73z
M490 171v0v231h-72v-199q2 0 3 -1q4 0 7 -1q38 -10 62 -30z" />
    <glyph glyph-name="bn_nn_ra" horiz-adv-x="496" 
d="M355 422v0v53h146v-73h-65v-427h-71l-4.5 5t-10.5 11.5t-10.5 11l-5.5 5.5q-19 19 -46.5 16.5t-51.5 -11.5q-56 -21 -116 -6q-48 13 -73.5 47.5t-25.5 75.5l11 4.5t25 10.5t25 10.5l11 4.5q-3 -38 19.5 -63t66.5 -24q26 2 51 11q21 8 42 11q51 3 90 -30v200
q-46 156 -172 139q-26 -5 -47.5 -26t-27.5 -43q-12 -52 16 -92q5 -8 14.5 -15t23.5 -9q27 -2 41 8q-37 17 -37 54q0 23 15 39t38 19q35 1 55.5 -26.5t17.5 -61.5q-4 -42 -34 -72q-33 -33 -88 -33q-6 0 -13 1q-55 4 -92 54q-46 68 -27 152q11 41 47.5 77.5t88.5 45.5
q35 5 82 -4t92 -50z" />
    <glyph glyph-name="bn_t_ta" horiz-adv-x="471" 
d="M-8 402v0v73h485v-73h-485zM449 144v0q20 -54 -14 -113q-21 -33 -64 -54.5t-89 -22.5q-7 0 -15 1q-35 1 -87.5 26t-97 93t-57.5 200l73 5q19 -233 177 -252q30 -1 59 12.5t38 28.5q17 29 9 51q-6 16 -24 22q-11 3 -20 4q3 -8 3 -17q0 -23 -16.5 -39t-39.5 -16t-39.5 16
t-16.5 39t15.5 41.5t34.5 29.5q23 14 49 20v0q13 11 23.5 27t7.5 32q-4 15 -16.5 25.5t-26.5 14.5q-22 5 -43.5 3t-35.5 -11q-12 -8 -14 -20v-2q13 12 30 12q12 0 23 -6q16 -10 22 -30.5t-5 -37.5q-13 -16 -34 -22t-40 -4q-20 1 -37 13q-16 13 -23 34q-26 75 37 123
q33 21 70.5 23.5t67.5 -5.5q31 -7 58.5 -31t37.5 -63q4 -16 0.5 -41t-23.5 -55q30 -20 43 -54z" />
    <glyph glyph-name="bn_t_t_ba" horiz-adv-x="473" 
d="M-8 402v0v73h486v-73h-486zM450 144v0q19 -55 -15 -114q-21 -33 -64 -54t-89 -22h-14q-35 2 -87.5 26.5t-97.5 92.5t-57 200l72 6q20 -234 177 -252q30 -2 59 12t39 29q16 28 9 50q-7 16 -24 22q-11 4 -21 5q3 -8 3 -17q0 -23 -16.5 -39.5t-39.5 -16.5t-39 16.5t-16 39.5
t15 41t34 29q23 14 49 21v0q13 11 23.5 26.5t7.5 32.5q-4 14 -16.5 25t-26.5 14q-22 6 -43.5 3.5t-35.5 -11.5q-12 -7 -13 -20q-1 0 0 -1q12 11 30 11q11 0 22 -5q17 -11 22.5 -31.5t-5.5 -37.5q-12 -16 -33 -21.5t-41 -3.5q-20 1 -36 12q-17 14 -24 34q-26 76 38 124
q32 20 69.5 23t67.5 -5q31 -8 58.5 -32t37.5 -62q4 -16 1 -41t-24 -56q30 -19 44 -53zM-8 402v0v73h486v-73h-486zM450 144v0q19 -55 -15 -114q-21 -33 -64 -54t-89 -22h-14q-35 2 -87.5 26.5t-97.5 92.5t-57 200l72 6q20 -234 177 -252q30 -2 59 12t39 29q16 28 9 50
q-7 16 -24 22q-11 4 -21 5q3 -8 3 -17q0 -23 -16.5 -39.5t-39.5 -16.5t-39 16.5t-16 39.5t15 41t34 29q23 14 49 21v0q13 11 23.5 26.5t7.5 32.5q-4 14 -16.5 25t-26.5 14q-22 6 -43.5 3.5t-35.5 -11.5q-12 -7 -13 -20q-1 0 0 -1q12 11 30 11q11 0 22 -5q17 -11 22.5 -31.5
t-5.5 -37.5q-12 -16 -33 -21.5t-41 -3.5q-20 1 -36 12q-17 14 -24 34q-26 76 38 124q32 20 69.5 23t67.5 -5q31 -8 58.5 -32t37.5 -62q4 -16 1 -41t-24 -56q30 -19 44 -53zM236 -89v0q38 -17 68 -39l-1 74q-11 -4 -23 -10q-25 -10 -44 -25zM368 19v-222h-64q-23 28 -63 47
q-27 18 -66 22l-22 58q28 22 73 47q28 15 63 30q4 2 7 3q1 1 3 2q-1 7 -1 13h70z" />
    <glyph glyph-name="bn_t_tha" horiz-adv-x="453" 
d="M334 475v0h124v-73h-51v-407h-73v46q-44 45 -121 69.5t-122 29.5l-32 69q6 2 15 6q33 12 79 31.5t67 39.5q23 25 17 64q-3 27 -19 36l-41 -65l-5 12t-11.5 27.5t-11.5 27.5l-5 12q-14 0 -29.5 -8t-20.5 -21q-1 -4 0 -9q10 7 23 7q25 0 36.5 -19t8.5 -41t-23 -35
q-16 -10 -37 -11.5t-38 9.5q-19 12 -29 34t-11 45q-1 49 34 83q20 18 49.5 26.5t59.5 7.5l16 -56l26 56q29 -5 60.5 -34t39.5 -72q6 -47 -4 -76t-33 -51q-26 -25 -64 -46q65 -18 126 -56v269v59v14z" />
    <glyph glyph-name="bn_t_na" horiz-adv-x="508" 
d="M-4 402v0v73h520v-73h-520zM416 355v0q51 -49 51 -130q0 -54 -25 -97v-307h-72v62q-3 17 -20.5 41.5t-57.5 35.5q-48 10 -74.5 -4t-31.5 -31q-1 -5 -2 -11q21 16 45 16q26 0 44 -16t18 -41q0 -24 -17 -42t-48 -20v0h-1v0h-1h-1q-13 0 -23 3q-53 15 -68 41q-27 39 -11 89
q14 44 63.5 69.5t123.5 10.5q37 -9 62 -27v62q-44 -23 -101 -23q-64 0 -134 41.5t-103 170.5v2l-17 106l72 11l16 -104q35 -155 166 -155q114 0 125 117q0 50 -27 77q-17 15 -37 19t-37 2q-25 -3 -36.5 -20.5t-10.5 -34.5v-7q19 31 54 31q25 0 43 -18t18 -43q0 -11 -4 -20v0
l-2.5 -6.5t-10 -15t-22 -16t-38.5 -10.5q-31 -2 -54 11t-36 31t-16 30v0v1q-5 15 -5 30q-1 46 29.5 84.5t85.5 44.5q78 5 128 -40z" />
    <glyph glyph-name="bn_t_ba" horiz-adv-x="514" 
d="M518 475v0v-73h-524v73h524zM431 339v0q51 -49 51 -131q0 -84 -55.5 -137t-142.5 -53q-44 0 -91.5 16.5t-86.5 63t-60 133.5l-1 3l-16 106l72 11l16 -105q35 -155 167 -155q57 0 91 32t34 85q0 51 -27 77q-18 15 -38 19t-36 3q-25 -3 -36.5 -21t-11.5 -34q0 -4 1 -8
q19 31 53 31q26 0 44 -17.5t18 -43.5q0 -10 -4 -20v0l-2.5 -6.5t-10 -15t-22 -16t-38.5 -10.5q-32 -2 -55 11t-36 31t-16 30v1v0q-4 15 -5 31q0 46 30 84.5t86 44.5q78 5 128 -40zM251 -9q28 -13 64 -37v65q-27 -11 -64 -28zM385 63v-216h-69v8q-25 40 -57 61t-59.5 29
t-35.5 9l-6 -2l-30 57l129 69q38 -18 90 -18q20 0 38 3z" />
    <glyph glyph-name="bn_t_ma" horiz-adv-x="648" 
d="M513 475v0h73h66v-73h-66v-502h-73v64q-3 16 -20 41t-57 36q-48 9 -74.5 -4.5t-31.5 -31.5q-2 -4 -3 -11q21 17 46 17t43.5 -16.5t18.5 -40.5q0 -25 -17.5 -43t-48.5 -19v0v0h-1v0h-1q-14 0 -24 3q-53 15 -68 41q-26 39 -11 89q8 24 28 44q-9 -1 -19 -1q-65 0 -134.5 38
t-102.5 155l-1 2l-16 97l72 10l16 -95q34 -141 166 -141q114 0 125 106q0 46 -28 70q-17 14 -37 17.5t-36 2.5q-25 -3 -36.5 -19t-11.5 -31q0 -4 1 -7q19 28 53 28q26 0 43.5 -16t17.5 -39q0 -10 -3 -18v0l-2.5 -6t-10 -14t-22 -14.5t-38.5 -9.5q-48 -2 -75 22.5t-31 43.5v0
v0q-5 14 -5 28q-1 42 29.5 77t85.5 41q78 4 128 -37q50 -45 50 -119q0 -81 -62 -130q21 0 43 -5q38 -9 62 -27v324h-517v73h517z" />
    <glyph glyph-name="bn_t_ra" horiz-adv-x="448" 
d="M-5 475v0h460v-73h-460v73zM344 397v0v1h73v-398h-74v45q-8 4 -13 5q0 1 -1 1q-29 11 -73 -15q-52 -32 -112 -27.5t-98 56.5q-23 37 -28 70t1 59.5t13.5 42t9.5 16.5l60 -40q-1 -1 -5 -10t-7 -24t0 -33.5t17 -40.5q20 -26 53 -24.5t58 16.5q57 37 126 22v205
q-40 0 -82 -20q-28 -16 -34 -40q-6 -21 8 -43v0q15 27 47 26q24 -3 36 -22t7 -43q0 -3 -1 -6q-16 -38 -57 -40h-1v0q-25 -1 -49 8t-42 36q-31 50 -19 102q14 54 69 85q64 31 118 30z" />
    <glyph glyph-name="bn_t_ra_ukaar" horiz-adv-x="677" 
d="M-9 402v0v73h690v-73h-690zM628 277v0q8 -13 12 -27q9 -43 -13 -86.5t-75 -61.5q-61 -18 -112 0v-118h-75v27q-8 15 -31 31.5t-55 8.5q-21 -6 -40 -13v0q-40 -15 -78.5 -19.5t-79.5 23.5q-34 26 -44 71.5t-7 97.5l73 -9q0 -5 -1 -11q0 -25 2.5 -48.5t16.5 -34.5
q18 -13 39 -10.5t57 16.5q19 6 43 14q55 16 107 -15v145q0 14 -3 29.5t-13 23.5q-24 16 -73 -6q-24 -11 -34.5 -25.5t-9.5 -23.5q1 -5 7 -9q15 38 49 38q17 0 31 -11t19 -30q6 -39 -21 -67q-31 -28 -72 -19q-30 7 -54 29t-30 55q-6 42 16.5 76.5t57.5 51.5q36 19 77.5 25
t76.5 -18q18 -12 33.5 -39.5t15.5 -79.5v-71q8 -9 17 -15q20 -10 40 -9t36 6q24 9 32 28t4 34q-1 4 -2 7q-11 -31 -46 -41q-26 -5 -46 7t-26 37q-2 10 0 19v0l1 6.5t7 16.5t18.5 20.5t35.5 18.5q30 9 55 2t41.5 -21t20.5 -25v0v-1z" />
    <glyph glyph-name="bn_t_ra_uukaar" horiz-adv-x="630" 
d="M434 244v0q31 21 64 38q20 11 41 24l63 -59q0 -1 -1 -2q-4 -3 -12.5 -22.5t-16 -64t-7.5 -122.5l-72 -6q-1 14 -2 24q-1 24 -1.5 42t2 41t8.5 63q-38 -22 -66 -50v-166h-75v27q-8 15 -31 31.5t-55 8.5q-21 -6 -40 -13v0q-40 -15 -78.5 -19.5t-79.5 23.5q-34 26 -44 71.5
t-7 97.5l72 -9v-11q-1 -25 2 -48.5t17 -34.5q18 -13 38.5 -10.5t57.5 16.5q19 6 43 14q55 16 107 -15v145q0 14 -3 29.5t-14 23.5q-23 16 -72 -6q-24 -11 -35 -25.5t-9 -23.5q1 -5 7 -9q15 38 49 38q17 0 31 -11t19 -30q6 -39 -21 -67q-32 -28 -72 -19q-30 7 -54 29t-30 55
q-6 42 16.5 76.5t57.5 51.5q36 19 77 25t77 -18q17 -12 33 -39.5t16 -79.5v-14zM-3 402v0v73h637v-73h-637z" />
    <glyph glyph-name="bn_th_ba" horiz-adv-x="448" 
d="M318 468v0v7h137v-73h-65v-218v0v-265h-61q-28 33 -74 55q-46 21 -91 26l-27 68q28 22 70 46q-81 26 -131 26l-33 82q28 6 78 27t75 44q20 21 14 56q-6 34 -29 46q-15 7 -33 6.5t-33 -9.5q-16 -9 -16 -22q-1 -6 1 -11q16 27 45 27q22 0 37 -15.5t15 -37.5q0 -36 -37 -50
q-37 -15 -75 -6q-33 12 -48 44q-18 38 -6.5 75t47.5 58q66 36 135 7q55 -29 69 -100q10 -71 -34 -119q-25 -24 -60 -44q52 -15 103 -42q1 0 2 1l4 2q10 4 19 8q1 0 2 1v0v234v66zM318 7v0v88l-32 -12q-28 -13 -51 -31q45 -19 83 -45z" />
    <glyph glyph-name="bn_th_ra" horiz-adv-x="488" 
d="M356 468v0v7h137v-73h-64v-22v0v-419h-71l-5 5l-11 11t-10.5 11l-4.5 5q-20 19 -47.5 17t-50.5 -11q-56 -21 -116 -6q-48 13 -73.5 47.5t-25.5 74.5l7 3t18 7.5t21.5 9t17.5 8l7 3.5q-2 -38 20.5 -63.5t66.5 -23.5q26 2 50 11q21 8 43 11q37 3 71 -16q-17 14 -31.5 22.5
t-18.5 10.5q-47 20 -94.5 31t-77.5 11l-33 82q29 6 78.5 27t75.5 44q19 21 14 56q-7 34 -29 46q-16 7 -34 6.5t-33 -9.5t-16 -22q0 -6 1 -11q16 27 45 27q22 0 37.5 -15.5t15.5 -37.5q0 -36 -38 -50q-37 -15 -75 -6q-33 12 -48 44q-17 38 -5.5 75t46.5 58q67 36 135 7
q56 -29 69 -100q11 -71 -34 -119q-24 -24 -60 -44q68 -19 130 -59v263v66z" />
    <glyph glyph-name="bn_th_ra_ukaar" horiz-adv-x="669" 
d="M356 468v0v7h321v-73h-248v-22v0v-419h-71l-5 5l-11 11t-10.5 11l-4.5 5q-20 19 -47.5 17t-50.5 -11q-56 -21 -116 -6q-48 13 -73.5 47.5t-25.5 74.5l7 3t18 7.5t21.5 9t17.5 8l7 3.5q-2 -38 20.5 -63.5t66.5 -23.5q26 2 50 11q21 8 43 11q37 3 71 -16q-17 14 -31.5 22.5
t-18.5 10.5q-47 20 -94.5 31t-77.5 11l-33 82q29 6 78.5 27t75.5 44q19 21 14 56q-7 34 -29 46q-16 7 -34 6.5t-33 -9.5t-16 -22q0 -6 1 -11q16 27 45 27q22 0 37.5 -15.5t15.5 -37.5q0 -36 -38 -50q-37 -15 -75 -6q-33 12 -48 44q-17 38 -5.5 75t46.5 58q67 36 135 7
q56 -29 69 -100q11 -71 -34 -119q-24 -24 -60 -44q68 -19 130 -59v263v66zM429 226q19 -10 31 -13q73 -19 97 25q2 4 3 9q-20 -14 -48 -12q-30 4 -48.5 25t-16.5 51q3 25 19.5 41.5t41.5 20.5q9 1 17 0q48 -3 68.5 -21t27.5 -34q15 -30 13.5 -61.5t-13.5 -53.5
q-8 -15 -28.5 -34.5t-57 -29.5t-93.5 4q-24 5 -36 17z" />
    <glyph glyph-name="bn_th_ra_uukaar" horiz-adv-x="611" 
d="M356 468v0v7h257v-73h-184v-22v0v-419h-71l-5 5l-11 11t-10.5 11l-4.5 5q-20 19 -47.5 17t-50.5 -11q-56 -21 -116 -6q-48 13 -73.5 47.5t-25.5 74.5l7 3t18 7.5t21.5 9t17.5 8l7 3.5q-2 -38 20.5 -63.5t66.5 -23.5q26 2 50 11q21 8 43 11q37 3 71 -16q-17 14 -31.5 22.5
t-18.5 10.5q-47 20 -94.5 31t-77.5 11l-33 82q29 6 78.5 27t75.5 44q19 21 14 56q-7 34 -29 46q-16 7 -34 6.5t-33 -9.5t-16 -22q0 -6 1 -11q16 27 45 27q22 0 37.5 -15.5t15.5 -37.5q0 -36 -38 -50q-37 -15 -75 -6q-33 12 -48 44q-17 38 -5.5 75t46.5 58q67 36 135 7
q56 -29 69 -100q11 -71 -34 -119q-24 -24 -60 -44q68 -19 130 -59v263v66zM428 348l51 16q31 8 53 9l53 -69q-28 -109 -28 -157q0 -42 20 -123l-55 -29q-38 69 -38 165q0 57 15 124q-25 -2 -71 -20v84z" />
    <glyph glyph-name="bn_th_la" horiz-adv-x="451" 
d="M322 468v0v7h137v-73h-64v-431h-59v32q-5 15 -15 27.5t-24 13.5q-7 -1 -13 -3q-14 -7 -16.5 -26.5t-1.5 -32.5l-67 -3v15v0v0q0 4 -2 15.5t-11 23t-29 16.5q-52 10 -69 -28q-2 -4 -2 -9q15 16 37 16t38 -17t16 -40q0 -22 -14 -38t-35 -18v-1h-6q-35 0 -54 14t-26 27
q-13 23 -14 47.5t6 42.5q5 13 20 30t43 27.5t72 3.5q36 -8 55 -30q9 12 23 19q2 1 5 2v1v0q-47 20 -94.5 31t-76.5 11l-34 82q29 6 79 27t75 44q19 21 14 56q-7 34 -29 46q-15 7 -33.5 6.5t-33.5 -9.5t-16 -22q0 -6 1 -11q16 27 45 27q22 0 37.5 -15.5t15.5 -37.5
q0 -36 -38 -50q-36 -15 -75 -6q-32 12 -48 44q-17 38 -5.5 75t46.5 58q67 36 135 7q56 -29 69 -100q11 -71 -33 -119q-25 -24 -60 -44q68 -19 129 -59v263v66z" />
    <glyph glyph-name="bn_d_da" horiz-adv-x="477" 
d="M346 199v0q-29 -28 -49.5 -54.5t-29.5 -41.5l-4 -6l-64 31q-3 73 13 135q-35 -34 -60 -67t-35 -50l-73 46v210h-49v73h484v-73h-362v-134q56 70 141 113l60 -34l-5 -11q-1 -2 -11.5 -29t-20.5 -70q45 48 106 78l57 -42l-1 -3v0q-2 -3 -14 -40t-19 -97t7 -131l-71 -15
q-22 124 0 212z" />
    <glyph glyph-name="bn_d_d_ba" horiz-adv-x="461" 
d="M-5 402v0v73h469v-73h-355v-133q56 69 140 112l61 -34l-5 -11q-1 -1 -11.5 -28t-20.5 -70q44 48 105 78l57 -42l-1 -3q-2 -2 -11 -129v-215h-53q-23 28 -62 47q-39 18 -78 22l-23 58q28 22 73 47q29 15 64 30q3 2 6 3q2 1 3 1q-5 45 1 77q-30 -28 -57.5 -59.5
t-37.5 -48.5l-4 -5l-64 31q-3 72 13 134q-35 -34 -60 -67t-35 -49l-72 45v209h-42zM290 41v0q38 -17 70 -38q2 36 -2 73q-12 -4 -24 -10q-24 -10 -44 -25z" />
    <glyph glyph-name="bn_d_dha" horiz-adv-x="522" 
d="M-4 402v0v73h527v-73h-418v-145q63 88 207 129l49 -63l-15 -71l68 24q14 -10 33.5 -22.5t35.5 -22.5q-6 -49 -8.5 -132.5t8.5 -126.5l-68 -23q-13 45 -13 120t5 127l-68 -23q-4 -75 11 -180h-65l-2 9q-44 35 -87 44t-64 8h-5l-41 60q47 30 100 61t81 47q4 33 13 68
q-54 -22 -93 -57t-60 -63.5t-22 -31.5l-72 24v240h-37zM222 112v0q22 -6 45 -17q-1 20 -2 42q-20 -12 -43 -25z" />
    <glyph glyph-name="bn_d_dh_ba" horiz-adv-x="518" 
d="M248 5q11 -4 29 -17v30q-12 -5 -29 -13zM222 112q22 -6 42 -17l1 42q-20 -12 -43 -25zM338 -7v-96h-60v9q-17 27 -39 41.5t-41.5 20t-23.5 6.5l-7 -3l-26 50l49 26q-38 8 -58 7h-5l-41 60q47 30 100 61t81 47q4 33 13 68q-54 -22 -93 -57t-60 -63.5t-22 -31.5l-72 24v240
h-37v73h527v-73h-418v-145q63 88 207 129l49 -63l-15 -71l68 24q14 -10 33.5 -22.5t35.5 -22.5q-6 -49 -8.5 -132.5t8.5 -126.5l-68 -23q-13 45 -13 120t5 127l-68 -23z" />
    <glyph glyph-name="bn_d_na" horiz-adv-x="399" 
d="M271 228q0 29 9 62q-52 -6 -92 -42t-61 -64.5t-22 -31.5l-72 24v226h-37v73h407v-73h-298v-131q63 88 207 115l49 -63l-15 -71l-2 -24h-73zM271 68q-22 19 -48 24q-60 7 -73 -32q-3 -12 4 -24l4 -5q0 21 15 36t36 15q32 0 48 -34q6 -17 0.5 -34.5t-17.5 -30.5
q-22 -23 -54 -27q-25 -4 -49 5q-24 11 -39 32q-14 21 -19 45q-2 22 3 42q11 36 48 62.5t103 19.5q21 -5 38 -12v-82zM271 228h73v-257h-76z" />
    <glyph glyph-name="bn_d_ba" horiz-adv-x="401" 
d="M-4 402v0v73h407v-73h-298v-145q63 88 207 129l49 -63l-15 -71l-7 -79q-4 -75 11 -180h-65l-2 9q-44 35 -87 44t-64 8h-5l-41 60q47 30 100 61t81 47q4 33 13 68q-54 -22 -93 -57t-60 -63.5t-22 -31.5l-72 24v240h-37zM222 112v0q22 -6 45 -17q-1 20 -2 42
q-20 -12 -43 -25z" />
    <glyph glyph-name="bn_d_bha" horiz-adv-x="457" 
d="M358 193l4 -1l66 -45q1 -36 -6.5 -78t-31.5 -73q-45 -51 -129 -56h-9q-87 0 -149 61q-37 40 -55 82t-25 77l27 14l25 13l16 7q2 -7 2 -8v-1q2 -12 6 -29q11 -50 57 -104q39 -39 102 -38q52 3 76 29l9 12q-20 -25 -68 -27q-43 0 -68.5 13t-37.5 30q-39 54 -20 117
q15 56 77 71q14 3 23 3l6 37q-42 -20 -74 -45t-44 -38l-64 31v154h-81v74h468v-74h-314v-81q43 35 132 68l57 -34l-15 -122v0q27 -26 17 -62.5t-41 -51.5q-2 -1 -5 2l1 -4v0q-8 -3 -16 -3q-19 0 -33 14t-14 33q0 23 10 30q1 0 -10 -7t-15 -27.5t12 -38.5q9 -10 22 -13t26 -3
q24 1 41.5 16.5t27.5 40.5t15 35z" />
    <glyph glyph-name="bn_d_bh_ra" horiz-adv-x="461" 
d="M463 402v0h-352v-94q59 48 161 84l57 -29l-15 -132v-1l2 -2q15 -20 15 -45.5t-15 -45.5q-25 -32 -64 -22q-39 16 -39 52q0 10 4 18q-7 -2 -12.5 -7t-7.5 -13q-3 -10 -2.5 -22t7.5 -22q16 -18 61 -18q32 2 53 19t32.5 36t13.5 25v3l71 -37v-83v-122v-26l-74 -7
q-8 12 -31 25t-56 6q-22 -6 -41 -12q-39 -15 -78 -18.5t-80 21.5q-35 25 -44.5 62t-6.5 63l36 -4l36 -4v-6.5t1.5 -16t5.5 -19t12 -14.5q18 -12 39 -9.5t57 14.5q20 6 43 13q56 15 108 -11v63q-38 -31 -96 -34q-50 0 -78 14.5t-41 31.5q-12 14 -19.5 40t0.5 66q16 61 84 77
q17 4 34 3l5 43q-63 -29 -101 -60.5t-45 -40.5l-65 27v171h-43v73h468v-73z" />
    <glyph glyph-name="bn_d_ma" horiz-adv-x="544" 
d="M272 228q-1 29 8 62q-52 -6 -92 -42t-61 -64.5t-22 -31.5l-72 24v226h-37v73h407v-73h-298v-131q63 88 207 115l49 -63l-15 -71l-2 -24h-72zM354 402v73h196v-73h-61v-425h-73v69q-3 18 -20 45t-58 40q-47 10 -73.5 -5t-31.5 -34q-2 -5 -3 -13q21 18 46 18t43.5 -17.5
t18.5 -44.5t-17.5 -46.5t-48.5 -21.5h-2q-14 0 -24 3q-53 16 -68 45q-27 43 -11 98q21 68 105 91v24h72v-25q2 0 3 -1q4 0 7 -1q38 -10 62 -30v231h-62z" />
    <glyph glyph-name="bn_d_ra" horiz-adv-x="408" 
d="M338 -8l-47 -24q-43 91 -39.5 171.5t25.5 138.5q-53 -32 -86.5 -72t-50 -71t-16.5 -35v-1h-73v303h-53v73h413v-73h-287v-160q34 42 87.5 80t128.5 57l38 -55q-2 -3 -16.5 -30.5t-27 -73t-10.5 -101.5q1 -37 14 -76v-51zM338 40v-132h-70l-1 1l-1 1l-3 3q-5 6 -11 13
t-11 12l-5 6q-20 21 -48.5 18.5t-53.5 -12.5q-42 -19 -84.5 -0.5t-60.5 91.5l73 34q16 -56 29 -55q25 2 41.5 9t38.5 11q53 3 94 -33v33h73z" />
    <glyph glyph-name="bn_d_ra_ukaar" horiz-adv-x="606" 
d="M338 -8l-47 -24q-43 91 -39.5 171.5t25.5 138.5q-53 -32 -86.5 -72t-50 -71t-16.5 -35v-1h-73v303h-53v73h611v-73h-485v-160q34 42 87.5 80t128.5 57l38 -55q-2 -3 -16.5 -30.5t-27 -73t-10.5 -101.5q1 -37 14 -76v-51zM349 286q10 -49 53 -73q73 -19 97 25q2 4 3 9
q-20 -14 -48 -12q-30 4 -48.5 25t-16.5 51q3 25 19.5 41.5t41.5 20.5q9 1 17 0q48 -3 68.5 -21t27.5 -34q15 -30 13.5 -61.5t-13.5 -53.5q-8 -15 -28.5 -34.5t-57 -29.5t-93.5 4q-42 10 -75 75zM338 40v-132h-70l-1 1l-1 1l-3 3q-5 6 -11 13t-11 12l-5 6q-20 21 -48.5 18.5
t-53.5 -12.5q-42 -19 -84.5 -0.5t-60.5 91.5l73 34q16 -56 29 -55q25 2 41.5 9t38.5 11q53 3 94 -33v33h73z" />
    <glyph glyph-name="bn_d_ra_uukaar" horiz-adv-x="520" 
d="M338 -8l-47 -24q-43 91 -39.5 171.5t25.5 138.5q-53 -32 -86.5 -72t-50 -71t-16.5 -35v-1h-73v303h-53v73h527v-73h-401v-160q34 42 87.5 80t128.5 57l38 -55q-2 -3 -16.5 -30.5t-27 -73t-10.5 -101.5q1 -37 14 -76v-51zM308 257q59 30 123 34l53 -69q-28 -109 -28 -157
q0 -42 20 -123l-55 -29q-38 69 -38 165q0 57 15 124q-25 -2 -71 -20zM338 40v-132h-70l-1 1l-1 1l-3 3q-5 6 -11 13t-11 12l-5 6q-20 21 -48.5 18.5t-53.5 -12.5q-42 -19 -84.5 -0.5t-60.5 91.5l73 34q16 -56 29 -55q25 2 41.5 9t38.5 11q53 3 94 -33v33h73z" />
    <glyph glyph-name="bn_dh_na" horiz-adv-x="409" 
d="M280 475v0h133v-73h-61v-408h-72v38q-29 47 -68 75t-76 41.5t-62 17t-27 3.5l-38 62l87 52l-7 2.5t-17 8.5t-20 15.5t-17 23.5q-14 29 -10.5 61.5t19.5 52.5q22 32 57 48q39 18 86.5 7.5t62.5 -55.5q7 -27 -5 -52q-12 -24 -36 -32t-47 5q-33 19 -28 56q-16 -8 -22 -18v0
l-2 -5.5t-2 -15.5t4 -23q7 -15 26 -21t42 -5q4 1 8 4l46 28l46 28v76v3zM280 146v0v165l-141 -86q68 -18 141 -79zM279 9q-22 18 -48 23q-60 7 -73 -32q-3 -12 4 -24l4 -5q0 21 15 36t36 15q32 0 48 -34q6 -17 0.5 -34.5t-17.5 -30.5q-22 -23 -54 -27q-25 -4 -49 5
q-24 11 -39 32q-14 21 -19 45q-2 22 3 42q11 36 48 62.5t103 19.5q21 -4 38 -11v-82zM279 107h73v-196h-76z" />
    <glyph glyph-name="bn_dh_ba" horiz-adv-x="616" 
d="M280 475v0h133v-73h-61v-408h-72v38q-29 47 -68 75t-76 41.5t-62 17t-27 3.5l-38 62l87 52l-7 2.5t-17 8.5t-20 15.5t-17 23.5q-14 29 -10.5 61.5t19.5 52.5q22 32 57 48q39 18 86.5 7.5t62.5 -55.5q7 -27 -5 -52q-12 -24 -36 -32t-47 5q-33 19 -28 56q-16 -8 -22 -18v0
l-2 -5.5t-2 -15.5t4 -23q7 -15 26 -21t42 -5q4 1 8 4l46 28l46 28v76v3zM280 146v0v165l-141 -86q68 -18 141 -79zM501 144v0v182q-41 -23 -86.5 -49.5t-80.5 -49.5q85 -24 167 -83zM314 475h305v-73h-45v-402h-73v35q-23 43 -73 71q-49 26 -99 40v176q2 1 4 3q84 46 144 77
h-163v73z" />
    <glyph glyph-name="bn_dh_ra" horiz-adv-x="408" 
d="M280 475v0h133v-73h-61v-408h-72v38q-29 47 -68 75t-76 41.5t-62 17t-27 3.5l-38 62l87 52l-7 2.5t-17 8.5t-20 15.5t-17 23.5q-14 29 -10.5 61.5t19.5 52.5q22 32 57 48q39 18 86.5 7.5t62.5 -55.5q7 -27 -5 -52q-12 -24 -36 -32t-47 5q-33 19 -28 56q-16 -8 -22 -18v0
l-2 -5.5t-2 -15.5t4 -23q7 -15 26 -21t42 -5q4 1 8 4l46 28l46 28v76v3zM280 146v0v165l-141 -86q68 -18 141 -79zM352 65l1 -132h-71v1l-1 1l-3 3q-5 6 -11 13t-11 12l-5 6q-20 21 -48.5 18.5t-53.5 -12.5q-42 -19 -84.5 -0.5t-60.5 91.5l73 34q16 -56 29 -55q25 2 41.5 9
t38.5 11q53 3 94 -33v33h72z" />
    <glyph glyph-name="bn_dh_ra_ukaar" horiz-adv-x="589" 
d="M280 475v0h311v-73h-239v-408h-72v38q-29 47 -68 75t-76 41.5t-62 17t-27 3.5l-38 62l87 52l-7 2.5t-17 8.5t-20 15.5t-17 23.5q-14 29 -10.5 61.5t19.5 52.5q22 32 57 48q39 18 86.5 7.5t62.5 -55.5q7 -27 -5 -52q-12 -24 -36 -32t-47 5q-33 19 -28 56q-16 -8 -22 -18v0
l-2 -5.5t-2 -15.5t4 -23q7 -15 26 -21t42 -5q4 1 8 4l46 28l46 28v76v3zM280 146v0v165l-141 -86q68 -18 141 -79zM352 65l1 -132h-71v1l-1 1l-3 3q-5 6 -11 13t-11 12l-5 6q-20 21 -48.5 18.5t-53.5 -12.5q-42 -19 -84.5 -0.5t-60.5 91.5l73 34q16 -56 29 -55q25 2 41.5 9
t38.5 11q53 3 94 -33v33h72zM352 226q19 -10 31 -14q73 -19 97 25q2 4 3 9q-20 -14 -48 -12q-30 4 -48.5 25t-16.5 51q3 25 19.5 41.5t41.5 20.5q9 1 17 0q48 -3 68.5 -21t27.5 -34q15 -30 13.5 -61.5t-13.5 -53.5q-8 -15 -28.5 -34.5t-57 -29.5t-93.5 4q-24 6 -36 18z" />
    <glyph glyph-name="bn_dh_ra_uukaar" horiz-adv-x="538" 
d="M280 475v0h261v-73h-189v-408h-72v38q-29 47 -68 75t-76 41.5t-62 17t-27 3.5l-38 62l87 52l-7 2.5t-17 8.5t-20 15.5t-17 23.5q-14 29 -10.5 61.5t19.5 52.5q22 32 57 48q39 18 86.5 7.5t62.5 -55.5q7 -27 -5 -52q-12 -24 -36 -32t-47 5q-33 19 -28 56q-16 -8 -22 -18v0
l-2 -5.5t-2 -15.5t4 -23q7 -15 26 -21t42 -5q4 1 8 4l46 28l46 28v76v3zM280 146v0v165l-141 -86q68 -18 141 -79zM352 65l1 -132h-71v1l-1 1l-3 3q-5 6 -11 13t-11 12l-5 6q-20 21 -48.5 18.5t-53.5 -12.5q-42 -19 -84.5 -0.5t-60.5 91.5l73 34q16 -56 29 -55q25 2 41.5 9
t38.5 11q53 3 94 -33v33h72zM350 348l51 16q31 8 53 9l53 -69q-28 -109 -28 -157q0 -42 20 -123l-55 -29q-38 69 -38 165q0 57 15 124q-25 -2 -71 -20v84z" />
    <glyph glyph-name="bn_n_jha" horiz-adv-x="613" 
d="M-1 402v0v73h614v-73h-256q36 -25 88 -42.5t106 1.5l44 -55q-3 -3 -18.5 -31t-29 -74.5t-12.5 -104.5t31 -120l-65 -33q-47 101 -38.5 189t35.5 146q-64 3 -117 28t-84 49q-13 -17 -23 -34q-13 -21 -13 -39q0 -4 2 -13q2 -12 10 -21q23 -20 51.5 -3.5t54.5 42.5l56 -19
q1 -3 5.5 -27t4 -58t-15 -68t-51.5 -57q-41 -24 -88 -24q-40 0 -78 18q-55 20 -105 108l60 47q30 -68 76 -89q29 -13 55 -10.5t43 12.5q20 14 26.5 36.5t4.5 45.5q-3 -2 -7 -5q-25 -24 -50 -33.5t-66 9.5q-31 16 -46 49.5t-15 59.5q0 23 8 44q-10 7 -25 10q-38 6 -57.5 -7.5
t-22.5 -29.5q-1 -3 -1 -8q12 13 29 14q21 1 35.5 -13t16.5 -36q1 -22 -11 -37.5t-32 -18.5v0q-31 -3 -49 8t-26 23q-24 35 -14 82q8 39 45 64t96 16q25 -5 43 -16q9 13 19 25h-243z" />
    <glyph glyph-name="bn_n_ttha" horiz-adv-x="486" 
d="M233 553v0q12 -42 27 -78h230v-73h-144q59 -58 97 -148q40 -119 -38 -204q-55 -52 -123 -52q-28 0 -56 9q-76 31 -101.5 91t-22.5 102l2 23l30 12q18 7 33 15q0 1 1 1l2 4q5 17 1.5 32t-9.5 27q-10 17 -26.5 20t-28.5 -2q-2 -1 -5 -2q27 -4 40 -30q7 -18 0 -35.5
t-25 -24.5q-8 -3 -16 -4v0l-7 -0.5t-18 2t-22 10.5t-20 25q-12 25 -7.5 45.5t16 34t20.5 18.5v0v0q9 8 20 13q32 13 67 4.5t63 -50.5q4 -7 7 -14q6 36 -10 78h-214v73h186q-10 27 -19 58q-11 40 -7.5 71t14.5 52t21 32.5t11 12.5l24 -28l24 -28q-2 -1 -9.5 -11.5
t-11.5 -30.5t4 -50zM295 350v0q1 -25 -5 -51q-16 -58 -48 -85.5t-65 -39.5q2 -23 17.5 -52.5t55.5 -45.5q58 -17 103 25q47 52 21 128q-30 72 -79 121z" />
    <glyph glyph-name="bn_n_dda" horiz-adv-x="500" 
d="M-4 402v0v73h509v-73h-239v-138q29 14 55.5 40t44.5 50l87 -8q8 -37 9 -105.5t-27.5 -132t-108.5 -87.5q-31 -7 -61 -7q-78 0 -141 49q-49 41 -74 106l63 40q18 -57 57 -90q58 -46 139 -27q53 16 68.5 69t11.5 107q-49 -57 -123 -80q-15 -3 -30 -4h-8h-35v113
q-12 24 -31 35q-17 10 -33 5t-24 -15q-2 -2 -3 -5q25 10 48 -6q16 -13 18.5 -31t-10.5 -34q-5 -6 -12 -10v0l-6 -4t-16.5 -7t-24 -1.5t-29.5 11.5q-22 16 -28 36t-2.5 37t8.5 26v0v0q4 11 12 21q21 27 55.5 36.5t77.5 -13.5v24h-197z" />
    <glyph glyph-name="bn_n_dd_ra" horiz-adv-x="486" 
d="M-9 402v0v73h502v-73h-235v-138q30 14 56 40t44 50l88 -8q6 -31 8.5 -85t-13.5 -109h1v-251h-71l-5 5t-11 11.5t-10.5 11.5l-4.5 5q-20 19 -47.5 17t-50.5 -11q-57 -21 -117 -6q-59 13 -92 55l58 53q30 -44 93 -42q26 2 51 11q21 8 42 11q51 3 91 -30v65q-21 -12 -49 -19
q-31 -8 -62 -8q-78 0 -140 39q-49 37 -74 100l63 40q17 -53 56 -81q59 -44 139 -20q46 16 64.5 61.5t15.5 98.5q-49 -57 -123 -80q-14 -3 -29 -4h-9h-35v113q-12 24 -31 35q-17 10 -32.5 5t-23.5 -15q-2 -2 -3 -5q25 10 48 -6q16 -13 18 -31t-10 -34q-6 -6 -12 -10v0l-6 -4
t-16.5 -7t-24.5 -1.5t-29 11.5q-23 16 -28.5 36t-2.5 37t8 26v0v0q5 11 12 21q21 27 55.5 36.5t77.5 -13.5v24h-194z" />
    <glyph glyph-name="bn_n_ta" horiz-adv-x="533" 
d="M536 402v0h-152v-176q46 -8 78 -38q48 -46 48 -121q0 -79 -55.5 -129t-142.5 -50q-56 0 -104 29.5t-82.5 74t-50.5 93.5l69 23q19 -57 65.5 -102t102.5 -45q57 0 91 29t34 77q0 45 -24 68q-28 25 -77 22q-25 -3 -36.5 -18.5t-11.5 -30.5q1 -8 5 -14q16 36 51 36
q23 0 39.5 -16.5t16.5 -39.5q0 -24 -17 -41q-16 -15 -37 -21q-26 -9 -53 -5q-57 15 -73 73q-4 13 -5 27q0 39 25 73t71 46v11q-15 20 -43 45t-62 31q-74 9 -91 -41q-4 -16 6 -32q5 -7 13 -10q-1 3 -1 6q0 23 16.5 39.5t39.5 16.5q34 0 52 -37q6 -19 0 -38t-19 -33
q-25 -25 -61 -30q-28 -4 -55 6q-26 12 -43 36q-17 22 -21 50v0v0q-4 24 3 48q12 40 53.5 69.5t117.5 21.5q55 -10 95 -44v61h-314v73h539v-73z" />
    <glyph glyph-name="bn_n_t_ba" horiz-adv-x="555" 
d="M483 220v0q50 -45 50 -121q0 -60 -34 -104h1v-226h-52q-24 28 -63 46q-40 19 -79 23l-22 58q17 13 40 28q-61 0 -122 35.5t-96 132.5l64 40q34 -141 165 -141q115 0 126 108q0 47 -28 71q-17 14 -37 18t-36 2q-25 -3 -37 -19t-11 -32q0 -3 1 -7q19 29 53 29
q25 0 43 -16.5t18 -39.5q0 -10 -3 -19v0l-2.5 -6t-10.5 -14t-22.5 -15t-37.5 -9q-48 -2 -75.5 23t-31.5 44v0v0q-5 14 -5 29q-1 31 17 60.5t51 46.5v13q-11 16 -33 34t-53 25q-75 12 -95 -34q-3 -7 -3 -18q22 25 56 25q30 0 51 -20.5t21 -48.5t-19 -47.5t-47 -22.5v0h-7
q-48 0 -73.5 17t-34.5 33q-18 28 -19.5 58.5t8.5 52.5q6 16 24.5 37.5t54.5 34.5t95 5q43 -9 74 -31v44h-317v73h575v-73h-185v-145q62 -3 103 -37zM439 -157v0v76q-15 -5 -28 -11q-24 -11 -44 -26q39 -16 72 -39z" />
    <glyph glyph-name="bn_n_t_ra" horiz-adv-x="538" 
d="M541 402v0h-163v-159q53 2 77 -17q18 -11 33.5 -36.5t15.5 -73.5v-219l-74 -8q-9 13 -32 28t-55 9q-21 -6 -40 -13q-40 -14 -79 -18t-80 22q-34 25 -44 62t-7 62l73 -7v-7.5t1 -15.5t5 -18.5t13 -14.5q17 -12 38 -9.5t58 14.5q19 6 43 13q55 15 108 -14v134
q0 13 -3.5 27.5t-13.5 21.5q-24 14 -74 -6q-23 -10 -34 -23t-9 -22q1 -4 7 -8q15 35 49 35q17 0 31.5 -10.5t18.5 -27.5q6 -36 -21 -62q-32 -25 -73 -17q-29 6 -53 26.5t-31 50.5q-9 76 79 122v14q-15 20 -43 45t-62 31q-74 9 -91 -41q-4 -16 6 -32q7 -9 18 -12q-1 5 -1 11
q0 21 15 36.5t37 15.5q16 0 30 -10.5t20 -26.5q5 -18 -1.5 -37t-18.5 -32q-27 -29 -67 -31q-56 0 -91 43q-30 45 -17 97q12 40 53.5 69.5t117.5 21.5q56 -10 95 -44v61h-314v73h550v-73z" />
    <glyph glyph-name="bn_n_tha" horiz-adv-x="576" 
d="M584 402v0h-205v-132q57 3 105 -18.5t68 -76.5q21 -76 -32 -131q-41 -38 -114 -47l157 -61l-32 -61l-307 123l-4 67q64 -10 141.5 -3t106.5 30q12 11 15.5 28.5t-1.5 34.5q-4 13 -18 28.5t-39 21.5q-83 12 -108 -20q-4 -5 -5.5 -11.5t-0.5 -10.5q0 -3 2 -6q17 26 48 26
q19 0 34 -10.5t20 -27.5q8 -40 -25 -56.5t-69 -11.5q-22 4 -40 15q-26 18 -36.5 47t-1.5 58q17 43 63 60v12q-11 14 -33.5 30.5t-53.5 22.5q-74 12 -94 -31q-3 -6 -3 -16q22 23 55 23q30 0 51.5 -18.5t21.5 -45.5q0 -25 -19 -43t-47 -21v0h-8q-47 0 -72.5 16t-34.5 30
q-18 26 -19.5 53.5t8.5 48.5q6 15 24.5 34.5t54.5 31.5t94 4q44 -8 75 -28v42h-317v73h595v-73z" />
    <glyph glyph-name="bn_n_dha" horiz-adv-x="517" 
d="M-5 402v0v73h528v-73h-152v-140l58 24q15 -10 35 -28q15 -14 31 -27q-6 -50 -8.5 -133.5t8.5 -126.5l-69 -23q-12 45 -12 123.5t4 130.5l-47 -19v-193h-68v3q-45 41 -91 51t-69 10h-5l-41 59q39 25 83.5 51.5t77 45t36.5 20.5l3 1l1 1q0 2 -3.5 13.5t-12 27t-24.5 29.5
t-41 21q-49 10 -76 -4.5t-32 -33.5q-1 -3 -2 -8q17 14 39 14q27 0 45 -18.5t18 -44.5t-17 -44t-43 -19v0q-41 -1 -63.5 13t-32.5 30q-27 43 -11 98q15 46 65.5 73t125.5 12q44 -12 70 -35v46h-187h-72h-49zM233 111v0q35 -9 70 -28v69q-28 -16 -70 -41z" />
    <glyph glyph-name="bn_n_dh_ba" horiz-adv-x="546" 
d="M281 12q11 -4 29 -17v30q-12 -5 -29 -13zM255 119q22 -6 42 -17l1 42q-20 -12 -43 -25zM372 257l74 26q14 -10 33.5 -22.5t35.5 -22.5q-6 -49 -8.5 -132.5t8.5 -126.5l-68 -23q-13 45 -13 120t5 127l-68 -23l-1 -180v-96h-60v9q-17 27 -39 41.5t-41.5 20t-23.5 6.5l-7 -3
l-26 50l49 26q-38 8 -58 7h-5l-41 60q47 30 100 61t81 47zM299 227q0 2 -4 16t-12.5 29.5t-24.5 29.5t-41 21q-49 10 -76 -4.5t-32 -33.5q-1 -3 -2 -8q17 14 39 14q27 0 45 -18.5t18 -44.5t-17 -44t-43 -19q-41 -1 -63.5 13t-32.5 30q-27 43 -11 98q15 46 65.5 73t125.5 12
q44 -12 70 -35v46h-308v73h556v-73h-180v-147z" />
    <glyph glyph-name="bn_n_dh_ra" horiz-adv-x="540" 
d="M-5 402v0v73h548v-73h-152v-140l58 24q15 -10 35 -28q15 -14 31 -27q-6 -50 -8.5 -133.5t8.5 -126.5l-69 -23q-12 45 -12 123.5t4 130.5l-47 -19v-193h-68v3q-45 41 -91 51t-69 10h-5l-41 59q39 25 83.5 51.5t77 45t36.5 20.5l3 1l1 1q0 2 -3.5 13.5t-12 27t-24.5 29.5
t-41 21q-49 10 -76 -4.5t-32 -33.5q-1 -3 -2 -8q17 14 39 14q27 0 45 -18.5t18 -44.5t-17 -44t-43 -19v0q-41 -1 -63.5 13t-32.5 30q-27 43 -11 98q15 46 65.5 73t125.5 12q44 -12 70 -35v46h-187h-72h-69zM253 111v0q35 -9 70 -28v69q-28 -16 -70 -41zM391 61v-195h-75
q-9 21 -24 39.5t-39 18.5q-20 -1 -41 -16q-18 -12 -38 -20q-22 -7 -52.5 -4.5t-59.5 20.5q-48 30 -57 88l72 10q3 -24 23 -36q15 -9 29.5 -10t21.5 1q9 4 24 13q43 27 92 26q29 0 51 -17v82h73z" />
    <glyph glyph-name="bn_n_na" horiz-adv-x="407" 
d="M370 148v-134h-70v8q-12 16 -35 36.5t-51 25.5q-60 8 -74 -31q-3 -13 5 -24l4 -5v-1q0 22 15 36.5t36 14.5q32 0 48 -34q6 -17 0.5 -34t-17.5 -30q-22 -23 -55 -28q-24 -3 -49 6q-23 11 -38 32q-14 20 -19 44q-2 23 3 43q11 36 48 62.5t102 19.5q50 -10 77 -34v27h70z
M298 -39v276q-15 20 -43 45t-62 31q-74 9 -91 -40q-4 -17 6 -32q5 -7 13 -11v7q0 23 16 39t39 16q35 0 52 -37q6 -18 0 -37t-19 -33q-25 -26 -61 -31q-28 -4 -55 6q-26 12 -43 36q-16 23 -21 50q-3 25 3 48q12 40 54 70t117 22q56 -11 95 -45v61h-304v73h418v-73h-41v-441
h-73z" />
    <glyph glyph-name="bn_n_ba" horiz-adv-x="415" 
d="M298 -39v276q-15 20 -43 45t-62 31q-74 9 -91 -40q-4 -17 6 -32q5 -7 13 -11v7q0 23 16 39t39 16q35 0 52 -37q6 -18 0 -37t-19 -33q-25 -26 -61 -31q-28 -4 -55 6q-26 12 -43 36q-16 23 -21 50q-3 25 3 48q12 40 54 70t117 22q56 -11 95 -45v61h-304v73h424v-73h-47
v-441h-73zM301 67v54l-56 -28q24 -6 56 -26zM371 204v-241h-70v8q-16 24 -43 38.5t-54.5 20.5t-47 7.5t-23.5 1.5l-25 61l193 100v4h70z" />
    <glyph glyph-name="bn_n_ma" horiz-adv-x="575" 
d="M381 402v73h196v-73h-61v-425h-73v69q-3 18 -20 45t-58 40q-47 10 -73.5 -5t-31.5 -34q-2 -5 -3 -13q21 18 46 18t43.5 -17.5t18.5 -44.5t-17.5 -46.5t-48.5 -21.5h-2q-14 0 -24 3q-53 16 -68 45q-27 43 -11 98q21 68 105 91v24h72v-25q2 0 3 -1q4 0 7 -1q38 -10 62 -30
v231h-62zM298 166v71q-15 20 -43 45t-62 31q-74 9 -91 -40q-4 -17 6 -32q5 -7 13 -11v7q0 23 16 39t39 16q35 0 52 -37q6 -18 0 -37t-19 -33q-25 -26 -61 -31q-28 -4 -55 6q-26 12 -43 36q-16 23 -21 50q-3 25 3 48q12 40 54 70t117 22q56 -11 95 -45v61h-304v73h424v-73
h-47v-236h-73z" />
    <glyph glyph-name="bn_n_ra" horiz-adv-x="415" 
d="M298 23v214q-15 20 -43 45t-62 31q-74 9 -91 -40q-4 -17 6 -32q5 -7 13 -11v7q0 23 16 39t39 16q35 0 52 -37q6 -18 0 -37t-19 -33q-25 -26 -61 -31q-28 -4 -55 6q-26 12 -43 36q-16 23 -21 50q-3 25 3 48q12 40 54 70t117 22q56 -11 95 -45v61h-304v73h424v-73h-47v-379
h-73zM371 195v-195h-75q-9 21 -24 39.5t-39 18.5q-20 -1 -41 -16q-18 -12 -38 -20q-22 -7 -52.5 -4.5t-59.5 20.5q-48 30 -57 88l72 10q3 -24 23 -36q15 -9 29.5 -10t21.5 1q9 4 24 13q43 27 92 26q29 0 51 -17v82h73z" />
    <glyph glyph-name="bn_n_sa" horiz-adv-x="562" 
d="M-11 402v0v73h576v-73h-62v-402h-73v215q-12 32 -26 46.5t-22 14.5q-7 0 -13 -6.5t-8 -11.5q-7 -12 -19.5 -36t-25.5 -54q-39 -91 -105 -91q-39 0 -65.5 14.5t-41.5 30.5l45 60q4 -8 19.5 -20t42.5 -12q17 0 38 47q1 2 2 3q0 1 1 2q1 33 -4 60q-5 16 -20.5 34.5
t-45.5 26.5q-43 9 -67 -3.5t-28 -29.5q-1 -3 -2 -7q15 12 35 12q23 0 39 -16t16 -38t-15 -37.5t-38 -17.5v0q-36 -1 -55.5 11.5t-28.5 26.5q-24 37 -10 84q11 35 46.5 58t89.5 21q-16 8 -28 11l-16 4h-131zM430 402v0h-169q32 -34 50 -89q33 39 78 36q22 -3 41 -15v68z" />
    <glyph glyph-name="bn_p_tta" horiz-adv-x="749" 
d="M700 576v0q31 -49 30 -101h24v-73h-323v-335q54 0 117.5 17.5t90.5 64.5q17 35 15 58t-9 34q-15 25 -40 28q-20 2 -35 -4q19 -9 28.5 -26t6.5 -38q-8 -34 -40.5 -46t-61.5 7q-32 28 -32 67t26 72q43 46 114 41q63 -8 97 -66q38 -72 -4 -159q-49 -82 -145 -102.5
t-143 -20.5h-23l-34 2v75h-1v216q-4 11 -12 25l-179 -142l-39 50l18 14q17 21 16 50q0 9 -4.5 20.5t-15.5 20.5q-12 11 -24 13t-22 -1t-16 -6.5t-7 -4.5v0v0l-55 30l16 29q27 53 89.5 81.5t139.5 7.5q59 -21 95 -67v68h107v0h192q1 32 -17 60q-18 26 -57 27q-46 2 -77 -9.5
t-47 -24.5t-17 -15l-54 48q1 3 24 22t66.5 36.5t108.5 15.5q45 -3 72.5 -21t40.5 -38zM224 296v0l87 69q-28 35 -66 49q-73 17 -118 -18q29 -1 61 -27q32 -29 36 -73z" />
    <glyph glyph-name="bn_p_ta" horiz-adv-x="627" 
d="M548 177v0q57 -49 57 -132q0 -171 -221 -193q-72 0 -150 42.5t-115 173.5l-1 2l-3 17l79 22l4 -26q39 -157 186 -157q127 0 139 119q0 51 -30 78q-19 15 -41.5 19t-40.5 3q-28 -4 -41 -21.5t-13 -34.5q1 -4 1 -8q21 32 60 32q28 0 48 -18t20 -44q0 -11 -4 -21v0
l-2.5 -6.5t-11 -15t-25 -16t-42.5 -10.5q-54 -2 -84.5 25.5t-34.5 47.5v0v0q-5 16 -6 32q0 46 33.5 85.5t95.5 45.5q8 1 16 1v38q-5 13 -14 30l-208 -165l-46 57l20 17q20 24 19 58q0 10 -5 23t-18 25q-14 12 -28 14t-25.5 -1t-18.5 -7t-9 -5v0v-1l-64 36l18 33
q32 61 105 94t164 9q68 -24 110 -78v79h212v-73h-138v-195q30 -11 53 -30zM265 268v0l101 79q-32 41 -77 57q-85 20 -138 -20q34 -1 71 -31q39 -34 43 -85z" />
    <glyph glyph-name="bn_p_t_ra" horiz-adv-x="626" 
d="M265 268v0l101 79q-32 41 -77 57q-85 20 -138 -20q34 -1 71 -31q39 -34 43 -85zM421 234v23q-5 13 -14 30l-208 -165l-46 57l20 17q20 24 19 58q0 10 -5 23t-18 25q-14 12 -28 14t-25.5 -1t-18.5 -7t-9 -5v-1l-64 36l18 33q32 61 105 94t164 9q68 -24 110 -78v79h212v-73
h-138v-168h-74zM458 253q53 2 77 -17q18 -11 33.5 -36.5t15.5 -73.5v-227h-74q-9 13 -32 28t-55 9q-21 -6 -40 -13q-40 -14 -79 -18t-80 22q-34 25 -44 62t-7 62l73 -7v-7.5t1 -15.5t5 -18.5t13 -14.5q17 -12 38 -9.5t58 14.5q19 6 43 13q55 15 108 -14v134q0 13 -3.5 27.5
t-13.5 21.5q-24 14 -74 -6q-23 -10 -34 -23t-9 -22q1 -4 7 -8q15 35 49 35q17 0 31.5 -10.5t18.5 -27.5q6 -36 -21 -62q-32 -25 -73 -17q-29 6 -53 26.5t-31 50.5q-9 76 79 122q32 17 73 20z" />
    <glyph glyph-name="bn_p_na" horiz-adv-x="545" 
d="M557 475v-73h-58v-521h-82v72q-4 21 -23.5 51.5t-64.5 44.5q-54 11 -84 -6t-36 -39q-1 -5 -2 -13q23 20 51 20q29 0 49.5 -20t20.5 -51q0 -30 -19.5 -52.5t-54.5 -24.5v0v0h-1h-1h-1q-15 0 -26 4q-60 19 -77 51q-30 48 -12 111q16 54 71.5 85.5t139.5 13.5q42 -11 70 -34
v168q-5 10 -11 23l-211 -166l-46 57l20 17q20 24 19 59q0 10 -5 23t-18 25q-15 12 -29 14t-25.5 -1t-18.5 -7t-8 -5h-1v-1l-65 36l19 34q32 61 105.5 94.5t165.5 9.5q67 -24 109 -76v77h140zM262 265v0l102 81q-32 41 -78 57q-85 20 -139 -20q34 -1 72 -32q38 -34 43 -86z
" />
    <glyph glyph-name="bn_p_pa" horiz-adv-x="539" 
d="M421 410v0v65h124v-73h-52v-442h-72v104q-3 5 -6 12l-179 -128l-38 53l17 13q15 16 14 39q-1 21 -17 34q-12 8 -24 10t-22 0t-16 -5t-7 -4v0l-56 34l16 26q22 39 69 64l-14 22l20 13q17 17 16 40q-1 20 -20 34q-14 10 -28.5 12t-27 -0.5t-20 -6t-9.5 -4.5v0l-60 41l18 27
q32 50 103 77.5t159 8.5q69 -21 112 -66zM181 399v0q18 -7 36 -19q40 -30 48 -76l93 61q-28 26 -66 40q-67 19 -111 -6zM293 69v0l84 60q-24 25 -57 36q-61 14 -104 -7q18 -6 36 -20q34 -27 41 -69zM421 173v0v115q-5 7 -15 22l-113 -75q19 -2 38 -7q54 -17 90 -55z" />
    <glyph glyph-name="bn_p_ra" horiz-adv-x="551" 
d="M502 -66v-3h-79l-5.5 6t-12 13t-11.5 12.5t-6 5.5q-22 22 -52.5 19.5t-56.5 -13.5q-63 -23 -131 -6q-53 14 -81.5 53t-28.5 84l8 3.5t19.5 8.5t23.5 10t20 8.5l8 3.5q-3 -43 22.5 -71t74.5 -27q30 3 57 13q23 9 48 12q56 3 100 -33v234q-4 9 -9 19l-209 -165l-46 58
l20 16q21 24 19 58q0 11 -4.5 24t-18.5 24q-14 12 -28 14.5t-25.5 -0.5t-18.5 -7.5t-9 -5.5v0v-1l-64 36l18 33q32 62 105 95t164 8q65 -22 106 -72v1h2v73h134v-73h-53v0v-468zM267 267v0l102 80q-33 41 -77 56q-86 20 -139 -19q35 -2 72 -32q38 -34 42 -85z" />
    <glyph glyph-name="bn_p_ra_ukaar" horiz-adv-x="764" 
d="M718 299v0q9 -15 13 -31q10 -48 -14.5 -96.5t-83.5 -69.5q-72 -21 -131 2v-170v-3h-79l-5.5 6t-12 13t-11.5 12.5t-6 5.5q-22 22 -52.5 19.5t-56.5 -13.5q-63 -23 -131 -6q-53 14 -81.5 53t-28.5 84l8 3.5t19.5 8.5t23.5 10t20 8.5l8 3.5q-3 -43 22.5 -71t74.5 -27
q30 3 57 13q23 9 48 12q56 3 100 -33v234q-4 9 -9 19l-209 -165l-46 58l20 16q21 24 19 58q0 11 -4.5 24t-18.5 24q-14 12 -28 14.5t-25.5 -0.5t-18.5 -7.5t-9 -5.5v0v-1l-64 36l18 33q32 62 105 95t164 8q65 -22 106 -72v1h2v74h81v-1h267v-73h-267v0v-200q11 -13 24 -21
q22 -11 45 -10.5t40 6.5q27 10 36 31.5t5 38.5q-1 4 -3 8q-12 -36 -51 -47q-29 -5 -51.5 8.5t-29.5 40.5q-2 12 0 23v0l1.5 7t7.5 18t20.5 23t39.5 20q35 11 62.5 3t46 -23.5t23.5 -28.5v0v0zM267 267v0l102 80q-33 41 -77 56q-86 20 -139 -19q35 -2 72 -32q38 -34 42 -85z
" />
    <glyph glyph-name="bn_p_ra_uukaar" horiz-adv-x="699" 
d="M501 476v0v-1h208v-73h-208v0v-101l50 16q31 9 54 10l53 -70q-29 -109 -29 -157q0 -42 21 -122l-55 -29q-39 68 -39 165q0 57 15 124q-24 -3 -70 -20v-284v-3h-79l-5.5 6t-12 13t-12 12.5l-5.5 5.5q-22 22 -52.5 19.5t-57.5 -13.5q-63 -23 -130 -6q-54 14 -82.5 53
t-28.5 84l8.5 3.5t20 8.5t23.5 10t20 8.5l8 3.5q-3 -43 22.5 -71t74.5 -27q29 3 57 13q23 9 47 12q57 3 101 -33v234q-4 9 -9 19l-209 -165l-46 58l20 16q20 24 19 58q0 11 -5 24t-18 24q-15 12 -28.5 14.5t-25 -0.5t-19 -7.5t-8.5 -5.5v0v-1l-65 36l19 33q32 62 105 95
t164 8q65 -22 106 -72v1h2v74h81zM266 267v0l102 80q-33 41 -78 56q-85 20 -138 -19q34 -2 71 -32q39 -34 43 -85z" />
    <glyph glyph-name="bn_p_la" horiz-adv-x="548" 
d="M262 265v0l102 81q-32 41 -78 57q-85 20 -139 -20q34 -1 72 -32q38 -34 43 -86zM417 -49v311q-5 10 -11 23l-211 -166l-46 57l20 17q20 24 19 59q0 10 -5 23t-18 25q-15 12 -29 14t-25.5 -1t-18.5 -7t-8 -5h-1v-1l-65 36l19 34q32 61 105.5 94.5t165.5 9.5
q67 -24 109 -76v77h140v-73h-58v-451h-82zM498 88v-75h-72v22q-9 35 -23 43q-10 6 -27 -4q-14 -23 -12 -61l-65 -4q0 11 2 37q-7 12 -19.5 24t-31.5 16q-61 12 -77 -31q-3 -7 -3 -18q18 25 46 25q24 0 41.5 -20t17.5 -47q0 -26 -15.5 -45t-38.5 -21h-6q-39 1 -59.5 17
t-28.5 31q-15 27 -16 55.5t7 49.5q5 15 20 35.5t44.5 33.5t77.5 4q40 -10 64 -37q8 14 22 22q34 20 59 15q35 -7 93 -67z" />
    <glyph glyph-name="bn_p_sa" horiz-adv-x="640" 
d="M210 235l53 42q-14 20 -42 30q-56 13 -69 3q1 0 30 -24q24 -21 28 -51zM387 286l-229 -181l-44 55l22 16q11 13 10 34q0 6 -2.5 13.5t-10.5 13.5q-9 7 -16 8t-13.5 -0.5t-10.5 -3.5q-2 -1 -3 -2h-1v-1l-6 -5l-58 33l17 31q23 46 77 70t122 8q48 -18 79 -55zM594 0v0h-73
v214q-12 33 -26 47.5t-22 14.5q-7 0 -13 -6.5t-22 -39.5t-58 -119q-56 -93 -129 -93q-40 0 -66.5 14.5t-41.5 30.5l45 59q5 -7 20 -19t43 -12q61 25 91 111q2 65 -15 104.5t-42 60t-46.5 28t-28.5 7.5h-214v73h647v-73h-49v-402zM480 349v0q22 -3 41 -15v68h-169
q32 -34 50 -89q32 39 78 36z" />
    <glyph glyph-name="bn_ph_tta" horiz-adv-x="629" 
d="M580 577v0q32 -50 30 -102h21v-73h-320h-73h-45q35 -28 62 -58l25 -30l-32 -23q-45 -33 -97 -75q76 -12 153 -63v0v0v34v0v27v39v131l34 2q7 1 39 0q30 0 66 -5t64 -18q6 -3 12 -7q16 -12 25.5 -30.5t13.5 -36.5q5 -22 -1 -44q-8 -32 -37.5 -57.5t-72.5 -21.5
q-28 2 -48 18q-20 21 -14 46t32 38q12 5 27 5q25 0 42 -14q5 24 -12 41q-12 11 -32 14q-30 5 -58 5h-7v-68v-40v-203v0v-39q43 -1 88 9.5t67 44.5q14 25 14.5 41.5t-4.5 24.5q-11 16 -28 20q-3 1 -6 1q-16 1 -29 -3q16 -6 24 -19t6 -28q-7 -25 -34 -33.5t-51 5.5
q-32 23 -26 58q3 24 20 42q1 0 1 1q24 23 63 29q16 2 32 1q52 -6 80 -48q32 -53 -3 -116q-40 -60 -120 -75t-119 -15q-16 0 -19 1h-1l-28 1v114v0v0v13v0v0q-18 41 -56 64.5t-79.5 34.5t-71.5 14t-32 3l-32 61q14 16 45.5 40t64.5 48q15 12 29 22q-28 25 -56.5 46t-44.5 31
h-74v73h179v0h362q0 33 -17 60q-18 26 -58 28q-46 1 -77 -10.5t-47 -24t-17 -14.5l-55 48q2 3 25 22t67 36t108 16q46 -3 73 -21t40 -38z" />
    <glyph glyph-name="bn_ph_ra" horiz-adv-x="590" 
d="M593 475v0v-73h-401q35 -29 61 -59l26 -30l-32 -23q-46 -33 -98 -74q77 -13 153 -64v223l35 2q7 1 36.5 0.5t66.5 -6.5t65 -22q33 -22 45.5 -60t4.5 -75q-8 -40 -37 -71.5t-73 -27.5q-28 3 -48 23q-17 21 -15.5 46t18 44.5t42.5 19.5q25 0 42 -17q5 29 -12 50
q-15 16 -40.5 19.5t-48.5 3.5q-4 0 -8 1v-305h-73v38q-18 40 -55.5 63.5t-79 34.5t-71.5 14.5t-32 3.5l-32 60q14 16 45 40.5t64 47.5q16 12 29 22q-28 25 -56.5 46.5t-43.5 31.5h-74v73h597zM375 73v-132h-71q-21 25 -26 31l-5 5q-20 21 -48.5 18.5t-53.5 -12.5
q-42 -19 -84.5 -0.5t-60.5 91.5l73 34q16 -56 29 -55q25 2 41.5 9t38.5 11q53 3 94 -33v33h73z" />
    <glyph glyph-name="bn_ph_la" horiz-adv-x="608" 
d="M-4 402v0v73h616v-73h-406q35 -28 62 -58l25 -30l-32 -24q-45 -33 -97 -74q77 -12 153 -63v222l34 2q7 1 37 1t67 -6t65 -23q32 -21 45 -59.5t5 -75.5q-8 -40 -37.5 -71t-72.5 -28q-28 3 -48 24q-25 32 -10 70.5t55 38.5q25 0 42 -17q5 29 -12 51q-16 15 -41.5 19
t-48.5 4h-7v-162v0v-220h-73v50q-1 10 -5 23.5t-11.5 23.5t-19.5 11q-7 -1 -13 -3q-14 -7 -16.5 -26.5t-1.5 -33.5l-67 -2q-1 5 0 14v0v1q0 4 -2.5 15.5t-11.5 23.5t-29 16q-52 10 -69 -28q-2 -4 -2 -9q15 16 37 16q23 0 38.5 -17t15.5 -40t-14 -39t-35 -18v0h-6
q-35 0 -54 14t-26 27q-13 23 -14 47.5t6 42.5q5 13 20 30.5t43.5 27.5t71.5 3q37 -8 56 -30q9 12 23 19q22 11 40 13q-38 27 -82 39.5t-76 16t-35 3.5l-32 61q14 15 45.5 39.5t64.5 48.5q15 12 29 21q-28 26 -56.5 47t-44.5 31h-88z" />
    <glyph glyph-name="bn_b_ja" horiz-adv-x="602" 
d="M-8 402v0v73h617v-73h-264q35 -25 87.5 -42.5t106.5 0.5l43 -54q-3 -3 -18 -31.5t-29 -74.5t-12.5 -104t31.5 -120l-65 -33q-47 101 -38.5 189t35.5 146q-63 2 -114.5 26t-82.5 48q-20 -25 -33 -49.5t-11 -41.5q2 -11 5 -16.5t6 -7.5t5 -2q17 -5 45.5 7t54.5 40l62 -14
q1 -3 5.5 -27t4 -58t-15 -68t-51.5 -57q-41 -24 -88 -24q-26 0 -52 8q-30 7 -66.5 35.5t-67.5 88.5l65 32q35 -69 90 -87q45 -12 82 9q17 11 24 29.5t7 38.5q-64 -38 -121 -23q-11 3 -25 12t-25 27q-27 18 -58.5 28t-55 13.5l-23.5 3.5l-20 65l182 88h-222zM172 275v0
q2 16 7 32l-42 -20q22 -6 35 -12z" />
    <glyph glyph-name="bn_b_da" horiz-adv-x="573" 
d="M-4 402v0v73h581v-73h-288v-160q34 42 88 80t129 57l38 -55q-3 -3 -17 -30.5t-26.5 -73t-11 -102t31.5 -117.5l-65 -33q-43 91 -39.5 171.5t25.5 138.5q-53 -32 -86.5 -72t-49.5 -71t-17 -35v0h-72v302h-221zM127 254v0q49 -22 90 -51v99q-18 -6 -34 -14q-31 -14 -56 -34
zM251 103h-22q-30 37 -80 62q-50 24 -100 30l-28 77q36 29 93 61q36 20 80 42q10 4 21 9q1 0 1 1v37h35v-319z" />
    <glyph glyph-name="bn_b_dha" horiz-adv-x="537" 
d="M229 108q29 -13 65 -37v65q-28 -11 -65 -28zM363 263v-322h-69v31q-24 40 -56.5 61t-59.5 29t-36 8l-5 -1l-31 57l187 99v40zM286 320l2 -2l-145 -79q75 -18 143 -58v139zM363 73l-53 20q2 4 2 10q0 13 -8 27t-26 3q-13 0 -23 -8l-7 -7l-32 13q-41 26 -78 33q-40 7 -61 7
q-8 1 -10 1l-46 96l263 134h-290v73h545v-73h-176v-329zM361 247l73 26q14 -10 33.5 -22.5t35.5 -22.5q-6 -49 -8.5 -132.5t8.5 -126.5l-68 -23q-13 45 -13 120t5 127l-66 -23v77z" />
    <glyph glyph-name="bn_b_ba" horiz-adv-x="646" 
d="M-10 402v0v73h439v-73h-45v-402h-73v35q-23 43 -73.5 70.5t-103.5 42t-84 14.5l-36 81q45 35 129 81.5t144 77.5h-297zM311 144v0v182q-41 -23 -86.5 -49.5t-80.5 -49.5q85 -24 167 -83zM531 144v0v182q-41 -23 -86.5 -49.5t-80.5 -49.5q85 -24 167 -83zM344 475h305v-73
h-45v-402h-73v35q-23 43 -73 71q-49 26 -99 40v176q2 1 4 3q84 46 144 77h-163v73z" />
    <glyph glyph-name="bn_b_bha" horiz-adv-x="600" 
d="M572 68v0q2 -10 2 -48t-8.5 -85t-33.5 -84q-51 -67 -148 -72h-9q-99 0 -178 79q-64 86 -76 167l71 51q3 -33 17.5 -79.5t47.5 -88.5q49 -52 124 -51q59 3 88 40q11 17 17 47q-34 -28 -85 -31q-45 1 -72.5 15.5t-40.5 31.5q-44 52 -30 132q1 6 2 11q-54 28 -111 42t-89 15
l-39 82q48 34 139 81.5t156 78.5h-321v73h611v-73h-185v-228q22 -10 35 -30q27 -40 11 -85q-1 -3 -3 -6q-14 -30 -43 -39q-14 -5 -29 -2q-46 13 -46 54q0 21 13 37q-6 -3 -12.5 -9t-8.5 -17q-4 -19 -2 -35q1 -13 6 -24l6 -8q4 -5 10 -9q16 -10 42 -9q27 1 49 24t36 49.5
t17 38.5zM161 225v0q72 -20 146 -61q16 10 35 15v146q-44 -23 -93.5 -49.5t-87.5 -50.5z" />
    <glyph glyph-name="bn_b_ra" horiz-adv-x="465" 
d="M-4 402v0v73h473v-73h-45v-402h-73v35q-23 43 -73.5 70.5t-103.5 42t-84 14.5l-36 81q45 35 129 81.5t144 77.5h-331zM351 144v0v182q-41 -23 -86.5 -49.5t-80.5 -49.5q85 -24 167 -83zM62 -10v0q-48 30 -57 88l72 10q4 -24 23 -36q15 -9 29.5 -10t21.5 2q10 3 25 12
q20 14 50 26.5t74 12.5q29 0 52 -17v117h72v-230h-74q-10 21 -24.5 39.5t-39.5 18.5q-40 -6 -73 -29q-19 -12 -39 -20q-21 -7 -51.5 -4t-60.5 20z" />
    <glyph glyph-name="bn_b_ra_ukaar" horiz-adv-x="673" 
d="M-4 402v0v73h684v-73h-256v-402h-73v35q-23 43 -73.5 70.5t-103.5 42t-84 14.5l-36 81q45 35 129 81.5t144 77.5h-331zM351 144v0v182q-41 -23 -86.5 -49.5t-80.5 -49.5q85 -24 167 -83zM62 -10v0q-48 30 -57 88l72 10q4 -24 23 -36q15 -9 29.5 -10t21.5 2q10 3 25 12
q20 14 50 26.5t74 12.5q29 0 52 -17v117h72v-230h-74q-10 21 -24.5 39.5t-39.5 18.5q-40 -6 -73 -29q-19 -12 -39 -20q-21 -7 -51.5 -4t-60.5 20zM424 227q19 -10 31 -13q73 -19 97 25q2 4 3 9q-20 -14 -48 -12q-30 4 -48.5 25t-16.5 51q3 25 19.5 41.5t41.5 20.5q9 1 17 0
q48 -3 68.5 -21t27.5 -34q15 -30 13.5 -61.5t-13.5 -53.5q-8 -15 -28.5 -34.5t-57 -29.5t-93.5 4q-24 5 -36 17z" />
    <glyph glyph-name="bn_b_ra_uukaar" horiz-adv-x="622" 
d="M-4 402v0v73h630v-73h-202v-402h-73v35q-23 43 -73.5 70.5t-103.5 42t-84 14.5l-36 81q45 35 129 81.5t144 77.5h-331zM351 144v0v182q-41 -23 -86.5 -49.5t-80.5 -49.5q85 -24 167 -83zM62 -10v0q-48 30 -57 88l72 10q4 -24 23 -36q15 -9 29.5 -10t21.5 2q10 3 25 12
q20 14 50 26.5t74 12.5q29 0 52 -17v117h72v-230h-74q-10 21 -24.5 39.5t-39.5 18.5q-40 -6 -73 -29q-19 -12 -39 -20q-21 -7 -51.5 -4t-60.5 20zM422 348l51 16q31 8 53 9l53 -69q-28 -109 -28 -157q0 -42 20 -123l-55 -29q-38 69 -38 165q0 57 15 124q-25 -2 -71 -20v84z
" />
    <glyph glyph-name="bn_b_la" horiz-adv-x="462" 
d="M207 239v0q63 1 129 -58v134zM336 -12v19q-9 30 -23 37q-10 5 -27 -4q-5 -3 -8.5 -19t-3.5 -33l-65 -3q0 9 2 31q-7 11 -19.5 21t-31.5 14q-61 10 -77 -27q-3 -6 -3 -15q18 21 46 21q24 0 41.5 -17t17.5 -40t-15.5 -39t-38.5 -18h-6q-39 1 -59.5 14.5t-28.5 26.5
q-15 23 -16 47.5t7 42.5q5 13 20 30.5t44.5 28.5t77.5 4q40 -9 64 -32q8 12 22 19q34 17 59 13q-47 51 -99.5 64t-80.5 12q-9 0 -13 1l-6 -1l-37 76l248 140h-331v73h472v-73h-60v-414h-72z" />
    <glyph glyph-name="bn_bh_ra" horiz-adv-x="461" 
d="M-10 402v73h476v-73h-476zM355 168q-33 -27 -80 -29q-42 0 -68 13.5t-38 29.5q-41 49 -28 124q17 67 87 83q64 10 98 -36q25 -37 10 -78q-1 -3 -3 -6q-20 -43 -67 -38q-19 4 -31 17.5t-12 32.5q0 20 13 34q-6 -2 -12 -7.5t-9 -16.5q-7 -40 10 -62q15 -18 48 -17
q25 2 45.5 23t34 45.5t15.5 35.5l69 -33v-283h-79q-10 12 -31.5 22.5t-51.5 3.5q-21 -6 -40 -12q-40 -14 -79 -18t-79 21q-35 26 -45 62.5t-7 62.5l37 -4l36 -4v-6q0 -7 1 -16.5t5.5 -18.5t12.5 -15q17 -12 38 -9.5t58 14.5q19 7 43 13q55 15 99 -11v83z" />
    <glyph glyph-name="bn_bh_ra_ukaar" horiz-adv-x="679" 
d="M437 227q19 -11 31 -14q73 -19 97 25q2 4 3 9q-20 -14 -48 -12q-30 4 -48.5 25t-16.5 51q3 25 19.5 41.5t41.5 20.5q9 1 17 0q48 -3 68.5 -21t27.5 -34q15 -30 13.5 -61.5t-13.5 -53.5q-8 -15 -28.5 -34.5t-57 -29.5t-93.5 4q-24 6 -36 17zM-10 402v73h694v-73h-694z
M355 168q-33 -27 -80 -29q-42 0 -68 13.5t-38 29.5q-41 49 -28 124q17 67 87 83q64 10 98 -36q25 -37 10 -78q-1 -3 -3 -6q-20 -43 -67 -38q-19 4 -31 17.5t-12 32.5q0 20 13 34q-6 -2 -12 -7.5t-9 -16.5q-7 -40 10 -62q15 -18 48 -17q25 2 45.5 23t34 45.5t15.5 35.5
l69 -33v-283h-79q-10 12 -31.5 22.5t-51.5 3.5q-21 -6 -40 -12q-40 -14 -79 -18t-79 21q-35 26 -45 62.5t-7 62.5l37 -4l36 -4v-6q0 -7 1 -16.5t5.5 -18.5t12.5 -15q17 -12 38 -9.5t58 14.5q19 7 43 13q55 15 99 -11v83z" />
    <glyph glyph-name="bn_bh_ra_uukaar" horiz-adv-x="615" 
d="M435 283l51 16q31 8 53 9l53 -69q-30 -91 -30 -121q-1 -28 10 -90l-55 -29q-29 50 -28 132q0 39 17 88q-25 -2 -71 -20v84zM-10 402v73h631v-73h-631zM355 168q-33 -27 -80 -29q-42 0 -68 13.5t-38 29.5q-41 49 -28 124q17 67 87 83q64 10 98 -36q25 -37 10 -78
q-1 -3 -3 -6q-20 -43 -67 -38q-19 4 -31 17.5t-12 32.5q0 20 13 34q-6 -2 -12 -7.5t-9 -16.5q-7 -40 10 -62q15 -18 48 -17q25 2 45.5 23t34 45.5t15.5 35.5l69 -33v-283h-79q-10 12 -31.5 22.5t-51.5 3.5q-21 -6 -40 -12q-40 -14 -79 -18t-79 21q-35 26 -45 62.5t-7 62.5
l37 -4l36 -4v-6q0 -7 1 -16.5t5.5 -18.5t12.5 -15q17 -12 38 -9.5t58 14.5q19 7 43 13q55 15 99 -11v83z" />
    <glyph glyph-name="bn_bh_la" horiz-adv-x="510" 
d="M-10 402v0v73h525v-73h-525zM358 -87v154q-28 -9 -60 -11h-9q-91 0 -157 64q-39 42 -58 87.5t-25.5 78t-5.5 36.5l72 5q0 -1 5 -26.5t20 -61.5t45 -69q42 -42 110 -41q56 4 82 32q9 10 14 27q-32 -22 -78 -24h-3q-44 0 -69.5 14t-37.5 30q-34 44 -20 106q15 58 79 74
q37 8 73 -7q32 -15 39 -51q2 -21 -5.5 -41.5t-26.5 -30.5q-14 -7 -31 -6.5t-30 9.5q-22 19 -19 48q-8 -8 -10.5 -19t0.5 -21q9 -22 31 -29q21 -7 43 0q41 14 63 52l2 4q2 4 4 8.5t3.5 7.5t1.5 4q1 -1 11.5 -4t25 -6.5t25.5 -6.5q4 -2 7 -3h2l1 -1h1q1 -8 1 -39.5t-8.5 -71
t-32.5 -69.5q0 -1 -1 -2l-1 -1v-199h-73zM420 -11v-63h-62v19q-8 30 -20 37q-9 4 -24 -4q-4 -3 -7 -19t-3 -33l-57 -3q0 9 2 31q-6 11 -17 21t-28 13q-53 10 -67 -26q-2 -6 -2 -15q15 21 40 21q21 0 36 -17t15 -40q0 -22 -13.5 -38t-33.5 -18h-5q-34 1 -52 14.5t-25 25.5
q-13 23 -13.5 47.5t5.5 42.5q5 12 18 29.5t38.5 28.5t67.5 4q35 -9 56 -32q7 12 19 19q30 17 51 13q48 -8 81 -58z" />
    <glyph glyph-name="bn_m_na" horiz-adv-x="459" 
d="M336 402v0h-120q17 -21 17 -46q67 -42 103 -75v121zM316 189q-35 40 -53 54q-50 43 -95 43q-49 0 -53 -45q0 -11 7 -22q5 22 22 36.5t41 14.5q26 0 45 -19t19 -45q0 -25 -16 -44q-18 -21 -47 -28.5t-45 -7.5q-46 0 -82 36q-31 37 -31 85t38 82q30 27 80 30q-7 21 -50 43
h-99v73h467v-73h-52v-213h-96zM412 -37h-76v363h76v-363zM366 108q13 16 47 20v-20h-47zM346 80v28h20q-13 -16 -5 -44q-7 9 -15 16zM340 -9v11q-11 14 -33 30.5t-53 22.5q-75 12 -95 -31q-3 -5 -3 -15q22 22 55 22q31 0 52 -18.5t21 -44.5t-19 -43.5t-47 -20.5h-8
q-47 1 -72.5 16t-34.5 30q-19 26 -20 53t9 48q9 29 45 52.5t105 22.5q59 -2 104 -46v-89h-6z" />
    <glyph glyph-name="bn_m_pha" horiz-adv-x="788" 
d="M270 402h-101q10 -12 17 -42q28 -2 79 -49q28 -24 43.5 23t-38.5 68zM117 207q2 19 19.5 32t39.5 13t36 -14t18 -33q7 -38 -23 -62q-44 -31 -93 -14q-37 9 -60 39q-22 32 -22 67q0 18 6 40t25.5 43t49.5 31q-3 13 -17.5 26t-29.5 19t-21 8h-55v73h329q122 -109 8 -228
q-43 -36 -87 6v0q-12 15 -32.5 26t-45.5 7q-26 -5 -38 -13t-15.5 -18t-3.5 -20q0 -19 12 -28zM207 402v73h597v-73h-597zM371 362q65 -70 82 -89l26 -30l-32 -23q-46 -33 -98 -74q91 -6 153 -50v282q112 1 143.5 -6t59.5 -23q33 -22 45.5 -60t4.5 -75q-8 -40 -37 -71.5
t-73 -27.5q-28 3 -48 23q-17 21 -15.5 46t18 44.5t42.5 19.5q25 0 42 -17q5 29 -12 50q-15 16 -40.5 19.5t-48.5 3.5q-4 0 -8 1v-322h-73v13q-27 48 -95 67t-104.5 20t-38.5 1l-32 60q14 16 45 40.5t64 47.5q16 12 29 22q-28 25 -56 47q-8 5 -15 10z" />
    <glyph glyph-name="bn_m_ba" horiz-adv-x="495" 
d="M-3 402v0v73h501v-73h-66v-230v0v-130v-124h-64l-24.5 19.5t-63.5 37.5q-52 25 -103 30l-30 77q37 29 97 61q37 20 83 41q4 1 7 3q2 1 3 1q-36 41 -54 55q-50 43 -95 43q-49 0 -53 -45q0 -11 7 -22q5 22 22 36.5t41 14.5q26 0 45 -19t19 -45q0 -25 -16 -44v0
q-18 -21 -47 -28.5t-45 -7.5q-46 0 -82 36q-31 37 -31 85t38 82q30 27 80 30q-7 21 -50 43h-119zM257 64v0q51 -22 94 -51v99q-19 -6 -36 -14q-32 -14 -58 -34zM356 402v0h-120q17 -21 17 -46q67 -42 103 -75v121z" />
    <glyph glyph-name="bn_m_b_ra" horiz-adv-x="493" 
d="M-3 402v0v73h501v-73h-66v-230v0v-130v-128v-68h-64l-4 4t-8.5 9t-8 9l-3.5 4q-22 22 -53.5 17t-58.5 -16l-4 -2q-60 -24 -125 -7q-91 30 -105 114l75 35q11 -73 93 -75q29 3 55 13q23 9 46 13q10 1 19 3q4 0 9 1q-8 4 -15 7q-52 25 -103 30l-30 77q37 29 97 61
q37 20 83 41q4 1 7 3q2 1 3 1q-36 41 -54 55q-50 43 -95 43q-49 0 -53 -45q0 -11 7 -22q5 22 22 36.5t41 14.5q26 0 45 -19t19 -45q0 -25 -16 -44v0q-18 -21 -47 -28.5t-45 -7.5q-46 0 -82 36q-31 37 -31 85t38 82q30 27 80 30q-7 21 -50 43h-119zM257 64v0q51 -22 94 -51
v99q-19 -6 -36 -14q-32 -14 -58 -34zM356 402v0h-120q17 -21 17 -46q67 -42 103 -75v121z" />
    <glyph glyph-name="bn_m_bha" horiz-adv-x="587" 
d="M356 402v0h-120q17 -21 17 -46q67 -42 103 -75v121zM336 189q-35 40 -53 54q-50 43 -95 43q-49 0 -53 -45q0 -11 7 -22q5 22 22 36.5t41 14.5q26 0 45 -19t19 -45q0 -25 -16 -44q-18 -21 -47 -28.5t-45 -7.5q-46 0 -82 36q-31 37 -31 85t38 82q30 27 80 30q-7 21 -50 43
h-119v73h595v-73h-160v-237h-95zM494 123l4 -1l66 -45q0 -36 -7 -78t-31 -72q-45 -52 -129 -56q-5 -1 -9 -1q-87 0 -149 61q-37 40 -55 82.5t-25 77.5l27 13l25 13l16 8q1 -8 2 -9v-1q2 -11 6 -28q11 -51 57 -105q39 -39 102 -38q52 3 76 29l9 12q-20 -25 -68 -27
q-43 0 -68.5 13.5t-37.5 29.5q-39 54 -20 117q15 56 77 71q14 3 23 3q45 -1 71 -30v0q27 -26 17 -62.5t-41 -51.5q-2 -1 -5 2l1 -3v-1q-8 -2 -16 -2q-19 0 -33 13.5t-14 32.5q0 23 10 30q1 0 -10 -7t-15 -27.5t12 -38.5q8 -10 21.5 -13t25.5 -3q25 2 42.5 17.5t27.5 40
t15 34.5z" />
    <glyph glyph-name="bn_m_bh_ra" horiz-adv-x="605" 
d="M356 402v0h-120q17 -21 17 -46q67 -42 103 -75v121zM336 189q-35 40 -53 54q-50 43 -95 43q-49 0 -53 -45q0 -11 7 -22q5 22 22 36.5t41 14.5q26 0 45 -19t19 -45q0 -25 -16 -44q-18 -21 -47 -28.5t-45 -7.5q-46 0 -82 36q-31 37 -31 85t38 82q30 27 80 30q-7 21 -50 43
h-119v73h614v-73h-179v-213h-96zM466 219q1 0 1 -1l2 -2q15 -20 15 -45.5t-15 -45.5q-25 -32 -64 -22q-39 16 -39 52q0 10 3 18q-6 -2 -11.5 -7t-7.5 -13q-3 -10 -2.5 -22t7.5 -22q16 -18 61 -18q31 1 52.5 18.5t33 36t12.5 25.5l1 3l71 -37v-238h-74q-8 12 -31 25t-57 6
q-21 -6 -40 -13q-40 -14 -78.5 -18t-79.5 22q-35 25 -45 62t-6 62l36 -3l36 -4v-7.5t1.5 -15.5t5.5 -18.5t12 -14.5q18 -12 39 -9.5t57 14.5q20 6 43 13q56 14 108 -11v63q-38 -31 -96 -34q-50 0 -78 14t-41 31q-12 15 -19.5 41t0.5 65q16 62 84 78q17 4 34 3q46 -3 69 -31z
" />
    <glyph glyph-name="bn_m_ma" horiz-adv-x="613" 
d="M336 402v0h-120q17 -21 17 -46q67 -42 103 -75v121zM316 189q-35 40 -53 54q-50 43 -95 43q-49 0 -53 -45q0 -11 7 -22q5 22 22 36.5t41 14.5q26 0 45 -19t19 -45q0 -25 -16 -44q-18 -21 -47 -28.5t-45 -7.5q-46 0 -82 36q-31 37 -31 85t38 82q30 27 80 30q-7 21 -50 43
h-99v73h467v-73h-52v-213h-96zM422 402v73h196v-73h-61v-425h-73v69q-3 18 -20 45t-58 40q-47 10 -73.5 -5t-31.5 -34q-2 -5 -3 -13q21 18 46 18t43.5 -17.5t18.5 -44.5t-17.5 -46.5t-48.5 -21.5h-2q-14 0 -24 3q-53 16 -68 45q-27 43 -11 98q21 68 105 91v39h72v-40
q2 0 10 -2q38 -10 62 -30v231h-62z" />
    <glyph glyph-name="bn_m_ra" horiz-adv-x="501" 
d="M455 111v-184h-70l-21.5 27.5t-59 26.5t-63.5 -11q-63 -24 -130 -7q-54 14 -82.5 53t-28.5 84h1l2 1l5 2q8 4 20 9l24 10t20 8q3 2 5 2l2 1l1 1q-3 -42 22.5 -70.5t74.5 -26.5q29 3 57 13q23 8 47 12q57 3 101 -34v83h73zM-1 475v0h506v-73h-50v-402h-73v176
q-12 36 -52 63t-95 25q-64 -7 -78 -44.5t8 -54.5q9 -6 21 -9q-3 9 -3 19q0 30 21 51t51 21q31 0 49.5 -20.5t23 -49t-7.5 -54.5q-21 -36 -63 -43q-22 -5 -44 -5q-48 0 -88 26q-58 43 -58 112q0 44 44 81.5t112 40.5v0h1q-37 42 -64 53t-37 14h-124v73zM382 295v0v107h-122
q37 -41 44 -68q41 -11 78 -39z" />
    <glyph glyph-name="bn_m_la" horiz-adv-x="494" 
d="M141 22q9 7 31 7q24 0 41 -19.5t17 -45.5t-15 -44.5t-38 -20.5h-6q-37 1 -56.5 16t-27.5 30q-14 25 -15 52t7 46q5 15 19 34t42 31.5t73 4.5q38 -10 56 -30q4 8 18 16q32 19 57 14q32 -7 87 -64v-74h-75v24q-7 29 -18 35q-6 4 -19 -4q-3 -2 -5.5 -17.5t-2.5 -37.5l-69 -4
q0 15 2 37q-6 10 -16.5 19.5t-25.5 13.5q-47 10 -61 -19zM356 402v0h-120q17 -21 17 -46q67 -42 103 -75v121zM336 189q-35 40 -53 54q-50 43 -95 43q-49 0 -53 -45q0 -11 7 -22q5 22 22 36.5t41 14.5q26 0 45 -19t19 -45q0 -25 -16 -44q-18 -21 -47 -28.5t-45 -7.5
q-46 0 -82 36q-31 37 -31 85t38 82q30 27 80 30q-7 21 -50 43h-119v73h501v-73h-66v-213h-96zM432 -37h-76v363h76v-363z" />
    <glyph glyph-name="bn_y_ra" horiz-adv-x="462" 
d="M423 0v0h-73v18q-36 61 -115.5 87t-146.5 25l-45 81l164 109q-32 26 -71 48t-65 34h-74v73h471v-73h-45v-402zM158 195v0q47 -6 98 -21.5t94 -46.5v275h-132q38 -27 66 -60l31 -37zM61 -19v0q-48 30 -57 88l72 11q4 -25 23 -37q15 -8 29.5 -9t21.5 1q10 4 24 13
q21 13 51 26t74 13q29 0 51 -17v117h73v-230h-75q-9 21 -23.5 39.5t-39.5 18.5q-40 -6 -73 -30q-19 -12 -39 -19q-21 -7 -52 -4.5t-60 19.5z" />
    <glyph glyph-name="bn_ra_ukaar" horiz-adv-x="623" 
d="M382 0v0h-73v32q-23 44 -71.5 73.5t-100.5 46.5t-86 23l-32 74q43 36 115.5 78.5t131.5 74.5h-272v73h639v-73h-251v-402zM129 234v0q90 -26 180 -91v197q-91 -52 -180 -106zM97 60v0q0 21 15.5 36t36.5 15t36 -15t15 -36q0 -22 -15 -37t-36 -15t-36.5 15t-15.5 37z
M381 226q20 -10 31 -13q73 -19 97 25q2 4 3 9q-20 -14 -48 -12q-30 4 -48.5 25t-16.5 51q3 25 19.5 41.5t41.5 20.5q9 1 17 0q48 -3 68.5 -21t27.5 -34q15 -30 13.5 -61.5t-13.5 -53.5q-8 -15 -28.5 -34.5t-57 -29.5t-93.5 4q-24 5 -36 17z" />
    <glyph glyph-name="bn_ra_uukaar" horiz-adv-x="582" 
d="M382 0v0h-73v32q-23 44 -71.5 73.5t-100.5 46.5t-86 23l-32 74q43 36 115.5 78.5t131.5 74.5h-272v73h595v-73h-207v-402zM129 234v0q90 -26 180 -91v197q-91 -52 -180 -106zM97 60v0q0 21 15.5 36t36.5 15t36 -15t15 -36q0 -22 -15 -37t-36 -15t-36.5 15t-15.5 37z
M381 348l51 16q31 8 53 9l53 -69q-28 -109 -28 -157q0 -42 20 -123l-55 -29q-38 69 -38 165q0 57 15 124q-25 -2 -71 -20v84z" />
    <glyph glyph-name="bn_l_ka" horiz-adv-x="694" 
d="M518 216v0q123 -8 151 -105q10 -50 -21 -93q-11 -14 -26 -24q-19 -10 -46.5 -7.5t-40.5 18.5q-6 7 -9 18t-3 20q0 19 15.5 31.5t37.5 12.5q6 0 12 -2.5t9 -6.5q2 10 0 20q-13 48 -79 53v-148v0v-89h-73v17q-44 62 -99 77t-91 12l-41 70l231 131v10q-1 1 -1 3v37
q-3 11 -14.5 27t-34.5 20q-11 2 -24 -9t-19 -28t-6 -25l-72 -2q0 1 -2.5 8t-8.5 17.5t-16 20t-26 13.5q-21 8 -49 4.5t-47 -36.5q-6 -12 -8.5 -36t6.5 -47q9 -19 31 -26h2l1 -1q-9 14 -9 30q0 25 19.5 42.5t48.5 17.5q17 0 33 -8q43 -25 34 -66.5t-46 -65.5q-52 -27 -109 -8
q-54 16 -80 60q-32 77 -4 138q26 56 82 72t119 -2q18 -5 32 -16.5t24 -22.5l3 -3q8 9 18 17q38 31 83 25q21 -2 40 -9v30h-450v73h704v-73h-181v-186zM445 29v0v109l-110 -58q30 -4 54.5 -14t55.5 -37z" />
    <glyph glyph-name="bn_l_ga" horiz-adv-x="820" 
d="M684 475v0h73h75v-73h-75v-402h-73v275q-14 29 -47 68t-78 52q-46 9 -76 -16q-14 -11 -22 -28q30 9 64 6.5t65 -26.5q58 -52 38 -135q-30 -95 -135 -113l-10 73q59 9 75 59q9 38 -14 60q-15 11 -33.5 10.5t-36 -6.5t-29.5 -12t-13 -7l-2 1l-63 -32v75q-9 8 -22 10
q-9 1 -20 -8q-11 -10 -16.5 -25t-4.5 -22l-61 -1l-2.5 6.5t-7.5 15.5t-13.5 17t-21.5 13q-18 6 -42 3t-40 -32q-5 -10 -7 -31.5t6 -41.5q7 -17 25 -23h2h1q-8 11 -8 26q0 21 17 36.5t41 15.5q15 0 29 -7q36 -22 28.5 -58.5t-39.5 -57.5q-44 -24 -92 -7q-46 15 -68 53
q-27 68 -4 121q23 50 70.5 64t100.5 -2q15 -5 27 -15t21 -20l2 -2q7 8 15 15q33 27 71 22q6 0 13 -2v35h-372v73h498v-10q38 10 81 1q67 -18 110 -66v75z" />
    <glyph glyph-name="bn_l_dda" horiz-adv-x="646" 
d="M-4 402v0v73h656v-73h-239v-138q29 14 55.5 40t44.5 50l87 -8q8 -38 9 -106t-27.5 -131.5t-108.5 -87.5q-31 -7 -61 -7q-78 0 -141 49q-49 40 -74 106l63 40q18 -58 57 -90q58 -46 139 -27q53 16 68.5 68.5t11.5 107.5q-49 -57 -123 -80q-15 -4 -30 -4h-8h-35v218h-344z
M412 306v-75h-72v22q-9 35 -23 43q-10 6 -27 -4q-5 -4 -8.5 -22.5t-3.5 -38.5l-65 -4q0 11 2 37q-7 12 -19.5 24t-31.5 16q-61 12 -77 -31q-3 -7 -3 -18q18 25 46 25q24 0 41.5 -20t17.5 -47q0 -26 -15.5 -45t-38.5 -21h-6q-39 1 -59.5 16.5t-28.5 31.5q-15 27 -16 55.5
t7 49.5q5 15 20 35.5t44.5 33t77.5 4.5q40 -10 64 -37q8 14 22 22q34 20 59 15q35 -7 93 -67z" />
    <glyph glyph-name="bn_l_pa" horiz-adv-x="879" 
d="M744 387v0v88h138v-73h-65v-403h-73v249q-5 12 -14 29l-206 -164l-45 57l20 16q20 25 18 59q0 10 -4.5 23t-17.5 24q-18 15 -34.5 15.5t-28.5 -4.5v-53l-73 11v43q-8 8 -21 10q-9 1 -20 -8q-11 -10 -16.5 -25t-4.5 -22l-61 -2q0 1 -2.5 7.5t-7.5 15.5t-13.5 17t-21.5 13
q-18 6 -42 3t-40 -32q-5 -10 -7.5 -31.5t6.5 -41.5q7 -17 25 -23h2h1q-8 11 -8 26q0 21 17 36.5t41 15.5q15 0 28 -7q37 -22 29.5 -58.5t-39.5 -57.5q-44 -24 -92 -7q-47 14 -68 53q-27 68 -4 121q23 49 70 63.5t101 -1.5q15 -5 27 -15t21 -20l2 -2q7 8 15 15q32 27 71 22
q6 0 12 -2v35h-365v73h492v-14q68 25 149 3q67 -24 109 -77zM589 258v0l101 80q-32 41 -76 56q-85 20 -137 -19q34 -2 70 -32q38 -33 42 -85z" />
    <glyph glyph-name="bn_l_pha" horiz-adv-x="834" 
d="M417 311v-69h-72v21q-9 32 -23 40q-10 5 -27 -5q-5 -3 -8.5 -20t-3.5 -36l-65 -3q0 10 2 33q-7 12 -19.5 23t-31.5 15q-61 11 -77 -29q-3 -6 -3 -16q18 23 46 23q24 0 41.5 -18.5t17.5 -43.5t-15.5 -42.5t-38.5 -19.5h-6q-39 1 -59.5 16t-28.5 29q-15 25 -16 51t7 46
q5 14 20 33t44.5 31t77.5 4q40 -10 64 -35q8 13 22 21q34 18 59 14q55 -9 93 -63zM486 402h-494v73h494v-73zM843 475v0v-73h-401q35 -29 61 -59l26 -30l-32 -23q-46 -33 -98 -74q77 -13 153 -64v223l35 2q7 1 36.5 0.5t66.5 -6.5t65 -22q33 -22 45.5 -60t4.5 -75
q-8 -40 -37 -71.5t-73 -27.5q-28 3 -48 23q-17 21 -15.5 46t18 44.5t42.5 19.5q25 0 42 -17q5 29 -12 50q-15 16 -40.5 19.5t-48.5 3.5q-4 0 -8 1v-305h-73v38q-18 40 -55.5 63.5t-79 34.5t-71.5 14.5t-32 3.5l-32 60q14 16 45 40.5t64 47.5q16 12 29 22q-28 25 -56.5 46.5
t-43.5 31.5h-74v73h597z" />
    <glyph glyph-name="bn_l_ba" horiz-adv-x="477" 
d="M417 311v-69h-72v21q-9 32 -23 40q-10 5 -27 -5q-5 -3 -8.5 -20t-3.5 -36l-65 -3q0 10 2 33q-7 12 -19.5 23t-31.5 15q-61 11 -77 -29q-3 -6 -3 -16q18 23 46 23q24 0 41.5 -18.5t17.5 -43.5t-15.5 -42.5t-38.5 -19.5h-6q-39 1 -59.5 16t-28.5 29q-15 25 -16 51t7 46
q5 14 20 33t44.5 31t77.5 4q40 -10 64 -35q8 13 22 21q34 18 59 14q35 -7 93 -63zM486 402h-494v73h494v-73zM345 200v254h73v-254h-73zM263 134v0q45 -20 83 -45v87q-17 -5 -31 -12q-29 -13 -52 -30zM418 274v-274h-61q-27 33 -73 55t-92 26l-26 68q32 26 85 55
q34 17 75 36q9 4 19 8q0 1 1 1v25h72z" />
    <glyph glyph-name="bn_l_ma" horiz-adv-x="614" 
d="M417 311v-69h-72v21q-9 32 -23 40q-10 5 -27 -5q-5 -3 -8.5 -20t-3.5 -36l-65 -3q0 10 2 33q-7 12 -19.5 23t-31.5 15q-61 11 -77 -29q-3 -6 -3 -16q18 23 46 23q24 0 41.5 -18.5t17.5 -43.5t-15.5 -42.5t-38.5 -19.5h-6q-39 1 -59.5 16t-28.5 29q-15 25 -16 51t7 46
q5 14 20 33t44.5 31t77.5 4q40 -10 64 -35q8 13 22 21q34 18 59 14q35 -7 93 -63zM503 402h-511v73h511v-73zM345 200v254h73v-254h-73zM428 402v73h196v-73h-61v-425h-73v69q-3 18 -20 45t-58 40q-47 10 -73.5 -5t-31.5 -34q-2 -5 -3 -13q21 18 46 18t43.5 -17.5
t18.5 -44.5t-17.5 -46.5t-48.5 -21.5h-2q-14 0 -24 3q-53 16 -68 45q-27 43 -11 98q21 68 105 91v39h72v-40q2 0 3 -1q4 0 7 -1q38 -10 62 -30v231h-62z" />
    <glyph glyph-name="bn_l_ra" horiz-adv-x="509" 
d="M457 454v-464h-70q-1 0 -22 27.5t-58.5 26.5t-63.5 -11q-63 -24 -130 -7q-54 14 -82.5 53t-28.5 84h1l2 1l5 2q8 4 20 9l24 10t20 8q3 2 5 3h2q0 1 1 1q-3 -42 22.5 -70.5t74.5 -26.5q29 3 57 13q23 8 47 12q57 3 101 -34v363h73zM456 311v-69h-72v21q-9 32 -23 40
q-10 5 -27 -5q-5 -3 -8.5 -20t-3.5 -36l-65 -3q0 10 2 33q-7 12 -19.5 23t-31.5 15q-61 11 -77 -29q-3 -6 -3 -16q18 23 46 23q24 0 41.5 -18.5t17.5 -43.5t-15.5 -42t-38.5 -20h-6q-39 1 -59.5 16t-28.5 29q-15 25 -16 51.5t7 45.5q5 14 20 33t44.5 31t77.5 4
q40 -10 64 -34q8 12 22 20q34 18 59 14q35 -7 93 -63zM514 402h-521v73h521v-73z" />
    <glyph glyph-name="bn_l_la" horiz-adv-x="475" 
d="M271 139q1 2 5 5q29 26 62 22l16 -3v9h74v-204h-74v103q-5 27 -24 29q-20 -6 -14 -22h-74q-6 15 -22 19.5t-31 2.5t-25 -21q-3 -8 -4.5 -24t3.5 -31q1 -2 -1 1v-2q0 22 15 37.5t37 15.5q14 0 27 -7q32 -22 26 -57t-34 -56q-38 -22 -78 -6q-38 13 -57 49q-22 61 -3 109
q19 45 58.5 58t82.5 -1q13 -5 23 -14q6 -5 12 -12zM355 385v17h-361v73h488v-73h-54v-17h-73zM254 346q3 3 7 8q34 29 72 25q19 -3 21 -4v11h74v-300h-74v182q-5 34 -30 37q-27 -8 -15 -39h-84q-12 30 -31.5 35.5t-38.5 3t-31 -26.5q-4 -10 -5.5 -29.5t3.5 -37.5l4 -6l-1 5
q0 26 17.5 44t43.5 18q16 0 30 -8q38 -26 30.5 -66.5t-38.5 -64.5q-45 -27 -92 -8q-45 15 -67 58q-25 71 -4 128q22 53 68.5 68t97.5 -1q15 -6 27 -17q7 -5 16 -15z" />
    <glyph glyph-name="bn_l_sa" horiz-adv-x="629" 
d="M584 0v0h-73v214q-12 33 -26 47.5t-22 14.5q-7 0 -13 -6.5t-22 -39.5t-58 -119q-56 -93 -129 -93q-40 0 -66.5 14.5t-41.5 30.5l45 59q5 -7 20 -19t43 -12q61 25 91 111q2 65 -15 104.5t-42 60t-46.5 28t-28.5 7.5h-209v73h642v-73h-49v-402zM470 349v0q22 -3 41 -15v68
h-169q32 -34 50 -89q32 39 78 36zM202 331l5 5q29 25 62 22q37 -5 59 -30l30 -69l-26 -1q-27 37 -71 34q-20 -6 -14 -22h-75q-6 15 -21.5 19t-30.5 2.5t-25 -20.5q-3 -8 -4.5 -24.5t2.5 -30.5q1 -3 0 0v-2q0 22 15 38t37 16q14 0 26 -7q33 -23 26.5 -57.5t-33.5 -55.5
q-38 -23 -79 -7q-38 13 -57 50q-21 60 -2 109q18 44 58 57.5t83 -0.5q13 -5 23 -15q5 -4 12 -11z" />
    <glyph glyph-name="bn_sha_ukaar" horiz-adv-x="529" 
d="M508 120v0q4 -63 -52 -114q-60 -48 -136 -48q-27 0 -54 6q-144 36 -215 195l67 29q18 -46 58 -90.5t107 -62.5q73 -16 125 27q29 25 28 52q-3 31 -20 47q-18 -19 -45 -19q-26 0 -44.5 18.5t-18.5 44.5t18.5 44.5t44.5 18.5q8 0 15 -1q14 15 23.5 37.5t6.5 45.5
q-4 19 -10 35l-27 -65l-56 27l-1 13q0 11 -7 22t-17 15q-23 10 -43 -2t-27 -30q-8 -22 0 -41q16 27 46 27q19 0 33.5 -11t18.5 -29q8 -42 -28 -66q-8 -5 -18 -8q-24 -6 -49 -2q-27 5 -47 25l-2.5 -2.5t-6.5 -5t-7.5 -4.5t-4.5 -3q-47 -23 -97 -5q-10 4 -19 11q-23 28 -9 64
t49 36t50 -35q19 22 12 62q-5 22 -37 24h-114v73h115q16 0 40.5 -4.5t43.5 -27.5q27 22 66 30q31 6 58 -9q17 -9 31 -21l20 49h49l4 -3q2 -1 14.5 -17t26.5 -43.5t22 -66.5q8 -76 -38 -134q1 -1 1 -2q2 0 3 -1q17 -12 33.5 -37.5t20.5 -67.5z" />
    <glyph glyph-name="bn_sh_ca" horiz-adv-x="737" 
d="M370 475h4h116v-73h-46v-368h-73v286q0 48 -32 66.5t-63 15.5q-15 -1 -31.5 -18t-16.5 -50q0 -21 2 -26q1 12 17 27t39 15q30 0 44 -21t14.5 -47.5t-10.5 -48.5q-7 -11 -18.5 -18.5t-24.5 -10.5q-29 -8 -59 1q-13 5 -24 13q-1 0 -4 2.5t-6.5 6t-7 6.5t-10.5 -13
q-24 -27 -80 -18q-21 5 -39.5 18t-26.5 34q-5 15 -5 27.5t2.5 22t8.5 19.5q18 27 49 27q23 0 39.5 -16.5t16.5 -40.5q0 -6 2 -1q8 10 8 42q0 34 -11.5 51t-23.5 17h-128v73h128q46 0 75 -44q37 44 80 44q54 4 96 -33zM443 314v0v-221q98 11 136.5 52.5t43.5 78.5q2 8 2.5 17
t-3.5 14q-8 11 -38 16q-94 15 -141 43zM388 475h348v-73h-293v-1q7 -9 43 -28t107 -31q62 -9 88 -46q24 -34 12 -88q-5 -30 -30.5 -73.5t-85.5 -78t-167 -37.5h-39v384h-43v13h60v59z" />
    <glyph glyph-name="bn_sh_cha" horiz-adv-x="805" 
d="M449 301v0v-112q38 4 72 19.5t51 49.5q2 4 0 9l-3.5 3.5t-7.5 2.5q-72 7 -112 28zM394 475h415v-73h-360v-14q7 -10 35 -23.5t84 -19.5q30 -3 52 -22q60 -1 95.5 -27t48.5 -61q16 -44 2.5 -86.5t-52.5 -70.5q-65 -45 -160 -62l192 -82l-28 -67l-332 142h-6l8 72
q173 -15 285 56q21 15 25.5 35t-1.5 37q-13 30 -50 39q-2 -11 -7 -21q-16 -39 -65.5 -72.5t-149.5 -40.5h-49v288h-47v21h65v52zM377 321q0 47 -32 66q-32 18 -63 15q-15 -1 -31.5 -18t-16.5 -50q0 -21 2 -26q1 12 17 27t39 15q30 0 44 -21t14.5 -47.5t-10.5 -48.5
q-7 -11 -18.5 -18.5t-24.5 -10.5q-29 -8 -59 1q-13 5 -24 13q-1 0 -4 2.5t-6.5 6t-7 6.5t-10.5 -13q-24 -27 -80 -18q-21 5 -39.5 18t-26.5 34q-5 15 -5 27.5t2.5 22t8.5 19.5q18 27 49 27q23 0 39.5 -16.5t16.5 -40.5q0 -6 2 -1q8 10 8 42q0 34 -11.5 51t-23.5 17h-128v73
h128q46 0 75 -44q37 44 80 44q54 4 96 -33v33h119v-73h-46v-81h-73z" />
    <glyph glyph-name="bn_sh_tta" horiz-adv-x="762" 
d="M381 475h294q0 32 -17 59q-18 26 -57 28q-46 1 -77 -10.5t-47 -24t-17 -14.5l-55 48q1 3 24 22t67 36t108 16q46 -4 73.5 -21.5t40.5 -37.5q31 -49 30 -101h20v-73h-319v-337q54 1 117 18.5t91 64.5q16 35 14 58t-9 34q-15 25 -40 29q-19 1 -34 -5q18 -8 28 -25.5
t7 -37.5q-8 -35 -40.5 -47t-62.5 7q-33 26 -32 67t27 72q43 46 114 41q63 -7 97 -65q38 -73 -4 -160q-30 -56 -85.5 -82.5t-113.5 -33.5t-89 -7h-24l-34 2v353h5v127zM376 475h3h116v-73h-46v-368h-73v285q0 49 -32.5 67t-63.5 16q-15 -2 -31.5 -18.5t-16.5 -50.5
q0 -20 3 -25q1 11 17 26.5t38 15.5q30 0 44.5 -21t14.5 -48t-11 -48q-6 -12 -18 -19t-24 -10q-30 -9 -59 1q-13 4 -24 12q-1 1 -4 3.5t-6.5 5.5t-7 6.5t-11.5 -13.5q-24 -27 -80 -17q-20 4 -38.5 17.5t-26.5 33.5q-6 15 -5.5 28t3 22.5t8.5 19.5q18 27 48 27
q24 0 40.5 -16.5t16.5 -40.5q0 -7 1 -1q9 9 9 41q0 34 -11.5 51.5t-23.5 17.5h-129v73h129q46 0 75 -44q36 43 80 43q54 5 96 -32v33z" />
    <glyph glyph-name="bn_sh_na" horiz-adv-x="499" 
d="M458 427v-447h-80v66q-3 18 -22 45.5t-66 39.5q-55 11 -85.5 -4.5t-37.5 -46.5q8 19 6 4q18 15 45 15q29 0 49 -18.5t20 -45.5q0 -28 -19 -48t-54 -22h-3q-14 0 -25 4q-59 16 -76 45q-31 44 -12 101q16 48 71.5 76.5t137.5 12.5q41 -11 71 -32v255h80zM379 331
q-1 42 -31 58q-31 15 -61 13q-15 -1 -30 -15t-15 -40q0 -17 -3 -11q0 2 17 16t41 14q31 0 46 -20t15.5 -45t-11.5 -46q-8 -10 -20 -17t-25 -9q-29 -7 -60 1q-13 4 -24 11q-1 0 -4.5 2.5t-7 5.5t-6 5t-7.5 -10q-26 -25 -83 -17q-21 4 -40 16t-28 32q-5 14 -5 26t8 30
q23 35 55 35q23 0 41 -15.5t18 -39.5q0 9 -3 3q7 7 7 33q0 28 -10.5 41.5t-21.5 13.5h-134v73h134q47 0 75 -37q36 37 80 37q54 4 93 -26v26h125v-73h-46v-71h-79z" />
    <glyph glyph-name="bn_sh_ba" horiz-adv-x="494" 
d="M296 114v0q45 -19 83 -45v88q-17 -6 -31 -12q-29 -13 -52 -31zM451 372v-391h-61q-27 33 -73 55t-92 26l-26 68q32 26 85 55q34 17 75 36q9 4 19 8q0 1 1 1v142h72zM379 331q-1 42 -31 58q-31 15 -61 13q-15 -1 -30 -15t-15 -40q0 -17 -3 -11q0 2 17 16t41 14
q31 0 46 -20t15.5 -45t-11.5 -46q-8 -10 -20 -17t-25 -9q-29 -7 -60 1q-13 4 -24 11q-1 0 -4.5 2.5t-7 5.5t-6 5t-7.5 -10q-26 -25 -83 -17q-21 4 -40 16t-28 32q-5 14 -5 26t2 19.5l2 7.5q27 38 59 38q23 0 41 -15.5t18 -39.5q0 9 -3 3q7 7 7 33q0 28 -10.5 41.5
t-21.5 13.5h-136v73h136q47 0 75 -37q36 37 80 37q54 4 93 -26v26h118v-73h-46v-71h-72z" />
    <glyph glyph-name="bn_sh_ma" horiz-adv-x="651" 
d="M468 402v73h196v-73h-61v-425h-73v69q-3 18 -20 45t-58 40q-47 10 -73.5 -5t-31.5 -34q-2 -5 -3 -13q21 18 46 18t43.5 -17.5t18.5 -44.5t-17.5 -46.5t-48.5 -21.5h-2q-14 0 -24 3q-53 16 -68 45q-27 43 -11 98q21 68 105 91v189h72v-190q2 0 3 -1q4 0 7 -1
q38 -10 62 -30v231h-62zM387 331q-5 42 -39 58q-31 15 -61 13q-15 -1 -30 -15t-15 -40q0 -17 -3 -11q0 2 17 16t41 14q31 0 46 -20t15.5 -45t-11.5 -46q-8 -10 -20 -17t-25 -9q-29 -7 -60 1q-13 4 -24 11q-1 0 -4.5 2.5t-7 5.5t-6 5t-7.5 -10q-26 -25 -83 -17q-21 4 -40 16
t-28 32q-5 14 -5 26t8 30q23 35 55 35q23 0 41 -15.5t18 -39.5q0 9 -3 3q7 7 7 33q0 28 -10.5 41.5t-21.5 13.5h-137v73h137q47 0 75 -37q36 37 80 37q54 4 93 -26v26h125v-73h-46v-71h-71z" />
    <glyph glyph-name="bn_sh_ra" horiz-adv-x="524" 
d="M403 475v0h123v-73h-50v-402h-73v308q0 55 -36.5 75.5t-71.5 17.5q-18 -1 -36.5 -18t-18.5 -39q0 -23 8 -41q2 24 18.5 39.5t39.5 15.5q31 0 45.5 -21.5t15 -50t-10.5 -51.5q-7 -12 -19 -19.5t-25 -10.5q-32 -9 -63 1q-14 5 -25 13q-1 1 -4.5 3.5t-7.5 6t-6.5 6.5l-2.5 3
q-40 -45 -99 -35q-22 5 -41.5 19t-28.5 35q-5 16 -5 29.5t3 23.5t6 15l3 5q18 28 50 28q24 0 41.5 -17t17.5 -42q0 -6 -2 -13q19 21 19 58q0 23 -13.5 40.5t-27.5 17.5h-129v73h129q48 0 81 -51q42 50 88 50q58 5 108 -39v40zM476 159v-184l-70 1l-21.5 27t-59 26t-63.5 -11
q-63 -24 -130 -7q-54 14 -82.5 53t-28.5 85h1l2 1l5 2q8 3 20 8l24 10t20 9q3 1 5 2l2 1h1q-3 -42 22.5 -70.5t74.5 -26.5q29 3 57 13q23 8 47 12q57 3 101 -34v83h73z" />
    <glyph glyph-name="bn_sh_ra_ukaar" horiz-adv-x="702" 
d="M475 225q10 -7 22 -10q73 -19 97 25q2 4 3 9q-20 -14 -48 -12q-30 4 -48.5 25t-16.5 51q3 25 19.5 41.5t41.5 20.5q9 1 17 0q48 -3 68.5 -21t27.5 -34q15 -30 13.5 -61.5t-13.5 -53.5q-8 -15 -28.5 -34.5t-57 -29.5t-93.5 4l-4 1v79zM403 475v0h312v-73h-239v-402h-73
v308q0 55 -36.5 75.5t-71.5 17.5q-18 -1 -36.5 -18t-18.5 -39q0 -23 8 -41q2 24 18.5 39.5t39.5 15.5q31 0 45.5 -21.5t15 -50t-10.5 -51.5q-7 -12 -19 -19.5t-25 -10.5q-32 -9 -63 1q-14 5 -25 13q-1 1 -4.5 3.5t-7.5 6t-6.5 6.5l-2.5 3q-40 -45 -99 -35q-22 5 -41.5 19
t-28.5 35q-5 16 -5 29.5t3 23.5t6 15l3 5q18 28 50 28q24 0 41.5 -17t17.5 -42q0 -6 -2 -13q19 21 19 58q0 23 -13.5 40.5t-27.5 17.5h-129v73h129q48 0 81 -51q42 50 88 50q58 5 108 -39v40zM476 159v-184h-70q0 1 -21.5 28t-59 26t-63.5 -11q-63 -24 -130 -7
q-54 14 -82.5 53t-28.5 85h1l2 1l5 2q8 3 20 8l24 10t20 9q3 1 5 2l2 1h1q-3 -42 22.5 -70.5t74.5 -26.5q29 3 57 13q23 8 47 12q57 3 101 -34v83h73z" />
    <glyph glyph-name="bn_sh_ra_uukaar" horiz-adv-x="658" 
d="M474 341l51 16q31 8 53 9l53 -69q-28 -109 -28 -157q0 -42 20 -123l-55 -29q-38 69 -38 165q0 57 15 124q-25 -2 -71 -20v84zM403 475v0h261v-73h-188v-402h-73v308q0 55 -36.5 75.5t-71.5 17.5q-18 -1 -36.5 -18t-18.5 -39q0 -23 8 -41q2 24 18.5 39.5t39.5 15.5
q31 0 45.5 -21.5t15 -50t-10.5 -51.5q-7 -12 -19 -19.5t-25 -10.5q-32 -9 -63 1q-14 5 -25 13q-1 1 -4.5 3.5t-7.5 6t-6.5 6.5l-2.5 3q-40 -45 -99 -35q-22 5 -41.5 19t-28.5 35q-5 16 -5 29.5t3 23.5t6 15l3 5q18 28 50 28q24 0 41.5 -17t17.5 -42q0 -6 -2 -13q19 21 19 58
q0 23 -13.5 40.5t-27.5 17.5h-129v73h129q48 0 81 -51q42 50 88 50q58 5 108 -39v40zM476 159v-184h-70q0 1 -21.5 28t-59 26t-63.5 -11q-63 -24 -130 -7q-54 14 -82.5 53t-28.5 85h1l2 1l5 2q8 3 20 8l24 10t20 9q3 1 5 2l2 1h1q-3 -42 22.5 -70.5t74.5 -26.5q29 3 57 13
q23 8 47 12q57 3 101 -34v83h73z" />
    <glyph glyph-name="bn_sh_la" horiz-adv-x="541" 
d="M476 119v-64h-72v19q-9 30 -23 37q-10 5 -27 -4q-5 -3 -8.5 -19t-3.5 -33l-65 -3q0 9 2 31q-7 11 -19.5 21t-31.5 14q-61 10 -77 -27q-3 -6 -3 -15q18 21 46 21q24 0 41.5 -17t17.5 -40t-15.5 -39t-38.5 -18h-6q-39 1 -59.5 14.5t-28.5 26.5q-15 23 -16 47.5t7 42.5
q5 13 20 30.5t44.5 28.5t77.5 4q40 -9 64 -32q8 12 22 19q34 17 59 13q34 -7 93 -58zM403 475v0h144v-73h-71v-402h-73v308q0 55 -36.5 75.5t-71.5 17.5q-18 -1 -36.5 -18t-18.5 -39q0 -23 8 -41q2 24 18.5 39.5t39.5 15.5q31 0 45.5 -21.5t15 -50t-10.5 -51.5
q-7 -12 -19 -19.5t-25 -10.5q-32 -9 -63 1q-14 5 -25 13q-1 1 -4.5 3.5t-7.5 6t-6.5 6.5l-2.5 3q-40 -45 -99 -35q-22 5 -41.5 19t-28.5 35q-5 16 -5 29.5t3 23.5t6 15l3 5q18 28 50 28q24 0 41.5 -17t17.5 -42q0 -6 -2 -13q19 21 19 58q0 23 -13.5 40.5t-27.5 17.5h-129v73
h129q48 0 81 -51q42 50 88 50q58 5 108 -39v40z" />
    <glyph glyph-name="bn_ss_ka" horiz-adv-x="528" 
d="M345 250v0q53 3 89 -15.5t54 -45.5q37 -60 0 -116q-19 -27 -51 -35q-29 -9 -57 4q-11 6 -19 18t-8 25q0 20 14 33.5t33 13.5t33 -13q3 14 -6 30q-9 14 -29.5 22.5t-52.5 5.5v-196h-73v20q-15 15 -57.5 35t-118.5 30l-29 70q3 2 33.5 18.5t74.5 37.5q-29 16 -63.5 21.5
t-52.5 4.5l-32 57l97 76l-90 51h-37v73h534v-73h-186v-152zM272 85v0v70q-42 -16 -81 -36q49 -16 81 -34zM272 233v0v34l-81 46l-45 -32q59 -11 103 -56q12 4 23 8zM272 351v0v51h-90z" />
    <glyph glyph-name="bn_ss_k_ra" horiz-adv-x="617" 
d="M272 233v0v34l-81 46l-45 -32q59 -11 103 -56q12 4 23 8zM272 351v0v51h-90zM296 264q54 1 78 -18q18 -11 33.5 -36.5t15.5 -73.5v-227h-75q-8 13 -31.5 28t-55.5 9q-21 -6 -40 -12q-40 -15 -78.5 -18.5t-79.5 21.5q-35 25 -45 62t-6 63l72 -8v-6q0 -7 1.5 -16.5
t5.5 -18.5t12 -15q18 -12 39 -9.5t57 14.5q20 6 43 13q56 15 108 -14v134q0 13 -3.5 27.5t-13.5 21.5q-23 14 -73 -5q-24 -11 -34.5 -24t-9.5 -22q1 -4 8 -8q14 35 49 35q17 0 31 -10.5t18 -27.5q7 -36 -20 -61q-32 -26 -73 -18q-30 6 -54 26.5t-30 50.5q-9 76 78 122
q35 20 73 21zM412 107v58q69 12 109 -9q36 -19 54 -46q37 -60 0 -116q-19 -27 -51 -35q-29 -9 -57 4q-11 6 -19 18t-8 25q0 20 14 33.5t33 13.5t33 -13q3 14 -6 30q-9 14 -29 23q-25 11 -73 -1v15zM345 192h-170q-29 16 -63.5 21.5t-52.5 4.5l-32 57l97 76l-90 51h-37v73
h624v-73h-276v-210z" />
    <glyph glyph-name="bn_ss_tta" horiz-adv-x="670" 
d="M672 402v0h-326v-337q53 1 116.5 18.5t91.5 64.5q16 35 14 58t-9 34q-15 25 -40 28q-14 2 -27 -2q25 -13 34 -38t-3 -51q-12 -21 -33.5 -27t-43.5 -2q-10 1 -19 5q-43 21 -43 67.5t28 79.5q42 46 114 41q62 -8 97 -66q38 -72 -4 -160q-30 -55 -86 -81.5t-113.5 -34
t-89.5 -7.5q-20 0 -23 1l-34 2v118q-29 46 -89.5 62.5t-108.5 16.5l-41 71l124 84q-21 16 -46.5 30.5t-45.5 24.5h-70v73h576q0 31 -17 59q-18 26 -58 28q-46 1 -77 -11t-47 -24.5t-17 -13.5l-54 48q1 3 24 22t67 36t108 16q46 -4 73 -21.5t40 -37.5q32 -50 30 -101h28v-73z
M273 215v0v40q-20 17 -57 43l-59 -41q59 -9 116 -42zM273 348v0v54h-66q20 -16 34 -33q16 -10 32 -21z" />
    <glyph glyph-name="bn_ss_tt_ra" horiz-adv-x="668" 
d="M672 402v0h-326v-337q53 1 116.5 18.5t91.5 64.5q16 35 14 58t-9 34q-15 25 -40 28q-14 2 -27 -2q25 -13 34 -38t-3 -51q-12 -21 -33.5 -27t-43.5 -2q-10 1 -19 5q-43 21 -43 67.5t28 79.5q42 46 114 41q62 -8 97 -66q38 -72 -4 -160q-30 -55 -86 -81.5t-113.5 -34
t-89.5 -7.5q-20 0 -23 1l-34 2v118q-29 46 -89.5 62.5t-108.5 16.5l-41 71l124 84q-21 16 -46.5 30.5t-45.5 24.5h-70v73h576q0 31 -17 59q-18 26 -58 28q-46 1 -77 -11t-47 -24.5t-17 -13.5l-54 48q1 3 24 22t67 36t108 16q46 -4 73 -21.5t40 -37.5q32 -50 30 -101h28v-73z
M273 215v0v40q-20 17 -57 43l-59 -41q59 -9 116 -42zM273 348v0v54h-66q20 -16 34 -33q16 -10 32 -21zM197 -118v0q-48 30 -57 88l72 10q4 -25 23 -36q15 -9 29.5 -10t21.5 1q10 4 25 13q20 13 50 26t74 13q29 0 52 -17v117h73v-230h-75q-9 21 -24 39.5t-40 18.5
q-40 -6 -73 -29q-19 -12 -39 -20q-21 -7 -51.5 -4.5t-60.5 20.5z" />
    <glyph glyph-name="bn_ss_ttha" horiz-adv-x="494" 
d="M259 518v0q17 -22 29 -43h210v-73h-148q38 -38 71 -88t42 -104q12 -93 -53 -157q-59 -53 -129 -53q-15 0 -29 3q-40 8 -67.5 32t-43.5 52t-23.5 49.5t-8.5 24.5l-13 53h1q-24 10 -42 11l-30 73l90 64q-22 21 -44 40h-81v73h210q-30 43 -35.5 77.5t0.5 57.5t11 30l62 -39
q-4 -8 -2.5 -29t23.5 -54zM243 402v0h-63q42 -39 77 -79q3 36 -14 79v0v0zM127 281v0q38 -15 69 -56q13 9 27 24q-14 21 -55 62zM391 200v0q-12 57 -61 114q-12 -69 -43 -103q-51 -57 -92 -69q9 -22 26.5 -41.5t43.5 -25.5q52 -7 94 31q38 37 32 94z" />
    <glyph glyph-name="bn_ss_nna" horiz-adv-x="625" 
d="M339 19v0q-37 61 -118 85t-148 26l-42 80l164 110q-32 26 -71 48t-64 34h-63v73h415v-475h-73v19zM339 402v0h-131q41 -28 69 -61q28 -18 62 -42v103zM252 271v0l-109 -74q47 -6 99 -22.5t97 -47.5v80q-12 10 -36 27.5t-51 36.5zM521 165v0q12 26 5 45q-2 6 -6 10
q-4 -18 -17.5 -29t-31.5 -11q-28 0 -41.5 22t-7.5 48q2 11 8.5 22t16.5 17q21 11 45 11q9 10 14.5 22t2.5 25q-3 12 -10.5 19t-13.5 9q-16 4 -34 2.5t-30 -11.5q-3 -2 -5 -5t-3 -6q-1 -2 -1 -4v-2v-10v-6v-32v-26v-37v-89q19 -11 49 -14q17 -1 35.5 9t24.5 21zM406 475h6
v-33q52 15 93 2q58 -19 75 -80q4 -14 2.5 -36.5t-17.5 -50.5q19 -16 29 -41q19 -49 -8 -104q-15 -27 -49 -48.5t-73 -21.5h-12q-22 3 -40 8v-70h-6v475z" />
    <glyph glyph-name="bn_ss_pha" horiz-adv-x="686" 
d="M99 402v73h597v-73h-597zM272 241v0l2 26l-81 46l-45 -32q59 -11 101 -48q12 4 23 8zM274 351v0v51h-90zM347 192h-170q-29 16 -63.5 21.5t-52.5 4.5l-32 57l97 76l-90 51h-41v73h628v-73h-276v-210zM347 192q-68 -15 -108 -46q91 -6 153 -50v282q112 1 143.5 -6
t59.5 -23q33 -22 45.5 -60t4.5 -75q-8 -40 -37 -71.5t-73 -27.5q-28 3 -48 23q-17 21 -15.5 46t18 44.5t42.5 19.5q25 0 42 -17q5 29 -12 50q-15 16 -40.5 19.5t-48.5 3.5q-4 0 -8 1v-322h-73v13q-27 48 -95 67t-104.5 20t-38.5 1l-32 60q14 16 55 48q2 2 47 0h123z" />
    <glyph glyph-name="bn_ss_ba" horiz-adv-x="495" 
d="M421 -19h-69v16q-18 16 -76.5 37t-148.5 31l-41 73q5 3 43.5 19t91.5 36q-37 15 -84.5 20.5t-60.5 4.5l-42 59l121 74l-117 51h-39v73h499v-69v-4h-77v-421zM357 76v9v76q-80 -24 -126 -42q60 -14 126 -43zM344 233l7 33v0l-117 51l-63 -35q72 -11 135 -60q28 8 38 11z
M357 342v9v51h-139z" />
    <glyph glyph-name="bn_ss_ma" horiz-adv-x="570" 
d="M272 241v0l2 26l-81 46l-45 -32q59 -11 101 -48q12 4 23 8zM274 351v0v51h-90zM347 192l-123 -19q-76 35 -110.5 40.5t-52.5 4.5l-32 57l97 76l-90 51h-41v73h580v-73h-228v-210zM358 402v73h196v-73h-61v-425h-73v69q-3 18 -20 45t-58 40q-47 10 -73.5 -5t-31.5 -34
q-2 -5 -3 -13q21 18 46 18t43.5 -17.5t18.5 -44.5t-17.5 -46.5t-48.5 -21.5h-2q-14 0 -24 3q-53 16 -68 45q-27 43 -11 98q21 68 105 91v39h72v-40q2 0 3 -1q4 0 7 -1q38 -10 62 -30v231h-62z" />
    <glyph glyph-name="bn_ss_ra" horiz-adv-x="460" 
d="M349 19v0q-37 61 -118 85t-148 26l-42 80l164 110q-32 26 -71 48t-64 34h-72v73h468v-73h-44v-402h-73v19zM349 402v0h-131q41 -28 69 -61q28 -18 62 -42v103zM262 271v0l-109 -74q47 -6 99 -22.5t97 -47.5v80q-12 10 -36 27.5t-51 36.5zM59 -18v0q-47 30 -56 88l72 10
q3 -25 23 -36q14 -9 29 -10t22 1q9 4 24 13q20 13 50 26t75 13q29 0 51 -17v117h73v-230h-75q-9 21 -24 39.5t-39 18.5q-40 -6 -74 -29q-18 -12 -38 -20q-22 -7 -52.5 -4.5t-60.5 20.5z" />
    <glyph glyph-name="bn_s_ka" horiz-adv-x="587" 
d="M550 87v0q-6 -10 -14 -17q-26 -24 -60 -20h-1q-20 3 -33.5 15t-14.5 32q0 22 13 38t34 16q10 0 19 -4v5q-1 7 -6 18t-18 19q-27 14 -51 15v-226h-73v29q-21 32 -54 49.5t-66.5 25t-57 9t-25.5 1.5l-25 64l228 119v4v0q-11 17 -29.5 25.5t-48.5 -7.5q-5 -3 -11.5 -11
t-13.5 -16q-15 -20 -35 -39.5t-51 -28.5q-14 -4 -28 -4q-27 0 -50.5 9.5t-38.5 19t-18 12.5l45 57q9 -7 30.5 -17t40.5 -7q12 4 23 14q5 16 -1.5 41t-21.5 41q-21 18 -50 25.5t-45 8.5h-50v73h600v-73h-174v-125q39 0 87 -24q50 -30 60 -90q2 -17 0 -33v0v0q-1 -22 -15 -43z
M345 109v0v85l-89 -45q45 -12 89 -40zM345 371v0v31h-142q14 -20 22 -46l6 4q60 34 114 11z" />
    <glyph glyph-name="bn_s_k_ba" horiz-adv-x="586" 
d="M344 109v0v85l-89 -45q45 -12 89 -40zM344 371v0v31h-142q14 -20 22 -46l6 4q60 34 114 11zM272 26v0q42 -17 71 -34v71q-10 -3 -22 -8q-27 -12 -49 -29zM417 130v-221h-73q-23 24 -65 45q-30 19 -73 24l-25 63q31 24 80 51q32 17 91 38q3 2 6 3zM297 53q-4 2 -7 4
q-33 17 -67 24.5t-57 9t-25 1.5l-25 64l228 119v4q-11 17 -29.5 25.5t-48.5 -7.5q-5 -3 -11.5 -11t-13.5 -16q-15 -20 -35.5 -39.5t-50.5 -28.5q-14 -4 -29 -4q-26 0 -49.5 9.5t-38.5 19t-18 12.5l45 57q9 -7 30.5 -17t40.5 -7q12 4 23 14q4 16 -2 41t-21 41
q-21 18 -50 25.5t-45 8.5h-50v73h599v-73h-173v-125q39 0 87 -24q50 -30 59 -90q3 -17 1 -33q-1 -22 -15 -43q-6 -10 -14 -17q-26 -24 -60 -20h-1q-20 3 -33.5 15t-14.5 32q-1 22 12.5 38t34.5 16q10 0 19 -4q0 3 -1 5q0 7 -5 18t-18 19q-27 14 -51 15v-226h-65q3 3 6 7
q12 15 12 37t-12 37.5t-29 15.5q-16 0 -28 -15q-2 -4 -4 -7z" />
    <glyph glyph-name="bn_s_k_ra" horiz-adv-x="691" 
d="M366 264q54 1 78 -18q18 -11 33.5 -36.5t15.5 -73.5v-227h-75q-8 13 -31.5 28t-55.5 9q-21 -6 -40 -12q-40 -15 -78.5 -18.5t-79.5 21.5q-35 25 -45 62t-6 63l72 -8v-6q0 -7 1.5 -16.5t5.5 -18.5t12 -15q18 -12 39 -9.5t57 14.5q20 6 43 13q56 15 108 -14v134
q0 13 -3.5 27.5t-13.5 21.5q-23 14 -73 -5q-24 -11 -34.5 -24t-9.5 -22q1 -4 8 -8q14 35 49 35q17 0 31 -10.5t18 -27.5q7 -36 -20 -61q-32 -26 -73 -18q-30 6 -54 26.5t-30 50.5q-9 76 78 122q35 20 73 21zM482 107v58q69 12 109 -9q36 -19 54 -46q37 -60 0 -116
q-19 -27 -51 -35q-29 -9 -57 4q-11 6 -19 18t-8 25q0 20 14 33.5t33 13.5t33 -13q3 14 -6 30q-9 14 -29 23q-25 11 -73 -1v15zM345 371v0v31h-142q14 -20 22 -46l6 4q60 34 114 11zM345 244v35q-11 17 -29.5 25.5t-48.5 -7.5q-5 -3 -11.5 -11t-13.5 -16q-15 -20 -35 -39.5
t-51 -28.5q-14 -4 -28 -4q-27 0 -50.5 9.5t-38.5 19t-18 12.5l45 57q9 -7 30.5 -17t40.5 -7q12 4 23 14q5 16 -1.5 41t-21.5 41q-21 18 -50 25.5t-45 8.5h-50v73h704v-73h-278v-158h-73z" />
    <glyph glyph-name="bn_s_kha" horiz-adv-x="733" 
d="M408 231q4 -1 20 2q20 6 32.5 19.5t19.5 27t7 19.5l5 14h59l3 -4q1 -3 9 -20t13 -40.5t-1.5 -59t-32.5 -65.5q-20 -22 -24 -24q25 -6 78 -37v412h148v-73h-75v-459h-73v19q-22 33 -64 52.5t-86.5 27t-76.5 7.5l-30 1l-15 71q58 10 102 22t61 30q14 14 14 17
q-23 -19 -56 -27q-70 -13 -119 35q-44 53 -6 109q19 24 53 28t57 -16q18 -16 18 -38q0 -25 -17 -38q-15 -11 -23 -12zM345 371v0v31h-142q14 -20 22 -46l6 4q60 34 114 11zM345 244v35q-11 17 -29.5 25.5t-48.5 -7.5q-5 -3 -11.5 -11t-13.5 -16q-15 -20 -35 -39.5t-51 -28.5
q-14 -4 -28 -4q-27 0 -50.5 9.5t-38.5 19t-18 12.5l45 57q9 -7 30.5 -17t40.5 -7q12 4 23 14q5 16 -1.5 41t-21.5 41q-21 18 -50 25.5t-45 8.5h-50v73h644v-73h-218v-158h-73z" />
    <glyph glyph-name="bn_s_tta" horiz-adv-x="742" 
d="M751 402v0h-329v-336q54 0 117.5 18t90.5 65q17 35 15 58t-9 34q-15 25 -40 28q-23 2 -40 -7q45 -17 45 -59q0 -26 -18.5 -44.5t-44.5 -18.5q-18 -1 -34 7q-40 26 -42 72.5t26 80.5q43 46 114 42q63 -8 97 -66q38 -72 -3 -160q-31 -55 -86.5 -81.5t-113.5 -34t-89 -7.5
q-20 0 -24 1l-34 2v233q-23 44 -43 45q-7 0 -13 -6t-10 -12q-7 -12 -19.5 -35.5t-24.5 -52.5q-40 -89 -106 -89q-38 0 -64.5 14t-41.5 29l42 61q2 -3 9.5 -10.5t21 -15t33.5 -7.5q18 0 39 46q0 1 1 3q0 1 1 2q2 83 -25 126t-59.5 58.5t-46.5 16.5h-53v73h658q1 32 -17 60
q-18 26 -57 27q-46 2 -77 -9.5t-47 -24.5t-17 -15l-55 48q2 3 25 22t66.5 36.5t108.5 15.5q45 -3 72.5 -20.5t40.5 -37.5q31 -50 30 -102h30v-73zM349 334v0v68h-165q32 -35 50 -91q33 36 77 34q20 -1 38 -11z" />
    <glyph glyph-name="bn_s_tt_ra" horiz-adv-x="747" 
d="M751 402v0h-329v-336q54 0 117.5 18t90.5 65q17 35 15 58t-9 34q-15 25 -40 28q-23 2 -40 -7q45 -17 45 -59q0 -26 -18.5 -44.5t-44.5 -18.5q-18 -1 -34 7q-40 26 -42 72.5t26 80.5q43 46 114 42q63 -8 97 -66q38 -72 -3 -160q-31 -55 -86.5 -81.5t-113.5 -34t-89 -7.5
q-20 0 -24 1l-34 2v233q-23 44 -43 45q-7 0 -13 -6t-10 -12q-7 -12 -19.5 -35.5t-24.5 -52.5q-40 -89 -106 -89q-38 0 -64.5 14t-41.5 29l42 61q2 -3 9.5 -10.5t21 -15t33.5 -7.5q18 0 39 46q0 1 1 3q0 1 1 2q2 83 -25 126t-59.5 58.5t-46.5 16.5h-53v73h658q1 32 -17 60
q-18 26 -57 27q-46 2 -77 -9.5t-47 -24.5t-17 -15l-55 48q2 3 25 22t66.5 36.5t108.5 15.5q45 -3 72.5 -20.5t40.5 -37.5q31 -50 30 -102h30v-73zM349 334v0v68h-165q32 -35 50 -91q33 36 77 34q20 -1 38 -11zM251 -122v0q-48 30 -56 88l72 11q3 -25 23 -37q14 -8 29 -9.5
t22 1.5q9 3 24 13q20 13 50 25.5t75 12.5q29 0 51 -16v116h73v-230h-75q-9 21 -24 40t-40 18q-39 -6 -73 -29q-18 -12 -38 -19q-22 -8 -52.5 -5t-60.5 20z" />
    <glyph glyph-name="bn_s_ta" horiz-adv-x="565" 
d="M345 371v0v31h-142q14 -20 22 -46l6 4q60 34 114 11zM345 244v35q-11 17 -29.5 25.5t-48.5 -7.5q-5 -3 -11.5 -11t-13.5 -16q-15 -20 -35 -39.5t-51 -28.5q-14 -4 -28 -4q-27 0 -50.5 9.5t-38.5 19t-18 12.5l45 57q9 -7 30.5 -17t40.5 -7q12 4 23 14q5 16 -1.5 41
t-21.5 41q-21 18 -50 25.5t-45 8.5h-50v73h576v-73h-150v-158h-73zM418 276v-7q46 -8 79 -38q47 -46 47 -121q0 -79 -55 -129t-143 -50q-56 0 -104 29t-82.5 74t-50.5 94l69 23q19 -57 65.5 -102.5t102.5 -45.5q57 0 91 29.5t34 77.5q0 45 -24 68q-28 25 -77 22
q-25 -3 -36.5 -18.5t-11.5 -30.5q1 -8 5 -14q16 35 51 35q23 0 39.5 -16t16.5 -39q0 -24 -17 -41q-16 -15 -36 -21q-27 -9 -54 -5q-57 14 -73 72q-4 14 -4 27q-1 39 24 73.5t71 46.5v7h73z" />
    <glyph glyph-name="bn_s_t_ba" horiz-adv-x="565" 
d="M439 -137v0v76q-15 -5 -28 -11q-24 -11 -44 -26q39 -16 72 -39zM380 277q62 -3 103 -37q50 -45 50 -121q0 -60 -34 -104h1v-226h-52q-24 28 -63 46q-40 19 -79 23l-22 58q17 13 40 28q-61 0 -122 35.5t-96 132.5l64 40q34 -141 165 -141q115 0 126 108q0 47 -28 71
q-17 14 -37 18t-36 2q-25 -3 -37 -19t-11 -32q0 -3 1 -7q19 29 53 29q25 0 43 -16.5t18 -39.5q0 -10 -3 -19v-1q-1 0 -1 -1q-1 -2 -1 -4q-3 -6 -11 -14t-22.5 -15t-37.5 -9q-48 -2 -75.5 23t-31.5 44q-5 14 -5 29q-1 31 17 60.5t51 46.5q29 14 73 12zM345 371v0v31h-142
q14 -20 22 -46l6 4q60 34 114 11zM345 244v35q-11 17 -29.5 25.5t-48.5 -7.5q-5 -3 -11.5 -11t-13.5 -16q-15 -20 -35 -39.5t-51 -28.5q-14 -4 -28 -4q-27 0 -50.5 9.5t-38.5 19t-18 12.5l45 57q9 -7 30.5 -17t40.5 -7q12 4 23 14q5 16 -1.5 41t-21.5 41q-21 18 -50 25.5
t-45 8.5h-50v73h576v-73h-150v-158h-73z" />
    <glyph glyph-name="bn_s_t_ra" horiz-adv-x="533" 
d="M378 293q53 2 77 -17q18 -11 33.5 -36.5t15.5 -73.5v-227h-74q-9 13 -32 28t-55 9q-21 -6 -40 -13q-40 -14 -79 -18t-80 22q-34 25 -44 62t-7 62l73 -7v-7.5t1 -15.5t5 -18.5t13 -14.5q17 -12 38 -9.5t58 14.5q19 6 43 13q55 15 108 -14v134q0 13 -3.5 27.5t-13.5 21.5
q-24 14 -74 -6q-23 -10 -34 -23t-9 -22q1 -4 7 -8q15 35 49 35q17 0 31.5 -10.5t18.5 -27.5q6 -36 -21 -62q-32 -25 -73 -17q-29 6 -53 26.5t-31 50.5q-9 76 79 122q32 17 73 20zM345 371v0v31h-142q14 -20 22 -46l6 4q60 34 114 11zM345 244v35q-11 17 -29.5 25.5
t-48.5 -7.5q-5 -3 -11.5 -11t-13.5 -16q-15 -20 -35 -39.5t-51 -28.5q-14 -4 -28 -4q-27 0 -50.5 9.5t-38.5 19t-18 12.5l45 57q9 -7 30.5 -17t40.5 -7q12 4 23 14q5 16 -1.5 41t-21.5 41q-21 18 -50 25.5t-45 8.5h-50v73h548v-73h-122v-158h-73z" />
    <glyph glyph-name="bn_s_tha" horiz-adv-x="542" 
d="M345 371v0v31h-142q14 -20 22 -46l6 4q60 34 114 11zM340 270q57 3 105 -18.5t68 -76.5q21 -76 -32 -131q-41 -38 -114 -47l157 -61l-32 -61l-307 123l-4 67q64 -10 141.5 -3t106.5 30q12 11 15.5 28.5t-1.5 34.5q-4 13 -18 28.5t-39 21.5q-83 12 -108 -20
q-4 -5 -5.5 -11.5t-0.5 -10.5q0 -3 2 -6q17 26 48 26q19 0 34 -10.5t20 -27.5q8 -40 -25 -56.5t-69 -11.5q-22 4 -40 15q-26 18 -36.5 47t-1.5 58q17 43 63 60q31 12 73 13zM345 244v35q-11 17 -29.5 25.5t-48.5 -7.5q-5 -3 -11.5 -11t-13.5 -16q-15 -20 -35 -39.5
t-51 -28.5q-14 -4 -28 -4q-27 0 -50.5 9.5t-38.5 19t-18 12.5l45 57q9 -7 30.5 -17t40.5 -7q12 4 23 14q5 16 -1.5 41t-21.5 41q-21 18 -50 25.5t-45 8.5h-50v73h555v-73h-129v-158h-73z" />
    <glyph glyph-name="bn_s_na" horiz-adv-x="462" 
d="M345 371v0v31h-142q14 -20 22 -46l6 4q60 34 114 11zM345 135v144q-11 17 -29.5 25.5t-48.5 -7.5q-5 -3 -11.5 -11t-13.5 -16q-15 -20 -35 -39.5t-51 -28.5q-14 -4 -28 -4q-27 0 -50.5 9.5t-38.5 19t-18 12.5l45 57q9 -7 30.5 -17t40.5 -7q12 4 23 14q5 16 -1.5 41
t-21.5 41q-21 18 -50 25.5t-45 8.5h-50v73h482v-73h-56v-275zM418 190v-199h-73v73q-9 16 -32.5 36.5t-51.5 25.5q-60 7 -73 -31q-3 -13 5 -24l3 -5v-1q0 21 15 36t36 15q33 0 49 -34q5 -17 -0.5 -34t-16.5 -30q-23 -23 -55 -28q-25 -3 -49 6q-23 10 -38 32q-15 20 -19 44
q-3 22 3 43q10 35 47 61.5t103 19.5q49 -9 77 -33v27h70z" />
    <glyph glyph-name="bn_s_pha" horiz-adv-x="844" 
d="M470 402v0v0h-30q34 -29 61 -59l26 -30l-32 -23q-46 -33 -98 -74q77 -13 153 -64v223l35 2q7 1 37 0.5t66.5 -6.5t65.5 -22q32 -22 44.5 -60t5.5 -76q-9 -39 -38 -70.5t-73 -27.5q-28 3 -48 23q-24 32 -9.5 71t54.5 39q25 0 43 -18q4 29 -13 51q-15 16 -40.5 19.5
t-48.5 3.5h-8v-304h-73v37q-18 41 -55.5 64.5t-79 34.5t-71.5 14.5t-32 2.5l-33 61q16 17 50 44q-15 17 -24 18q-7 0 -13 -6.5t-8 -11.5q-7 -12 -19.5 -36t-25.5 -54q-39 -92 -106 -92q-39 0 -65.5 14.5t-41.5 31.5l45 59q4 -8 19.5 -20t42.5 -12q18 0 39 47q1 2 1 3
q1 1 1 3q2 64 -15 103.5t-42 60t-46.5 28t-28.5 8.5h-47v73h249v0h609v-73h-383zM389 303v0q16 11 29 21q-28 25 -56.5 46.5t-43.5 31.5h-134q32 -34 50 -89q32 39 78 35q22 -2 42 -14l11 -9t24 -22z" />
    <glyph glyph-name="bn_s_ba" horiz-adv-x="464" 
d="M417 -22h-73v29q-21 32 -54 49.5t-67 25t-57 9t-25 1.5l-25 64l228 119v4v0q-11 17 -29.5 25.5t-48.5 -7.5q-5 -3 -11.5 -11t-13.5 -16q-15 -20 -35.5 -39.5t-50.5 -28.5q-14 -4 -29 -4q-26 0 -49.5 9.5t-38.5 19t-18 12.5l45 57q9 -7 30.5 -17t40.5 -7q12 4 23 14
q4 16 -2 41t-21 41q-21 18 -50 25.5t-45 8.5h-50v73h478v-73h-52v-424zM344 109v0v85l-89 -45q45 -12 89 -40zM344 371v0v31h-142q14 -20 22 -46l6 4q60 34 114 11z" />
    <glyph glyph-name="bn_s_ma" horiz-adv-x="618" 
d="M429 402v73h196v-73h-61v-425h-73v69q-3 18 -20 45t-58 40q-47 10 -73.5 -5t-31.5 -34q-2 -5 -3 -13q21 18 46 18t43.5 -17.5t18.5 -44.5t-17.5 -46.5t-48.5 -21.5h-2q-14 0 -24 3q-53 16 -68 45q-27 43 -11 98q21 68 105 91v87h72v-88q2 0 3 -1q4 0 7 -1q38 -10 62 -30
v231h-62zM346 365v0v37h-142q14 -24 23 -55q2 2 5 4q61 42 114 14zM347 249v3q-12 21 -30.5 31.5t-48.5 -9.5q-5 -3 -11.5 -13t-13.5 -19q-15 -25 -35.5 -48.5t-50.5 -34.5q-14 -5 -29 -5q-26 0 -49.5 11.5t-38.5 23t-18 15.5l45 69q9 -8 30.5 -20.5t40.5 -8.5q12 5 23 17
q4 19 -2 49.5t-21 50.5q-21 22 -50 31t-45 10h-50v73h606v-73h-180v-153h-72z" />
    <glyph glyph-name="bn_s_ra" horiz-adv-x="465" 
d="M346 364v0v38h-142q14 -25 22 -56q3 3 6 5q60 41 114 13zM56 25v0q-47 30 -56 88l72 10q3 -24 23 -36q14 -9 29 -10t22 2q9 3 24 12q20 14 50 26.5t75 12.5q29 0 51 -17v142h73v-255h-75q-9 21 -24 39.5t-39 18.5q-40 -6 -74 -29q-18 -12 -38 -20q-22 -7 -52.5 -4
t-60.5 20zM346 249v3q-11 21 -29.5 31.5t-48.5 -9.5q-5 -3 -11.5 -13t-13.5 -20q-15 -24 -35.5 -47.5t-50.5 -34.5q-14 -5 -29 -5q-26 0 -49.5 11.5t-38.5 23t-18 15.5l45 69q9 -8 30.5 -20.5t40.5 -8.5q12 5 23 17q4 19 -2 49.5t-21 50.5q-21 22 -50 31t-45 10h-50v73h478
v-73h-52v-153h-73z" />
    <glyph glyph-name="bn_s_ra_ukaar" horiz-adv-x="654" 
d="M346 364v0v38h-142q14 -25 22 -56q3 3 6 5q60 41 114 13zM56 25v0q-47 30 -56 88l72 10q3 -24 23 -36q14 -9 29 -10t22 2q9 3 24 12q20 14 50 26.5t75 12.5q29 0 51 -17v142h73v-255h-75q-9 21 -24 39.5t-39 18.5q-40 -6 -74 -29q-18 -12 -38 -20q-22 -7 -52.5 -4
t-60.5 20zM346 249v3q-11 21 -29.5 31.5t-48.5 -9.5q-5 -3 -11.5 -13t-13.5 -20q-15 -24 -35.5 -47.5t-50.5 -34.5q-14 -5 -29 -5q-26 0 -49.5 11.5t-38.5 23t-18 15.5l45 69q9 -8 30.5 -20.5t40.5 -8.5q12 5 23 17q4 19 -2 49.5t-21 50.5q-21 22 -50 31t-45 10h-50v73h669
v-73h-243v-153h-73zM419 227q19 -10 31 -14q73 -19 97 25q2 4 3 9q-20 -14 -48 -12q-30 4 -48.5 25t-16.5 51q3 25 19.5 41.5t41.5 20.5q9 1 17 0q48 -3 68.5 -21t27.5 -34q15 -30 13.5 -61.5t-13.5 -53.5q-8 -15 -28.5 -34.5t-57 -29.5t-93.5 4q-24 6 -36 18z" />
    <glyph glyph-name="bn_s_ra_uukaar" horiz-adv-x="600" 
d="M346 364v0v38h-142q14 -25 22 -56q3 3 6 5q60 41 114 13zM56 25v0q-47 30 -56 88l72 10q3 -24 23 -36q14 -9 29 -10t22 2q9 3 24 12q20 14 50 26.5t75 12.5q29 0 51 -17v142h73v-255h-75q-9 21 -24 39.5t-39 18.5q-40 -6 -74 -29q-18 -12 -38 -20q-22 -7 -52.5 -4
t-60.5 20zM346 249v3q-11 21 -29.5 31.5t-48.5 -9.5q-5 -3 -11.5 -13t-13.5 -20q-15 -24 -35.5 -47.5t-50.5 -34.5q-14 -5 -29 -5q-26 0 -49.5 11.5t-38.5 23t-18 15.5l45 69q9 -8 30.5 -20.5t40.5 -8.5q12 5 23 17q4 19 -2 49.5t-21 50.5q-21 22 -50 31t-45 10h-50v73h611
v-73h-185v-153h-73zM418 349l51 16q31 8 53 9l53 -69q-28 -109 -28 -157q0 -42 20 -123l-55 -29q-38 69 -38 165q0 57 15 124q-25 -2 -71 -20v84z" />
    <glyph glyph-name="bn_s_la" horiz-adv-x="466" 
d="M134 101q10 9 33 9q22 0 38.5 -18t16.5 -43q0 -24 -14.5 -41t-36.5 -19h-5q-35 1 -54 15t-26 27q-14 24 -15 49t7 44q4 13 17.5 31t40.5 29.5t70 4.5q36 -10 54 -29q5 8 18 15q31 18 54 14q49 -9 84 -60v-69h-70v22q-5 28 -18 34q-9 4 -20 -4q-13 -8 -8 -52l-65 -3
q0 13 2 34q-5 20 -41 32q-48 9 -62 -22zM417 290v-290h-73v290h73zM344 371v0v31h-142q14 -20 22 -46l6 4q60 34 114 11zM344 278v1q-11 17 -29.5 25.5t-48.5 -7.5q-5 -3 -11.5 -11t-13.5 -16q-15 -20 -35.5 -39.5t-50.5 -28.5q-14 -4 -29 -4q-26 0 -49.5 9.5t-38.5 19
t-18 12.5l45 57q9 -7 30.5 -17t40.5 -7q12 4 23 14q4 16 -2 41t-21 41q-21 18 -50 25.5t-45 8.5h-50v73h478v-73h-52v-124h-73z" />
    <glyph glyph-name="bn_ha_ukaar" horiz-adv-x="414" 
d="M429 475v0v-73h-439v73h439zM200 91v0l245 -115l-31 -66l-398 183l12 73q73 -11 156.5 -3t116.5 33q26 25 17 61q-8 38 -53 50l-35 -63l-15 5q-2 4 -7 16q-5 10 -10 21.5t-9.5 20t-6.5 9.5q-16 1 -28.5 -0.5t-28.5 -8.5q-4 -2 -8.5 -7t-7.5 -10q-3 -6 -3 -14t3 -15
q15 22 41 22h1q24 -2 36.5 -19.5t8.5 -40.5q-5 -20 -21 -32.5t-36 -15.5q-43 -4 -70.5 24t-31.5 69q-2 21 4.5 44.5t23.5 38.5q26 21 56 27t70 7l26 -51l21 48h5q6 -1 13 -2t11 -1q97 -19 122 -102q19 -81 -39 -136q-56 -42 -150 -50z" />
    <glyph glyph-name="bn_ha_rikaar" horiz-adv-x="514" 
d="M517 475v0v-73h-292l16 -2q83 -20 108 -99q21 -82 -32 -140q-45 -40 -122 -50l206 -100l-32 -66l-349 166l13 72q63 -10 133.5 -2.5t98.5 31.5q12 12 16 31t-2 37q-3 14 -17.5 30.5t-39.5 22.5q-83 13 -108 -21q-4 -6 -5.5 -13t-0.5 -11q0 -3 1 -6q18 28 49 28
q19 0 34 -11.5t20 -29.5q8 -43 -25 -60.5t-69 -11.5q-22 3 -40 16q-38 28 -42.5 73.5t29.5 79.5q32 28 83 36h-150v73h519zM322 339q59 30 123 34l53 -69q-28 -109 -28 -157q0 -42 20 -123l-55 -29q-38 69 -38 165q0 57 15 124q-25 -2 -71 -20z" />
    <glyph glyph-name="bn_h_nna" horiz-adv-x="389" 
d="M393 475v0v-73h-168l16 -2q83 -20 108 -99q21 -82 -32 -140q-45 -40 -122 -50l206 -100l-32 -66l-349 166l13 72q63 -10 133.5 -2.5t98.5 31.5q12 12 16 31t-2 37q-3 14 -17.5 30.5t-39.5 22.5q-83 13 -108 -21q-4 -6 -5.5 -13t-0.5 -11q0 -3 1 -6q18 28 49 28
q19 0 34 -11.5t20 -29.5q8 -43 -25 -60.5t-69 -11.5q-22 3 -40 16q-38 28 -42.5 73.5t29.5 79.5q32 28 83 36h-150v73h395zM352 -1v-124h-73v44q-16 9 -38 9q-11 1 -20 -1q12 -15 12 -33q0 -23 -16 -38.5t-38 -15.5t-37.5 13.5t-15.5 40.5v9q2 17 10 27q11 22 35.5 40
t66.5 18h5q18 -1 36 -5v16h73z" />
    <glyph glyph-name="bn_h_na" horiz-adv-x="581" 
d="M587 475v0v-73h-362l16 -2q83 -20 108 -99q21 -82 -32 -140q-45 -40 -122 -50l206 -100l-32 -66l-349 166l13 72q63 -10 133.5 -2.5t98.5 31.5q12 12 16 31t-2 37q-3 14 -17.5 30.5t-39.5 22.5q-83 13 -108 -21q-4 -6 -5.5 -13t-0.5 -11q0 -3 1 -6q18 28 49 28
q19 0 34 -11.5t20 -29.5q8 -43 -25 -60.5t-69 -11.5q-22 3 -40 16q-38 28 -42.5 73.5t29.5 79.5q32 28 83 36h-150v73h589zM587 475v0v-73h-362l16 -2q83 -20 108 -99q21 -82 -32 -140q-45 -40 -122 -50l206 -100l-32 -66l-349 166l13 72q63 -10 133.5 -2.5t98.5 31.5
q12 12 16 31t-2 37q-3 14 -17.5 30.5t-39.5 22.5q-83 13 -108 -21q-4 -6 -5.5 -13t-0.5 -11q0 -3 1 -6q18 28 49 28q19 0 34 -11.5t20 -29.5q8 -43 -25 -60.5t-69 -11.5q-22 3 -40 16q-38 28 -42.5 73.5t29.5 79.5q32 28 83 36h-150v73h589zM354 245l-23 67q12 11 36 17
q57 14 93.5 4t57 -29.5t28.5 -34.5q12 -22 13.5 -53.5t-13.5 -61.5q-7 -16 -27.5 -34t-68.5 -21q-8 -1 -17 0q-25 4 -41.5 20.5t-19.5 41.5q-2 30 16.5 51t48.5 25q28 2 48 -12q-1 5 -3 9q-24 44 -97 25q-12 -3 -31 -14z" />
    <glyph glyph-name="bn_h_ba" horiz-adv-x="390" 
d="M393 475v0v-73h-168l16 -2q83 -20 108 -99q21 -82 -32 -140q-45 -40 -122 -50l206 -100l-32 -66l-349 166l13 72q63 -10 133.5 -2.5t98.5 31.5q12 12 16 31t-2 37q-3 14 -17.5 30.5t-39.5 22.5q-83 13 -108 -21q-4 -6 -5.5 -13t-0.5 -11q0 -3 1 -6q18 28 49 28
q19 0 34 -11.5t20 -29.5q8 -43 -25 -60.5t-69 -11.5q-22 3 -40 16q-38 28 -42.5 73.5t29.5 79.5q32 28 83 36h-150v73h395zM222 -45q28 -12 64 -36v64q-27 -11 -64 -28zM356 27v-238h-69v31q-25 40 -57 61t-59.5 29t-35.5 9l-6 -2l-30 57l129 69q38 -18 90 -18q20 0 38 2z
" />
    <glyph glyph-name="bn_h_ma" horiz-adv-x="635" 
d="M0 402v0v73h641v-73h-191v-418h-73v72q0 7 -7.5 26t-25.5 39t-51 29q-51 10 -79.5 -5t-33.5 -35q-1 -4 -2 -9q18 15 41 15q27 0 46.5 -19.5t19.5 -46.5t-18 -45.5t-45 -20.5v0q-43 -1 -66.5 14t-33.5 31q-29 45 -12 103q12 36 45.5 62t83.5 32q-20 44 -69 42
q-23 0 -36 -6q10 -15 10 -33q0 -24 -17 -40.5t-40 -16.5q-24 0 -41 16.5t-17 40.5q0 2 1 4v0h-1q0 26 24.5 58.5t76.5 45.5q-14 30 -36.5 45.5t-34.5 19.5h-59zM317 219v0q36 -11 60 -30v75q-40 0 -73 17q-33 20 -45 54.5t-12 66.5h-71q21 -26 30 -65q37 -7 67.5 -34
t43.5 -84zM377 333v0v69h-60q0 -21 5.5 -37.5t14.5 -22.5q16 -8 40 -9zM444 337l51 16q31 8 53 9l53 -69q-28 -109 -28 -157q0 -42 20 -123l-55 -29q-38 69 -38 165q0 57 15 124q-25 -2 -71 -20v84z" />
    <glyph glyph-name="bn_h_ra" horiz-adv-x="449" 
d="M453 475v0v-73h-167q8 -1 16 -3q82 -20 108 -98q21 -82 -32 -141q-46 -40 -122 -50l205 -99l-32 -66l-348 166l13 72q62 -10 133 -2.5t99 31.5q12 12 15.5 30.5t-1.5 37.5q-4 13 -18 29.5t-39 23.5q-84 13 -108 -22q-4 -5 -5.5 -12t-1.5 -11q1 -4 2 -7q17 29 49 29
q19 0 34 -11.5t20 -30.5q8 -42 -25 -59.5t-70 -12.5q-21 4 -39 16q-38 29 -42.5 74.5t29.5 78.5q31 28 83 37h-210v73h454zM426 -5l1 -132h-75v0l-1 2l-3 3q-5 6 -11 13t-11 12l-5 6q-20 21 -48.5 18.5t-53.5 -12.5q-42 -19 -84.5 -0.5t-60.5 91.5l73 34q16 -56 29 -55
q25 2 41.5 9t38.5 11q53 3 94 -33v33h76z" />
    <glyph glyph-name="bn_h_la" horiz-adv-x="391" 
d="M393 475v0v-73h-168l16 -2q83 -20 108 -99q21 -82 -32 -140q-45 -40 -122 -50l206 -100l-32 -66l-349 166l13 72q63 -10 133.5 -2.5t98.5 31.5q12 12 16 31t-2 37q-3 14 -17.5 30.5t-39.5 22.5q-83 13 -108 -21q-4 -6 -5.5 -13t-0.5 -11q0 -3 1 -6q18 28 49 28
q19 0 34 -11.5t20 -29.5q8 -43 -25 -60.5t-69 -11.5q-22 3 -40 16q-38 28 -42.5 73.5t29.5 79.5q32 28 83 36h-150v73h395zM337 -74v-63h-63v19q-8 29 -20 36q-9 5 -23 -4q-5 -3 -8 -18.5t-3 -32.5l-56 -3q0 9 1 30q-6 11 -17 21t-27 14q-53 10 -67 -27q-3 -6 -3 -14
q16 20 40 20q21 0 36.5 -16.5t15.5 -39.5t-13.5 -38.5t-33.5 -17.5h-6q-33 1 -51 14t-25 26q-13 23 -14 47t6 42q4 13 17 30.5t39 28t68 3.5q34 -8 55 -31q7 12 20 19q29 16 51 12q48 -8 81 -57zM338 5v-143h-64v143h64z" />
    <glyph glyph-name="asa_ra_ukaar" horiz-adv-x="620" 
d="M166 241l-22 -14q85 -24 167 -83v26q-59 57 -145 71zM311 266v60q-26 -15 -54 -31q32 -13 54 -29zM-10 402v73h633v-73h-239v-402h-73v35q-23 43 -73.5 70.5t-103.5 42t-84 14.5l-36 81q45 35 129 81.5t144 77.5h-297zM381 226q20 -10 31 -13q73 -19 97 25q2 4 3 9
q-20 -14 -48 -12q-30 4 -48.5 25t-16.5 51q3 25 19.5 41.5t41.5 20.5q9 1 17 0q48 -3 68.5 -21t27.5 -34q15 -30 13.5 -61.5t-13.5 -53.5q-8 -15 -28.5 -34.5t-57 -29.5t-93.5 4q-24 5 -36 17z" />
    <glyph glyph-name="asa_ra_uukaar" horiz-adv-x="564" 
d="M166 241l-22 -14q85 -24 167 -83v26q-59 57 -145 71zM311 266v60q-26 -15 -54 -31q32 -13 54 -29zM-10 402v73h579v-73h-185v-402h-73v35q-23 43 -73.5 70.5t-103.5 42t-84 14.5l-36 81q45 35 129 81.5t144 77.5h-297zM381 348l51 16q31 8 53 9l53 -69q-28 -109 -28 -157
q0 -42 20 -123l-55 -29q-38 69 -38 165q0 57 15 124q-25 -2 -71 -20v84z" />
    <glyph glyph-name="asa_ba_ukaar" horiz-adv-x="612" 
d="M-10 402v0v73h628v-73h-234v-402h-73v35q-23 43 -73.5 70.5t-103.5 42t-84 14.5l-36 81q45 35 129 81.5t144 77.5h-297zM311 144v0v182q-41 -23 -86.5 -49.5t-80.5 -49.5q85 -24 167 -83zM77 132q141 -31 187 -89v-103q-71 94 -187 110v82zM381 226q20 -10 31 -13
q73 -19 97 25q2 4 3 9q-20 -14 -48 -12q-30 4 -48.5 25t-16.5 51q3 25 19.5 41.5t41.5 20.5q9 1 17 0q48 -3 68.5 -21t27.5 -34q15 -30 13.5 -61.5t-13.5 -53.5q-8 -15 -28.5 -34.5t-57 -29.5t-93.5 4q-24 5 -36 17z" />
    <glyph glyph-name="asa_ba_uukaar" horiz-adv-x="563" 
d="M-10 402v0v73h578v-73h-184v-402h-73v35q-23 43 -73.5 70.5t-103.5 42t-84 14.5l-36 81q45 35 129 81.5t144 77.5h-297zM311 144v0v182q-41 -23 -86.5 -49.5t-80.5 -49.5q85 -24 167 -83zM77 132q141 -31 187 -89v-103q-71 94 -187 110v82zM381 348l51 16q31 8 53 9
l53 -69q-28 -109 -28 -157q0 -42 20 -123l-55 -29q-38 69 -38 165q0 57 15 124q-25 -2 -71 -20v84z" />
    <glyph glyph-name="bn_dr_u" horiz-adv-x="494" 
d="M-6 402v0v73h505v-73h-231v-137q29 14 55 40t44 50l87 -8q8 -38 9 -105.5t-27 -131t-108 -86.5q-31 -8 -61 -8q-78 0 -140 49q-103 87 -96 269l72 -3q-5 -146 70 -210q57 -46 138 -27q52 16 67.5 68.5t11.5 106.5q-49 -56 -122 -80q-15 -3 -29 -3h-9h-34v216h-202z
M75 -30v0q0 21 15.5 36.5t36.5 15.5t36 -15.5t15 -36.5t-15 -36t-36 -15t-36.5 15t-15.5 36zM295 -104v0q26 6 31 34q-29 14 -46 10q-22 -5 -17 -27q5 -23 32 -17zM358 58q39 -39 43 -84q85 -39 102 -107l-44 -40q-25 56 -73 83q-33 -65 -80 -75q-44 -10 -75 12
q-30 22 -40 67q-7 30 15 55q19 22 51 30q34 7 72 -2q1 18 -52 59z" />
    <glyph glyph-name="bn_dr_uu" horiz-adv-x="494" 
d="M-6 402v0v73h505v-73h-231v-137q29 14 55 40t44 50l87 -8q8 -38 9 -105.5t-27 -131t-108 -86.5q-31 -8 -61 -8q-78 0 -140 49q-103 87 -96 269l72 -3q-5 -146 70 -210q57 -46 138 -27q52 16 67.5 68.5t11.5 106.5q-49 -56 -122 -80q-15 -3 -29 -3h-9h-34v216h-202z
M123 -54v0q0 21 15 36t36 15q22 0 37 -15t15 -36t-15 -36.5t-37 -15.5q-21 0 -36 15.5t-15 36.5zM386 -32q-17 -6 -37.5 -19.5t-20.5 -29.5q0 -13 11 -18q8 -4 21.5 -2t26.5 11q15 12 23.5 26t11.5 24t3 11l1 4l65 11l121 -145l-56 -47l-84 102q-15 -24 -42 -45
q-60 -41 -122 -16q-48 24 -53 79q0 51 37 82q11 10 22 17v39h72v-84z" />
    <glyph glyph-name="bn_dr_r" horiz-adv-x="494" 
d="M365 -56l-92 -59l166 -67l-27 -67l-227 91l-13 65l121 78v55h72v-96zM-6 402v0v73h505v-73h-231v-137q29 14 55 40t44 50l87 -8q8 -38 9 -105.5t-27 -131t-108 -86.5q-31 -8 -61 -8q-78 0 -140 49q-103 87 -96 269l72 -3q-5 -146 70 -210q57 -46 138 -27q52 16 67.5 68.5
t11.5 106.5q-49 -56 -122 -80q-15 -3 -29 -3h-9h-34v216h-202zM92 -30v0q0 21 15 36.5t36 15.5q22 0 37 -15.5t15 -36.5t-15 -36t-37 -15q-21 0 -36 15t-15 36z" />
    <glyph glyph-name="bn_dhr_u" horiz-adv-x="450" 
d="M453 402v0h-318v-336q54 0 117.5 17.5t91.5 65.5q16 35 14 58t-9 34q-15 25 -40 28q-21 2 -37 -5q24 -12 31 -37q5 -13 3.5 -28t-9.5 -26q-14 -17 -36 -21.5t-42 3.5q-43 21 -44.5 66.5t26.5 78.5q43 46 114 41q63 -7 97 -65q39 -73 -3 -160q-30 -55 -86 -81.5t-114 -34
t-89 -7.5q-20 0 -23 1l-35 2v406h-64v73h455v-73zM63 -80v0q0 21 15 36t36 15t36.5 -15t15.5 -36q0 -22 -15.5 -37t-36.5 -15t-36 15t-15 37zM295 -104v0q26 6 31 34q-29 14 -46 10q-22 -5 -17 -27q5 -23 32 -17zM358 58q39 -39 43 -84q85 -39 102 -107l-44 -40
q-25 56 -73 83q-33 -65 -80 -75q-44 -10 -75 12q-30 22 -40 67q-7 30 15 55q19 22 51 30q34 7 72 -2q1 18 -52 59z" />
    <glyph glyph-name="bn_dhr_uu" horiz-adv-x="449" 
d="M453 402v0h-318v-336q54 0 117.5 17.5t91.5 65.5q16 35 14 58t-9 34q-15 25 -40 28q-21 2 -37 -5q24 -12 31 -37q5 -13 3.5 -28t-9.5 -26q-14 -17 -36 -21.5t-42 3.5q-43 21 -44.5 66.5t26.5 78.5q43 46 114 41q63 -7 97 -65q39 -73 -3 -160q-30 -55 -86 -81.5t-114 -34
t-89 -7.5q-20 0 -23 1l-35 2v406h-64v73h455v-73zM91 -81v0q0 22 15 37t37 15q21 0 36 -15t15 -37q0 -21 -15 -36t-36 -15q-22 0 -37 15t-15 36zM346 -32q-17 -6 -37.5 -19.5t-20.5 -29.5q0 -13 11 -18q8 -4 21.5 -2t26.5 11q15 12 23.5 26t11.5 24t3 11l1 4l65 11l121 -145
l-56 -47l-84 102q-15 -24 -42 -45q-60 -41 -122 -16q-48 24 -53 79q0 51 37 82q11 10 22 17v39h72v-84z" />
    <glyph glyph-name="bn_dhr_r" horiz-adv-x="449" 
d="M453 402v0h-318v-336q54 0 117.5 17.5t91.5 65.5q16 35 14 58t-9 34q-15 25 -40 28q-21 2 -37 -5q24 -12 31 -37q5 -13 3.5 -28t-9.5 -26q-14 -17 -36 -21.5t-42 3.5q-43 21 -44.5 66.5t26.5 78.5q43 46 114 41q63 -7 97 -65q39 -73 -3 -160q-30 -55 -86 -81.5t-114 -34
t-89 -7.5q-20 0 -23 1l-35 2v406h-64v73h455v-73zM81 -81v0q0 22 15 37t37 15q21 0 36 -15t15 -37q0 -21 -15 -36t-36 -15q-22 0 -37 15t-15 36zM365 -86l-92 -59l166 -67l-27 -67l-227 91l-13 65l121 78v93l72 22v-156z" />
    <glyph glyph-name="bn_y_u" horiz-adv-x="451" 
d="M413 0v0h-73v18q-36 61 -115.5 87t-146.5 25l-45 81l164 109q-32 26 -71 48t-65 34h-66v73h463v-73h-45v-402zM148 195v0q47 -6 98 -21.5t94 -46.5v275h-132q38 -27 66 -60l31 -37zM147 30v0q0 21 15.5 36t36.5 15t36 -15t15 -36q0 -22 -15 -37t-36 -15t-36.5 15
t-15.5 37zM327 -135v0q26 6 31 35q-29 14 -46 10q-22 -5 -18 -27q6 -24 33 -18zM413 0q18 -27 20 -56q85 -39 102 -107l-44 -40q-25 56 -73 83q-33 -65 -80 -75q-44 -10 -75 12q-30 22 -40 67q-7 30 15 55q19 22 51 30q34 7 72 -2q1 12 -21 33h73z" />
    <glyph glyph-name="bn_y_uu" horiz-adv-x="453" 
d="M413 0v0h-73v18q-36 61 -115.5 87t-146.5 25l-45 81l164 109q-32 26 -71 48t-65 34h-66v73h463v-73h-45v-402zM148 195v0q47 -6 98 -21.5t94 -46.5v275h-132q38 -27 66 -60l31 -37zM147 30v0q0 21 15.5 36t36.5 15t36 -15t15 -36q0 -22 -15 -37t-36 -15t-36.5 15
t-15.5 37zM413 -16q-17 -6 -37.5 -19.5t-20.5 -29.5q0 -13 11 -18q8 -4 21.5 -2t26.5 11q15 12 23.5 26t11.5 24t3 11l1 4l65 11l121 -145l-56 -47l-84 102q-15 -24 -42 -45q-60 -41 -122 -16q-48 24 -53 79q0 51 37 82q11 9 22 16v40h72v-84z" />
    <glyph glyph-name="bn_y_r" horiz-adv-x="452" 
d="M413 0v0h-73v18q-36 61 -115.5 87t-146.5 25l-45 81l164 109q-32 26 -71 48t-65 34h-66v73h463v-73h-45v-402zM148 195v0q47 -6 98 -21.5t94 -46.5v275h-132q38 -27 66 -60l31 -37zM147 30v0q0 21 15.5 36t36.5 15t36 -15t15 -36q0 -22 -15 -37t-36 -15t-36.5 15
t-15.5 37zM413 -31l-92 -59l166 -67l-27 -67l-227 91l-13 65l121 77v94l72 22v-156z" />
    <glyph glyph-name="bn_reph" 
d="M-317 717l-136 -125l-49 53l136 125z" />
    <glyph glyph-name="bn_ba_phala" horiz-adv-x="1" 
d="M-147 -75v0q39 -16 71 -38q1 37 -2 73q-13 -4 -24 -9q-25 -11 -45 -26zM-14 19v-208h-53q-23 28 -62 47q-39 18 -78 22l-23 58q28 22 73 47q29 15 64 30q3 2 6 3q2 1 3 1h70z" />
    <glyph glyph-name="bn_ya_phala" horiz-adv-x="168" 
d="M123 402q-9 -5 -19 -20t-9 -40q4 -38 23 -89q13 -39 22.5 -78t3.5 -75q-12 -55 -48.5 -78t-70.5 -23l-5 72q9 0 15 1.5t14 5.5t14.5 12.5t9.5 22.5q3 22 -4.5 53t-19.5 64q-21 55 -26 107q-2 46 9 65h-60v73h214v-73h-63z" />
    <glyph glyph-name="bn_ra_phala" 
d="M-414 -195v0q-48 30 -57 88l72 11q4 -25 23 -37q15 -8 29.5 -9.5t21.5 1.5q9 4 24 13q20 13 50 26t75 13q29 0 51 -17v116h73v-229h-75q-9 21 -24 39.5t-39 18.5q-40 -7 -74 -30q-18 -12 -38 -19q-21 -7 -52 -4.5t-60 19.5z" />
    <glyph glyph-name="uni25CC" unicode="&#x25cc;" horiz-adv-x="477" 
d="M180 138l-35 -35l-51 51l35 35q9 -16 22 -29t29 -22zM120 211h-50v73h50q-5 -17 -5 -37q0 -19 5 -36zM129 306l-35 35l51 51l35 -35q-16 -9 -29 -22t-22 -29zM202 366v50h73v-50q-17 5 -36 5q-20 0 -37 -5zM297 357l35 35l51 -51l-35 -36q-8 16 -22 30q-13 13 -29 22z
M357 284h50v-73h-50q5 17 5 36q0 20 -5 37zM348 189l35 -35l-51 -51l-35 35q16 9 29 22q14 14 22 29zM275 129v-50h-73v50q17 -5 37 -5q19 0 36 5z" />
    <glyph glyph-name="uni200C" unicode="&#x200c;" 
 />
    <glyph glyph-name="uni200D" unicode="&#x200d;" 
 />
    <glyph glyph-name="uni20B9" unicode="&#x20b9;" horiz-adv-x="528" 
d="M504 432h-459v73h459v-73zM235 502l16 -2q121 -20 143.5 -122.5t-67.5 -186.5q-45 -40 -122 -50l206 -100l-32 -66l-349 166l13 72q63 -10 130.5 -2t106.5 43q36 36 36 83.5t-24 68.5t-60 23q-13 2 -25 3v70h28zM505 280h-460v73h460v-73z" />
    <glyph glyph-name="bn_ka.half" horiz-adv-x="541" 
d="M510 271v0q10 -55 -21 -103q-10 -15 -26 -26q-19 -12 -46 -9.5t-41 21.5q-11 14 -11 33q0 21 15.5 36.5t37.5 15.5q11 0 21 -4q2 11 0 22q-14 53 -80 59v-318h-72v28q-37 60 -82.5 91.5t-82.5 43t-48 12.5h-6l-37 62l256 151v16h-289v73h289h72h185v-73h-185v-14
q124 -9 151 -117zM287 144v0v157l-129 -76q61 -21 129 -81zM470 -137l-49 -53l-136 125l49 53z" />
    <glyph glyph-name="bn_kha.half" horiz-adv-x="453" 
d="M470 -137l-49 -53l-136 125l49 53zM387 475v0h75v-73h-75v-402h-73v20q-25 50 -67 76t-85.5 36t-74 10.5t-32.5 0.5l-11 71q54 13 97.5 29t60.5 39q15 23 19 48q-22 -25 -56 -36q-75 -19 -124 47q-37 59 -5 123q18 30 55 35.5t60 -22.5q15 -16 15 -38q0 -23 -16.5 -39.5
t-39.5 -16.5q-5 0 -10 1q1 -1 2 -3q6 -9 17 -15t25 -2q19 6 32 25t20 39t9 30l3 12h64l2 -4q2 -3 9 -23.5t11.5 -53.5t-1.5 -71.5t-30 -76.5q-20 -27 -54 -46q56 -17 105 -58v265v73h73z" />
    <glyph glyph-name="bn_ga.half" horiz-adv-x="469" 
d="M500 -137l-49 -53l-136 125l49 53zM484 402v0h-75v-402h-72v280q-14 29 -47 68t-77 52q-47 9 -76 -16q-14 -11 -22 -28q30 9 63.5 7t64.5 -26q58 -52 38 -135q-30 -94 -134 -111l-9 72q58 9 73 59q10 38 -14 59q-14 11 -32.5 10.5t-36 -6.5t-29 -12t-12.5 -7l-56 30
q-1 91 59 144q57 46 137 30q67 -17 110 -66v71h72h75v-73z" />
    <glyph glyph-name="bn_gha.half" horiz-adv-x="407" 
d="M470 -137l-49 -53l-136 125l49 53zM25 335v0q-5 39 9 67h-39v73h417v-73h-45v-402h-72v39q-37 47 -109 68.5t-129 25.5l-32 77l68 48q-38 15 -52.5 38t-15.5 39zM295 136v0v266h-163q-6 -2 -15 -9t-16 -18.5t-5 -27.5q4 -14 21.5 -19.5t37.5 -6t29 0.5l46 33l42 -59
l-142 -100q84 -13 165 -60z" />
    <glyph glyph-name="bn_nga.half" horiz-adv-x="240" 
d="M240 173l-2 -1q33 16 38 42q-19 -12 -62 -6q-41 8 -63 43q-17 31 -18 64q-28 13 -49 34t-31.5 38.5t-12.5 25.5l62 28q1 -6 5.5 -14.5t14 -20t17.5 -17.5q4 20 6 26q9 26 31.5 42.5t52.5 17.5q57 -1 77 -52q6 -16 6 -31q0 -37 -29 -64v0h-1q-2 -2 -4 -3v-1
q-30 -20 -77 -21q1 -8 7 -17q6 -10 18 -12q15 -2 25.5 3.5t17.5 15t10 17.5t3 9l3 10l65 -38q4 -43 -11.5 -98t-76.5 -83q-24 -9 -55 -9q-25 0 -51.5 7t-50.5 23q-30 18 -56.5 62t-31.5 129l67 2q4 -101 58 -138q27 -16 54.5 -17.5t43.5 4.5zM209 396q-4 -14 -6 -26
q12 0 22 3t14 5.5t5 3.5q2 4 1.5 9t-2.5 10q-2 7 -12 7h-1q-7 0 -21 -12z" />
    <glyph glyph-name="bn_ca.half" horiz-adv-x="200" 
d="M100 337v-173q69 8 99 40t34 61q1 6 1.5 11.5t-1.5 7.5q-5 7 -26 9q-72 14 -107 44zM111 402q2 -1 20 -11q29 -15 85 -25q55 -8 77 -39q22 -32 12 -78q-4 -25 -26.5 -62t-73 -67t-139.5 -32h-9l-30 -1v315h-35v73h347v-73h-228z" />
    <glyph glyph-name="bn_cha.half" horiz-adv-x="466" 
d="M449 -254l-49 -53l-137 125l49 53zM-7 402v0v73h480v-73h-361v-14q8 -10 35.5 -23.5t84.5 -18.5q30 -3 52 -23q60 -1 95.5 -27t48.5 -61q16 -43 2.5 -86t-52.5 -71q-65 -44 -160 -62l192 -82l-28 -66l-332 141h-2h-4l8 72q173 -15 285 56q21 16 25.5 35.5t-2.5 36.5
q-12 31 -49 39q-2 -11 -7 -21q-16 -38 -66 -72t-149 -40q-2 -1 -5 -1h-44v288h-47zM112 301v0v-112q39 4 73 20t51 49q2 5 0 9q-1 2 -3.5 4t-7.5 3q-72 7 -113 27z" />
    <glyph glyph-name="bn_ja.half" horiz-adv-x="571" 
d="M448 -138l-49 -52l-136 124l48 53zM-10 402v0v73h586v-73h-264q36 -25 87.5 -42.5t105.5 0.5l43 -54q-3 -3 -18 -31t-29 -73.5t-12.5 -103t31.5 -119.5l-65 -33q-46 100 -38 187.5t35 145.5q-64 2 -116 27t-83 49q-36 -40 -36 -72q0 -5 2 -8t7 -6q18 -9 49 -4.5t59 23.5
l56 -19q1 -3 5.5 -27t4 -57.5t-15 -67.5t-51.5 -57q-40 -23 -87 -23q-39 0 -77 17q-43 17 -85.5 74.5t-62.5 175.5l71 11q25 -154 107 -195q29 -13 54.5 -10.5t42.5 12.5q21 13 27 36t4 46q-75 -27 -134 0q-48 28 -48 79q0 32 16 63t37 56h-208z" />
    <glyph glyph-name="bn_jha.half" horiz-adv-x="534" 
d="M470 -137l-49 -53l-136 125l49 53zM368 0h-72v32q-51 82 -143 116q-61 21 -88 21h-2l-38 62l21 15q156 107 250 151v5h-299v73h371v-267l47 -52v319h124v-73h-52v-388h-72v35l-47 51v-100zM296 146v170q-70 -37 -148 -88q70 -18 148 -82z" />
    <glyph glyph-name="bn_nya.half" horiz-adv-x="662" 
d="M560 -137l-49 -53l-136 125l49 53zM625 236v0q19 -49 -8 -104q-15 -27 -49 -48.5t-73 -21.5h-12q-22 3 -40 8v-70h-73v57q-3 13 -10 25t-21 18q-29 11 -73 -15q-52 -32 -112 -27.5t-98 57.5q-23 36 -28 69.5t1 59.5t13.5 41.5t9.5 17.5l60 -41q0 -1 -4.5 -10t-7.5 -23.5
t0.5 -33.5t16.5 -40q20 -27 53 -25.5t58 17.5q75 46 139 20h2l1 -1v236q-39 0 -82 -20q-28 -16 -34 -40q-5 -18 6 -38q16 33 49 33q19 0 33.5 -12.5t18.5 -31.5v0l1 -4v0v-1q1 -7 -1 -21t-12.5 -28.5t-35.5 -22.5q-51 -12 -84 15q-15 9 -27 27v0v0q-3 4 -5 8v0v0
q-25 47 -14 94q14 54 69 85q35 19 70.5 25t87.5 5h33v-33q52 15 93 2q58 -19 75 -80q4 -14 2.5 -36.5t-17.5 -50.5q19 -16 29 -41zM552 165v0q12 26 5 45q-2 6 -6 10q-4 -18 -17.5 -29t-32.5 -11q-27 0 -40.5 22t-8.5 48q3 11 9.5 21.5t16.5 17.5q21 11 44 11q10 10 15.5 22
t2.5 25q-3 11 -10.5 18.5t-14.5 9.5q-15 4 -33 2t-31 -11q-2 -2 -4.5 -5t-3.5 -6v-5v-1v-10v-6v-32v-26v-37v-89q19 -11 48 -14q18 -1 36 9t25 21z" />
    <glyph glyph-name="bn_tta.half" horiz-adv-x="446" 
d="M410 -137l-49 -53l-136 125l49 53zM451 402v0h-319v-336q54 0 117 18t91 65q17 35 15 58t-10 34q-14 25 -40 28q-19 2 -34 -5q18 -8 28 -25.5t7 -37.5q-8 -35 -40.5 -46.5t-61.5 7.5q-34 26 -33 66.5t27 71.5q43 46 114 42q63 -8 97 -66q38 -72 -4 -160
q-30 -55 -85.5 -81.5t-113.5 -34t-89 -7.5q-20 0 -24 1l-34 2v406h-62v73h361q0 32 -17 60q-18 26 -57 27q-46 2 -77 -9.5t-47 -24.5t-17 -15l-55 48q1 3 24 22t67 36.5t108 15.5q46 -3 73.5 -21t40.5 -37q31 -50 30 -102h20v-73z" />
    </font>
</defs>
</svg>
