<?xml version="1.0" standalone="no"?>
<!DOCTYPE svg PUBLIC "-//W3C//DTD SVG 1.1//EN" "http://www.w3.org/Graphics/SVG/1.1/DTD/svg11.dtd" >
<svg xmlns="http://www.w3.org/2000/svg" xmlns:xlink="http://www.w3.org/1999/xlink" version="1.1">
<metadata>
Created by FontForge 20170924 at Sat Mar 16 22:36:19 2019
 By www-data
Shorif Bongobondhu UNICODE (c) All Rights Reserved by Lipighor Font Foundry
</metadata>
<defs>
<font id="ShorifBongobondhuUNICODE" horiz-adv-x="0" >
  <font-face 
    font-family="Shorif Bongobondhu UNICODE"
    font-weight="700"
    font-stretch="normal"
    units-per-em="1000"
    panose-1="2 0 5 6 0 0 0 2 0 3"
    ascent="800"
    descent="-200"
    x-height="367"
    cap-height="485"
    bbox="-440 -305 1141 783"
    underline-thickness="50"
    underline-position="-100"
    unicode-range="U+0020-25CC"
  />
<missing-glyph horiz-adv-x="599" 
d="M408 411v-27l81 27h67v-386h-69l-16 93v209l-63 -21v-70h-81v91l-60 -20v-207h60v71h81v-146h-226v330l162 56h64zM476 486l-232 -16l-98 -30v-415h-90v475l222 65h278v-125h-80v46z" />
    <glyph glyph-name=".notdef" horiz-adv-x="599" 
d="M408 411v-27l81 27h67v-386h-69l-16 93v209l-63 -21v-70h-81v91l-60 -20v-207h60v71h81v-146h-226v330l162 56h64zM476 486l-232 -16l-98 -30v-415h-90v475l222 65h278v-125h-80v46z" />
    <glyph glyph-name=".null" horiz-adv-x="1" 
 />
    <glyph glyph-name=".null" horiz-adv-x="1" 
 />
    <glyph glyph-name="nonmarkingreturn" horiz-adv-x="1" 
 />
    <glyph glyph-name="space" unicode=" " horiz-adv-x="217" 
 />
    <glyph glyph-name="exclam" unicode="!" horiz-adv-x="209" 
d="M193 543v-408l-119 24v384h119zM194 1l-120 24v106l120 -24v-106z" />
    <glyph glyph-name="quotedbl" unicode="&#x22;" horiz-adv-x="331" 
d="M158 577l7 -78l-100 -72l-59 27l60 56q-19 17 -40 27l46 103q45 -20 86 -63zM308 577l7 -78l-100 -72l-59 27l60 56q-19 17 -40 27l46 103q45 -20 86 -63z" />
    <glyph glyph-name="numbersign" unicode="#" horiz-adv-x="521" 
d="M441 523l-26 -126h79v-73h-94l-19 -97h86v-73h-101l-34 -165l-72 14l31 151h-95l-33 -165l-72 14l31 151h-86v73h101l20 97h-94v73h109l29 141l71 -15l-26 -126h95l29 141zM306 227l20 97h-95l-20 -97h95z" />
    <glyph glyph-name="dollar" unicode="$" horiz-adv-x="377" 
d="M359 124q0 -54 -39 -87.5t-96 -40.5v-82h-69v78q-28 0 -66 6t-70 21v81q45 -20 81.5 -28t54.5 -8v133q-66 21 -98 54t-32 85q0 27 11.5 48.5t29.5 37t41.5 25t47.5 11.5v65h69v-63q28 -1 59.5 -9t68.5 -22l-27 -68q-62 24 -101 27v-130q72 -23 103.5 -52.5t31.5 -81.5z
M276 120q0 20 -13 33t-39 22v-106q52 7 52 51zM109 337q0 -22 13 -35t33 -21v104q-17 -3 -31.5 -16t-14.5 -32z" />
    <glyph glyph-name="percent" unicode="%" horiz-adv-x="492" 
d="M69 0l250 514h116l-250 -514h-116zM460 109q0 -19 -7 -36t-19.5 -29.5t-29.5 -19.5t-36 -7t-35.5 7t-29 19.5t-19.5 29.5t-7 36q0 38 26.5 64.5t64.5 26.5q19 0 36 -7t29.5 -19.5t19.5 -29t7 -35.5zM219 397q0 -38 -26.5 -64.5t-64.5 -26.5q-19 0 -36 7t-29.5 19.5
t-19.5 29t-7 35.5t7 36t19.5 29.5t29.5 19.5t36 7t35.5 -7t29 -19.5t19.5 -29.5t7 -36zM368 150q-14 0 -23.5 -12t-9.5 -29q0 -18 9.5 -30t23.5 -12t24 12t10 30q0 17 -10 29t-24 12zM128 439q-14 0 -24 -12.5t-10 -29.5t10 -29t24 -12q13 0 23 12t10 29t-10 29.5t-23 12.5z
" />
    <glyph glyph-name="ampersand" unicode="&#x26;" horiz-adv-x="482" 
d="M463 7h-97l-41 39q-67 -46 -143 -46q-78 0 -121 34.5t-43 92.5q0 21 4 38.5t14.5 33t28.5 30.5t46 31q-31 36 -41.5 60t-10.5 53q0 45 35 73.5t96 28.5q58 0 91.5 -26t33.5 -69q0 -36 -21.5 -66.5t-80.5 -64.5l110 -108q15 25 26.5 51t19.5 53h85q-8 -31 -28.5 -72.5
t-51.5 -79.5zM105 137q0 -33 24 -52t60 -19q43 0 90 27l-123 122q-27 -20 -39 -37.5t-12 -40.5zM241 369q0 22 -15 34.5t-37 12.5q-25 0 -40.5 -13t-15.5 -37q0 -31 38 -75q36 20 53 37t17 41z" />
    <glyph glyph-name="quotesingle" unicode="'" horiz-adv-x="172" 
d="M158 577l7 -78l-100 -72l-59 27l60 56q-19 17 -40 27l46 103q45 -20 86 -63z" />
    <glyph glyph-name="parenleft" unicode="(" horiz-adv-x="245" 
d="M106 -23l-20 43q-10 21 -20.5 50.5t-19 63.5t-14 71t-5.5 73q0 37 5.5 73.5t14 69.5t19 61.5t20.5 49.5l20 44h122l-16 -44q-8 -21 -16.5 -49.5t-15.5 -61.5t-12 -69.5t-5 -73.5q0 -38 5 -74.5t12 -70t15.5 -62.5t16.5 -51l16 -43h-122z" />
    <glyph glyph-name="parenright" unicode=")" horiz-adv-x="250" 
d="M149 -23h-122l16 43q8 22 16.5 51t16 62.5t12 70t4.5 74.5q0 36 -5 72.5t-12 70t-16 62t-16 49.5l-16 44h122l19 -44q9 -21 19.5 -49.5t19.5 -61.5t15 -69.5t6 -73.5q0 -36 -5.5 -73t-14.5 -71t-19.5 -63.5t-20.5 -50.5z" />
    <glyph glyph-name="asterisk" unicode="*" horiz-adv-x="467" 
d="M271 381l1 -3l172 35v-110l-173 31l-1 -4l118 -133l-97 -56l-61 168l-2 -1l-63 -167l-93 56l116 136v2l-170 -32v110l167 -34l1 2l-114 137l96 55l61 -166h2l62 166l95 -54z" />
    <glyph glyph-name="plus" unicode="+" horiz-adv-x="610" 
d="M368 280h226v-101h-226v-238h-106v238h-226v101h226v236h106v-236z" />
    <glyph glyph-name="comma" unicode="," horiz-adv-x="153" 
d="M139 53l6 -78l-99 -72l-59 28l60 56q-16 15 -40 26l45 103q46 -20 87 -63z" />
    <glyph glyph-name="hyphenminus" unicode="-" horiz-adv-x="320" 
d="M303 190h-284v109h284v-109z" />
    <glyph glyph-name="period" unicode="." horiz-adv-x="177" 
d="M94 107q23 0 39 -16t16 -39q0 -22 -16 -38t-39 -16q-22 0 -38 16t-16 38q0 23 16 39t38 16z" />
    <glyph glyph-name="slash" unicode="/" horiz-adv-x="404" 
d="M20 0l250 514h115l-250 -514h-115z" />
    <glyph glyph-name="zero" unicode="0" horiz-adv-x="386" 
d="M359 243q0 -128 -39 -188.5t-124 -60.5q-81 0 -122 62.5t-41 186.5q0 130 39 190t124 60q81 0 122 -63t41 -187zM111 243q0 -99 20.5 -141.5t64.5 -42.5q45 0 65 42.5t20 141.5q0 97 -20 140.5t-65 43.5q-44 0 -64.5 -42.5t-20.5 -141.5z" />
    <glyph glyph-name="one" unicode="1" horiz-adv-x="272" 
d="M230 1h-77v312q0 28 0.5 50t1.5 39l-18 -18l-74 -60l-39 49l141 112h65v-484z" />
    <glyph glyph-name="two" unicode="2" horiz-adv-x="370" 
d="M349 1h-325v59l124 125q34 37 55 60.5t32.5 41t15.5 32.5t4 36q0 33 -19.5 51.5t-54.5 18.5q-27 0 -53 -10t-60 -37l-42 51q40 34 78 48.5t81 14.5q67 0 107.5 -35t40.5 -95q0 -26 -6 -48.5t-20.5 -46t-39.5 -50.5t-62 -63l-84 -81v-4h228v-68z" />
    <glyph glyph-name="three" unicode="3" horiz-adv-x="368" 
d="M332 374q0 -46 -26.5 -77t-75.5 -41v-3q58 -7 87 -36t29 -77q0 -70 -48.5 -108t-139.5 -38q-77 0 -135 26v69q63 -31 131 -31q55 0 83 20t28 65q0 39 -30.5 57t-96.5 18h-42v64h43q115 0 115 80q0 31 -20 48t-59 17q-28 0 -53 -8t-60 -30l-38 54q64 49 154 49
q72 0 113 -31.5t41 -86.5z" />
    <glyph glyph-name="four" unicode="4" horiz-adv-x="404" 
d="M378 106h-64v-105h-76v105h-219v60l219 320h76v-315h64v-65zM238 171v121q0 32 1 59t3 48h-3q-8 -22 -29 -53l-119 -175h147z" />
    <glyph glyph-name="five" unicode="5" horiz-adv-x="368" 
d="M180 303q73 0 115.5 -38.5t42.5 -105.5q0 -78 -48.5 -121.5t-136.5 -43.5q-80 0 -127 26v71q27 -15 61.5 -23.5t63.5 -8.5q107 0 107 92q0 87 -110 87q-15 0 -37.5 -3t-39.5 -7l-35 20l19 237h249v-69h-181l-11 -120q11 2 27.5 4.5t40.5 2.5z" />
    <glyph glyph-name="six" unicode="6" horiz-adv-x="375" 
d="M25 207q0 284 229 284q19 0 34 -1.5t27 -3.5v-65q-21 7 -57 7q-78 0 -116.5 -41t-41.5 -135h4q15 27 43 42t66 15q66 0 102 -40.5t36 -109.5q0 -78 -42 -121.5t-115 -43.5q-78 0 -123.5 55t-45.5 158zM192 58q40 0 61.5 26t21.5 74q0 42 -19.5 65.5t-61.5 23.5
q-19 0 -35.5 -6.5t-29 -17t-19.5 -25t-7 -29.5q0 -48 25 -79.5t64 -31.5z" />
    <glyph glyph-name="seven" unicode="7" horiz-adv-x="381" 
d="M87 1l190 415h-250v68h332v-54l-189 -429h-83z" />
    <glyph glyph-name="eight" unicode="8" horiz-adv-x="376" 
d="M186 491q69 0 108.5 -31t39.5 -85q0 -75 -89 -119q57 -28 80.5 -59.5t23.5 -70.5q0 -60 -43.5 -96t-118.5 -36q-78 0 -121 33.5t-43 96.5q0 40 22.5 72.5t73.5 57.5q-45 26 -63 55.5t-18 66.5q0 54 41 84.5t107 30.5zM97 126q0 -34 23.5 -53t65.5 -19t65.5 19.5
t23.5 53.5q0 52 -87 90l-10 4q-43 -19 -62 -42t-19 -53zM185 431q-33 0 -53 -16.5t-20 -44.5q2 -14 5 -24t10.5 -19t21.5 -18t38 -21q40 18 56 37t16 45q0 28 -20 44.5t-54 16.5z" />
    <glyph glyph-name="nine" unicode="9" horiz-adv-x="369" 
d="M348 278q0 -284 -229 -284q-38 0 -63 5v66q30 -9 59 -9q78 0 116.5 42.5t42.5 133.5h-4q-19 -30 -46.5 -43t-64.5 -13q-64 0 -100.5 40t-36.5 110q0 75 42.5 120t115.5 45q78 0 123 -55t45 -158zM181 427q-40 0 -61.5 -26.5t-21.5 -74.5q0 -42 20 -65.5t60 -23.5
q19 0 36 6.5t30 17.5t20 25.5t7 29.5q0 22 -7 42.5t-19 35.5t-28.5 24t-35.5 9z" />
    <glyph glyph-name="colon" unicode=":" horiz-adv-x="164" 
d="M31 450l109 -21v-118l-118 14l1 38q2 47 3.5 65.5t4.5 21.5zM31 220l109 -21v-118l-118 14l1 38q2 47 3.5 65.5t4.5 21.5z" />
    <glyph glyph-name="semicolon" unicode=";" horiz-adv-x="165" 
d="M144 193l6 -78l-99 -72l-59 28l60 56q-16 15 -40 26l45 103q46 -20 87 -63zM31 450l109 -21v-118l-118 14l1 38q2 47 3.5 65.5t4.5 21.5z" />
    <glyph glyph-name="less" unicode="&#x3c;" horiz-adv-x="502" 
d="M463 418l-272 -160l271 -144l-35 -64l-385 205l384 226z" />
    <glyph glyph-name="equal" unicode="=" horiz-adv-x="364" 
d="M319 277h-270v73h270v-73zM319 155h-270v73h270v-73z" />
    <glyph glyph-name="greater" unicode="&#x3e;" horiz-adv-x="515" 
d="M52 418l37 63l384 -226l-386 -205l-34 64l271 144z" />
    <glyph glyph-name="question" unicode="?" horiz-adv-x="547" 
d="M216 99l-120 24v181h115q22 5 51 21t55 49q19 28 26 52.5t7 31.5l-134 27v-116h-120v194l377 -45q0 -80 -24.5 -141t-62.5 -102.5t-83 -64t-87 -26.5v-85zM216 -29l-120 24v106l120 -24v-106z" />
    <glyph glyph-name="at" unicode="@" horiz-adv-x="605" 
d="M565 245q0 -36 -8.5 -67t-24 -53.5t-37.5 -35.5t-48 -13t-45 14t-26 38h-4q-31 -52 -93 -52q-54 0 -84.5 34.5t-30.5 94.5q0 69 40.5 111t109.5 42q25 0 55.5 -4.5t54.5 -12.5l-8 -162q0 -53 35 -53q26 0 41 34t15 86q0 43 -13.5 78t-38 59.5t-58.5 38t-76 13.5
q-53 0 -95 -17t-71.5 -48t-45 -75t-15.5 -98q0 -97 50 -148.5t147 -51.5q71 0 151 30v-54q-72 -29 -150 -29q-126 0 -192 67t-66 188q0 65 22 118.5t60 91.5t90.5 58.5t114.5 20.5q54 0 98.5 -17.5t77 -49t50.5 -76.5t18 -100zM227 203q0 -77 60 -77q66 0 70 97l4 79
q-21 6 -45 6q-42 0 -65.5 -28t-23.5 -77z" />
    <glyph glyph-name="A" unicode="A" horiz-adv-x="487" 
d="M381 1l-48 134h-183l-47 -134h-83l180 486h85l180 -486h-84zM313 203l-59 173q-5 14 -7.5 25t-4.5 18q-5 -20 -11.5 -42.5t-14.5 -46.5l-43 -127h140z" />
    <glyph glyph-name="B" unicode="B" horiz-adv-x="403" 
d="M28 485h142q100 0 144 -29t44 -92q0 -43 -21 -71t-63 -35v-4q98 -18 98 -114q0 -66 -45 -102.5t-126 -36.5h-173v484zM106 285h76q49 0 71.5 15.5t22.5 53.5q0 34 -24 49.5t-78 15.5h-68v-134zM106 221v-154h84q49 0 74 18.5t25 60.5q0 75 -103 75h-80z" />
    <glyph glyph-name="C" unicode="C" horiz-adv-x="426" 
d="M263 424q-69 0 -107 -48.5t-38 -133.5q0 -180 145 -180q30 0 58.5 6t59.5 15v-67q-53 -22 -128 -22q-106 0 -162 64t-56 185q0 57 16 103t45.5 78.5t71.5 50t95 17.5q75 0 136 -31l-28 -66q-24 11 -51 20t-57 9z" />
    <glyph glyph-name="D" unicode="D" horiz-adv-x="472" 
d="M429 247q0 -121 -65 -183.5t-191 -62.5h-134v484h148q115 0 178.5 -61.5t63.5 -176.5zM346 245q0 174 -161 174h-68v-352h56q173 0 173 178z" />
    <glyph glyph-name="E" unicode="E" horiz-adv-x="323" 
d="M300 1h-271v484h271v-67h-193v-132h181v-66h-181v-152h193v-67z" />
    <glyph glyph-name="F" unicode="F" horiz-adv-x="317" 
d="M103 1h-78v484h271v-67h-193v-151h180v-68h-180v-198z" />
    <glyph glyph-name="G" unicode="G" horiz-adv-x="446" 
d="M242 263h177v-243q-45 -14 -83.5 -20t-86.5 -6q-109 0 -168 64t-59 185q0 118 66 183.5t184 65.5q73 0 143 -29l-28 -66q-59 27 -117 27q-76 0 -121 -48.5t-45 -133.5q0 -91 40.5 -136t115.5 -45q19 0 39.5 2.5t42.5 7.5v124h-100v68z" />
    <glyph glyph-name="H" unicode="H" horiz-adv-x="460" 
d="M403 1h-79v218h-221v-218h-79v484h79v-198h221v198h79v-484z" />
    <glyph glyph-name="I" unicode="I" horiz-adv-x="247" 
d="M220 1h-194v45l58 19v355l-58 20v45h194v-45l-57 -20v-355l57 -19v-45z" />
    <glyph glyph-name="J" unicode="J" horiz-adv-x="172" 
d="M-5 -134q-28 0 -54 8v66q25 -7 48 -7q64 0 64 83v469h79v-467q0 -75 -35 -113.5t-102 -38.5z" />
    <glyph glyph-name="K" unicode="K" horiz-adv-x="414" 
d="M386 1h-91l-151 219l-46 -38v-181h-79v484h79v-231q16 20 32 38.5t32 37.5l129 155h90q-63 -75 -108 -127.5t-73 -84.5z" />
    <glyph glyph-name="L" unicode="L" horiz-adv-x="332" 
d="M24 1v484h78v-416h204v-68h-282z" />
    <glyph glyph-name="M" unicode="M" horiz-adv-x="548" 
d="M232 1l-139 404h-3q6 -90 6 -169v-235h-72v484h111l135 -385l138 385h111v-484h-76v239q0 15 1 41t1.5 52.5t1.5 47t1 23.5h-2l-145 -403h-69z" />
    <glyph glyph-name="N" unicode="N" horiz-adv-x="456" 
d="M425 1h-97l-236 386h-2l1 -22q1 -27 3.5 -51.5t1.5 -47.5v-14v-251h-72v484h96l235 -384h2q0 1 -0.5 17.5t-1.5 38t-1.5 42.5t-0.5 32v254h72v-484z" />
    <glyph glyph-name="O" unicode="O" horiz-adv-x="495" 
d="M469 243q0 -118 -58 -183.5t-167 -65.5t-167 64.5t-58 185.5t58.5 185t167.5 64t166.5 -64.5t57.5 -185.5zM103 243q0 -181 141 -181q142 0 142 181q0 182 -141 182q-142 0 -142 -182z" />
    <glyph glyph-name="P" unicode="P" horiz-adv-x="361" 
d="M335 339q0 -76 -49.5 -116.5t-140.5 -40.5h-50v-181h-78v484h138q180 0 180 -146zM95 248h42q61 0 89 21.5t28 66.5q0 42 -25 62.5t-79 20.5h-55v-171z" />
    <glyph glyph-name="Q" unicode="Q" horiz-adv-x="507" 
d="M479 243q0 -88 -33.5 -148t-96.5 -85l115 -125h-106l-91 109h-13q-109 0 -167 64.5t-58 185.5t58.5 185t167.5 64t166.5 -64.5t57.5 -185.5zM113 243q0 -181 141 -181q142 0 142 181q0 182 -141 182q-142 0 -142 -182z" />
    <glyph glyph-name="R" unicode="R" horiz-adv-x="408" 
d="M99 260h55q54 0 79 20.5t25 60.5q0 42 -26.5 59.5t-80.5 17.5h-52v-158zM99 194v-193h-78v484h135q94 0 138.5 -34.5t44.5 -106.5q0 -92 -94 -129l136 -214h-89l-115 193h-78z" />
    <glyph glyph-name="S" unicode="S" horiz-adv-x="344" 
d="M325 132q0 -64 -46 -101t-128 -37q-78 0 -133 26v74q33 -15 70 -24t68 -9q48 0 69.5 18t21.5 48q0 13 -4 24t-15.5 21.5t-31.5 21.5t-53 24q-66 26 -93 60.5t-27 83.5q0 60 43 95t115 35t137 -31l-25 -64q-65 27 -114 27q-38 0 -58 -16.5t-20 -44.5q0 -12 1.5 -21.5
t11 -19.5t29.5 -21.5t57 -26.5q39 -16 62.5 -31t37 -31t18.5 -35.5t7 -44.5z" />
    <glyph glyph-name="T" unicode="T" horiz-adv-x="400" 
d="M234 1h-78v416h-142v68h361v-68h-141v-416z" />
    <glyph glyph-name="U" unicode="U" horiz-adv-x="437" 
d="M408 485v-313q0 -82 -50.5 -130t-141.5 -48t-139.5 47t-48.5 132v312h79v-306q0 -60 27.5 -88.5t84.5 -28.5q111 0 111 117v306h78z" />
    <glyph glyph-name="V" unicode="V" horiz-adv-x="459" 
d="M357 485h81l-168 -484h-82l-168 484h81l100 -301l7 -25q6 -23 13 -46.5t8 -34.5q1 12 4.5 27.5t8 30.5t8.5 28t7 21z" />
    <glyph glyph-name="W" unicode="W" horiz-adv-x="662" 
d="M518 1h-85l-82 288q-2 7 -6 22.5t-7.5 32t-6 30.5t-2.5 19l-23 -105l-80 -287h-85l-125 484h80l69 -282q8 -34 13.5 -64t9.5 -56q2 29 10 63t14 56l78 283h78l80 -284q5 -20 10 -49.5t14 -68.5q4 46 24 120l68 282h79z" />
    <glyph glyph-name="X" unicode="X" horiz-adv-x="439" 
d="M428 1h-91l-120 198l-121 -198h-84l159 251l-149 233h87l111 -183l111 183h85l-150 -235z" />
    <glyph glyph-name="Y" unicode="Y" horiz-adv-x="417" 
d="M248 237v-236h-78v238l-158 246h87l111 -183l111 183h85z" />
    <glyph glyph-name="Z" unicode="Z" horiz-adv-x="394" 
d="M376 1h-344v55l243 361h-236v68h330v-56l-243 -360h250v-68z" />
    <glyph glyph-name="bracketleft" unicode="[" horiz-adv-x="174" 
d="M37 583l44 58h140v-67h-81v-602h81v-67h-139l-45 59v619z" />
    <glyph glyph-name="backslash" unicode="\" horiz-adv-x="397" 
d="M20 514h115l250 -514h-115z" />
    <glyph glyph-name="bracketright" unicode="]" horiz-adv-x="160" 
d="M131 583v-619l-45 -59h-139v67h81v602h-81v67h139z" />
    <glyph glyph-name="underscore" unicode="_" horiz-adv-x="321" 
d="M260 59q16 0 16 -15v-25q0 -15 -16 -15h-205q-16 0 -16 15v25q0 15 16 15h205z" />
    <glyph glyph-name="grave" unicode="`" horiz-adv-x="148" 
d="M12 577q40 42 87 63l45 -103q-21 -10 -40 -27l61 -56l-60 -27l-99 72z" />
    <glyph glyph-name="a" unicode="a" horiz-adv-x="341" 
d="M262 1l-15 51h-3q-26 -34 -52.5 -46t-68.5 -12q-54 0 -83.5 29t-29.5 83q0 111 168 117l63 2v19q0 35 -16 52.5t-51 17.5q-28 0 -53.5 -8.5t-48.5 -19.5l-25 56q29 15 64 23.5t67 8.5q69 0 104.5 -30.5t35.5 -96.5v-246h-56zM147 54q43 0 68 23.5t25 66.5v32l-46 -2
q-55 -2 -79.5 -18.5t-24.5 -50.5q0 -24 14.5 -37.5t42.5 -13.5z" />
    <glyph glyph-name="b" unicode="b" horiz-adv-x="378" 
d="M213 374q69 0 106 -49t37 -140t-38 -141t-107 -50t-107 50h-5l-14 -43h-58v515h77v-123q0 -5 -0.5 -16.5t-1 -23.5t-1 -22t-0.5 -12h3q37 55 109 55zM193 310q-48 0 -68 -27t-21 -93v-5q0 -67 21 -97t69 -30q83 0 83 127q0 125 -84 125z" />
    <glyph glyph-name="c" unicode="c" horiz-adv-x="325" 
d="M195 -6q-85 0 -126.5 48.5t-41.5 139.5q0 94 44.5 143t129.5 49q60 0 104 -22l-24 -63q-52 20 -81 20q-94 0 -94 -126q0 -124 92 -124q51 0 98 26v-68q-21 -12 -44.5 -17.5t-56.5 -5.5z" />
    <glyph glyph-name="d" unicode="d" horiz-adv-x="387" 
d="M169 -6q-69 0 -106.5 49t-37.5 140t38 141t107 50q71 0 109 -54h4q-2 20 -3.5 36t-1.5 27v133h77v-515h-60l-14 48h-3q-37 -55 -109 -55zM190 57q48 0 69.5 27t21.5 88v11q0 69 -22 98t-70 29q-42 0 -63.5 -33.5t-21.5 -94.5t21.5 -93t64.5 -32z" />
    <glyph glyph-name="e" unicode="e" horiz-adv-x="361" 
d="M200 -6q-85 0 -132.5 49.5t-47.5 137.5q0 91 44 142t122 51q72 0 113.5 -44t41.5 -122v-42h-242q5 -110 105 -110q32 0 59.5 6t59.5 20v-63q-28 -14 -57 -19.5t-66 -5.5zM186 315q-37 0 -59 -23.5t-26 -68.5h165q-1 45 -22 68.5t-58 23.5z" />
    <glyph glyph-name="f" unicode="f" horiz-adv-x="246" 
d="M233 308h-89v-307h-77v307h-60v36l60 24v24q0 128 122 128q37 0 81 -14l-21 -59q-29 9 -54 9q-27 0 -39 -16t-12 -49v-24h89v-59z" />
    <glyph glyph-name="g" unicode="g" horiz-adv-x="388" 
d="M367 367v-43l-62 -11q8 -12 14 -29t6 -36q0 -57 -38.5 -89t-107.5 -32q-18 0 -31 3q-25 -16 -25 -37q0 -12 11.5 -18.5t42.5 -6.5h64q60 0 91 -26t31 -74q0 -63 -50.5 -96.5t-147.5 -33.5q-75 0 -113.5 26.5t-38.5 75.5q0 34 21 57t59 32q-15 6 -25 21t-10 31
q0 20 11.5 34.5t33.5 28.5q-28 12 -45.5 39.5t-17.5 64.5q0 60 37 93t106 33q16 0 33 -2.5t25 -4.5h126zM82 -56q0 -25 22.5 -39t62.5 -14q63 0 94 18.5t31 48.5q0 24 -17 34t-63 10h-58q-33 0 -52.5 -15.5t-19.5 -42.5zM115 248q0 -34 17.5 -52.5t50.5 -18.5q67 0 67 72
q0 36 -16.5 55.5t-50.5 19.5q-68 0 -68 -76z" />
    <glyph glyph-name="h" unicode="h" horiz-adv-x="379" 
d="M351 1h-78v225q0 42 -16.5 63t-53.5 21q-49 0 -71.5 -29t-22.5 -98v-182h-78v515h78v-131q0 -16 -1 -32.5t-3 -34.5h5q15 26 43.5 41t65.5 15q132 0 132 -135v-238z" />
    <glyph glyph-name="i" unicode="i" horiz-adv-x="137" 
d="M107 1h-77v366h77v-366zM25 464q0 43 44 43q43 0 43 -43t-43 -43q-44 0 -44 43z" />
    <glyph glyph-name="j" unicode="j" horiz-adv-x="141" 
d="M-9 -162q-32 0 -58 8v62q22 -6 45 -6q50 0 50 56v409h77v-414q0 -57 -29.5 -86t-84.5 -29zM23 464q0 43 44 43q43 0 43 -43t-43 -43q-44 0 -44 43z" />
    <glyph glyph-name="k" unicode="k" horiz-adv-x="379" 
d="M148 249l109 118h89l-146 -157l156 -209h-91l-117 160l-42 -35v-125h-77v515h77v-320z" />
    <glyph glyph-name="l" unicode="l" horiz-adv-x="140" 
d="M109 1h-77v515h77v-515z" />
    <glyph glyph-name="m" unicode="m" horiz-adv-x="595" 
d="M338 1h-78v226q0 83 -65 83q-45 0 -65.5 -29t-20.5 -98v-182h-78v366h61l11 -48h4q15 26 43.5 40.5t63.5 14.5q83 0 111 -58h5q16 27 45.5 42.5t66.5 15.5q66 0 95.5 -33t29.5 -102v-238h-77v226q0 83 -66 83q-45 0 -65.5 -28.5t-20.5 -86.5v-194z" />
    <glyph glyph-name="n" unicode="n" horiz-adv-x="376" 
d="M351 1h-78v225q0 42 -16.5 63t-53.5 21q-49 0 -71.5 -29t-22.5 -98v-182h-78v366h61l11 -48h4q16 26 46 40.5t67 14.5q131 0 131 -135v-238z" />
    <glyph glyph-name="o" unicode="o" horiz-adv-x="400" 
d="M373 185q0 -91 -45.5 -141t-126.5 -50q-78 0 -124.5 51.5t-46.5 139.5q0 91 44 140t129 49q79 0 124.5 -50.5t45.5 -138.5zM109 185q0 -127 93 -127q92 0 92 127q0 125 -93 125q-48 0 -70 -32.5t-22 -92.5z" />
    <glyph glyph-name="p" unicode="p" horiz-adv-x="385" 
d="M211 -6q-69 0 -107 50h-4q2 -23 3 -37t1 -19v-150h-77v529h62q2 -5 4.5 -17t6.5 -32h4q36 56 109 56q69 0 106 -49t37 -140t-38 -141t-107 -50zM193 310q-46 0 -67.5 -27t-21.5 -87v-11q0 -67 21 -97t69 -30q40 0 61.5 33t21.5 94q0 125 -84 125z" />
    <glyph glyph-name="q" unicode="q" horiz-adv-x="402" 
d="M200 56q49 0 70 28.5t21 85.5v13q0 67 -21.5 97t-70.5 30q-85 0 -85 -128q0 -126 86 -126zM178 -6q-67 0 -105 49t-38 140t38 141t107 50q35 0 62 -13t48 -42h3l8 48h64v-529h-77v155q0 15 1 31t2 25h-4q-34 -55 -109 -55z" />
    <glyph glyph-name="r" unicode="r" horiz-adv-x="276" 
d="M216 374q26 0 38 -4l-7 -72q-13 4 -34 4q-48 0 -76 -30.5t-28 -79.5v-191h-77v366h60l10 -65h4q18 33 47 52.5t63 19.5z" />
    <glyph glyph-name="s" unicode="s" horiz-adv-x="318" 
d="M294 105q0 -54 -39 -82.5t-111 -28.5q-74 0 -117 22v67q67 -29 120 -29q71 0 71 43q0 18 -18 32.5t-66 32.5q-32 12 -52.5 24t-32.5 25t-17 28.5t-5 35.5q0 48 37 73.5t103 25.5q64 0 121 -27l-25 -58q-59 24 -99 24q-61 0 -61 -35q0 -9 3.5 -16t12.5 -13.5t25.5 -14.5
t43.5 -18q33 -13 53 -24t31 -23.5t15.5 -27.5t6.5 -36z" />
    <glyph glyph-name="t" unicode="t" horiz-adv-x="267" 
d="M198 57q27 0 56 9v-59q-12 -5 -32.5 -9t-41.5 -4q-110 0 -110 117v197h-50v34l53 29l27 77h47v-81h104v-59h-104v-196q0 -28 14 -41.5t37 -13.5z" />
    <glyph glyph-name="u" unicode="u" horiz-adv-x="370" 
d="M288 1l-11 48h-4q-16 -26 -46 -40.5t-68 -14.5q-131 0 -131 134v239h78v-226q0 -84 71 -84q48 0 71 29.5t23 98.5v182h77v-366h-60z" />
    <glyph glyph-name="v" unicode="v" horiz-adv-x="383" 
d="M148 1l-138 366h81l74 -213q9 -27 15 -48.5t8 -38.5h3q2 12 7.5 33.5t15.5 53.5l74 213h82l-139 -366h-83z" />
    <glyph glyph-name="w" unicode="w" horiz-adv-x="563" 
d="M366 1l-47 171q-4 14 -12 44.5t-19 81.5h-3q-19 -86 -30 -127l-48 -170h-85l-102 366h79l46 -181q8 -33 13.5 -61.5t8.5 -52.5h2q1 6 1.5 12.5t2.5 13.5l6 29q6 31 12 47l55 193h85l53 -193q2 -6 5.5 -20t6.5 -29t5.5 -29.5t3.5 -22.5h3q2 20 7.5 48t15.5 65l47 181h77
l-102 -366h-87z" />
    <glyph glyph-name="x" unicode="x" horiz-adv-x="381" 
d="M140 188l-122 179h89l82 -128l84 128h87l-122 -179l128 -187h-87l-90 137l-89 -137h-87z" />
    <glyph glyph-name="y" unicode="y" horiz-adv-x="398" 
d="M20 367h84l74 -208q8 -22 14 -42.5t8 -40.5h3l3 15t3 12.5t6.5 22t14.5 43.5t26 76.5t41 121.5h84l-156 -415q-44 -114 -141 -114q-13 0 -25.5 1.5t-24.5 3.5v62q15 -4 42 -4q29 0 46 16.5t30 48.5l14 35z" />
    <glyph glyph-name="z" unicode="z" horiz-adv-x="339" 
d="M309 1h-275v48l183 258h-172v60h259v-54l-180 -253h185v-59z" />
    <glyph glyph-name="braceleft" unicode="{" horiz-adv-x="221" 
d="M35 261v7q11 8 23 25.5t12 43.5q0 14 -7 31t-15 34t-15 33.5t-7 29.5q0 24 9 42t22.5 31.5t30.5 21.5t32 11l66 6v-92l-6 -1q-6 -1 -14.5 -3.5t-16.5 -7.5t-13.5 -12.5t-5.5 -18.5q0 -8 4.5 -18.5t10 -23t10 -25.5t4.5 -24q0 -26 -11.5 -48t-16.5 -38l5 -10
q8 -14 15.5 -35.5t7.5 -41.5q0 -11 -4.5 -24t-10 -25.5t-10 -23.5t-4.5 -18q0 -11 5.5 -19t13.5 -12.5t16.5 -7t14.5 -3.5l6 -1v-92l-66 6q-16 3 -32.5 11t-30 21.5t-22.5 31.5t-9 41q0 13 7 29.5t15 34t15 34.5t7 31q0 25 -12 43t-23 26z" />
    <glyph glyph-name="bar" unicode="|" horiz-adv-x="152" 
d="M107 -14q0 -16 -15 -16h-25q-15 0 -15 16v520q0 16 15 16h25q15 0 15 -16v-520z" />
    <glyph glyph-name="braceright" unicode="}" horiz-adv-x="210" 
d="M177 261q-11 -8 -23 -25.5t-12 -42.5q0 -14 6.5 -31t15 -34.5t15 -34.5t6.5 -30q0 -22 -8.5 -40t-22 -31.5t-29.5 -22t-32 -11.5l-67 -6v92l6 1q6 1 14.5 3.5t16 7.5t13 12.5t5.5 18.5q0 8 -4.5 19t-9.5 24t-9.5 25.5t-4.5 23.5q0 20 8 41.5t16 34.5l4 10l-4 9
q-8 13 -16 34t-8 41q0 11 4.5 24t9.5 26t9.5 24t4.5 19q0 11 -5.5 18.5t-13 12.5t-16 7.5t-14.5 3.5l-6 1v92l67 -6q15 -3 31.5 -11.5t30 -22t22 -31.5t8.5 -41q0 -13 -6.5 -29.5t-15 -34t-15 -34.5t-6.5 -31q0 -25 12 -42.5t23 -25.5v-7z" />
    <glyph glyph-name="periodcentered" unicode="&#xb7;" horiz-adv-x="161" 
d="M55 300q0 17 19 17h27q18 0 18 -17v-52q0 -18 -18 -18h-27q-19 0 -19 18v52z" />
    <glyph glyph-name="multiply" unicode="&#xd7;" horiz-adv-x="300" 
d="M114 249l-70 68q-6 4 -6 11q0 6 5 11l17 18q5 5 10 5q6 0 12 -6l70 -68l68 69q4 6 11 6q4 0 11 -5l18 -17q5 -5 5 -10q0 -6 -6 -12l-67 -69l69 -68q6 -6 6 -12q0 -5 -5 -10l-17 -18q-5 -5 -11 -5q-7 0 -11 5l-70 68l-68 -70q-6 -6 -12 -6t-10 5l-18 17q-5 4 -5 11
q0 6 5 11z" />
    <glyph glyph-name="divide" unicode="&#xf7;" horiz-adv-x="262" 
d="M104 388q0 17 19 17h27q18 0 18 -17v-52q0 -18 -18 -18h-27q-19 0 -19 18v52zM238 273q16 0 16 -15v-25q0 -15 -16 -15h-205q-16 0 -16 15v25q0 15 16 15h205zM104 154q0 17 19 17h27q18 0 18 -17v-52q0 -18 -18 -18h-27q-19 0 -19 18v52z" />
    <glyph glyph-name="quoteleft" unicode="&#x2018;" horiz-adv-x="153" 
d="M12 489l-6 79l99 72l60 -28l-61 -56q19 -17 40 -27l-45 -102q-46 19 -87 62z" />
    <glyph glyph-name="quoteright" unicode="&#x2019;" horiz-adv-x="190" 
d="M158 577l7 -78l-100 -72l-59 27l60 56q-19 17 -40 27l46 103q45 -20 86 -63z" />
    <glyph glyph-name="quotesinglbase" unicode="&#x201a;" horiz-adv-x="163" 
d="M139 53l6 -78l-99 -72l-59 28l60 56q-16 15 -40 26l45 103q46 -20 87 -63z" />
    <glyph glyph-name="quotedblleft" unicode="&#x201c;" horiz-adv-x="311" 
d="M162 489l-6 79l99 72l60 -28l-61 -56q19 -17 40 -27l-45 -102q-46 19 -87 62zM12 489l-6 79l99 72l60 -28l-61 -56q19 -17 40 -27l-45 -102q-46 19 -87 62z" />
    <glyph glyph-name="quotedblright" unicode="&#x201d;" horiz-adv-x="338" 
d="M158 577l7 -78l-100 -72l-59 27l60 56q-19 17 -40 27l46 103q45 -20 86 -63zM308 577l7 -78l-100 -72l-59 27l60 56q-19 17 -40 27l46 103q45 -20 86 -63z" />
    <glyph glyph-name="signcandrabinducomb-beng" unicode="&#x981;" 
d="M-174 735q2 -14 9 -26t17.5 -20.5t22.5 -13.5t24 -5q23 0 39 17t16 38q0 2 -0.5 5t-0.5 5h87q0 -27 -12 -51.5t-32 -43t-48 -29t-59 -10.5t-58.5 11t-48 29t-32.5 42.5t-12 51.5h88zM-78 743q0 -14 -9.5 -23.5t-23.5 -9.5q-13 0 -23 9.5t-10 23.5t10 23.5t23 9.5
q14 0 23.5 -9.5t9.5 -23.5z" />
    <glyph glyph-name="signanusvara-beng" unicode="&#x982;" horiz-adv-x="408" 
d="M60 408q0 30 13 56.5t35 46t51.5 30.5t62.5 11t62.5 -11.5t51.5 -31t35 -46t13 -55.5t-13 -55.5t-35 -46t-51.5 -31t-62.5 -11.5t-62.5 11t-51.5 30.5t-35 46t-13 56.5zM172 462q-19 -18 -19 -45q0 -15 6.5 -29t17 -25t25 -17.5t29.5 -6.5q25 0 42 17t17 43q0 15 -6.5 29
t-17 25.5t-24.5 18t-28 6.5q-23 0 -42 -16zM404 96v-97l-364 120l42 150z" />
    <glyph glyph-name="signvisarga-beng" unicode="&#x983;" horiz-adv-x="399" 
d="M203 555q31 0 58.5 -10.5t48 -29t32.5 -43t12 -52.5q0 -27 -12 -51.5t-32 -43t-48 -29t-59 -10.5t-58.5 10.5t-48 28.5t-32.5 42.5t-12 52.5t12.5 53t33.5 43t48 28.5t57 10.5zM250 370q18 18 18 42q0 14 -6.5 27t-16.5 23.5t-23.5 16.5t-26.5 6q-25 0 -40.5 -17
t-15.5 -40q0 -15 6.5 -28t16.5 -23t23 -16t27 -6q21 0 38 15zM203 269q31 0 58.5 -10.5t48 -28.5t32.5 -42.5t12 -52.5t-12 -52.5t-32.5 -42.5t-48 -28.5t-58.5 -10.5q-30 0 -57.5 10t-48 28t-33 42.5t-12.5 53.5q0 28 12.5 52.5t33 42.5t48 28.5t57.5 10.5zM250 85
q18 18 18 42q0 13 -6.5 26.5t-16.5 23.5t-23.5 16.5t-26.5 6.5q-23 0 -39.5 -17t-16.5 -40q0 -15 6.5 -28t16.5 -23t23 -16t27 -6q21 0 38 15z" />
    <glyph glyph-name="a-beng" unicode="&#x985;" horiz-adv-x="830" 
d="M832 492h-29v-492l-143 22v98l-60 40l-9 -20q-19 -33 -46.5 -55.5t-60.5 -36t-70.5 -19t-76.5 -5.5q-78 0 -132.5 25t-88.5 72t-49.5 114.5t-15.5 152.5l139 -29q0 -31 1 -40t1 -14l2 -10q4 -46 18 -76t34 -47.5t43 -24.5t46 -7q32 1 59.5 4.5t49.5 14t36.5 29.5t21.5 50
q1 2 1 5.5v6.5q0 28 -11 46.5t-25.5 29t-28 14.5t-17.5 4h-9l-36 -43l-6 -7l48 -8l-17 -53h-153l107 221l19 1h22q31 0 68 -4t62 -17q43 -27 68 -73t25 -108v-12l41 -27v278h-663v65h835v-65z" />
    <glyph glyph-name="aa-beng" unicode="&#x986;" horiz-adv-x="1050" 
d="M411 148q15 3 31 11t29.5 21t22.5 30.5t9 39.5q0 28 -11 46.5t-25.5 29t-28 14.5t-17.5 4h-9l-36 -43l-6 -7l48 -8l-17 -53h-153l107 221l19 1h22q31 0 68 -4t62 -17q43 -27 68 -73t25 -108v-12l41 -27v278h-663v65h1056v-65h-30v-492l-142 22v470h-78v-492l-143 22v98
l-60 40l-9 -20q-19 -33 -46.5 -55.5t-60.5 -36t-70.5 -19t-76.5 -5.5q-78 0 -132.5 25t-88.5 72t-49.5 114.5t-15.5 152.5l139 -29q0 -31 1 -40t1 -14l2 -10q4 -46 18 -76t34 -47.5t43 -24.5t46 -7q26 0 45.5 4.5t30.5 3.5z" />
    <glyph glyph-name="i-beng" unicode="&#x987;" horiz-adv-x="540" 
d="M273 179q18 2 36.5 7t34.5 15t26 25.5t10 38.5q0 28 -14 46.5t-32 28.5t-36 14t-26 4l-12 1l-57 -51l80 -8l-19 -53h-200l156 222h20h23q16 0 35.5 -1t39 -3t37 -6t31.5 -11q49 -24 78 -71t29 -107q0 -36 -11 -70t-34 -63t-60.5 -51t-89.5 -33l214 -85v-61l-475 141
l-8 131l29 -2q21 -2 45 -3t48 -1q55 0 102 6zM448 558h96v-66h-553v65h457q-2 4 -6.5 10t-12 12t-19.5 10t-29 4q-12 0 -28 -3t-33 -6.5t-34 -6.5t-30 -3q-37 0 -65.5 10.5t-49 27t-34 36t-20.5 36.5l110 88q0 -8 4 -19.5t11.5 -22t19 -17.5t27.5 -7q14 0 30 3t32.5 6.5
t32.5 6.5t29 3q53 0 90.5 -18t60.5 -44l-85 -104z" />
    <glyph glyph-name="ii-beng" unicode="&#x988;" horiz-adv-x="684" 
d="M441 351q31 41 52 62t41 36l4 4l119 -60q-13 -11 -28 -36.5t-27.5 -63t-21 -84t-8.5 -99.5q0 -44 7 -90t24 -94l-126 -43q-18 57 -26.5 111.5t-8.5 108.5v19.5t1 19.5q-7 -8 -15.5 -17t-19.5 -20l-22 -22q-44 -37 -82.5 -52t-72.5 -15q-32 0 -59 10.5t-49.5 26t-40 34.5
t-29.5 37l60 68q17 -17 29 -26.5t22.5 -14t21 -5.5t24.5 -1q20 0 39 4.5t35 15.5q3 2 11 9t16.5 19.5t15.5 29.5t7 39q0 36 -15.5 56t-35 29t-36.5 10.5t-21 1.5q0 -1 -8 -9l-34 -34l-7 -8l80 -8l-19 -53h-200l126 222h21h23q40 0 76 -5.5t66 -19t53 -36t38 -57.5zM508 576
q-8 7 -20 12t-31 5q-12 0 -28 -3t-33.5 -6.5t-34.5 -6.5t-30 -3q-37 0 -65.5 10.5t-49 27t-34 36t-20.5 36.5l109 88q1 -8 5 -19.5t11.5 -22t18.5 -17.5t28 -7q14 0 34 6q46 13 89 13q53 0 90.5 -18t61.5 -44l-87 -105q-3 7 -14 18zM685 557v-65h-689v65h689zM522 558l1 -1z
" />
    <glyph glyph-name="u-beng" unicode="&#x989;" horiz-adv-x="626" 
d="M503 558h126v-66h-249v-153l213 84q0 -17 3 -53.5t4 -89.5q-2 -63 -26.5 -111.5t-63.5 -81.5t-89.5 -50t-105.5 -17q-64 0 -113.5 24.5t-83 68.5t-51 105t-17.5 135v23v25.5t-1 25.5l143 -38v-15t-1 -13v-30q0 -31 6 -60.5t20 -53t38 -39t60 -17.5q51 0 80.5 20t43.5 45
t17.5 46.5t3.5 23.5l-196 -51v247h-267v65h506q-2 4 -6.5 10.5t-12.5 12.5t-20.5 10t-29.5 4q-12 0 -28.5 -3t-33.5 -6.5t-34.5 -6.5t-30.5 -3q-38 0 -66.5 10.5t-49.5 27t-34.5 36.5t-21.5 38l111 89q1 -8 5.5 -19.5t12 -22t19 -18t28.5 -7.5q14 0 30 3t32.5 6.5t32.5 6.5
t30 3q54 0 92.5 -18.5t61.5 -44.5l-86 -106z" />
    <glyph glyph-name="uu-beng" unicode="&#x98a;" horiz-adv-x="633" 
d="M635 492h-248v-153l213 84q0 -17 2.5 -53.5t3.5 -89.5q-2 -57 -24.5 -104.5t-59.5 -82t-86.5 -54t-104.5 -19.5q-58 0 -104.5 20t-80.5 54.5t-55.5 81.5t-28.5 100q-5 40 -8.5 76.5t-4.5 71.5l56 -18q2 -27 4.5 -53t5.5 -46t7 -32.5t10 -12.5q9 0 9 25q0 8 -0.5 20
t-0.5 32v28t1 28l57 -19v-15q0 -39 5.5 -75t20 -64t39.5 -44.5t64 -16.5q76 0 116 63l23 72q-1 0 -19 -4.5t-43.5 -11.5t-54 -14t-49.5 -13l-30 -8v247h-275v65h640v-65zM489 576q-8 7 -20.5 12t-32.5 5q-12 0 -28.5 -3t-33.5 -6.5t-34.5 -6.5t-30.5 -3q-37 0 -65.5 11
t-49.5 27.5t-35 36t-21 37.5l110 89q2 -8 6 -19.5t11 -22t18.5 -18t28.5 -7.5q15 0 35 6q26 8 49 11t43 3q49 0 89.5 -19.5t63.5 -43.5l-89 -107q-3 7 -14 18zM503 558l1 -1z" />
    <glyph glyph-name="vocalicr-beng" unicode="&#x98b;" horiz-adv-x="806" 
d="M807 492h-28v-451l-253 38v-79l-476 56q0 80 15.5 137t54.5 108q39 52 85.5 78.5t91.5 35.5l-21 44q-58 -35 -126 -35q-49 0 -100 18l12 129q47 -22 91 -22q42 0 75 19t57 46l83 -190h16v133h142v-398l111 -33v431h170v-65zM384 85v201h-12q-31 0 -69 -13.5t-67 -50.5
q-27 -35 -32.5 -60t-6.5 -39z" />
    <glyph glyph-name="e-beng" unicode="&#x98f;" horiz-adv-x="644" 
d="M250 26q-50 15 -87 41.5t-61.5 60t-36.5 72t-12 79.5t8 70.5t10 34.5l124 -45l-3 -13q-2 -9 -3 -21t-1 -26q0 -22 5.5 -44.5t19 -42.5t35.5 -35.5t54 -22.5l173 60v244q-26 -5 -45.5 -20.5t-32 -33.5t-19.5 -36t-7 -27v-5l71 -22v-56l-196 24q0 63 12.5 108.5t43.5 87.5
q19 26 41 43.5t45 29t45 17.5t42 9h142v-553l-142 22v108z" />
    <glyph glyph-name="ai-beng" unicode="&#x990;" horiz-adv-x="860" 
d="M247 26q-50 16 -86.5 42.5t-61 60t-36.5 72t-12 78.5q0 42 7.5 71t9.5 34l125 -45l-3 -13q-2 -9 -3 -21t-1 -26q0 -22 5.5 -44.5t19 -42.5t35.5 -35.5t54 -22.5l173 60v244q-26 -5 -45 -20t-32.5 -33.5t-20 -36t-6.5 -27.5v-5l70 -22v-56l-196 24q1 63 13.5 108.5
t43.5 87.5q19 26 41 43.5t45 29t45 17.5t42 9h142v-240l62 -24q26 78 26 142q0 47 -14.5 93t-43.5 75l138 33q22 -34 37 -84.5t15 -110.5q-1 -40 -9 -86t-26 -100l-18 -52l-167 65v-264l-142 22v108z" />
    <glyph glyph-name="o-beng" unicode="&#x993;" horiz-adv-x="631" 
d="M612 280v-27q0 -16 -4 -41.5t-14.5 -53.5t-29 -56.5t-48.5 -51t-73 -37t-101 -14.5q-57 0 -107.5 19t-90.5 52.5t-67 80t-36 102.5q-5 41 -8.5 79t-4.5 73h152q0 -20 1 -49t6 -61t15.5 -64t28.5 -58.5t46 -44.5t69 -21q34 1 57.5 15t38 33.5t21 39.5t6.5 32h-115v53h79
q30 16 38 42t8 59q0 37 -20.5 49t-47.5 12h-6l-31 -43l-5 -8l82 -8l-19 -54h-203l120 225l13 1q5 1 10.5 1h12.5q38 0 69.5 -5t62.5 -24q43 -32 59 -73t16 -79q0 -7 -0.5 -13.5t-1.5 -13.5l-7 -46l-7 -22h36z" />
    <glyph glyph-name="au-beng" unicode="&#x994;" horiz-adv-x="800" 
d="M777 294h-185l-6 -14h36l-1 -27q-1 -16 -5 -41.5t-14 -53.5t-28.5 -56.5t-48 -51t-72 -37t-101.5 -14.5q-57 0 -107.5 19t-90.5 52.5t-67 80t-36 102.5q-5 41 -8.5 79t-4.5 73h152q0 -21 1 -50t6 -61t15 -64t28.5 -58t46.5 -44t68 -21q34 1 58 15t38.5 33.5t21 39.5
t6.5 32h-115v53h79q30 16 38 42t8 59q0 19 -6 31t-15.5 18.5t-22 9t-24.5 2.5h-6l-31 -43l-5 -8l82 -8l-20 -54h-202l120 225l13 1q5 1 10.5 1h12.5q38 0 69.5 -5t62.5 -24q43 -32 59 -73t16 -79q0 -7 -0.5 -13.5t-1.5 -13.5l46 -2q0 175 -94 259l146 38q34 -46 56.5 -117.5
t22.5 -176.5v-55z" />
    <glyph glyph-name="ka-beng" unicode="&#x995;" horiz-adv-x="783" 
d="M383 478v14h-387v65h792v-65h-263v-21q25 -6 57 -18.5t65.5 -34.5t65.5 -54t58 -76l-150 -65q-19 46 -44.5 71t-51.5 35v-329l-475 56q0 102 32.5 178.5t81.5 128.5t107.5 80.5t111.5 34.5zM197 123l186 -38v250q-30 -6 -69.5 -27.5t-73.5 -66.5q-25 -37 -34 -70t-9 -48z
" />
    <glyph glyph-name="kha-beng" unicode="&#x996;" horiz-adv-x="586" 
d="M416 557h173v-65h-30v-492l-506 86l27 20q21 15 46 39.5t47 57.5t37 74t15 89q-44 -12 -79 -12q-31 0 -55.5 6.5t-32.5 11.5l-4 2l-11 174l66 -18l20 -80q13 1 27.5 7.5t29 19.5t26 33.5t18.5 51.5l126 -32l7 -29q6 -25 11.5 -68t5.5 -105q0 -57 -13.5 -104.5
t-51.5 -98.5l101 -29v461z" />
    <glyph glyph-name="ga-beng" unicode="&#x997;" horiz-adv-x="637" 
d="M639 492h-29v-492l-144 23v334q-22 43 -57 68.5t-91 25.5q-42 0 -69 -18t-38 -66h172q6 -42 6 -76q0 -51 -16.5 -92t-44 -71t-64.5 -48t-78 -23l-86 134q5 -1 9 -1h9q21 0 44 4.5t42 17t31 33.5t12 54v10h-195v41q0 23 8 57t34 66t75 55.5t130 24.5q113 -3 167 -54v58
h173v-65z" />
    <glyph glyph-name="gha-beng" unicode="&#x998;" horiz-adv-x="559" 
d="M560 492h-28v-492l-476 56v12q0 160 81 258q-81 52 -81 158v8h-58v65h562v-65zM381 85v407h-209q7 -61 70 -93q34 8 59 8q8 0 15 -0.5t14 -1.5l6 -122l-10 1q-34 0 -59 -18t-41 -43.5t-24 -53t-8 -46.5z" />
    <glyph glyph-name="nga-beng" unicode="&#x999;" horiz-adv-x="584" 
d="M51 336l142 -37v-96q0 -26 10 -48.5t27 -39t39.5 -26t47.5 -9.5h3q39 0 66.5 27t27.5 66v36q-11 -3 -20 -5t-16 -3l-33 -1q-24 -1 -44.5 8.5t-36 25t-24.5 36.5t-9 44v40l-105 50q-75 42 -75 118v61l142 -29v-79q0 -27 25 -40l13 -7v107h85q6 1 12 1h13q31 0 61 -5
t54 -19.5t38.5 -39t14.5 -63.5q0 -15 -3.5 -35t-16.5 -38t-39 -30.5t-71 -12.5q-8 0 -13 1l-1 -11q2 -17 11 -20.5t14 -3.5q14 0 44 9t88 35l35 16v-141q0 -28 -5 -52t-29 -54q-24 -29 -68 -50.5t-98 -21.5h-39q-55 0 -103.5 10.5t-85 37.5t-57.5 73t-21 117v98zM394 425
q-8 10 -28 11v-41q3 -1 6.5 -1h5.5q13 0 14.5 7.5t1.5 15.5v8z" />
    <glyph glyph-name="ca-beng" unicode="&#x99a;" horiz-adv-x="493" 
d="M495 491h-296v-27l284 -52q-9 -85 -34.5 -146t-60.5 -103.5t-76 -68.5t-81.5 -40.5t-77 -19.5t-61.5 -6h-40v463h-55v66h498v-66zM333 355l-134 40v-220l18 8q14 6 32.5 18.5t35.5 33t30 50t18 70.5z" />
    <glyph glyph-name="cha-beng" unicode="&#x99b;" horiz-adv-x="579" 
d="M585 492h-388v-28l198 -23v-8q30 -3 58 -16t50.5 -34.5t36 -50.5t13.5 -65q0 -50 -26 -98t-79 -78q-95 -47 -203 -55l234 -99v-65l-406 143v133h76q71 3 122.5 15t84.5 30t49 42t16 51q0 26 -9 38t-22 17q-19 -48 -56 -77t-80 -45.5t-86 -22t-74 -5.5h-42v301h-52v65h585
v-65zM281 376l-84 22v-87l11 2q5 1 17 6t24 12.5t21.5 18t9.5 22.5z" />
    <glyph glyph-name="ja-beng" unicode="&#x99c;" horiz-adv-x="831" 
d="M608 361q0 -3 1 -5.5t2.5 -10.5t2.5 -24t1 -44q0 -61 -23.5 -109.5t-63 -82t-91 -51.5t-108.5 -18q-74 0 -125.5 30t-84.5 82.5t-48.5 124.5t-17.5 155l151 -34q0 -5 -0.5 -11t-0.5 -11q0 -36 4.5 -69.5t18 -60.5t38 -44t65.5 -19q52 0 81 16t43 35t17.5 35.5t3.5 18.5
l-205 -21l33 248h-302v66h835v-66h-410l-7 -34h366l12 -75q5 -27 6.5 -57.5t1.5 -65.5q0 -78 -12.5 -149.5t-46.5 -143.5l-146 48l21 47q15 34 26 85.5t11 120.5q0 29 -2.5 59.5t-7.5 64.5l-243 -6l-11 -56z" />
    <glyph glyph-name="jha-beng" unicode="&#x99d;" horiz-adv-x="806" 
d="M-3 557h529v-398l111 -33v431h171v-65h-29v-451l-253 38v-79l-475 56q0 104 33.5 181t84 129t108.5 79.5t107 32.5v14h-387v65zM198 122l186 -37v250q-30 -7 -69.5 -28t-73.5 -66q-25 -37 -34 -70t-9 -49z" />
    <glyph glyph-name="nya-beng" unicode="&#x99e;" horiz-adv-x="829" 
d="M615 0l-142 22v111l-225 -108q-51 16 -88 43t-61 61t-35.5 73t-11.5 80q0 40 7 68t10 34l124 -45q0 -1 -3.5 -19t-3.5 -42q0 -21 6 -44t19.5 -43t35 -35t53.5 -22l173 59v244q-28 -5 -48 -22t-32.5 -36.5t-18 -37.5t-5.5 -25l71 -23v-55l-196 23q0 79 23 133.5t57.5 89
t74.5 51.5t74 22h142v-28q21 3 39 3q39 0 66.5 -17.5t45 -42.5t25.5 -53t8 -50q0 -16 -2 -30t-5 -25l-6 -22h31l-1 -20q0 -20 -7 -50.5t-28.5 -60.5t-61 -54t-104.5 -32v-75zM703 379q-2 32 -23.5 47t-47.5 15q-4 0 -8 -0.5t-9 -1.5v-266q45 5 65.5 27.5t20.5 42.5v4h-62v45
h24q25 14 32.5 36.5t7.5 50.5z" />
    <glyph glyph-name="tta-beng" unicode="&#x99f;" horiz-adv-x="544" 
d="M193 155q22 5 53.5 19t61 39t51.5 62t26 89l-113 15l-15 64h269q1 -7 1 -13.5v-13.5q0 -70 -16.5 -125t-43.5 -97.5t-62 -73t-72 -51t-73.5 -31t-66.5 -13.5q-5 -1 -19 -1.5t-32.5 -1t-38 -0.5h-33.5h-19v470h-53v65h438l-1 1l1 -1h115v-65h-358v-337zM522 663l-87 -105
q-3 8 -18 21.5t-47 13.5q-12 0 -28 -3t-33.5 -6.5t-34.5 -6.5t-30 -3q-37 0 -65.5 10.5t-49 27t-34 36t-20.5 36.5l109 88q1 -8 5 -19.5t11.5 -22t18.5 -17.5t28 -7q13 0 29 3t32.5 6.5t32.5 6.5t29 3q53 0 91 -18t61 -44z" />
    <glyph glyph-name="ttha-beng" unicode="&#x9a0;" horiz-adv-x="576" 
d="M584 557v-65h-137q106 -111 106 -249q0 -59 -18.5 -106t-52 -79t-79.5 -49t-101 -17q-56 2 -97.5 19t-71 41.5t-47 52t-23.5 51.5l-15 46l39 28q42 33 70 71.5t44.5 75t23.5 67.5t8 48h-235v65h215q-21 63 -21 116h133q0 -22 8.5 -55t18.5 -61h232zM418 213q3 15 3 30
q0 40 -18 81.5t-53 77.5q-13 -54 -45.5 -118.5t-93.5 -122.5q13 -15 35 -25.5t57 -10.5q31 0 52 8t34 20.5t20 28.5t9 31z" />
    <glyph glyph-name="dda-beng" unicode="&#x9a1;" horiz-adv-x="622" 
d="M593 283q-2 -61 -26 -108.5t-62 -80t-88 -49.5t-104 -17q-65 0 -114 25t-82 69t-49.5 105.5t-16.5 134.5q0 11 0.5 20.5t0.5 20.5q0 7 -0.5 13t-0.5 13l140 -37v-29q0 -5 -0.5 -10t-0.5 -10q0 -32 5 -62.5t18.5 -55t37.5 -40t62 -17.5q46 0 74 17t43 39.5t19.5 43.5
t4.5 29v3l-192 -51v243h-264v65h628v-65h-250v-151l210 83q0 -17 3 -52t4 -89z" />
    <glyph glyph-name="ddha-beng" unicode="&#x9a2;" horiz-adv-x="552" 
d="M192 155q22 5 53.5 19t61 39.5t51.5 62.5t26 88l-113 15l-15 64h269v-27q0 -70 -16.5 -125t-43.5 -97.5t-61.5 -73.5t-71.5 -51t-73.5 -30.5t-66.5 -13.5q-5 -1 -19.5 -1.5t-33 -1t-38 -0.5h-33.5h-19v470h-54v65h559v-65h-362v-337z" />
    <glyph glyph-name="nna-beng" unicode="&#x9a3;" horiz-adv-x="565" 
d="M306 144l-218 25q-17 26 -27.5 58.5t-10.5 70.5q0 43 9.5 77t25.5 60t36 45.5t41 33.5q49 33 112 45l122 -127v125h171v-65h-29v-492l-142 22v321l-109 82l-12 -4q-8 -3 -21.5 -11t-26.5 -23.5t-22 -38t-9 -53.5q0 -35 17 -66l79 -26z" />
    <glyph glyph-name="ta-beng" unicode="&#x9a4;" horiz-adv-x="646" 
d="M410 160q16 3 32.5 11.5t29.5 21.5t21.5 31t8.5 41q0 27 -11 45t-25 28t-27.5 14t-17.5 4l-9 1l-7 -8q-6 -8 -14.5 -17.5t-15.5 -17.5l-6 -8l49 -8l-17 -53h-153l107 222h19h21q15 0 33 -1t35.5 -3t33.5 -6.5t28 -10.5q43 -25 68.5 -71.5t25.5 -106.5q0 -57 -20.5 -100
t-57 -72.5t-88 -44.5t-113.5 -15q-125 0 -196.5 66t-88.5 187q-2 17 -3 41.5t-1 69.5l139 -29q0 -80 12.5 -122.5t41.5 -63.5q43 -32 90 -32q26 0 45 3.5t31 3.5zM652 557v-65h-654v65h654z" />
    <glyph glyph-name="tha-beng" unicode="&#x9a5;" horiz-adv-x="607" 
d="M609 492h-29v-492l-506 85l29 20q20 13 48.5 39t55 60.5t45.5 75.5t19 85q0 16 -6 30.5t-15.5 25.5t-22 17.5t-24.5 6.5l-6 1l-37 -43l-6 -7l49 -8l-17 -53h-153l106 221h19h25q15 0 32 -1t34.5 -3t33 -6t27.5 -11l15 -9q11 -6 25.5 -19.5t27.5 -35.5t22.5 -53t10.5 -73
q0 -45 -5 -78t-13.5 -57t-19 -40.5t-20.5 -28.5l-15 -17l99 -28v461h172v-65z" />
    <glyph glyph-name="da-beng" unicode="&#x9a6;" horiz-adv-x="505" 
d="M506 492h-313v-266q13 4 30.5 12t34.5 21t32.5 32t26.5 45l9 30l8 53h150l-6 -35q-6 -34 -11 -86.5t-5 -107.5q1 -48 5.5 -90.5t10.5 -69.5l6 -27h-150l-10 47q-5 23 -7.5 51.5t-4.5 61.5q-59 -40 -118 -46l-1 -1q-5 -1 -19.5 -1.5t-33 -1t-38 -0.5h-33.5h-19v379h-54v65
h510v-65z" />
    <glyph glyph-name="dha-beng" unicode="&#x9a7;" horiz-adv-x="554" 
d="M385 85v251q-30 -7 -69.5 -28.5t-73.5 -66.5q-25 -37 -34.5 -70t-9.5 -48zM221 413q21 15 44.5 26.5t46 19.5t41.5 12.5t32 6.5v79h170v-65h-28v-492l-476 56q2 163 77 267l4 5q-41 30 -62.5 76.5t-21.5 98.5q0 47 19 91l161 -37q-27 -39 -27 -77q0 -33 20 -67z" />
    <glyph glyph-name="na-beng" unicode="&#x9a8;" horiz-adv-x="585" 
d="M-1 492v65h588v-65h-29v-493l-142 12v281q-21 0 -50.5 -7t-59.5 -21t-57 -35.5t-43 -50.5l91 -43v-70l-245 69q16 85 58.5 140.5t95.5 88.5t109.5 46.5t100.5 15.5v67h-417z" />
    <glyph glyph-name="pa-beng" unicode="&#x9aa;" horiz-adv-x="604" 
d="M92 178q3 27 3 52q0 43 -7 78.5t-15 61t-15 39.5l-7 14l3 13l10 32.5t11.5 38t10 31.5l4.5 13l24 3q24 3 58 3q40 0 78.5 -8t72 -21.5t62 -30.5t49.5 -35v95h171v-65h-28v-492l-143 22v282l-8 13l-207 -177zM373 372q-42 35 -80 45.5t-84 12.5q1 -2 6 -19.5t10 -41.5
t9.5 -50.5t5.5 -46.5z" />
    <glyph glyph-name="pha-beng" unicode="&#x9ab;" horiz-adv-x="767" 
d="M753 214l-160 -40q1 7 1.5 13t0.5 12q0 72 -68 111v-311l-476 42q0 98 37.5 172t107.5 122l-2 7q-2 8 -10 24.5t-25 43.5q-50 67 -78 82h-83v65h773v-65h-546q15 -15 30.5 -38t30.5 -50t27.5 -54.5t20.5 -49.5l8 -24q-1 0 -10.5 -9t-23 -21t-27.5 -26t-23 -25
q-21 -25 -30.5 -45.5t-13.5 -46.5l171 -41v363h154q44 0 82 -17t66.5 -46t46 -67t19.5 -81z" />
    <glyph glyph-name="ba-beng" unicode="&#x9ac;" horiz-adv-x="551" 
d="M553 492h-29v-492l-476 56q1 102 33 178.5t81.5 128.5t108 80.5t111.5 34.5v14h-384v65h555v-65zM382 85v250q-30 -6 -69.5 -27.5t-73.5 -66.5q-26 -38 -34.5 -70.5t-8.5 -48.5z" />
    <glyph glyph-name="bha-beng" unicode="&#x9ad;" horiz-adv-x="620" 
d="M56 279q-2 20 -3 39t-1 38v22v25t-1 25l140 -36v-59q0 -30 5.5 -59t19.5 -52t37.5 -38t59.5 -17q51 0 79.5 14.5t42.5 32t17 32.5t3 17l-38 -14q-10 -4 -20 -5t-20 -1q-25 0 -48.5 8.5t-41.5 23.5t-29 36t-11 46v108h212l-15 -64l-68 -5v-58q0 -14 9 -22.5t22 -8.5
q5 0 13 3l166 77q0 -20 3.5 -56t3.5 -85q0 -44 -23.5 -83.5t-62.5 -69.5t-89.5 -47.5t-104.5 -17.5t-98 18t-76.5 51t-53.5 79.5t-29 102.5zM624 557v-65h-626v65h626z" />
    <glyph glyph-name="ma-beng" unicode="&#x9ae;" horiz-adv-x="566" 
d="M539 -1l-142 17v247q-28 -3 -57 -12t-54.5 -24t-47 -35.5t-34.5 -45.5l94 -39v-69l-245 69q16 82 56.5 137.5t92.5 88.5q-11 44 -35 73.5t-48.5 47.5t-45 26.5t-24.5 11.5h-52v65h571v-65h-29v-493zM325 385q39 9 72 12v95h-128q36 -45 56 -107z" />
    <glyph glyph-name="ya-beng" unicode="&#x9af;" horiz-adv-x="556" 
d="M558 492h-29v-493l-476 41q0 195 145 294l-3 7q-2 8 -10 25t-25 44q-50 67 -78 82h-83v65h559v-65zM386 62v430h-159q14 -15 29.5 -38t30.5 -50t27.5 -54.5t20.5 -50.5l8 -24l-9.5 -8.5t-22.5 -21t-27 -26.5t-24 -25q-20 -25 -31 -45t-13 -46z" />
    <glyph glyph-name="ra-beng" unicode="&#x9b0;" horiz-adv-x="554" 
d="M558 492h-31v-493l-476 57q1 105 34.5 181.5t83 128t108 79t108.5 32.5v15h-386v65h559v-65zM385 84v251q-30 -7 -69.5 -28t-73.5 -66q-26 -38 -34.5 -70.5t-8.5 -48.5zM312 -1v-62l-138 15l1 11q1 7 2 17t2 19t2 15.5t2 6.5z" />
    <glyph glyph-name="la-beng" unicode="&#x9b2;" horiz-adv-x="749" 
d="M751 492h-29v-492l-142 12v160l-168 -35v117q0 14 -9.5 23t-23.5 9q-24 0 -50 -9.5t-50 -25.5t-43 -36.5t-30 -41.5l93 -38v-70l-244 69h-1q15 76 48.5 130.5t77 89t91.5 50.5t92 16q25 0 47 -9t38.5 -25t26 -38t9.5 -47v-36l96 43v184h-584v65h755v-65z" />
    <glyph glyph-name="sha-beng" unicode="&#x9b6;" horiz-adv-x="631" 
d="M633 492h-29v-492l-144 12v352l-66 66q-21 16 -43 16q-18 0 -33.5 -10t-21.5 -32v-44q0 -21 13.5 -36t35.5 -17l45 -4l14 -81l-13 -4q-12 -4 -32.5 -7.5t-41.5 -3.5q-20 0 -38.5 3.5t-30.5 7.5l-11 4q-31 -52 -79 -77.5t-99 -25.5h-9l1 132q6 0 19.5 5.5t27.5 17.5
t24.5 33t10.5 53q0 10 -1.5 24.5t-4.5 30t-9 29.5t-15 23q-16 14 -33 18.5t-29 6.5h-84v65h52h15q17 0 40.5 -1.5t49 -6.5t50 -15.5t43.5 -29.5l12 13q23 19 47.5 27.5t50.5 8.5q32 0 63 -14.5t55 -42.5l25 -30v91h173v-65z" />
    <glyph glyph-name="ssa-beng" unicode="&#x9b7;" horiz-adv-x="553" 
d="M554 492h-28v-494l-476 42q0 97 36.5 171t108.5 123l-2 7q-2 8 -10 24.5t-25 43.5q-50 66 -79 83h-80v65h555v-65zM325 261q-45 -38 -75.5 -77.5t-36.5 -81.5l171 -41v163zM384 492h-161q22 -22 49.5 -64.5t46.5 -91.5l65 -45v201z" />
    <glyph glyph-name="sa-beng" unicode="&#x9b8;" horiz-adv-x="535" 
d="M537 492h-29v-493l-142 22v88l-83 40q-64 -129 -226 -154q-1 -1 -3 -1h-3v97q22 5 43 18.5t37.5 34t27 46.5t10.5 56q0 28 -8.5 53t-24 44.5t-37.5 32.5t-48 17v99h-53v65h539v-65zM366 206v286h-198q64 -35 102 -96t38 -136v-14t-1 -14z" />
    <glyph glyph-name="ha-beng" unicode="&#x9b9;" horiz-adv-x="537" 
d="M531 -20v-73l-475 141l-8 132l29 -3q20 -2 43 -3t47 -1q30 0 66.5 1t68.5 10t54 28.5t22 55.5q0 28 -14 45.5t-32 27.5t-35.5 13.5t-25.5 3.5l-12 1q-1 0 -6 -4.5t-12.5 -11.5t-16 -14t-14.5 -13l-9 -7l81 -8l-19 -53h-200l155 221l21 1h23q53 0 99 -11t79.5 -35
t52.5 -62t19 -92q0 -33 -10 -66.5t-32.5 -62.5t-57.5 -51.5t-85 -33.5zM539 557v-65h-542v65h542z" />
    <glyph glyph-name="rra-beng" unicode="&#x9dc;" horiz-adv-x="621" 
d="M593 284q-2 -61 -26 -108.5t-62 -80t-87.5 -49.5t-103.5 -17q-64 0 -113 24.5t-82 68t-50 104t-17 131.5v22v25t-1 25l141 -37v-15t-1 -13v-30q0 -29 5.5 -57.5t19 -51.5t37.5 -38.5t61 -18.5q33 0 56.5 9.5t39 23.5t24.5 30.5t14 31.5t6 25t1 12l-193 -50v242h-264v65
h626v-65h-248v-150l210 83q0 -17 3 -52t4 -89zM219 -65l1 11q1 8 2 18t2 19t2 15t2 7l129 -22v-63z" />
    <glyph glyph-name="rha-beng" unicode="&#x9dd;" horiz-adv-x="554" 
d="M556 492h-363v-314q24 0 55.5 9t60.5 31t50 59.5t26 94.5l-120 7l-8 65h269q1 -7 1 -13.5v-13.5q0 -65 -17 -122.5t-45.5 -103t-65.5 -77t-77 -46.5q-31 -11 -52.5 -16t-46 -7.5t-59.5 -3.5t-94 -4h-19v455h-53v65h558v-65zM105 5l129 -22v-63l-138 15l1 11q1 8 2 18
t2 19t2 15t2 7z" />
    <glyph glyph-name="yya-beng" unicode="&#x9df;" horiz-adv-x="553" 
d="M555 492h-29v-493l-475 42q0 195 144 294l-2 7q-2 8 -10 24.5t-25 43.5q-50 67 -78 82h-81v65h556v-65zM384 492h-160q14 -14 30 -37t30.5 -49.5t27.5 -54t21 -51.5l8 -24l-9.5 -8.5t-23 -21t-27.5 -26.5t-24 -25q-21 -24 -30 -45t-13 -47l170 -41v430zM187 -70l1 11
q1 8 1.5 18t1.5 19t2 15t3 7l129 -22v-63z" />
    <glyph glyph-name="ramiddlediagonal-beng" unicode="&#x9f0;" horiz-adv-x="554" 
d="M214 190q-8 -19 -11.5 -36.5t-3.5 -27.5v-4l186 -38v86zM385 239v96q-26 -7 -60 -23t-63 -48zM557 492h-30v-493l-476 57q1 105 34.5 181.5t83 128t108 79t108.5 32.5v15h-386v65h558v-65z" />
    <glyph glyph-name="ralowerdiagonal-beng" unicode="&#x9f1;" horiz-adv-x="554" 
d="M556 492h-29v-493l-476 57q1 105 34.5 181.5t83 128t108 79t108.5 32.5v15h-386v65h557v-65zM385 84v251q-30 -7 -69.5 -28t-73.5 -66q-26 -38 -34.5 -70.5t-8.5 -48.5zM439 -82l-341 23q0 40 11 79l330 -45v-57z" />
    <glyph glyph-name="signnuktacomb-beng" unicode="&#x9bc;" 
d="M-384 -68l129 -22v-63l-138 15l1 11q1 8 2 18t2 19t2 15t2 7z" />
    <glyph glyph-name="vowelsignaa-beng" unicode="&#x9be;" horiz-adv-x="220" 
d="M-1 557h223v-65h-29v-492l-142 22v470h-52v65z" />
    <glyph glyph-name="vowelsigni-beng" unicode="&#x9bf;" horiz-adv-x="220" 
d="M339 731q27 22 27 42l118 -49q-5 -20 -16.5 -44t-33.5 -45t-56 -35t-85 -14q-14 0 -30 1.5t-30 1.5q-35 0 -53 -10t-25 -22h69v-65h-31v-493l-142 22v471h-52v65h90l-43 75q24 36 70 62.5t119 26.5q14 0 30.5 -2t30.5 -2q27 0 43 14z" />
    <glyph glyph-name="vowelsignii-beng" unicode="&#x9c0;" horiz-adv-x="220" 
d="M229 642l-49 -85h43v-65h-30v-493l-142 22v471h-53v65h123v7q-6 13 -24 24t-54 11q-14 0 -31.5 -2t-31.5 -2q-51 0 -83 16q8 -27 18 -44t18 -25l8 -8l-50 -10q-22 10 -38.5 32.5t-28.5 49t-19 53.5t-10 47l-4 27l118 50q0 -6 4 -15.5t12.5 -18.5t21.5 -15.5t31 -6.5
q15 0 31.5 2t30.5 2q73 0 119 -26.5t70 -62.5z" />
    <glyph glyph-name="vowelsignucomb-beng" unicode="&#x9c1;" 
d="M-169 28l107 36q55 -65 57 -141q34 -20 62.5 -48t48.5 -48l20 -21v-60l-13 13q-9 9 -22.5 20.5t-27.5 22.5t-28.5 20.5t-25.5 14.5l-13 6v-11q0 -12 -5 -32.5t-20.5 -40t-43.5 -33.5t-74 -14q-42 0 -68.5 14.5t-42 35.5t-21.5 43.5t-7 39.5v4q2 53 34.5 86t81.5 33
q9 0 18 -1t19 -4q-7 17 -36 37v28zM-137 -208q23 0 35.5 23t12.5 56q0 11 -6.5 13t-17.5 2q-23 0 -37 -18t-14 -41q0 -13 6.5 -22.5t20.5 -12.5z" />
    <glyph glyph-name="vowelsignuucomb-beng" unicode="&#x9c2;" 
d="M-26 -69q-41 -13 -58 -41t-17 -54q0 -20 8.5 -36t24.5 -16q15 0 25 9.5t15 23.5t7 29t2 27v12l-3 1l112 15l107 -143l-31 -41l-100 95q0 -1 -1 -2v-6q-2 -7 -9 -23t-24 -33t-47 -30t-77 -13q-36 0 -60.5 14.5t-39 35.5t-21 43.5t-6.5 37.5q0 56 14.5 84t36.5 44v65
l142 43v-141z" />
    <glyph glyph-name="vowelsignvocalicrcomb-beng" unicode="&#x9c3;" 
d="M-26 -106l-93 -51l72 -48v-48l-221 91l99 114v70l143 51v-179z" />
    <glyph glyph-name="vowelsigne-beng" unicode="&#x9c7;" horiz-adv-x="255" 
d="M285 492q-50 -45 -77 -108.5t-27 -135.5q0 -78 29.5 -142t78.5 -106h-187q-68 110 -68 248q0 134 66 244h-102v65h300v-65h-13z" />
    <glyph glyph-name="bn_ekaar.init" horiz-adv-x="278" 
d="M285 492q-50 -45 -77 -108.5t-27 -135.5q0 -78 29.5 -142t78.5 -106h-187q-68 110 -68 248q1 69 17.5 133t54.5 120l38 56h154v-65h-13z" />
    <glyph glyph-name="vowelsignai-beng" unicode="&#x9c8;" horiz-adv-x="255" 
d="M-2 492v65h123q0 12 -6 24.5t-28 18.5q-27 7 -40.5 26.5t-16.5 33.5q-2 2 -1.5 3.5t-1.5 3.5l145 1q-1 -2 -1 -5q0 -11 14.5 -19t38.5 -17l36 -16q15 -7 20.5 -17.5t5.5 -21.5q0 -10 -1 -15h16v-65h-16q-50 -45 -77 -108.5t-27 -135.5q0 -78 29.5 -142t78.5 -106h-187
q-68 110 -68 248q0 134 66 244h-102z" />
    <glyph glyph-name="bn_aikaar.init" horiz-adv-x="255" 
d="M121 557q0 12 -6 24.5t-28 18.5q-27 7 -40.5 26.5t-16.5 33.5q-2 2 -1.5 3.5t-1.5 3.5l145 1q-1 -2 -1 -5q0 -11 14.5 -19t38.5 -17l36 -16q15 -7 20.5 -17.5t5.5 -21.5q0 -10 -1 -15h16v-65h-16q-50 -45 -77 -108.5t-27 -135.5q0 -78 29.5 -142t78.5 -106h-187
q-68 110 -68 248q0 133 66 244q8 15 13 31.5t8 33.5z" />
    <glyph glyph-name="vowelsigno-beng" unicode="&#x9cb;" horiz-adv-x="1034" 
d="M678 391l73 85l-120 68l-38 -104q46 -11 82 -46zM513 439l-38 105l-120 -70l72 -86l6 6q34 34 80 45zM390 322l-103 21v-137l102 19q-6 22 -6 48q0 28 7 49zM428 158l-73 -85l116 -71l40 105q-9 2 -21.5 6.5t-24.5 11.5t-22 15t-15 18zM592 106l38 -104l121 71l-73 82
l-3 -3q-35 -35 -83 -46zM718 224l103 -18v137l-103 -21q7 -21 7 -49t-7 -49zM285 492q-50 -45 -77 -108.5t-27 -135.5q0 -78 29.5 -142t78.5 -106h-187q-68 110 -68 248q0 134 66 244h-102v65h300v-65h-13zM806 557h233v-65h-36v-492l-142 22v470h-55v65z" />
    <glyph glyph-name="vowelsignau-beng" unicode="&#x9cc;" horiz-adv-x="1024" 
d="M678 391l73 85l-120 68l-38 -104q46 -11 82 -46zM513 439l-38 105l-120 -70l72 -86l6 6q34 34 80 45zM390 322l-103 21v-137l102 19q-6 22 -6 48q0 28 7 49zM428 158l-73 -85l116 -71l40 105q-9 2 -21.5 6.5t-24.5 11.5t-22 15t-15 18zM592 106l38 -104l121 71l-73 82
l-3 -3q-35 -35 -83 -46zM718 224l103 -18v137l-103 -21q7 -21 7 -49t-7 -49zM806 557h233v-65h-36v-492l-142 22v470h-55v65zM-2 492v65h123q0 12 -6 24.5t-28 18.5q-27 7 -40.5 26.5t-16.5 33.5q-2 2 -1.5 3.5t-1.5 3.5l145 1q-1 -2 -1 -5q0 -11 14.5 -19t38.5 -17l36 -16
q15 -7 20.5 -17.5t5.5 -21.5q0 -10 -1 -15h16v-65h-16q-50 -45 -77 -108.5t-27 -135.5q0 -78 29.5 -142t78.5 -106h-187q-68 110 -68 248q0 134 66 244h-102z" />
    <glyph glyph-name="signviramacomb-beng" unicode="&#x9cd;" 
d="M22 -84l24 -77l-160 41l-17 92z" />
    <glyph glyph-name="khandata-beng" unicode="&#x9ce;" horiz-adv-x="440" 
d="M366 0h-160l5 15q6 19 8.5 38.5t2.5 37.5q0 76 -76 119q-46 29 -69.5 64.5t-23.5 90.5q0 16 4.5 47t23 62t55 54t100.5 23q22 0 52.5 -5.5t58 -25.5t46.5 -59t19 -105q0 -11 -0.5 -23t-1.5 -23l-173 1l4 47l47 11v8q0 9 -2.5 21t-9 23t-18 18.5t-29.5 7.5
q-11 0 -22.5 -3.5t-21 -11.5t-16 -21.5t-6.5 -34.5q1 -24 13 -41t30.5 -32t41.5 -30t47 -35q82 -75 82 -179q0 -29 -11 -59z" />
    <glyph glyph-name="aulength-beng" unicode="&#x9d7;" horiz-adv-x="220" 
d="M223 557v-65h-30v-492l-142 22v470h-53v65h41q0 2 0.5 3.5t0.5 3.5q0 11 -7.5 21t-26.5 15q-28 7 -41 26.5t-16 33.5l-3 9h144q0 -2 -0.5 -2.5t-0.5 -2.5q0 -12 14.5 -20t39.5 -17l36 -16q14 -7 20 -18t6 -22q0 -4 -2 -14h20z" />
    <glyph glyph-name="zero-beng" unicode="&#x9e6;" horiz-adv-x="545" 
d="M275 534q51 0 96.5 -21t79.5 -57t54 -84t20 -102t-19.5 -102t-53.5 -84t-79.5 -57t-97.5 -21t-97.5 21t-79.5 57t-53.5 84t-19.5 102t20 102t54 84t79.5 57t96.5 21zM390 228q11 33 11 63q0 24 -7.5 46.5t-21.5 40.5t-34 28.5t-46 10.5q-25 0 -50.5 -12t-46 -34
t-33.5 -53t-13 -69q0 -25 7.5 -47.5t21.5 -40t34.5 -28t46.5 -10.5q40 0 75.5 28t55.5 77z" />
    <glyph glyph-name="one-beng" unicode="&#x9e7;" horiz-adv-x="495" 
d="M285 448q37 -14 69 -37.5t56 -54.5t37.5 -68t13.5 -79q0 -69 -30 -119.5t-85 -78.5q-13 -6 -32 -10.5t-40.5 -6.5t-44 -3.5t-41.5 -1.5q-8 0 -15 0.5t-13 0.5h-25l-107 226h186l18 -59l-75 -8l5 -8q4 -5 9 -12t9.5 -13.5t7.5 -11.5l3 -5h15q12 0 31 4t38 14.5t32.5 29
t13.5 47.5v9t-1 8v13q0 13 -5 33.5t-21 42.5t-44.5 41.5t-75.5 29.5t-75.5 31t-44.5 45t-21 47t-5 37v15h155v-6q0 -6 3 -16.5t13.5 -23t31 -26.5t54.5 -26z" />
    <glyph glyph-name="two-beng" unicode="&#x9e8;" horiz-adv-x="503" 
d="M456 206q-42 -73 -148 -98l190 -75v-72l-442 139v131l20 -3q20 -3 42 -3.5t44 -0.5q27 0 60.5 1t63 10t50 28t20.5 55q0 27 -13 44.5t-29.5 27.5t-33.5 14t-24 4h-11q-62 2 -102 17t-64 34.5t-33.5 40t-10.5 33.5l-1 14h168v-3q1 -3 3 -7.5t5.5 -9t10.5 -7.5t19 -3l24 1
q43 0 83 -12t71 -36t49.5 -61.5t18.5 -88.5q0 -57 -30 -114z" />
    <glyph glyph-name="three-beng" unicode="&#x9e9;" horiz-adv-x="610" 
d="M493 508q41 -30 65 -84.5t24 -127.5q0 -48 -11 -92t-31.5 -79.5t-49.5 -60.5t-65 -35q-54 -16 -109 -16q-76 0 -129 30t-86.5 86.5t-48.5 138t-15 185.5l133 -35q0 -18 0.5 -29.5t0.5 -18.5t0.5 -10.5t0.5 -6.5l2 -11q3 -60 17.5 -96.5t35.5 -56.5t45.5 -27t46.5 -7
q28 0 55.5 6t48.5 21t34 41t13 67q0 36 -11.5 58t-26 33.5t-27.5 15t-16 3.5l-5 1q0 -1 -6.5 -10t-14.5 -21l-20 -30l46 -10l-16 -64h-147l103 267l18 1h19q15 0 32 -1t34.5 -4t33 -8t27.5 -13z" />
    <glyph glyph-name="four-beng" unicode="&#x9ea;" horiz-adv-x="491" 
d="M406 270l48 -12l5 -19q3 -11 5 -26.5t2 -33.5q0 -29 -10.5 -62.5t-36 -62t-68.5 -47.5t-107 -19q-45 0 -83 13.5t-66 36.5t-43.5 52t-15.5 61q0 22 5.5 42.5t13 38t16.5 31.5t17 23l12 15l-56 20q-5 11 -7 24t-2 29v13.5t1 13.5l2 15q6 27 22.5 51t42 42t59.5 28t75 10
q59 0 129 -29q49 -24 67 -57t18 -65q0 -33 -11.5 -62t-22.5 -46zM297 87q18 14 24.5 34.5t6.5 41.5q0 23 -5 41l-3 15l-95 35q-20 -17 -38 -48t-18 -63q0 -35 24 -51t59 -16q28 0 45 11zM175 433q-6 -15 -6 -29q0 -16 5 -30t12 -26l105 -38q2 3 6.5 13t9 24t8 30t3.5 31
q0 26 -15 43t-51 17q-23 0 -46 -9t-31 -26z" />
    <glyph glyph-name="five-beng" unicode="&#x9eb;" horiz-adv-x="496" 
d="M378 215v-4q0 -13 9.5 -25.5t23 -22.5t29.5 -18t28 -12l17 -6l-11 -13q-8 -9 -20 -21.5t-26 -25.5t-29 -25t-28 -20q-52 -26 -108 -26q-59 0 -103.5 22t-74.5 60t-45.5 88.5t-15.5 107.5q0 55 12.5 100.5t30 81.5t36.5 62.5t33 43.5l209 -127q8 12 16 23t14 18l6 7
l111 -44q-45 -63 -70 -113t-35 -81zM316 127q-20 16 -33.5 40t-13.5 59q0 28 15.5 71t37.5 84l-101 54q-52 -106 -52 -181q0 -27 7 -50.5t21.5 -41t36 -28t50.5 -10.5q15 0 32 3z" />
    <glyph glyph-name="six-beng" unicode="&#x9ec;" horiz-adv-x="602" 
d="M361 316l207 82q0 -14 3.5 -49.5t3.5 -89.5q0 -59 -22.5 -105.5t-60.5 -79t-88 -49.5t-105 -17q-62 0 -108.5 22.5t-78.5 63t-50 97t-21 124.5q-2 23 -4.5 48.5t-8.5 54.5l139 -36q7 -27 8 -43.5t3 -30.5l4 -34q3 -24 10 -47t20 -40.5t34 -29t53 -12.5q49 0 77.5 19.5
t42 43t17 44t3.5 23.5l-190 -50v290l112 26v-225z" />
    <glyph glyph-name="seven-beng" unicode="&#x9ed;" horiz-adv-x="484" 
d="M447 443q6 -14 9 -30v-67q0 -31 0.5 -66.5t0.5 -77.5v-208l-133 24v190q-38 10 -79 17.5t-79.5 14.5t-72 12.5t-55.5 10.5q-3 8 -7 31t-4 55q0 34 11 70.5t36.5 66.5t67.5 49t104 19q36 0 67.5 -9t57.5 -24t45.5 -35t30.5 -43zM324 277v124q0 33 -24.5 48.5t-59.5 15.5
q-23 0 -38 -8.5t-23 -22t-11 -31t-3 -35.5q1 -14 2 -27.5t3 -23.5l4 -19z" />
    <glyph glyph-name="eight-beng" unicode="&#x9ee;" horiz-adv-x="503" 
d="M479 405q-5 -16 -15 -31.5t-23 -29t-27 -25.5t-27 -21q20 -4 37 -7t30 -6q2 -9 6 -32.5t4 -57.5q0 -33 -10.5 -68.5t-36 -65t-68 -48.5t-106.5 -19q-41 0 -76.5 11.5t-62.5 30.5t-44.5 44.5t-23.5 53.5v19t-1 48v144q1 42 0 77.5t-1 67.5v64l134 -24v-191q20 -5 40.5 -10
t42.5 -9q29 13 50.5 34t37.5 44t26 45.5t16 38.5l8 22zM295 92q18 14 24.5 38t6.5 50q1 14 -1 27t-4 24l-3 19l-150 20v-124q0 -35 24 -49.5t58 -14.5q13 0 25 2.5t20 7.5z" />
    <glyph glyph-name="nine-beng" unicode="&#x9ef;" horiz-adv-x="540" 
d="M502 341q7 -20 9.5 -40.5t2.5 -42.5q0 -41 -9.5 -87t-35.5 -85.5t-73 -65.5t-122 -26h-10l-61 46q12 26 18.5 39.5t8.5 20.5t2 11v12q0 30 -10.5 45t-18.5 18l-4 3l-9 -4q-8 -4 -19.5 -10t-20.5 -10l-9 -4l32 -28l-40 -42l-113 63l194 161q1 0 16 -7.5t34 -20t38 -28.5
t27 -34q8 -16 11 -33.5t3 -36.5v-13q11 14 22.5 39.5t11.5 67.5q0 21 -7 42.5t-26 41.5t-52.5 35.5t-85.5 24.5q-8 1 -11.5 2t-9.5 2t-17.5 2.5t-35.5 3.5l-22 134q84 -8 148.5 -22.5t112.5 -38t80 -56.5t51 -79z" />
    <glyph glyph-name="rupeesign-beng" unicode="&#x9f3;" horiz-adv-x="553" 
d="M223 155q16 4 41.5 14t51.5 27t48.5 41t31.5 56l-113 15l-15 64h269q1 -7 1 -13.5v-13.5q0 -22 -2 -43t-8.5 -42t-18 -44t-30.5 -49q-46 -56 -89.5 -85.5t-88.5 -42.5t-94 -15t-106 -2h-20v380h-93v65h93v67q-24 -5 -56.5 -20t-60.5 -39l-95 95q37 37 73.5 57t76.5 29
t85 10t100 1h19v-200h107v-65h-107v-247z" />
    <glyph glyph-name="devanagaridanda" unicode="&#x964;" horiz-adv-x="263" 
d="M110 65v434l121 -30v-454z" />
    <glyph glyph-name="devanagaridoubledanda" unicode="&#x965;" horiz-adv-x="439" 
d="M110 65v434l121 -30v-454zM280 65v434l121 -30v-454z" />
    <glyph glyph-name="bn_k_ka" horiz-adv-x="781" 
d="M525 -133l-370 38v8q1 71 27 127l-132 16q0 102 32.5 178.5t81.5 128.5t107.5 80.5t111.5 34.5v14h-387v65h786v-65h-257v-21q25 -6 57 -18.5t65.5 -34.5t65.5 -54t58 -76l-150 -65q-19 46 -44.5 71t-51.5 35v-137q26 -7 57.5 -20t63.5 -34.5t62.5 -53t56.5 -74.5
l-150 -65q-19 45 -41.5 68t-48.5 35v-181zM237 115q34 32 74.5 50t71.5 24v146q-30 -6 -69.5 -27.5t-73.5 -66.5q-25 -37 -34 -70t-9 -48zM383 77q-16 -6 -32.5 -17.5t-31 -27t-24.5 -33.5t-13 -36l101 -18v132z" />
    <glyph glyph-name="bn_k_tta" horiz-adv-x="708" 
d="M-4 492v65h715v-65h-287v-15q36 -7 64 -19t49.5 -26.5t36.5 -30t24 -28.5l-120 -43q-18 28 -54 43v-240q26 5 45.5 16t34 25t24.5 30t17 31l8 18l-69 9l-13 55l209 4q1 -6 1 -12v-11v-15.5t-1 -15.5v-2q-4 -15 -7 -33.5t-10.5 -40.5t-22.5 -47t-42 -51l-7 -6
q-31 -21 -57.5 -34t-53.5 -20t-57 -9.5t-69 -2.5l-41 -1h-17v136l-244 28v15q0 75 26.5 126.5t65 84t80.5 47.5t72 18v17h-300zM633 558q-4 10 -18.5 22.5t-46.5 12.5q-12 0 -28.5 -3t-34 -6.5t-34.5 -6.5t-30 -3q-37 0 -65 10.5t-48.5 27t-34.5 35.5t-21 37l109 88
q1 -8 5 -19.5t11.5 -22t18.5 -17.5t28 -7q14 0 30 3t32.5 6.5t32.5 6.5t29 3q54 0 91.5 -18t60.5 -44l-85 -104zM181 242l115 -29v151q-35 -5 -57 -23t-35 -38t-18 -38t-5 -23z" />
    <glyph glyph-name="bn_k_tt_ra" horiz-adv-x="708" 
d="M410 22h-12q-10 -1 -21 -1h-23l-41 -1h-17v136l-244 28v15q0 75 26.5 126.5t65 84t80.5 47.5t72 18v17h-300v65h713v-65h-285v-15q36 -7 64 -19t49.5 -26.5t36.5 -30t24 -28.5l-120 -43q-18 28 -54 43v-240q26 5 45.5 16t34 25t24.5 30t17 31l8 18l-69 9l-13 55l209 4
q1 -6 1 -12v-11v-15.5t-1 -15.5v-2q-4 -15 -7 -33.5t-10.5 -40.5t-22.5 -47t-42 -51l-7 -6q-10 -7 -19 -12.5t-19 -10.5v-218l-142 22v19l-3 2q-8 5 -22 9.5t-32 4.5t-40 -6t-48 -22q-26 -17 -51 -23t-48 -6q-31 -1 -55 8.5t-38 17.5l-16 9l-2 1l55 92v-1q2 0 3 -1l11 -4
q13 -5 32 -10.5t39 -5.5q13 0 25.5 3t22.5 11q26 20 52.5 27.5t51.5 7.5q18 0 35 -3t28 -6zM633 558q-4 10 -18.5 22.5t-46.5 12.5q-12 0 -28.5 -3t-34 -6.5t-34.5 -6.5t-30 -3q-37 0 -65 10.5t-48.5 27t-34.5 35.5t-21 37l109 88q1 -8 5 -19.5t11.5 -22t18.5 -17.5t28 -7
q14 0 30 3t32.5 6.5t32.5 6.5t29 3q54 0 91.5 -18t60.5 -44l-85 -104zM181 242l115 -29v151q-35 -5 -57 -23t-35 -38t-18 -38t-5 -23z" />
    <glyph glyph-name="bn_k_ta" horiz-adv-x="873" 
d="M599 243l-6 -17q0 -1 -1 -2l36 -1v-12q0 -11 -2 -33t-11 -48.5t-26 -55t-46.5 -51.5t-74 -38t-107.5 -15q-56 0 -105.5 16.5t-88.5 46t-66 70.5t-36 91q-5 35 -8.5 69.5t-4.5 68.5h150q0 -33 2.5 -72t18.5 -73.5t51.5 -58.5t101.5 -27q32 1 53.5 8t34 16.5t18 20
t5.5 18.5v4h-114v55h80q28 14 36 35.5t8 47.5q0 31 -21.5 45.5t-45.5 14.5q-17 0 -28.5 -7t-18.5 -16t-9.5 -19t-2.5 -16v-3l56 -11l4 -50l-181 -1q0 17 -2 31t-2 28q0 26 9.5 50.5t25 45t35.5 35.5t40 21q45 13 81 13q33 0 62 -12t51.5 -32.5t37.5 -47t18 -54.5
q20 10 53.5 22t71.5 12q41 0 66.5 -15t39.5 -37t18.5 -47.5t4.5 -45.5v-15.5t-1 -12.5v-1q-1 -5 -1 -8.5t-1 -5.5v-2l-125 10v11q0 10 -2 25t-8.5 29.5t-19.5 24.5t-34 10q-5 0 -15 -1t-21 -4.5t-20.5 -10t-12.5 -16.5zM874 557v-65h-900v65h900z" />
    <glyph glyph-name="bn_k_t_ba" horiz-adv-x="887" 
d="M606 321q20 10 53.5 22t71.5 12q41 0 66.5 -15t39.5 -37t18.5 -47.5t4.5 -45.5v-15.5t-1 -12.5v-1q-1 -5 -1 -8.5t-1 -5.5v-2l-125 10v11q0 10 -2 25t-8.5 29.5t-19.5 24.5t-34 10q-5 0 -14.5 -1t-20.5 -4.5t-20.5 -10t-13.5 -16.5l-6 -17q0 -1 -1 -2l36 -1v-9
q0 -12 -2.5 -38t-14 -56.5t-35.5 -62t-67 -54.5v-247l-370 38v8q2 107 58 177l21 22q-50 25 -82 58.5t-50 75t-25.5 91t-8.5 106.5h150q0 -33 2.5 -72t18.5 -73.5t51.5 -58.5t101.5 -27q32 1 53.5 8t34 16.5t18 20t5.5 18.5v4h-114v55h80q28 14 36 35.5t8 47.5
q0 31 -21.5 45.5t-45.5 14.5q-17 0 -28.5 -7t-18.5 -16t-9.5 -19t-2.5 -16v-3l56 -11l4 -50l-181 -1q0 17 -2 31t-2 28q0 26 9.5 50.5t25 45t35.5 35.5t40 21q45 13 81 13q33 0 62 -12t51.5 -32.5t37.5 -47t18 -54.5zM889 557v-65h-891v65h891zM367 -34q-16 -6 -32.5 -17.5
t-31 -27t-24.5 -33.5t-13 -36l101 -18v132z" />
    <glyph glyph-name="bn_k_t_ra" horiz-adv-x="887" 
d="M606 321q20 10 53.5 22t71.5 12q41 0 66.5 -15t39.5 -37t18.5 -47.5t4.5 -45.5v-15.5t-1 -12.5v-1q-1 -5 -1 -8.5t-1 -5.5v-2l-125 10v11q0 10 -2 25t-8.5 29.5t-19.5 24.5t-34 10q-5 0 -14.5 -1t-20.5 -4.5t-20.5 -10t-13.5 -16.5l-6 -17q0 -1 -1 -2l36 -1v-14t-3 -35.5
t-11 -47.5t-24 -50v-277l-143 22l-1 12l-9 6q-8 5 -22 9.5t-32 4.5t-40 -6t-48 -22q-26 -17 -51 -23t-48 -6q-31 0 -55 8t-38 18l-3 1q-11 7 -13 8l-2 1l55 92v-1q2 0 3 -1l11 -4q13 -5 32 -10.5t39 -5.5q28 0 48 14q26 20 54 27.5t53 7.5q20 0 35.5 -3t26.5 -7l5 -2v41
q-19 -5 -41 -7.5t-45 -2.5q-56 0 -105.5 16.5t-88.5 46t-66 70.5t-36 91q-5 35 -8.5 69.5t-4.5 68.5h150q0 -33 2.5 -72t18.5 -73.5t51.5 -58.5t101.5 -27q32 1 53.5 8t34 16.5t18 20t5.5 18.5v4h-114v55h80q28 14 36 35.5t8 47.5q0 31 -21.5 45.5t-45.5 14.5
q-17 0 -28.5 -7t-18.5 -16t-9.5 -19t-2.5 -16v-3l56 -11l4 -50l-181 -1q0 17 -2 31t-2 28q0 26 9.5 50.5t25 45t35.5 35.5t40 21q45 13 81 13q33 0 62 -12t51.5 -32.5t37.5 -47t18 -54.5zM889 557v-65h-891v65h891z" />
    <glyph glyph-name="bn_k_na" horiz-adv-x="781" 
d="M383 150v187q-35 -6 -68 -22.5t-59.5 -39t-42.5 -47.5t-16 -47zM525 -147l-142 11v137q-41 -8 -71 -48l45 -19v-89l-208 53q12 41 23 68.5t25.5 47t32.5 34t43 29.5l18 9l-241 23q0 90 31.5 155.5t80 109.5t107.5 67.5t114 29.5v21h-387v65h792v-65h-263v-25
q26 -6 58 -18.5t65 -34.5t64.5 -54t57.5 -76l-150 -65q-20 47 -44.5 71t-50.5 35v-472z" />
    <glyph glyph-name="bn_k_ba" horiz-adv-x="787" 
d="M397 -58v139q-17 -4 -35.5 -15t-35 -27t-29 -35.5t-15.5 -40.5zM237 115q34 32 74.5 50t71.5 24v146q-30 -6 -69.5 -27.5t-73.5 -66.5q-25 -37 -34 -70t-9 -48zM525 -133l-370 38v8q1 71 27 127l-132 16q0 102 32.5 178.5t81.5 128.5t107.5 80.5t111.5 34.5v14h-387v65
h792v-65h-263v-21q25 -6 57 -18.5t65.5 -34.5t65.5 -54t58 -76l-150 -65q-19 46 -44.5 71t-51.5 35v-462z" />
    <glyph glyph-name="bn_k_ma" horiz-adv-x="790" 
d="M181 242l115 -29v151q-35 -5 -57 -23t-35 -38t-18 -38t-5 -23zM424 259q79 47 170 47q7 0 13.5 -0.5t13.5 -0.5v187h-197v-15q36 -7 64 -19t49.5 -26.5t36.5 -30t24 -28.5l-120 -43q-18 28 -54 43v-114zM296 128v28l-244 28v15q0 75 26.5 126.5t65 84t80.5 47.5t72 18v17
h-300v65h796v-65h-29v-501l-142 11v171q-81 -2 -131.5 -30.5t-76.5 -67.5l71 -34v-78l-226 62l2 10q0 2 7.5 27.5t27.5 63.5q0 1 1 2z" />
    <glyph glyph-name="bn_k_ra" horiz-adv-x="875" 
d="M877 557v-65h-879v65h879zM617 263v-263l-142 22v112l-225 -108q-50 15 -87 41.5t-61.5 60t-36.5 72t-12 79.5t8 70.5t10 34.5l124 -45v-2q0 -3 -3.5 -20.5t-3.5 -37.5q0 -22 6 -44.5t19.5 -42.5t35 -35.5t53.5 -22.5l173 60v154q-62 -8 -88 -56v-5l71 -22v-56l-196 24
q0 32 11 64.5t29 61t40.5 50.5t45.5 32q50 22 87 26h142v-140l28 11q19 8 41 12.5t45 4.5q41 0 66.5 -15t39.5 -37t18.5 -47.5t4.5 -45.5v-15.5t-1 -12.5v-1q-1 -5 -1 -8.5t-1 -5.5v-2l-125 10v11q0 12 -2 27.5t-9.5 29.5t-21.5 23.5t-37 9.5q-10 0 -21 -4t-24 -9z" />
    <glyph glyph-name="bn_k_la" horiz-adv-x="782" 
d="M525 478q25 -6 57 -18.5t65.5 -34.5t65.5 -54t58 -76l-150 -65q-19 46 -44.5 71t-51.5 35v-438l-142 22v59l-158 -40v88q0 3 -4 3q-14 -2 -27 -6.5t-23.5 -11t-17.5 -13t-9 -11.5l48 -19v-72l-178 44q12 58 34.5 96.5t50 61t58 31.5t57.5 9q16 0 31 -6.5t26.5 -18
t18.5 -26t8 -30.5l85 35v39l-333 28q0 79 31 138t79.5 98.5t107.5 60.5t115 25v10h-387v65h788v-65h-259v-14zM383 203v155q-33 -5 -66.5 -19.5t-60 -33t-43 -39t-16.5 -36.5z" />
    <glyph glyph-name="bn_k_ssa" horiz-adv-x="972" 
d="M973 557v-65h-245v-107q28 -2 50.5 -6.5t39.5 -9.5l36 -11q25 -12 43 -28.5t30 -38.5t19 -51t12 -66l-193 -44v44l38 23q-2 37 -14 57t-49 33l-12 4v-291l-142 17v147q-62 -5 -113.5 -29t-76.5 -61l51 -23v-54l-204 49q17 63 57 105t92 68q-3 9 -9 21.5t-16.5 23.5
t-25.5 18.5t-35 7.5q-3 0 -9 -0.5t-13 -1t-13.5 -2.5t-9.5 -5h-1q-37 -22 -58 -55l51 -25v-57l-205 53q17 66 57 110.5t94 71.5q-15 45 -47 72t-63 41h-98v65h982zM524 261q16 3 31 5t31 3v53q-30 9 -63 24t-61 36t-48.5 48.5t-24.5 61.5h-107q4 -6 12.5 -20t16.5 -28.5
t14.5 -25.5t8.5 -11q26 0 52.5 -7.5t51 -24.5t46.5 -45t40 -69zM586 492h-75q7 -65 75 -87v87z" />
    <glyph glyph-name="bn_k_ss_nna" horiz-adv-x="958" 
d="M718 290v-431l-142 22v61l-86 43q-48 -5 -78.5 -17.5t-35.5 -28.5q0 -1 8 -9l82 -14l35 -82l-225 13q-18 15 -32 38t-14 54q0 22 7 43q16 35 38.5 55.5t49.5 33t57.5 20.5t62.5 17l128 -76v212q-29 -1 -57.5 -7t-53 -14t-43 -17.5t-25.5 -17.5l42 -15v-55l-207 38
q23 61 63 93.5t87 49.5l-13 15q-10 11 -27.5 18.5t-41.5 7.5q-20 0 -45 -6h-3q-1 -1 -2 -1q-37 -16 -48 -29l43 -17v-57l-207 40q22 64 63 98.5t87 51.5q-5 10 -16 21t-26 20.5t-31 17.5t-31 13h-85v65h964v-65h-242v-107q27 -2 49.5 -6.5t39.5 -9.5l35 -11q25 -12 43 -28.5
t30 -38.5t19 -51t12 -66l-193 -44v44l38 23q-2 37 -13.5 58t-49.5 32zM512 333q33 5 61 6v25q-27 7 -59.5 18.5t-61.5 28t-49 37t-23 44.5h-96q1 -2 6.5 -9.5t11.5 -16t11.5 -15.5t8.5 -7q26 0 52.5 -5.5t51 -18.5t46.5 -34.5t40 -52.5zM573 492h-72q5 -34 72 -50v50z" />
    <glyph glyph-name="bn_k_ss_ba" horiz-adv-x="957" 
d="M718 -42l-292 30v19q0 41 11.5 73t31 57t46.5 43t58 31v33q-29 -1 -57.5 -7t-53 -14t-43 -17.5t-25.5 -17.5l42 -15v-55l-207 38q23 61 63 93.5t87 49.5l-13 15q-10 11 -27.5 18.5t-41.5 7.5q-20 0 -45 -6h-3q-1 -1 -2 -1q-37 -16 -48 -29l43 -17v-57l-207 40
q22 64 63 98.5t87 51.5q-5 10 -16 21t-26 20.5t-31 17.5t-31 13h-85v65h964v-65h-242v-107q27 -2 49.5 -6.5t39.5 -9.5l35 -11q25 -12 43 -28.5t30 -38.5t19 -51t12 -66l-193 -44v44l38 23q-2 37 -13.5 58t-49.5 32l-10 3v-332zM512 333q33 5 61 6v25q-27 7 -59.5 18.5
t-61.5 28t-49 37t-23 44.5h-96q1 -2 6.5 -9.5t11.5 -16t11.5 -15.5t8.5 -7q26 0 52.5 -5.5t51 -18.5t46.5 -34.5t40 -52.5zM573 492h-72q5 -34 72 -50v50zM576 91l-13 -13q-15 -21 -15 -23l28 -5v41z" />
    <glyph glyph-name="bn_k_ss_ma" horiz-adv-x="1140" 
d="M573 83v161q-29 -1 -57.5 -7t-53 -14t-43 -17.5t-25.5 -17.5l42 -15v-55l-207 38q23 61 63 93.5t87 49.5l-13 15q-10 11 -27.5 18.5t-41.5 7.5q-20 0 -45 -6h-3q-1 -1 -2 -1q-37 -16 -48 -29l43 -17v-57l-207 40q22 64 63 98.5t87 51.5q-5 10 -16 21t-26 20.5t-31 17.5
t-31 13h-85v65h1145v-65h-28v-541l-142 11v111q-191 -1 -244 -31q-25 -14 -44 -30.5t-32 -36.5l71 -34v-78l-226 62l2 10q5 22 15 48q8 21 22.5 47.5t37.5 52.5zM971 492h-253v-65q54 -3 90 -12l3 -1l3 -1l28 -6l2 -1q24 -9 41.5 -21t29.5 -30t20 -43t14 -59l-195 -34v47
l38 18q-1 8 -3.5 15.5t-8.5 14.5t-18 13t-31 11l-13 3v-164q87 29 204 29h24t25 -1v287zM512 333q33 5 61 6v25q-27 7 -59.5 18.5t-61.5 28t-49 37t-23 44.5h-96q1 -2 6.5 -9.5t11.5 -16t11.5 -15.5t8.5 -7q26 0 52.5 -5.5t51 -18.5t46.5 -34.5t40 -52.5zM573 492h-72
q5 -34 72 -50v50z" />
    <glyph glyph-name="bn_k_ss_ra" horiz-adv-x="965" 
d="M728 -169l-142 22v21q-15 10 -31.5 16t-35.5 6q-38 0 -86 -29q-26 -17 -51 -23t-48 -6q-31 -1 -55 8.5t-38 17.5l-16 9l-2 1l55 92v-1q2 0 3 -1l11 -4q13 -5 32 -10.5t39 -5.5q28 0 48 14q26 20 54 27.5t53 7.5q21 0 38 -5.5t28 -5.5v182q-60 -5 -111.5 -29t-76.5 -61
l51 -23v-54l-204 49q17 63 57 105t92 68q-3 9 -9 21.5t-16.5 23.5t-25.5 18.5t-35 7.5q-3 0 -9 -0.5t-13 -1t-13.5 -2.5t-9.5 -5h-1q-37 -22 -58 -55l51 -25v-57l-205 53q17 66 57 110.5t94 71.5q-15 45 -47 72t-63 41h-98v65h980v-65h-243v-108q27 -2 49.5 -6.5t39.5 -9.5
l35 -11q25 -12 43 -28.5t30 -38.5t19 -51t12 -66l-193 -44v44l38 23q-2 37 -13.5 58t-49.5 32l-10 3v-458zM524 261q16 3 31 5t29 3v53q-30 9 -62.5 24.5t-60.5 36.5t-48 48.5t-24 60.5h-107q4 -6 12.5 -20t16.5 -28.5t14.5 -25.5t8.5 -11q26 0 52.5 -7.5t51 -24.5t46.5 -45
t40 -69zM584 492h-73q8 -65 73 -87v87z" />
    <glyph glyph-name="bn_k_sa" horiz-adv-x="800" 
d="M-2 557h804v-65h-28v-492l-142 22v79q-41 6 -66 6q-18 0 -30.5 -3.5t-22.5 -14.5l-8 -9q-12 -16 -30.5 -35t-46 -35t-65 -27t-87.5 -11l-30 115l14 -2h11q14 0 32.5 2.5t36.5 12.5l-305 35q0 82 25.5 144t66.5 104.5t92.5 66.5t102.5 30v12h-324v65zM632 492h-193v-18
q30 -6 58 -19t51 -32.5t39 -45.5t23 -59l-93 -47q-35 72 -78 87v-162q55 36 126 36q35 0 67 -7v267zM322 162v201q-19 -5 -43.5 -18.5t-47 -34.5t-38 -49.5t-15.5 -63.5z" />
    <glyph glyph-name="bn_kh_ba" horiz-adv-x="586" 
d="M347 116q17 12 36.5 21.5t32.5 13.5v406h172v-65h-29v-594l-292 30v20q0 28 6 52t15 46l-235 40l27 20q21 15 46 39.5t47 57.5t37 74t15 89q-44 -12 -79 -12q-31 0 -55.5 6.5t-32.5 11.5l-4 2l-11 174l66 -18l20 -80q13 1 27.5 7.5t29 19.5t26 33.5t18.5 51.5l126 -33
l8 -27q6 -26 11 -70.5t5 -106.5q0 -55 -14 -102.5t-51 -97.5zM417 31l-13 -13q-15 -21 -15 -23l28 -5v41z" />
    <glyph glyph-name="bn_kh_ra" horiz-adv-x="586" 
d="M416 24l-363 62l27 20q21 15 46 39.5t47 57.5t37 74t15 89q-44 -12 -79 -12q-31 0 -55.5 6.5t-32.5 11.5l-4 2l-11 174l66 -18l20 -80q13 1 27.5 7.5t29 19.5t26 33.5t18.5 51.5l126 -33l8 -27q6 -26 11 -70.5t5 -106.5q0 -55 -14 -102.5t-51 -97.5l101 -29v461h171v-65
h-28v-492v-136l-143 22l-1 11l-10 7q-8 5 -22 9.5t-32 4.5t-40 -6t-48 -22q-26 -17 -51 -23t-48 -6q-31 0 -55 8t-38 18h-1q-13 8 -16 9l-1 1l55 92v-1q2 0 3 -1l11 -4q13 -5 32 -10.5t39 -5.5q28 0 48 14q26 20 54 27.5t53 7.5q17 0 38 -3t26 -8h1q1 -1 3 -1v20z" />
    <glyph glyph-name="bn_ga_ukaar" horiz-adv-x="663" 
d="M494 308l17 -3q16 -2 38 -8t41 -19t32.5 -34.5t13.5 -53.5q0 -39 -24.5 -72t-68 -56t-102 -36t-125.5 -13q-48 0 -102 6l-18 138l28 -6q25 -5 61.5 -9t71.5 -4q40 0 66.5 8t42.5 19t23 23t7 20q0 13 -6.5 21.5t-15.5 13.5t-19.5 7.5t-17.5 2.5q-14 0 -28.5 -2.5
t-24.5 -4.5l-8 -2l-16 91l17 2q23 4 43.5 9t36.5 13t25 20t9 30q0 20 -11.5 32t-27.5 20l-26 -35l-50 7q-9 25 -21.5 40t-26.5 23t-29.5 10t-29.5 2q-32 0 -52.5 -15t-27.5 -47h140l1 -3q2 -16 3.5 -30.5t1.5 -28.5q0 -38 -10.5 -71t-31.5 -59.5t-53 -44.5t-76 -25l-2 -1
l-75 118h7q63 0 89.5 21t26.5 69h-160v18q-1 1 -1 14q0 18 7.5 50.5t34.5 64.5q52 61 166 61h1q81 0 133 -40l27 52l23 -13q18 -10 44.5 -28t51.5 -41t43 -48.5t18 -49.5q0 -19 -8.5 -36.5t-21.5 -31.5t-28 -25.5t-27 -18.5z" />
    <glyph glyph-name="bn_g_ga" horiz-adv-x="608" 
d="M343 259q64 -9 103 -36v174q-7 14 -22 26t-33.5 20.5t-40 13.5t-41.5 5q-51 0 -78 -10t-35 -34h166q4 -17 5.5 -33.5t1.5 -30.5q0 -20 -5 -47.5t-21 -47.5zM120 234l-50 57l29 -1q15 -1 37.5 1.5t43 9.5t35 20t14.5 33v4h-194v28q0 165 245 168q110 -2 166 -41v44h164
v-65h-21v-572l-143 23v164q-7 14 -22 26t-33.5 20.5t-40 13.5t-41.5 5q-51 0 -78 -10t-35 -34h166q4 -17 5.5 -33.5t1.5 -30.5t-1.5 -30t-8 -33.5t-20 -35t-36.5 -34.5q-62 -40 -132 -46l-101 116l29 -1q15 -1 37.5 1.5t43 9.5t35 20t14.5 33v4h-194v28q0 98 85 138z" />
    <glyph glyph-name="bn_g_da" horiz-adv-x="858" 
d="M411 393q-23 38 -55 51.5t-68 13.5q-34 0 -58.5 -16.5t-32.5 -54.5h156q2 -20 3.5 -37t1.5 -34q0 -47 -15 -85.5t-41 -66t-60 -44.5t-73 -21l-82 128q5 -1 10 -1h10q23 0 44 4.5t37.5 16t26 31.5t9.5 50h-178q0 52 10 94t35.5 71.5t69.5 45.5t113 17q88 -3 137 -36v37
h449v-65h-306v-265q13 4 30.5 12t34.5 21t32.5 32t26.5 45l9 30l8 52h150l-5 -34q-5 -35 -11 -87t-6 -107q0 -31 2.5 -61t6 -54.5t7.5 -43t6 -26.5v-2h-150l-9 47q-5 23 -8.5 51.5t-4.5 61.5q-59 -40 -118 -46l-1 -1q-5 -1 -19.5 -1.5t-33 -1t-38 -0.5h-32.5h-20v279z" />
    <glyph glyph-name="bn_g_dha" horiz-adv-x="785" 
d="M787 492h-233v-246q20 8 38.5 26.5t30.5 44.5h136q-4 -27 -5.5 -55.5t-1.5 -57.5q0 -42 1 -81.5t2 -65.5l1 -26l-128 15l-3 135q-36 -25 -71 -33v-169l-370 38v8q1 69 24.5 118.5t58 82.5t73.5 51t71 24v115q-40 61 -131 61q-40 0 -64.5 -13.5t-35.5 -48.5h152
q2 -14 3 -26.5t1 -24.5q0 -29 -11.5 -54.5t-32.5 -44.5t-51 -29.5t-67 -10.5l-32 -3l-49 70q5 -1 15 -1q16 0 33.5 5t32 14.5t23.5 25t9 36.5h-158v30q0 18 7.5 44t30.5 49.5t65 40.5t111 17q100 -3 149 -36v40h376v-65zM412 189q-16 -6 -32.5 -17.5t-31 -27t-24.5 -33.5
t-13 -36l101 -18v132z" />
    <glyph glyph-name="bn_g_dh_ba" horiz-adv-x="783" 
d="M433 -54v61q-10 -2 -34 -29l-16 -23zM335 71q25 19 51 30.5t40 13.5v78q-17 -4 -35.5 -15t-35 -27t-29 -35.5t-15.5 -40.5zM554 -142l-292 30v19q0 56 21 100l-99 10v8q1 69 24.5 118.5t58 82.5t73.5 51t71 24v115q-40 61 -131 61q-40 0 -64.5 -13.5t-35.5 -48.5h152
q2 -14 3 -26.5t1 -24.5q0 -29 -11.5 -54.5t-32.5 -44.5t-51 -29.5t-67 -10.5l-32 -3l-49 70q5 -1 15 -1q16 0 33.5 5t32 14.5t23.5 25t9 36.5h-158v31q0 18 7.5 43.5t30.5 49t65 40.5t111 17q100 -3 149 -36v40h376v-65h-233v-246q20 8 38.5 26.5t30.5 44.5h136
q-4 -27 -5.5 -55.5t-1.5 -57.5q0 -27 0.5 -54t1.5 -50.5t1.5 -41.5t0.5 -25v-2l-128 15l-3 135q-36 -25 -71 -33v-290z" />
    <glyph glyph-name="bn_g_dh_ra" horiz-adv-x="783" 
d="M785 492h-231v-246q20 8 38.5 26.5t30.5 44.5h136q-4 -27 -5.5 -55.5t-1.5 -57.5q0 -27 0.5 -54t1.5 -50.5t1.5 -41.5t0.5 -25v-2l-128 15l-3 135q-36 -25 -71 -33v-327l-142 22l-1 11l-10 7q-8 5 -22 9.5t-32 4.5t-40 -6t-48 -22q-26 -17 -51 -23t-48 -6q-31 0 -55 8
t-38 18h-2q-11 7 -15 9l-1 1l55 92v-1q2 0 3 -1l11 -4q13 -5 32 -10.5t39 -5.5q28 0 48 14q26 20 54 27.5t53 7.5q22 0 43 -4t25 -8v33l-228 23v8q1 69 24.5 118.5t58 82.5t73.5 51t71 24v115q-40 61 -131 61q-40 0 -64.5 -13.5t-35.5 -48.5h152q2 -14 3 -26.5t1 -24.5
q0 -29 -11.5 -54.5t-32.5 -44.5t-51 -29.5t-67 -10.5l-32 -3l-49 70q5 -1 15 -1q16 0 33.5 5t32 14.5t23.5 25t9 36.5h-158v31q0 18 7.5 43.5t30.5 49t65 40.5t111 17q100 -3 149 -36v40h374v-65zM426 54v139q-17 -4 -35.5 -15t-35 -27t-29 -35.5t-15.5 -40.5z" />
    <glyph glyph-name="bn_g_na" horiz-adv-x="633" 
d="M464 387q-19 29 -53.5 51t-94.5 22q-12 0 -27.5 -1.5t-31 -7t-28 -16.5t-17.5 -31h169v-5q2 -15 3 -29.5t1 -28.5q0 -16 -1.5 -33.5t-7.5 -36.5t-19 -38.5t-37 -38.5q-62 -44 -134 -52l-94 121l21 -1q132 0 132 81v2h-193v39q0 74 62 121t184 49q110 -2 166 -44v47h170
v-65h-28v-564l-142 22v143q-52 -8 -106 -59l45 -19v-89l-208 53q12 41 23 68.5t25.5 47.5t32.5 34.5t43 28.5q75 42 145 45v184z" />
    <glyph glyph-name="bn_g_ba" horiz-adv-x="633" 
d="M463 -20v131q-17 -6 -33.5 -17.5t-30 -27t-23.5 -33t-13 -35.5zM463 224v163q-20 30 -53.5 51.5t-93.5 21.5q-12 0 -27.5 -1.5t-31 -7t-28 -16.5t-17.5 -31h169v-5q2 -15 3 -29.5t1 -28.5q0 -16 -1.5 -33.5t-7.5 -36.5t-19 -38.5t-37 -38.5q-62 -44 -134 -52l-94 121
l21 -1q132 0 132 81v2h-193v39q0 74 62 121t184 49q109 -1 165 -44v47h171v-65h-28v-590l-370 38v8q1 58 19.5 105t49 82t71.5 57.5t87 31.5z" />
    <glyph glyph-name="bn_g_ma" horiz-adv-x="790" 
d="M414 517v40h377v-65h-28v-492l-142 11v182q-16 -1 -36.5 -7t-40.5 -15.5t-38.5 -23.5t-29.5 -31l71 -34v-78l-226 62l2 10q0 1 4 16.5t14 39.5t28 53t45 56v175q-40 61 -131 61q-40 0 -64.5 -13.5t-35.5 -48.5h153q2 -14 3 -26t1 -23q0 -30 -11.5 -55.5t-32.5 -44.5
t-51 -30t-68 -11l-32 -3l-49 70q5 -1 15 -1q16 0 33.5 5t32 14.5t23.5 25t9 36.5h-158v30q0 18 7.5 44t30.5 49.5t65 40.5t111 17q99 -3 149 -36zM621 325v167h-64v-176q30 8 64 9z" />
    <glyph glyph-name="bn_g_ra" horiz-adv-x="633" 
d="M635 492h-29v-564l-142 22v15q-15 9 -31 14.5t-36 5.5q-18 0 -39 -6.5t-46 -21.5q-26 -17 -51 -23t-48 -6q-31 -1 -55 8.5t-38 17.5l-16 9l-2 1l55 92v-1q2 0 3 -1l11 -4q13 -5 32 -10.5t39 -5.5q28 0 48 14q26 20 52.5 27.5t52.5 7.5q20 0 37.5 -3t31.5 -8v287
q-23 43 -57.5 68t-90.5 25q-43 0 -69 -18t-37 -66l171 1q2 -20 3.5 -38t1.5 -35q0 -52 -16 -93.5t-43.5 -71.5t-64 -47.5t-77.5 -22.5l-85 133q5 -1 9 -1h9q21 0 43.5 4.5t41 16.5t30.5 33t12 54v10h-193v40q0 23 8 57t34 66t74.5 55t129.5 24q111 -3 166 -53v57h171v-65z
" />
    <glyph glyph-name="bn_g_ra_ukaar" horiz-adv-x="887" 
d="M606 262q19 -10 34.5 -13.5t27.5 -3.5q21 0 33.5 10t19.5 24.5t9 29.5t2 25v11l125 10v-2q2 -4 2.5 -16.5t0.5 -26.5q0 -20 -4.5 -45.5t-18.5 -47.5t-39.5 -37t-66.5 -15q-38 0 -71.5 12t-53.5 22v-271l-143 22v15l-9 6q-8 5 -22 9.5t-32 4.5t-40 -6t-48 -22
q-26 -17 -51 -23t-48 -6q-31 -1 -55 8.5t-38 17.5l-16 9l-2 1l55 92v-1q2 0 3 -1l11 -4q13 -5 32 -10.5t39 -5.5q28 0 48 14q26 20 54 27.5t53 7.5q21 0 38 -5.5t28 -5.5v287q-22 43 -56 68t-91 25q-43 0 -69 -18t-37 -66l171 1q2 -20 3.5 -38t1.5 -35q0 -52 -16 -93.5
t-43.5 -71.5t-64 -47.5t-77.5 -22.5l-85 133q5 -1 9 -1h9q21 0 43.5 4.5t41 16.5t30.5 33t12 54v10h-193v40q0 23 8 57t34 66t74.5 55t129.5 24q112 -3 165 -53v57h426v-65h-283v-230z" />
    <glyph glyph-name="bn_g_ra_uukaar" horiz-adv-x="890" 
d="M606 338l258 71l-11 -54q-7 -32 -11.5 -72.5t-4.5 -85.5q0 -62 17 -125l-137 22l-5 31q-3 17 -5.5 39.5t-2.5 48.5q0 20 1.5 39.5t5.5 39.5l-105 -18v-346l-143 22v15l-9 6q-8 5 -22 9.5t-32 4.5t-40 -6t-48 -22q-26 -17 -51 -23t-48 -6q-31 -1 -55 8.5t-38 17.5l-16 9
l-2 1l55 92v-1q2 0 3 -1l11 -4q13 -5 32 -10.5t39 -5.5q28 0 48 14q26 20 54 27.5t53 7.5q21 0 38 -5.5t28 -5.5v287q-22 43 -56 68t-91 25q-43 0 -69 -18t-37 -66l171 1q2 -20 3.5 -38t1.5 -35q0 -52 -16 -93.5t-43.5 -71.5t-64 -47.5t-77.5 -22.5l-85 133q5 -1 9 -1h9
q21 0 43.5 4.5t41 16.5t30.5 33t12 54v10h-193v40q0 23 8 57t34 66t74.5 55t129.5 24q112 -3 165 -53v57h428v-65h-285v-154z" />
    <glyph glyph-name="bn_g_la" horiz-adv-x="633" 
d="M268 -78l-178 44q9 41 21 71t28.5 51t37 35t44.5 25q-18 -4 -35 -6l-94 121l21 -1q132 0 132 83h-193v39q0 74 62 121t184 49q109 -1 165 -44v47h171v-65h-28v-564l-142 22v55l-163 -41v88q0 3 -4 3q-14 -2 -27 -6.5t-23.5 -11t-17.5 -13t-9 -11.5l48 -19v-72zM463 120
v267q-20 30 -53.5 51.5t-93.5 21.5q-12 0 -27.5 -1.5t-31 -7t-28 -16.5t-17.5 -31h169v-5q2 -15 3 -29.5t1 -28.5q0 -19 -2.5 -42t-14.5 -47.5t-37.5 -48.5t-70.5 -43q12 4 31 4q15 0 29.5 -6t26 -17t19 -25.5t8.5 -32.5z" />
    <glyph glyph-name="bn_gh_na" horiz-adv-x="558" 
d="M389 156v336h-208q6 -43 68 -69q31 7 60 7q8 0 15 -0.5t14 -1.5l6 -114l-10 1q-34 0 -58.5 -14.5t-41 -35t-24.5 -42t-8 -35.5zM389 87l-334 34v15q0 142 76 218q-76 40 -76 136v2h-58v65h564v-65h-30v-643l-142 22v100q-46 -6 -57 -17l30 -10v-89l-214 40q31 81 59 109
q27 28 74.5 48t107.5 23v12z" />
    <glyph glyph-name="bn_gh_ba" horiz-adv-x="558" 
d="M410 72v62q-1 0 -8.5 -6.5t-16.5 -15.5t-16.5 -17.5t-7.5 -13.5zM288 173q25 28 54.5 44t46.5 21v254h-208q6 -43 68 -69q31 7 60 7q8 0 15 -0.5t14 -1.5l6 -114l-10 1q-34 0 -58.5 -14.5t-41 -35t-24.5 -42t-8 -35.5zM531 -16l-292 30v20q0 38 10 68l-194 19v15
q0 142 76 218q-76 40 -76 136v2h-58v65h563v-65h-29v-508z" />
    <glyph glyph-name="bn_gh_ra" horiz-adv-x="559" 
d="M390 492h-209q5 -38 27.5 -60.5t42.5 -32.5q31 9 59 9q15 0 29 -3l6 -122q-2 0 -5 0.5t-5 0.5q-38 0 -63.5 -21.5t-40.5 -49.5t-21.5 -54t-6.5 -36l187 -38v407zM560 492h-28v-641l-143 22v19l-5 3q-8 5 -22 9.5t-32 4.5t-40 -6t-48 -22q-26 -17 -51 -23t-48 -6
q-31 -1 -55 8.5t-38 17.5l-16 9l-2 1l55 92v-1q2 0 3 -1l11 -4q13 -5 32 -10.5t39 -5.5q28 0 48 14q26 20 54 27.5t53 7.5q20 0 35.5 -3t26.5 -7v20l-333 39q0 87 19.5 150.5t61.5 119.5q-25 16 -41 36t-25 41.5t-12 42.5t-3 39v7h-58v65h562v-65z" />
    <glyph glyph-name="bn_ng_ka" horiz-adv-x="653" 
d="M655 492h-73l-3 -10q-3 -9 -9 -21t-17.5 -23t-28.5 -19t-42 -8t-42.5 8t-28.5 19t-17 23t-8 20l-2 11h-71q2 -4 3.5 -7.5t3.5 -7.5q25 -3 44.5 -13t33.5 -23t22.5 -26t13.5 -23l6 -13v-4q19 -5 46 -15.5t55.5 -28.5t55 -44t44.5 -62l-123 -53q-35 73 -78 86v-268l-404 46
q0 33 11 78.5t41.5 91t87 84.5t148.5 59q0 31 -42 31q-33 0 -73.5 -17.5t-87.5 -49.5l-44 90l14 14q14 14 44.5 30t78.5 26q-8 5 -16.5 10t-16.5 9h-183v65h439v-6q0 -5 1 -12.5t4.5 -15.5t10 -13.5t17.5 -5.5q9 0 14.5 5t8.5 12.5t4 16t1 14.5v5h157v-65zM324 62v171
q-47 -7 -75.5 -27t-44 -42t-20.5 -41.5t-5 -25.5z" />
    <glyph glyph-name="bn_ng_k_ra" horiz-adv-x="648" 
d="M324 70v163q-47 -7 -75.5 -27t-44 -42t-20.5 -41.5t-5 -25.5l119 -29v2h26zM298 6l-262 30q0 33 11 78.5t41.5 91t87 84.5t148.5 59q0 31 -42 31q-33 0 -73.5 -17.5t-87.5 -49.5l-44 90l14 14q14 14 44.5 30t78.5 26q-8 5 -16.5 10t-16.5 9h-183v65h439v-5q0 -5 1 -13.5
t4.5 -16t10 -13t17.5 -5.5q9 0 14.5 5t8.5 12.5t4 16t1 14.5v5h151v-65l-67 -1q-5 -5 -9.5 -18t-14.5 -27t-27.5 -24.5t-48.5 -10.5q-27 0 -45.5 9t-30 21.5t-16.5 25.5t-5 21l-1 4h-71q2 -4 3.5 -7.5t3.5 -7.5q25 -3 44.5 -13t33.5 -22.5t22.5 -26t13.5 -22.5l4 -10
q1 -1 1 -3l1 -5q19 -5 46 -15.5t55.5 -28.5t55 -44t44.5 -62l-123 -53q-35 73 -78 86v-402l-142 22v12l-21 -2q-14 -2 -29.5 -9t-32.5 -17q-26 -16 -51 -22.5t-48 -6.5q-31 -1 -55 8.5t-38 17.5l-16 9l-2 1l55 92v-1q2 0 3 -1l11 -4q13 -5 32 -10.5t39 -5.5q16 0 30 6
t27.5 13.5l27 15t27.5 10.5q19 4 41 4v18z" />
    <glyph glyph-name="bn_ng_kha" horiz-adv-x="753" 
d="M582 70v487h174v-57h-30v-505l-457 64l22 18q17 14 38 36.5t39.5 52.5t31 66.5t12.5 78.5l-20 -6q0 -18 -8 -38t-25 -36.5t-43.5 -27t-62.5 -10.5h-25q-36 0 -70.5 7t-61.5 25t-43 48t-16 76v65l109 -25v-63q0 -33 23.5 -57t57.5 -24h2q26 0 44 18t18 44v23
q-8 -2 -13.5 -3t-10.5 -2l-21 -1q-15 -1 -29 5t-24 16.5t-16 24.5t-6 29v27l-77 32q-49 28 -49 78v33l101 -12v-52q0 -17 16 -26l9 -5v71h55h13q20 0 41.5 -2.5t39.5 -11t29.5 -25t11.5 -44.5q0 -10 -2.5 -23t-12.5 -25t-28.5 -20.5t-49.5 -8.5q-6 0 -9 1v-7q2 -10 5 -13h1
q2 -1 4.5 -2t5.5 -1q9 0 29 6t58 23l23 8q27 19 27 82v19l110 -26l9 -39q8 -35 15.5 -82.5t7.5 -98.5q0 -44 -12.5 -82.5t-41.5 -79.5zM259 479v-27q2 0 3 -0.5t3 -0.5q10 0 11.5 4.5t1.5 8.5q0 8 -4.5 10.5t-14.5 4.5z" />
    <glyph glyph-name="bn_ng_ga" horiz-adv-x="682" 
d="M439 338q4 0 10 4.5t12.5 10.5l13 12t10.5 10q11 11 25.5 28.5t32.5 42.5l119 -55q-12 -10 -28.5 -36.5t-31 -65t-25 -85.5t-10.5 -99q0 -38 5.5 -78.5t16.5 -84.5l-144 31q-5 34 -8 66.5t-3 64.5v18t1 18l-58 -59q-89 -59 -160 -59q-28 0 -54.5 9t-49.5 23.5t-41 32.5
t-28 35l60 69q16 -18 29 -27.5t23.5 -14t21 -5.5t22.5 -1q20 0 39.5 5t35.5 16q2 1 10.5 8.5t17.5 20t16 29.5t7 39q0 36 -15.5 55.5t-35 29t-36.5 11t-21 1.5l-5 -8q-4 -8 -9.5 -17.5t-9.5 -17.5l-4 -8l81 -8l-20 -53h-200l104 222h21q6 0 13.5 0.5t15.5 0.5q16 0 34.5 -1
t37 -3.5t35.5 -7t30 -10.5q32 -17 57.5 -47t39.5 -62zM-2 557h427v-7q0 -7 1 -17.5t4.5 -20t10.5 -16.5t20 -7q12 0 19 7t11 16.5t5.5 20t1.5 17.5v7h186v-65h-134l-3 -9q-2 -8 -8 -21.5t-18.5 -26t-32 -21.5t-47.5 -9q-16 0 -29.5 8t-23.5 19.5t-17 24t-11 22.5l-5 13h-357
v65z" />
    <glyph glyph-name="bn_ng_ga.alt" horiz-adv-x="908" 
d="M910 492h-29v-491l-143 22v334q-21 45 -59 69.5t-91 24.5q-42 0 -68 -18t-37 -66h172q6 -38 6 -71q0 -54 -17 -96.5t-45.5 -72.5t-65 -47.5t-76.5 -22.5l-84 133q-20 -15 -46.5 -22t-51.5 -7h-90q-31 0 -57.5 11.5t-46 31t-31 46t-11.5 56.5v91l105 -44v-54
q0 -38 26.5 -64.5t64.5 -26.5h3q28 0 48 20t20 49v27q-12 -3 -21.5 -4.5t-10.5 -2.5h-18q-35 0 -59.5 24.5t-24.5 59.5v29l-78 37q-55 31 -55 86v46l105 -22v-58q0 -9 4 -17t14 -13l27 -13q0 5 -2.5 10t-2.5 10v4q0 5 -1 6h-6l-4 4v3q0 3 -1.5 6t-1.5 7v10q-1 1 -1 4h-4l2 7
q1 1 1 3q-2 6 -2 8t0.5 2.5t0.5 1.5v2q0 3 1 4v3q0 8 3 16l4 9l4 5q0 1 1 2l3 4q3 1 3 4l3 1q-2 0 -2 1h-3l2 2l3 2q2 0 3 1h2v-2q2 0 3 -1h2q0 -1 1 -2v-1q-3 0 -5.5 -1t-4.5 -2l-3 -2h3q1 1 2 1t1.5 -0.5t1.5 -0.5l-7 -8q2 -2 3 -2t1.5 0.5t2.5 0.5l-2 -2l-1 -2q1 1 2 1
t3 1l8 3h4q1 1 2 1t3 1l4 -4q3 -3 3 -6v-2l-1 -1q-7 -5 -7 -10q0 -1 2 -1t3 1l1 1q2 0 5 1.5t6 1.5l9 -2q2 0 5 -0.5t5 -1.5h2q1 -1 4 -1h2q2 -2 4 -1.5t4 -1.5h1q0 -1 0.5 -1t0.5 -1l-1 -1l-1 -1q-1 -1 -1 -2l2 -2q1 1 3 1l-2 3q1 1 3 1v2l3 2h6l2 -2q10 0 17 -4q1 1 2 1
l2 -1q6 -2 7 -6h2v2q0 4 -1 6v1q0 1 -0.5 1.5t-0.5 1.5l1 1l-1 1q-1 1 -1 2h2q2 0 3 -5l4 -6l5 4l2 -1l3 -3q0 4 -2.5 5t-2.5 3l-1 1q1 1 1 5h3q2 -2 3 -2.5t1 -4.5v-3q1 -1 1 -4l-1 -26q0 -8 -4 -16v-3l-4 -5h-4t-4 4h-3l-1 4l-1 2q0 -5 -3 -6q-9 2 -20.5 5t-14.5 14l-4 10
q-1 1 -3 1q-4 0 -5 -3l-5 -7l-1 -1q-2 -4 -6.5 -5.5t-7.5 -1.5l-8 -2q-4 -2 -7 -1.5t-6 -1.5h-1l2 -4l-4 -3l-2 2l-2 -1l3 -3l7 -1l3 -1l-4 -1q-1 0 -1 -2l2 -2h2q3 3 7 3q0 -4 -1.5 -4.5t-1.5 -2.5v-2q-4 -4 -4 -6q0 -1 0.5 -1t0.5 -1l6 3l3 -2q1 0 2 -1l5 2l1 -2q1 0 2 1
v1q1 1 1 2l2 1l-1 -5l4 3q1 1 2 1l-3 2q-1 0 -2 1l1 1l1 1h-6v-2q-1 -1 -2 -1q0 3 -2 3t-2 2v5q2 4 2 5t-0.5 1.5t-0.5 2.5l-1 -4q-1 0 -2 -1l-3 -2q-1 0 -1 2q0 1 1 2l7 6q1 3 4 4l4 2q2 1 4.5 2.5t4.5 3.5l2 1q-1 -2 -1 -7q0 -3 2 -9l1 -1l6 -2q2 -1 5 -2l9 -4l-3 -6
l-6 -4q-1 1 -3 1l4 -10h1q1 -1 2 -1l3 -2q2 -2 3.5 -1t5.5 -1l2 -2q1 -1 1 -2l2 -3l-4 -5q-1 -1 -3 -1h-1q-2 0 -3 1l-5 3q0 1 -1 2h-4q-5 0 -12 3q-4 1 -9 3l-2 -1l2 -4h-4q-1 1 -3 1l4 -3l1 1l2 -1q5 0 6 -3h9l4 -3v-6l-2 -2h-10q-6 0 -12 2l-7 1l-2 3q0 1 1 2q-1 0 -2 1
l-3 -1q-2 1 -3 1t-2 1v-4l4 -1l1 -1q0 -2 1 -3v-4l3 -2v-4q7 0 8 -4q1 0 2 1l1 1h4q9 0 15 -6h4q5 0 7 -2l2 3q6 5 9 10l5 5l2 -2l-1 -1q0 -1 -1 -2v-1q-1 -1 -1 -2l-2 -3q-1 -1 -2 -4t-1 -5v-3v-2q0 -1 -1 -2l-10 -11l2 2l4 1q0 -5 -7 -7.5t-11 -6.5l-1 -2h-1l6 -2
q4 4 10 6l5 5q2 5 4 8t2 8v2l1 2l1 -2q1 0 1 -2v-12l-4 -5q-5 -4 -6 -7t-9 -7v-33q1 -9 6 -14l1 -1q0 -3 11 -3q6 0 17 3l18 5q0 14 3 34.5t12 43t25.5 45t44 40.5t67.5 29.5t95 11.5q112 -3 167 -53v58h172v-65zM518 309h-107v-29q0 -9 -0.5 -21t-4.5 -24.5t-11.5 -24
t-20.5 -19.5h9q22 0 46 4t44 15.5t32.5 32.5t12.5 56v10zM195 599v2q-1 0 -2 1q2 2 5.5 2t5.5 2l2 -1l5 3q2 2 6.5 2.5t6.5 2.5l10 3q0 1 3.5 2t5.5 1t4.5 -0.5t4.5 -0.5l5 1l5 -2q2 1 6 1q2 0 4 -2l11 -1q3 -3 5.5 -3t5.5 -3l9 -6l3 -5q-2 -2 -6 -2h-2q-1 1 -1 2l-5 -1v3
l1 1l-6 -4h-4q-2 2 -4 2l-4 5q0 1 -1 2h2q2 2 1 3t1 3l-6 -5v-3l-2 3l-5 -2l-1 2l7 4l-4 5l-4 -4l-2 -7l-2 -1q-1 -1 -2 -1q-2 0 -2 1v3l-1 -2l1 -1l-3 -1q-1 1 -1 3l-4 -2q-5 -5 -12 -5q-3 0 -4 1l-1 -2h-1q-1 -1 -3 -1h-3q-1 1 -1 2v2h-5l3 -1q1 -1 1 -3l-6 -2
q-1 -1 -2 -1t-3 -1q2 4 2 5l1 1l-4 4q-1 0 -2 -1l-2 -5q-3 0 -5 0.5t-4 0.5zM186 498q1 0 2 1l3 7q-1 1 -1 4q0 5 5 5l3 1q2 2 5 3.5t5 3.5q0 5 -3 10l-2 1l-1 -3q-1 0 -2.5 1t-3.5 1l-4 -9q0 -2 -2 -6l-1 -2l-3 1l-1 -2q0 -2 1 -3v-2q-1 -1 -1 -3t1 -3v-6zM291 519
q-2 0 -2.5 0.5t-2.5 0.5t-3 -0.5t-2 -0.5l-3 1h-1q-1 0 -2 1l-1 1q2 -10 9.5 -12.5t15.5 -2.5q5 0 6 4q-3 2 -6.5 4t-7.5 4zM183 541h2q2 0 5.5 2t7.5 2h4l1 5q1 1 1 5l-17 -5q0 -3 -2 -5l-2 -1v-3zM223 522q-4 0 -6 1h-2q1 -5 5.5 -5.5t8.5 -0.5h3q1 -1 4 -1q7 0 12 6l1 1
q0 1 -1 2q-2 -2 -8 -3t-9 -1h-1q-4 0 -5 1h-2zM304 523l-2 1l-2 1q0 1 -2 1l5 -10l4 -3l3 3q0 2 1 3q-1 1 -1 2v3q0 8 1 12l-2 1h-2q2 -2 2 -5v-3q0 -1 -1 -2l-1 -2l-2 -2h-1zM242 503q2 -2 5 -2q1 0 5 2q0 8 -4 9l-4 -2q-2 0 -4 -2q0 -3 2 -5zM197 484l-2 2q2 2 2 6.5v9.5
h-3q0 -4 -1 -5.5t-1 -4.5q0 -4 1 -5q-1 -1 -1 -2l-1 -1q1 -2 1 -4.5t2 -4.5v3q0 5 3 6zM278 507q4 -2 6.5 -8.5t4.5 -6.5l-1 -2l-3 1q-1 1 -1 2l-3 4q-1 2 -2 4.5t-1 5.5zM249 534q-1 -1 -2 -1l-8 3q-2 0 -3 1l-2 -3l6 -2t7 -3l2 1q2 0 3 1zM212 519l-1 -1q-3 -2 -3 -3
t0.5 -1.5t0.5 -1.5q2 0 8 2l4 2l-6 2q-2 0 -3 1zM214 479v-8q4 1 4 5l2 4l-2 2l2 2h-2q-3 -3 -3 -4zM295 440l2 -2q2 -2 2 -4t1 -3l4 -9h-1q-2 3 -4.5 6.5t-3.5 7.5v4zM306 590l-2 4q2 0 3 1h3l4 -6h-4q-1 1 -1 2q-1 0 -2 -1h-1zM215 533h-2q-1 -1 -2 -1l2 -8q2 2 2.5 1.5
t0.5 1.5v1q0 3 -1 5zM240 540q-3 5 -9 5q-3 0 -4 -1l6 -2t7 -2zM273 532v-7q1 0 2 0.5t3 0.5t3 1l-1 2h-5v3h-2zM288 606l-6 -6l2 -2q1 1 2 1l3 7h-1zM291 538h-2q-3 0 -4 -1q2 -2 5.5 -1t7.5 -3q-1 5 -7 5zM287 514h-1q-4 0 -5 4q3 0 5 -1t4 -1l-1 -2q0 -1 -1 -1zM255 478
l-1 -2l1 -1q2 0 3 -1l3 1q-1 3 -4 3h-2zM318 507v-2q-1 -1 -1 -2q0 -2 1 -2q1 1 3 1l-1 3zM292 450h-4v3q1 0 2 1l3 1q-1 -2 -1 -5zM284 606l-5 -1q-1 -1 -1 -2l5 1q1 1 1 2zM304 589q-2 -2 -4 -2t-3 2h7zM218 569q-4 0 -6 -2l3 -2q0 1 1 2zM294 529q0 1 -1 2l-1 -1
q0 -2 -1 -3h3v2zM291 545l3 -1q1 -1 3 -1v1q-2 1 -6 1zM179 575l5 3h-3zM198 602v-1q1 0 2 -1h2q-2 2 -3 2h-1zM260 617l-2 -1l-1 -1q1 0 2 -1h1v3zM234 548q-2 2 -4 2h-1q2 -2 5 -2zM188 579q-1 1 -2 1l-1 -2q2 0 3 1zM237 456v-2q0 -1 1 -1q1 1 1 2h-1zM325 567q-1 1 -2 1
l-1 2q3 0 3 -3zM307 537q-1 1 -5 1l1 -1h4zM240 554l-3 1v-1q1 -1 2 -1zM272 615l-2 -1h1zM171 549l4 1zM268 603l2 1l-1 -1h-1zM265 611l1 -1h-1v1zM310 396l-2 3q2 -1 2 -3z" />
    <glyph glyph-name="bn_ng_g_ra" horiz-adv-x="671" 
d="M426 -105q-8 10 -22.5 16t-33.5 6q-18 0 -40 -7t-47 -22q-26 -17 -51 -23t-48 -6q-31 0 -55 8t-38 18h-1q-13 8 -16 9l-1 1l55 92v-1q2 0 3 -1l11 -4q13 -5 32 -10.5t39 -5.5q28 0 48 14q26 20 54 27.5t53 7.5q17 0 38 -3t26 -8h1q1 -1 3 -1l-1 138l-58 -59
q-89 -59 -160 -59q-28 0 -54.5 9t-49.5 23.5t-41 32.5t-28 35l60 69q16 -18 29 -27.5t23.5 -14t21 -5.5t22.5 -1q20 0 39.5 5t35.5 16q2 1 10.5 8.5t17.5 20t16 29.5t7 39q0 36 -15.5 55.5t-35 29t-36.5 11t-21 1.5l-1 -1q0 -1 -1 -2l-2 -5q-7 -11 -15 -25t-8 -17l-1 -1
l81 -8l-20 -53h-200l104 222h3h6.5t11.5 1q15 0 36.5 -0.5t45 -2.5t45.5 -6.5t39 -12.5q32 -17 57.5 -47t39.5 -62q4 0 10 4.5t12.5 10.5l13 12t10.5 10q11 11 25.5 28.5t32.5 42.5l119 -55q-12 -11 -28.5 -38t-31.5 -65t-25 -85.5t-10 -98.5v-13.5t1 -13.5v-215l-142 22v11
zM-2 557h428l-1 -7q0 -7 1 -17.5t4.5 -20t10.5 -16.5t20 -7q12 0 19 7t11 16.5t5.5 20t1.5 17.5v7h175v-65l-123 -1q-3 -3 -7.5 -17t-15.5 -29t-31 -27.5t-55 -12.5q-16 0 -29.5 8t-23.5 19.5t-17 24.5t-10 22l-5 11q-1 1 -1 2h-357v65z" />
    <glyph glyph-name="bn_ng_ma" horiz-adv-x="770" 
d="M336 435q7 0 9 11v10q-4 5 -17 7v-27zM443 492q9 -23 9 -50q0 -44 -29 -73.5t-88 -29.5l-7 1l-1 -17q2 -14 10 -15.5t9 -1.5q34 0 148 54v-126q48 26 109 31v227h-160zM773 557v-65h-28v-515l-142 11v145q-28 -2 -59.5 -20t-57.5 -57l71 -34v-78l-226 62l2 10q1 1 2 8
t6 20l12 32q-18 -3 -37 -3h-33q-48 0 -91 9.5t-75.5 33.5t-51 64.5t-18.5 103.5v90l131 -34v-87q0 -21 8 -39.5t22.5 -32.5t33.5 -22t41 -8q34 0 56.5 22t22.5 54v26q-24 -6 -56 -6q-42 0 -72.5 30t-30.5 85v32l-89 30q-67 37 -67 106v58l131 -27v-72q0 -19 20 -19l5 -3v90
h570z" />
    <glyph glyph-name="bn_ng_ra" horiz-adv-x="584" 
d="M394 447q-8 10 -28 11v-41q3 -1 6.5 -1h5.5q13 0 14.5 7.5t1.5 15.5v8zM389 2q-8 -1 -16 -1.5t-16 -0.5h-39q-55 0 -103.5 10.5t-85 37.5t-57.5 73t-21 117v98l142 -37v-96q0 -26 10 -48.5t27 -39t39.5 -26t47.5 -9.5h3q39 0 66.5 27t27.5 66v36q-21 -11 -36 -13l-10 -2
h-23q-24 0 -45 13.5t-36 34.5t-24 46t-9 48v40l-105 50q-75 42 -75 118v39l142 -29v-57q0 -27 25 -40l13 -7v107h85h13q28 0 59.5 -3.5t58.5 -16t44.5 -38t17.5 -68.5q0 -15 -3.5 -35t-16.5 -38t-39 -30.5t-71 -12.5q-8 0 -13 1l-1 -33q2 -17 11 -20.5t14 -3.5q14 0 44 9
t88 35l35 16v-141q0 -26 -4 -48.5t-21 -45.5v-253l-142 22v19q-12 7 -27 12t-34 5t-40.5 -6t-46.5 -22q-26 -17 -51 -23t-48 -6q-31 -1 -55 8.5t-38 17.5l-16 9l-2 1l55 92v-1q2 0 3 -1l11 -4q13 -5 32 -10.5t39 -5.5q28 0 48 14q26 20 54 27.5t53 7.5q20 0 35.5 -3t26.5 -7
v25z" />
    <glyph glyph-name="bn_c_nya" horiz-adv-x="703" 
d="M530 292v-212q35 5 51.5 22t16.5 33v4h-49v36h19q20 11 26 29t6 40q-2 26 -18.5 38t-36.5 12q-5 0 -15 -2zM279 396l-109 29v-155l16 6q11 4 25.5 13t28.5 23t25 35t14 49zM351 136l-118 14q0 26 3 49q-48 -20 -89.5 -26.5t-68.5 -6.5h-27v326h-52v65h707v-65h-536v-19
l232 -36q-4 -34 -14 -65q36 8 68 12t53 3l21 -1v-22q8 1 15.5 1.5t15.5 0.5q31 0 53 -14t36 -33.5t20 -42t6 -38.5q0 -25 -5 -45l-4 -16l-1 -2h25v-16q-1 -16 -7 -40t-22.5 -48t-48 -43.5t-83.5 -26.5v-57l-142 22v68l-152 -73q-63 20 -103.5 62t-48.5 98q27 10 56.5 21.5
t46.5 18.5q0 -17 5 -34.5t16 -33t28.5 -27.5t41.5 -18l110 38v193q-19 -9 -30 -23.5t-16.5 -28t-7 -23t-1.5 -10.5l33 -10z" />
    <glyph glyph-name="bn_c_ra" horiz-adv-x="499" 
d="M502 492h-303v-28l284 -52q-8 -66 -25 -122t-44 -92v-308l-142 22v24h-7q-26 -4 -62 -26q-26 -17 -51 -23t-48 -6q-31 0 -55 8t-38 18l-2 1q-5 3 -8.5 5t-5.5 3l-2 1l55 92v-1q2 0 3 -1l11 -4q13 -5 32 -10.5t39 -5.5q16 0 30 6t27.5 13.5l27 15t27.5 10.5l26 3v36
q-24 -12 -49 -20.5t-48.5 -13.5t-44.5 -7t-37 -2h-40v464h-55v65h505v-65zM333 355l-134 40v-220l19 8q13 6 31 18t35.5 33t30.5 50.5t18 70.5z" />
    <glyph glyph-name="bn_ch_ba" horiz-adv-x="552" 
d="M192 347l12 3q11 1 22 5.5t20.5 10.5t16.5 12.5t9 11.5l2 3l-82 19v-65zM255 -113v62q-9 -2 -34 -30l-16 -23zM210 43l-139 43v123h74q69 2 119.5 12t83.5 25.5t49 34.5t16 40q0 32 -32 43q-18 -41 -54.5 -66.5t-79 -39.5t-84.5 -18.5t-72 -4.5h-41v257h-51v65h555v-65
h-362v-14l195 -19v-7q30 -3 57.5 -14.5t49.5 -30t35 -44.5t13 -58q0 -101 -105 -155q-93 -41 -174 -45l207 -76v-65l-94 29v-194l-292 30v20q0 67 31 115.5t79 71.5z" />
    <glyph glyph-name="bn_ch_ra" horiz-adv-x="554" 
d="M555 492h-362v-27l195 -22v-8q29 -3 57 -15.5t49.5 -33.5t35 -50t13.5 -65q0 -48 -25 -95.5t-78 -76.5q-96 -47 -199 -53l230 -98v-171l-142 22v24q-5 1 -10.5 1.5t-10.5 0.5q-20 0 -40.5 -6.5t-45.5 -21.5q-26 -17 -51 -23t-48 -6q-31 -1 -55 8.5t-38 17.5l-16 9l-2 1
l55 92v-1q2 0 3 -1l11 -4q13 -5 32 -10.5t39 -5.5q13 0 25.5 3t22.5 11q26 20 52.5 27.5t51.5 7.5h10t10 -1h4v13l-256 90v130h74q72 3 122.5 15t83 30t47.5 41t15 49t-9 38t-22 17q-18 -47 -55 -76t-79.5 -45t-84.5 -21.5t-71 -5.5h-42v295h-51v65h555v-65zM276 379l-83 22
v-86h2q-1 -1 10.5 2.5t26 11t28 19t16.5 27.5v4z" />
    <glyph glyph-name="bn_j_ja" horiz-adv-x="1126" 
d="M532 212q17 -29 38.5 -45t64.5 -19q52 0 81 16t43 35.5t17.5 36t3.5 18.5l-205 -22l20 151l-4 20h-229l-8 -48l187 28l4 -7q5 -12 5 -71q0 -53 -18 -93zM704 449h386l12 -77q4 -26 6 -55.5t2 -61.5q0 -80 -12.5 -153t-46.5 -146l-146 49l21 47q15 33 26 85t11 120
q0 29 -2.5 59.5t-7.5 63.5l-243 -6l-11 -56l215 33q0 -3 1 -5.5t2.5 -10.5t2.5 -24t1 -45q0 -61 -23.5 -109.5t-63 -82t-91 -51t-108.5 -17.5q-65 0 -116.5 25t-85.5 74l-13 -7q-29 -16 -61.5 -21.5t-65.5 -6.5q-69 0 -115.5 28t-75.5 76t-42.5 112.5t-15.5 138.5l140 -31
v-16q0 -85 24 -128.5t85 -46.5q106 0 124 80l1 7l-182 -19l29 221h-268v65h1135v-65h-752l-4 -24l321 6q2 -4 3.5 -10.5t3.5 -14.5z" />
    <glyph glyph-name="bn_j_j_ba" horiz-adv-x="1130" 
d="M954 1q-31 -20 -40 -36.5t-10 -18.5l50 -9v64zM595 383l-4 20h-229l-8 -48l187 28l4 -7q5 -12 5 -71q0 -53 -18 -93q17 -29 38.5 -45t64.5 -19q52 0 81 16t43 35.5t17.5 36t3.5 18.5l-205 -22zM380 492l-4 -24l321 6q2 -4 3.5 -10.5t3.5 -14.5l386 4l12 -81
q4 -28 6 -58.5t2 -65.5q0 -60 -7.5 -118t-27.5 -116v-164l-292 30v19q0 54 19.5 92t46 62.5t53.5 37.5t42 16h1q7 30 13.5 67t6.5 80q0 57 -12 126l-243 -6l-11 -56l215 33q0 -3 1 -5.5t2.5 -10.5t2.5 -24t1 -45q0 -61 -23.5 -109.5t-63 -82t-91 -51t-108.5 -17.5
q-65 0 -116.5 25t-85.5 74l-13 -7q-29 -16 -61.5 -21.5t-65.5 -6.5q-69 0 -115.5 28t-75.5 76t-42.5 112.5t-15.5 138.5l140 -31v-16q0 -85 24 -128.5t85 -46.5q106 0 124 80l1 7l-182 -19l29 221h-268v65h1135v-65h-752z" />
    <glyph glyph-name="bn_j_jha" horiz-adv-x="1056" 
d="M793 99v-66l94 -28v486h-462l-7 -34h366l12 -74q5 -28 6.5 -59t1.5 -65v-65t-11 -95zM633 97q9 31 17.5 74.5t8.5 91.5q0 59 -12 128l-243 -6l-11 -56l215 32l1 -2q6 -14 6 -82q0 -61 -23.5 -109.5t-63 -82t-91 -51.5t-108.5 -18q-74 0 -126 30t-84.5 82.5t-48 124.5
t-17.5 155l151 -34v-17q0 -97 27.5 -146t97.5 -52q30 0 56 7t46 20.5t31.5 33t11.5 44.5l-205 -21l33 248h-302v66h1057v-65h-28v-572l-236 35v-105l-292 30v19q0 132 110 188zM672 -10l-10 3q-5 -4 -11 -10l-14 -14l-15 -22l50 -9v52z" />
    <glyph glyph-name="bn_j_nya" horiz-adv-x="852" 
d="M854 492h-440l-6 -34l273 -8q26 11 57 11q11 0 26 -3.5t28.5 -13t23 -25.5t9.5 -41q0 -20 -5.5 -37.5t-14.5 -31.5t-19.5 -24.5t-20.5 -17.5l-10 -6l7 -3q6 -2 15.5 -7.5t18 -15.5t15 -26t6.5 -38q0 -11 -5.5 -30t-20 -38t-40.5 -33t-67 -14q-32 0 -68.5 12.5t-79.5 44.5
q-89 -86 -215 -86q-136 0 -201.5 97t-69.5 286l148 -33q0 -5 -0.5 -10.5t-0.5 -10.5q0 -34 4 -67t17 -60t37.5 -44t65.5 -19q51 0 79 15.5t42 34.5t17 35.5t3 17.5l-200 -21l32 244h-300v65h860v-65zM725 328q0 13 -6 19t-21 6q-41 0 -97 -44v-27q0 -50 -17 -93
q14 -11 32 -20.5t36 -9.5q23 0 33.5 15.5t10.5 26.5q0 17 -13 31t-31 19l4 41h6q7 0 16.5 1t19.5 4.5t17.5 11t9.5 19.5zM394 379l-10 -46l177 27l19 19h-186z" />
    <glyph glyph-name="bn_j_ba" horiz-adv-x="833" 
d="M672 -10l-10 3q-5 -4 -11 -10l-14 -14l-15 -22l50 -9v52zM633 97q9 32 17.5 74t8.5 93q0 58 -12 127l-243 -6l-11 -56l215 32q0 -3 1 -5.5t2.5 -10.5t2.5 -24t1 -44q0 -61 -23.5 -109.5t-63 -82t-91 -51.5t-108.5 -18q-74 0 -125.5 30t-84.5 82.5t-48.5 124.5t-17.5 155
l151 -34q0 -5 -0.5 -11t-0.5 -11q0 -36 4.5 -69.5t18 -60.5t38 -44t65.5 -19q52 0 81 16t43 35t17.5 35.5t3.5 18.5l-205 -21l33 249h-304v65h836v-65h-409l-7 -35h366l12 -74q5 -28 6.5 -58.5t1.5 -65.5q0 -34 -1.5 -72t-9.5 -75v-262l-292 30v19q0 67 31 114.5t79 73.5z
" />
    <glyph glyph-name="bn_j_ra" horiz-adv-x="813" 
d="M585 27l1 1q1 3 10 22t19.5 51t19 76t8.5 97q0 29 -2.5 59t-8.5 62l-237 -6l-11 -55l210 32q0 -3 1 -6t2.5 -11t2.5 -23t1 -42q0 -60 -23 -107.5t-61.5 -80t-89.5 -50t-106 -17.5q-73 0 -123.5 29t-82 80.5t-46.5 121.5t-17 152l147 -33q0 -5 -0.5 -10.5t-0.5 -10.5
q0 -34 4.5 -67.5t17.5 -60t37 -43.5t64 -19q51 0 79.5 15.5t42.5 34.5t17 35.5t3 17.5l-200 -21l32 242h-295v65h814v-65h-399l-7 -33h358l12 -72q4 -25 6 -53.5t2 -60.5q0 -77 -12 -149.5t-46 -143.5v-120l-142 22v13l-11 6q-9 5 -22 9.5t-32 4.5q-18 0 -40 -6t-48 -22
q-26 -17 -51 -23t-48 -6q-31 -1 -55 8.5t-38 17.5l-16 9l-2 1l55 92v-1q2 0 3 -1l11 -4q13 -5 32 -10.5t39 -5.5q28 0 48 14q26 20 54 27.5t53 7.5q20 0 41 -4t26 -8v26z" />
    <glyph glyph-name="bn_jh_ra" horiz-adv-x="806" 
d="M807 492h-28v-451l-253 38v-220l-142 22v13q-16 9 -32 14.5t-34 5.5t-39.5 -6.5t-47.5 -21.5q-27 -16 -51.5 -22.5t-47.5 -6.5q-31 -1 -55 8.5t-38 17.5l-16 9l-2 1l55 92v-1q2 0 3 -1l11 -4q13 -5 32 -10.5t39 -5.5q28 0 48 14q26 20 54 27.5t53 7.5q17 0 38 -3t26 -8h1
q1 0 2 -1v17l-332 39q0 104 33.5 181t84 129t108.5 79.5t107 32.5v14h-387v65h529v-398l111 -33v431h170v-65zM198 122l186 -37v250q-30 -7 -69.5 -28t-73.5 -66q-25 -37 -34 -70t-9 -49z" />
    <glyph glyph-name="bn_ny_ca" horiz-adv-x="686" 
d="M595 252l7 -2q7 -1 19 -7t23 -18.5t19 -32.5t8 -50q0 -16 -9 -36t-26.5 -37.5t-44 -29.5t-61.5 -12q-20 0 -42 4.5t-47 15.5v-78l-412 46q1 82 27 144t65.5 105t88 66.5t93.5 29.5q3 18 3 33q0 29 -7.5 47.5t-14.5 26.5l-5 7q-20 0 -38 -9t-31.5 -22t-21 -26t-7.5 -20
l34 -21l-22 -39l-117 37q10 51 30 86.5t48 57.5t64 31.5t77 9.5q25 0 46.5 -2.5t37.5 -6.5l28 -6l15 -38q8 -20 13 -46.5t6 -61.5q24 26 57 44.5t68 18.5q12 0 27 -4.5t27.5 -15.5t21.5 -29.5t9 -46.5q0 -38 -16 -65t-31 -40zM309 43v200q-19 -5 -50 -23t-58 -54
q-19 -25 -24 -50.5t-5 -38.5zM491 272l6 1q6 1 16 3t19.5 7.5t16.5 14t7 21.5q0 12 -6.5 18t-17.5 6q-16 0 -40 -13t-51 -38v-141q14 -8 29 -13.5t29 -5.5q23 0 34 16t11 30q0 19 -15.5 33t-35.5 18z" />
    <glyph glyph-name="bn_ny_cha" horiz-adv-x="709" 
d="M637 412q24 -16 36.5 -38.5t12.5 -42.5q-6 -39 -31.5 -55.5t-53.5 -21.5q12 -29 12 -56q0 -30 -12.5 -58.5t-36 -50.5t-55.5 -35.5t-71 -13.5q-78 0 -151 27l110 -114l-22 -50l-228 206l45 102l58 -26q51 -18 91.5 -26.5t72.5 -8.5q44 0 71 18.5t27 56.5q0 17 -11 28
q-28 -28 -62 -38.5t-69 -10.5q-43 0 -82.5 10.5t-65.5 21.5l-32 15q32 60 43 99.5t11 63.5q0 22 -5.5 33t-10.5 14l-3 3q-20 -4 -35 -16t-25 -26.5t-15 -27.5t-5 -20v-4l55 -17v-43l-152 18q0 76 27 121.5t67 69.5t85 31t80 7h28l12 -14q11 -12 25 -39q29 38 60 52.5
t59 14.5q31 0 50.5 -11t30.5 -26t15 -30.5t4 -24.5q0 -16 -6 -27.5t-11 -16.5l-4 -5l10 -1q11 0 26 -4t31 -13zM468 467q-12 0 -21.5 -6.5t-17 -15.5t-13.5 -20t-9 -20l131 -76q-1 -2 -1 -3t-1 -2q21 4 33.5 11t12.5 17q0 12 -11 18.5t-20 6.5q-11 0 -21.5 -4t-16.5 -8
l-5 -3l-20 29q16 19 16 39q0 13 -8.5 23t-27.5 14zM411 300q7 3 10.5 7t5.5 6l2 3l-58 46l-29 -67l10 -2q8 -2 15 -2q20 0 44 9z" />
    <glyph glyph-name="bn_ny_ja" horiz-adv-x="776" 
d="M748 270q-5 -26 -19 -42q-1 -8 -1 -17v-18q0 -39 3 -77.5t6 -67.5l4 -35l-147 30q-5 22 -7.5 48t-2.5 55v15.5t1 15.5l-33 3q-80 -150 -248 -150q-100 0 -163.5 49t-88.5 131l132 39q3 -16 11 -30.5t22.5 -26t37 -18t55.5 -6.5q39 0 63 13t37 29t17.5 29.5t4.5 14.5
l-202 7l7 41q2 23 3.5 42t1.5 35q0 25 -2.5 42t-5.5 26l-5 16q-21 -4 -36.5 -16.5t-25 -26.5t-14 -27.5t-4.5 -19.5v-4l54 -17v-43l-151 18q0 50 8.5 85t34.5 67q20 25 48.5 40t59 23t59.5 11t49 3h28l14 -26q13 -25 24 -67q32 49 78 68.5t91 19.5q42 0 67 -10t38.5 -24.5
t17.5 -31t4 -29.5q0 -18 -5.5 -33t-11.5 -23l-7 -10h10q9 0 25 -4t33 -16q20 -14 26 -36.5t6 -42.5v-10.5t-1 -10.5zM362 328h204l-13 23q20 20 20 44q0 14 -11.5 29t-37.5 15t-54 -17t-52 -37.5t-39.5 -38t-16.5 -18.5zM654 316q-2 10 -9 14t-16 4q-15 0 -31.5 -7
t-21.5 -10v-7q0 -6 -0.5 -14.5t-1.5 -19.5q37 2 58.5 11.5t21.5 25.5v3z" />
    <glyph glyph-name="bn_ny_jha" horiz-adv-x="770" 
d="M343 292l-162 18v9q0 5 -0.5 9t-0.5 9q0 47 14 81.5t37 58.5t52.5 39.5t60.5 24.5t61 12t54 3h35l9 -2v-56q25 26 59 43t72 17q13 0 30 -5t31.5 -16t24.5 -30t10 -47q0 -36 -16.5 -64.5t-30.5 -39.5q8 -3 19.5 -10t21.5 -19.5t17 -32t7 -46.5q0 -23 -16 -50t-50 -47v-278
l-178 25v-52l-353 39v9q0 72 23.5 123t57.5 84.5t71 51t64 23.5v30l-172 -78l-4 1q-69 20 -109.5 60.5t-54.5 100.5l-1 7l113 41l13 5l1 -13q0 -31 19 -60t63 -39l132 42v169q-19 -7 -31 -18t-19.5 -22.5t-11 -21t-3.5 -12.5l44 -13zM557 380l9 1t19.5 5t19.5 10.5t9 18.5
q0 11 -5 12t-10 1q-15 0 -40.5 -13.5t-55.5 -43.5v-101q9 -7 27.5 -15t35.5 -8t26.5 12t9.5 22q0 14 -13 25t-30 15l-9 2v57h7zM563 -48l-13 180q-5 2 -17.5 6.5t-28.5 10.5v-180zM369 62q-16 -7 -32.5 -20.5t-30 -30t-22.5 -34t-10 -31.5l95 -20v136z" />
    <glyph glyph-name="bn_ny_ra" horiz-adv-x="844" 
d="M473 123l-225 -108q-94 30 -145 97t-51 167q0 34 6.5 64.5t11.5 39.5l124 -45l-4 -20q-4 -19 -4 -46q0 -20 6 -42t19.5 -41t35 -34t53.5 -21l173 59v234q-27 -5 -46.5 -20.5t-32.5 -33.5t-19 -34.5t-6 -22.5l71 -23v-65l-196 23q0 69 17 123t47.5 92.5t72.5 61.5t92 29
h142v-28q19 3 40 3q28 0 54 -13.5t46 -35.5t31.5 -51.5t11.5 -60.5q0 -41 -6 -63l-4 -16h29v-25q-1 -21 -8.5 -52.5t-29.5 -62t-61 -55t-103 -32.5v-193l-142 22v11q-15 10 -31.5 16t-35.5 6q-38 0 -86 -29q-26 -17 -51 -23t-48 -6q-31 0 -55 8t-38 18h-1q-13 8 -16 9l-1 1
l55 92v-1q2 0 3 -1l11 -4q13 -5 32 -10.5t39 -5.5q28 0 48 14q26 20 54 27.5t53 7.5q20 0 35.5 -3t26.5 -7h1q2 -1 3 -1t2 -1v111zM701 237h-62v55h25q39 22 39 76q0 32 -22 47.5t-50 15.5q-6 0 -16 -2v-256q24 3 40 10.5t26 16.5t14.5 19t5.5 18z" />
    <glyph glyph-name="bn_tt_tta" horiz-adv-x="554" 
d="M144 603q-50 36 -69 81l109 88q1 -8 5 -19.5t11.5 -22t18.5 -17.5t28 -7q14 0 30 3t32.5 6.5t32.5 6.5t29 3q53 0 90.5 -18t60.5 -44l-86 -105h119v-66h-362v-337q22 4 53.5 18t61 39t51.5 62.5t27 89.5l-114 14l-14 65h269v-27q0 -151 -77 -249l-7 -8q48 -63 48 -128
q0 -46 -22 -76.5t-61 -48.5t-93.5 -25t-119.5 -7h-20t-18 1l-54 2l30 106h31q27 0 60 1.5t62.5 7.5t49.5 19t20 36q0 12 -7 28q-35 -20 -61.5 -30.5t-55.5 -15.5t-67 -6t-95 -1h-19v470h-54v65h439q-2 4 -6.5 10t-12 12t-19.5 10t-29 4q-12 0 -28 -3t-33 -6.5t-34 -6.5
t-30 -3q-34 0 -58.5 8.5t-41.5 20.5z" />
    <glyph glyph-name="bn_tt_ba" horiz-adv-x="554" 
d="M333 -122v62l-8 -6.5t-17.5 -15t-17 -17.5t-7.5 -14zM323 62l-1 -1q-30 -14 -53 -22t-49 -11.5t-60.5 -4.5t-88.5 -1h-20v470h-53v65h557v-65h-362v-337q22 5 53.5 19t61 39t51.5 62t26 89l-113 15l-15 64h269q1 -7 1 -13.5v-13.5q0 -146 -74 -244v-382l-292 30v20
q0 54 19.5 92t46.5 62.5t54 37t42 15.5v15zM435 558q-4 9 -18.5 22t-46.5 13q-12 0 -28.5 -3t-33.5 -6.5t-34 -6.5t-30 -3q-37 0 -65.5 10.5t-49 27t-34 36t-20.5 36.5l109 88q1 -8 5 -19.5t11.5 -22t18.5 -17.5t28 -7q13 0 29 3t32.5 6.5t32.5 6.5t29 3q53 0 91 -18t61 -44
l-85 -104z" />
    <glyph glyph-name="bn_tt_ma" horiz-adv-x="732" 
d="M195 492v-245q38 7 71.5 21t59 33.5t41.5 43t19 48.5l-110 12l-20 64h272l1 -28q0 -124 -81 -200q25 10 53.5 16t61.5 8v227h-368zM342 169q-27 -12 -48 -19.5t-45 -11.5t-55 -5.5t-76 -2.5l-65 -1v363h-53v65h733v-65h-28v-515l-142 11v145q-17 -1 -38 -6.5t-41.5 -15.5
t-38.5 -24t-29 -31l71 -34v-78l-226 62l2 10l3.5 14t12 36t24 49t39.5 54zM435 558q-4 9 -18.5 22t-46.5 13q-12 0 -28.5 -3t-33.5 -6.5t-34 -6.5t-30 -3q-37 0 -65.5 10.5t-49 27t-34 36t-20.5 36.5l109 88q1 -8 5 -19.5t11.5 -22t18.5 -17.5t28 -7q13 0 29 3t32.5 6.5
t32.5 6.5t29 3q53 0 91 -18t61 -44l-85 -104z" />
    <glyph glyph-name="bn_tt_ra" horiz-adv-x="554" 
d="M323 62l-1 -1q-30 -14 -53 -22t-49 -11.5t-60.5 -4.5t-88.5 -1h-20v470h-53v65h560v-65h-365v-337q22 5 53.5 19t61 39t51.5 62t26 89l-113 15l-15 64h269q1 -7 1 -13.5v-13.5q0 -134 -61 -226v-331l-142 22v33q-24 0 -45 -5.5t-48 -22.5q-26 -16 -51 -22.5t-48 -6.5
q-31 -1 -55 8.5t-38 17.5l-16 9l-2 1l55 92v-1q2 0 3 -1l11 -4q13 -5 32 -10.5t39 -5.5q16 0 30.5 6t28 13.5t26.5 15t27 10.5q19 4 41 4h9v50zM435 558q-4 9 -18.5 22t-46.5 13q-12 0 -28.5 -3t-33.5 -6.5t-34 -6.5t-30 -3q-37 0 -65.5 10.5t-49 27t-34 36t-20.5 36.5
l109 88q1 -8 5 -19.5t11.5 -22t18.5 -17.5t28 -7q13 0 29 3t32.5 6.5t32.5 6.5t29 3q53 0 91 -18t61 -44l-85 -104z" />
    <glyph glyph-name="bn_tth_ra" horiz-adv-x="580" 
d="M383 3q-18 -6 -40.5 -8.5t-40.5 -2.5q-56 2 -97.5 19t-71 41.5t-47 52t-23.5 51.5l-15 46l39 28q42 33 70 71.5t44.5 75t23.5 67.5t8 48h-235v65h215q-21 63 -21 116h133q0 -22 8.5 -55t18.5 -61h233v-65h-138q106 -111 106 -249q0 -33 -7 -64t-20 -59v-301l-142 22v13
q-16 9 -32 14.5t-34 5.5t-39.5 -6.5t-47.5 -21.5q-27 -16 -51.5 -22.5t-47.5 -6.5q-31 -1 -55 8.5t-38 17.5l-16 9l-2 1l55 92v-1q2 0 3 -1l11 -4q13 -5 32 -10.5t39 -5.5q28 0 48 14q26 20 54 27.5t53 7.5q21 0 41.5 -3.5t25.5 -8.5v43zM418 213q3 15 3 30q0 40 -18 81.5
t-53 77.5q-13 -54 -45.5 -118.5t-93.5 -122.5q13 -15 35 -25.5t57 -10.5q31 0 52 8t34 20.5t20 28.5t9 31z" />
    <glyph glyph-name="bn_dd_dda" horiz-adv-x="948" 
d="M635 148q31 0 57.5 7.5t46 21t30.5 33.5t11 44l-205 -22q14 109 23 173.5t11 86.5h-229l-26 -137l187 28l3 -3q6 -24 6 -75q0 -53 -18 -93q17 -29 38.5 -45t64.5 -19zM949 492h-225l-25 -174l215 33l1 -2q6 -20 6 -83q0 -61 -23.5 -109.5t-63 -82t-91 -51t-108.5 -17.5
q-129 0 -202 99q-62 -35 -140 -35q-69 0 -115.5 28t-75.5 76t-42.5 112.5t-15.5 138.5l140 -31q0 -47 5 -82t17.5 -59t33.5 -36.5t53 -13.5q113 0 125 87l-182 -19l29 221h-268v65h952v-65z" />
    <glyph glyph-name="bn_dd_ra" horiz-adv-x="619" 
d="M383 35q-31 -7 -70 -7q-65 0 -114 25t-82 69t-49.5 105.5t-16.5 134.5q0 11 0.5 20.5t0.5 20.5q0 7 -0.5 13t-0.5 13l140 -37v-29q0 -5 -0.5 -10t-0.5 -10q0 -32 5 -62.5t18.5 -55t37.5 -40t62 -17.5q46 0 74 17t43 39.5t19.5 43.5t4.5 29v3l-192 -51v243h-264v65h623
v-65h-245v-151l210 83q0 -17 3 -52t4 -89q-3 -106 -67 -170v-254l-142 22v13q-16 9 -32 14.5t-34 5.5t-39.5 -6.5t-47.5 -21.5q-27 -16 -51.5 -22.5t-47.5 -6.5q-31 -1 -55 8.5t-38 17.5l-16 9l-2 1l55 92v-1q2 0 3 -1l11 -4q13 -5 32 -10.5t39 -5.5q28 0 48 14
q26 20 54 27.5t53 7.5q17 0 38 -3t26 -8h1q1 0 2 -1v35z" />
    <glyph glyph-name="bn_ddh_ra" horiz-adv-x="553" 
d="M323 62l-1 -1q-30 -14 -53 -22t-49 -11.5t-60.5 -4.5t-88.5 -1h-20v470h-53v65h557v-65h-362v-337q22 5 53.5 19t61 39t51.5 62t26 89l-113 15l-15 64h269q1 -7 1 -13.5v-13.5q0 -134 -61 -226v-331l-142 22v33q-24 0 -45 -5.5t-48 -22.5q-26 -16 -51 -22.5t-48 -6.5
q-31 -1 -55 8.5t-38 17.5l-16 9l-2 1l55 92v-1q2 0 3 -1l11 -4q13 -5 32 -10.5t39 -5.5q16 0 30.5 6t28 13.5t26.5 15t27 10.5q19 4 41 4h9v50z" />
    <glyph glyph-name="bn_nn_tta" horiz-adv-x="899" 
d="M396 343l-110 82l-1 -1q-6 0 -21 -7t-30 -23t-26.5 -40.5t-11.5 -58.5q0 -35 17 -66l79 -26l14 -59l-218 25q-17 26 -27.5 58.5t-10.5 70.5q0 43 9.5 77t25.5 60t36 45.5t41 33.5q49 33 112 45l122 -127v125h504v-65h-362v-337q22 5 53.5 19t61 39t51.5 62t26 89l-113 15
l-15 64h269q1 -7 1 -13.5v-13.5q0 -70 -16.5 -125t-43.5 -97.5t-62 -73t-72 -51t-73.5 -31t-66.5 -13.5q-5 -1 -19.5 -1.5t-32.5 -1t-37.5 -0.5h-32.5h-20v321zM780 558q-4 9 -18.5 22t-46.5 13q-12 0 -28.5 -3t-33.5 -6.5t-34 -6.5t-30 -3q-37 0 -65.5 10.5t-49 27t-34 36
t-20.5 36.5l109 88q1 -8 5 -19.5t11.5 -22t18.5 -17.5t28 -7q13 0 29 3t32.5 6.5t32.5 6.5t29 3q53 0 91 -18t61 -44l-85 -104z" />
    <glyph glyph-name="bn_nn_ttha" horiz-adv-x="820" 
d="M658 213q3 15 3 30q0 40 -18 81.5t-53 77.5q-13 -54 -45.5 -118.5t-93.5 -122.5q13 -15 35 -25.5t57 -10.5q31 0 52 8t34 20.5t20 28.5t9 31zM437 364l-151 84l-12 -3q-32 -10 -54.5 -32.5t-22.5 -56.5q0 -23 13 -42l57 -14l17 -66l-193 17q-41 49 -41 106q0 48 23.5 87
t57.5 66t72.5 42t68.5 15l186 -145q13 43 15 70l-20 65q-10 32 -16 61t-5 55h133q0 -22 8.5 -55t18.5 -61h230v-65h-135q106 -111 106 -249q0 -59 -18.5 -106t-52 -79t-79.5 -49t-101 -17q-56 2 -97.5 19t-71 41.5t-47 52t-23.5 51.5l-15 46l39 28q79 61 110 134z" />
    <glyph glyph-name="bn_nn_dda" horiz-adv-x="621" 
d="M564 278h37l-1 -27q-1 -16 -5 -41.5t-14.5 -53.5t-28.5 -56.5t-48 -51.5t-72.5 -37.5t-101.5 -14.5q-56 0 -105.5 18t-89.5 50.5t-67 77.5t-38 99l156 -5q7 -23 20 -46t31.5 -41.5t42.5 -30.5t53 -13q34 0 57.5 13t38.5 30.5t21.5 36t6.5 30.5l-116 -5v53l80 15
q30 16 38 42t8 59q0 31 -15 44.5t-35 16.5l-61 -70h-114l-41 90q-17 -6 -28 -15.5t-17.5 -19.5t-9 -18.5t-2.5 -11.5l49 -15v-50l-152 17v7q0 39 8 71.5t33 61.5q18 21 44 34.5t54 21t54.5 10t44.5 2.5h29l20 -107l56 107q55 0 92.5 -17t60.5 -44t33 -59t10 -62
q0 -7 -0.5 -13.5t-1.5 -13.5l-7 -46z" />
    <glyph glyph-name="bn_nn_dd_ra" horiz-adv-x="621" 
d="M392 -134q-15 10 -31.5 16t-35.5 6q-38 0 -86 -29q-26 -17 -51 -23t-48 -6q-31 -1 -55 8.5t-38 17.5l-16 9l-2 1l55 92v-1q2 0 3 -1l11 -4q13 -5 32 -10.5t39 -5.5q28 0 48 14q26 20 54 27.5t53 7.5q20 0 35.5 -3t26.5 -7h1q2 -1 3 -1t2 -1v29q-29 -6 -62 -6
q-56 0 -105.5 18t-89.5 50.5t-67 77.5t-38 99l156 -5q7 -23 20 -46t31.5 -41.5t42.5 -30.5t53 -13q34 0 57.5 13t38.5 30.5t21.5 36t6.5 30.5l-116 -5v53l80 15q30 16 38 42t8 59q0 31 -15 44.5t-35 16.5l-61 -70h-114l-41 90q-17 -6 -28 -15.5t-17.5 -19.5t-9 -18.5
t-2.5 -11.5l49 -15v-50l-152 17v7q0 39 8 71.5t33 61.5q18 21 44 34.5t54 21t54.5 10t44.5 2.5h29l20 -107l56 107q55 0 92.5 -17t60.5 -44t33 -59t10 -62q0 -7 -0.5 -13.5t-1.5 -13.5l-7 -46l-7 -22h37v-27q0 -14 -3 -35.5t-10.5 -45.5t-20.5 -48.5t-33 -44.5v-244l-142 22
v11z" />
    <glyph glyph-name="bn_nn_ddha" horiz-adv-x="899" 
d="M396 343l-109 82q-15 -6 -31.5 -15t-29.5 -24t-21.5 -37t-8.5 -54q0 -35 17 -66l79 -26l14 -59l-218 25q-17 26 -27.5 58.5t-10.5 70.5q0 59 17 101.5t43 71.5t55.5 46t55 26t41.5 11.5t14 2.5l120 -125v125h506v-65h-364v-337q22 5 53.5 19t61 39t51.5 62t26 89l-113 15
l-15 64h269q1 -7 1 -13.5v-13.5q0 -70 -16.5 -125t-43.5 -97.5t-62 -73t-72 -51t-73.5 -31t-66.5 -13.5q-5 -1 -19.5 -1.5t-32.5 -1t-37.5 -0.5h-32.5h-20v321z" />
    <glyph glyph-name="bn_nn_nna" horiz-adv-x="565" 
d="M301 231l95 -57v197l-108 66l-12 -3q-36 -11 -58 -37.5t-22 -59.5q0 -27 15 -48l80 -22zM166 220l-76 7q-40 50 -40 111q0 55 26 96.5t62 68.5t74 40.5t62 13.5l122 -104v104h172v-65h-30v-522l-142 22v93l-82 41q-22 -2 -42.5 -6.5t-36.5 -11t-25.5 -14t-9.5 -15.5
q0 -1 7 -8l82 -14l35 -82l-224 14q-18 14 -32 37t-14 54q0 30 11 52.5t27.5 40t36.5 29t37 18.5z" />
    <glyph glyph-name="bn_nn_ba" horiz-adv-x="565" 
d="M396 -24v132q-16 -6 -32.5 -17.5t-31 -27t-24.5 -33.5t-13 -36zM396 371l-108 66l-12 -3q-36 -11 -58 -37.5t-22 -59.5q0 -27 15 -48l80 -22l17 -61l-218 21q-40 50 -40 111q0 55 26 96.5t62 68.5t74 40.5t62 13.5l122 -104v104h170v-65h-28v-594l-370 38v8
q1 69 24.5 118.5t58 82.5t74 51t71.5 24v151z" />
    <glyph glyph-name="bn_nn_ma" horiz-adv-x="753" 
d="M491 310l26 6q30 7 66 9v167h-92v-182zM357 223v139l-89 73q-5 0 -18 -6t-27 -19.5t-24.5 -35t-10.5 -52.5q0 -30 14 -56l71 -23l9 -51l-1 -8l-195 22q-35 56 -35 115q0 53 19 96t49 74t66 48t70 18l102 -105v105h397v-65h-29v-492l-142 11v182q-17 -1 -38 -6.5
t-41.5 -15.5t-38.5 -24t-29 -31l71 -34v-78l-226 62l2 10q4 23 14 48q8 21 22.5 47t37.5 52z" />
    <glyph glyph-name="bn_nn_ra" horiz-adv-x="565" 
d="M566 492h-28v-543l-142 22v17l-4 3q-8 5 -22 9.5t-32 4.5t-40 -6t-48 -22q-26 -17 -51 -23t-48 -6q-31 0 -55 8t-38 18h-1q-13 8 -16 9l-1 1l54 92l1 -1q2 0 3 -1l11 -4q13 -5 32 -10.5t39 -5.5q13 0 25.5 3t22.5 11q26 20 52.5 27.5t51.5 7.5q19 0 36 -3t28 -7v250
l-110 82l-1 -1q-6 0 -21 -7t-30 -23t-26.5 -40.5t-11.5 -58.5q0 -35 17 -66l79 -26l14 -59l-218 25q-17 26 -27.5 58.5t-10.5 70.5q0 43 9.5 77t25.5 60t36 45.5t41 33.5q49 33 112 45l122 -127v125h170v-65z" />
    <glyph glyph-name="bn_t_ta" horiz-adv-x="655" 
d="M376 -30h-15q-56 0 -105.5 16.5t-88.5 46t-66 70.5t-36 91q-5 35 -8.5 69.5t-4.5 68.5h150q0 -33 2.5 -72t18.5 -73.5t51.5 -58.5t101.5 -27q32 1 53.5 8t34 16.5t18 20t5.5 18.5v4h-114v55h80q28 14 36 35.5t8 47.5q0 31 -21.5 45.5t-45.5 14.5q-17 0 -28.5 -7
t-18.5 -16t-9.5 -19t-2.5 -16v-3l56 -11l4 -50l-181 -1q0 17 -2 31t-2 28q0 26 9.5 50.5t25 45t35.5 35.5t40 21q45 13 81 13q45 0 77.5 -17t53 -42.5t30 -54.5t9.5 -53q-2 -36 -8 -57l-7 -20h36v-12q0 -12 -2 -33.5t-10.5 -47t-24.5 -52.5t-44 -49.5t-70 -38.5t-101 -20z
M657 557v-65h-659v65h659z" />
    <glyph glyph-name="bn_t_t_ba" horiz-adv-x="655" 
d="M382 -92v62l-8 -6.5t-17 -15t-16.5 -17.5t-7.5 -14zM503 -1v-179l-292 30v19q0 35 9 65.5t25 55.5q-58 20 -95 54t-58.5 78.5t-30 97.5t-9.5 112h150q0 -33 2.5 -72t18.5 -73.5t51.5 -58.5t101.5 -27q32 1 53.5 8t34 16.5t18 20t5.5 18.5v4h-114v55h80q28 14 36 35.5
t8 47.5q0 31 -21.5 45.5t-45.5 14.5q-17 0 -28.5 -7t-18.5 -16t-9.5 -19t-2.5 -16v-3l56 -11l4 -50l-181 -1q0 17 -2 31t-2 28q0 26 9.5 50.5t25 45t35.5 35.5t40 21q45 13 81 13q45 0 77.5 -17t53 -42.5t30 -54.5t9.5 -53q-2 -36 -8 -57l-6 -17q0 -1 -1 -2l36 -1v-11
q0 -14 -3 -40.5t-15 -57t-36.5 -61t-67.5 -52.5zM659 557v-65h-661v65h661z" />
    <glyph glyph-name="bn_t_tha" horiz-adv-x="658" 
d="M487 88v469h174v-65h-30v-502l-514 87l30 21q21 16 50 41.5t55 59t45 74t20 86.5q0 24 -9 40.5t-17 24.5l-5 5l-31 -76l-43 4l-23 87h-32l-3 -8q-2 -8 -6 -18t-7 -18l-3 -8l48 -8l-17 -54h-144l67 226h15q8 1 17 1h20h45h21.5t18.5 -1l18 -83l17 80h26q20 -3 37 -6.5
t30 -11.5l15 -9q12 -7 26.5 -21t27.5 -36t22.5 -53.5t11.5 -73.5q0 -46 -5 -79.5t-13.5 -58t-19.5 -41.5t-21 -29l-15 -18z" />
    <glyph glyph-name="bn_t_na" horiz-adv-x="646" 
d="M651 557v-65h-653v65h653zM389 88q-27 -3 -54 -3q-78 0 -132 22.5t-87.5 64.5t-49 102.5t-15.5 137.5l139 -25q0 -60 12 -97.5t32 -58.5t46 -28.5t54 -7.5q34 1 62.5 4.5t49.5 12.5t35.5 25t20.5 42v7q0 25 -13 41.5t-29.5 26t-30.5 13t-15 3.5q-1 1 -7 -7t-17 -19
l-15 -15l45 -6l-20 -54h-155l110 200q0 1 10.5 2t27.5 1q50 0 91.5 -9.5t71.5 -31t46.5 -56t16.5 -83.5q0 -44 -21.5 -90t-66.5 -74v-248l-142 22v69q-44 -6 -55 -17l30 -10v-89l-214 40q16 42 30 68t29 42.5t33 26.5t42 20q48 20 105 23v13z" />
    <glyph glyph-name="bn_t_ba" horiz-adv-x="646" 
d="M342 13v61q-10 -2 -34 -29l-16 -23zM651 557v-65h-653v65h653zM212 105q-44 18 -74.5 44t-50 63.5t-28 86.5t-8.5 113l139 -25q0 -60 12 -97.5t32 -58.5t46 -28.5t54 -7.5q34 1 62.5 4.5t49.5 12.5t35.5 25t20.5 42v7q0 25 -13 41.5t-29.5 26t-30.5 13t-15 3.5
q-1 1 -7 -7t-17 -19l-15 -15l45 -6l-20 -54h-155l110 200q0 1 10.5 2t27.5 1q50 0 91.5 -9.5t71.5 -31t46.5 -56t16.5 -83.5q0 -34 -11 -65t-31 -56.5t-49 -44t-65 -26.5v-175l-292 30v19q0 78 41 131z" />
    <glyph glyph-name="bn_t_la" horiz-adv-x="646" 
d="M383 87q-11 -1 -21 -1.5t-21 -0.5q-79 0 -134.5 22t-90 63.5t-50 102.5t-15.5 139l139 -25q0 -60 12 -97.5t32 -58.5t46 -28.5t54 -7.5q34 1 62.5 4.5t49.5 12.5t35.5 25t20.5 42v7q0 25 -13 41.5t-29.5 26t-30.5 13t-15 3.5q-1 1 -7 -7t-17 -19l-15 -15l45 -6l-20 -54
h-155l110 200q0 1 10.5 2t27.5 1q50 0 91.5 -9.5t71.5 -31t46.5 -56t16.5 -83.5q0 -47 -23.5 -94.5t-70.5 -73.5v-256l-142 22v39l-158 -40v88q0 3 -4 3q-14 -2 -27 -6.5t-23.5 -11t-17.5 -13t-9 -11.5l48 -19v-72l-178 44q12 58 34.5 96.5t50 61t58 31.5t57.5 9
q16 0 31 -6.5t26.5 -18t18.5 -26t8 -30.5l85 35v44zM648 492h-650v65h650v-65z" />
    <glyph glyph-name="bn_t_ma" horiz-adv-x="862" 
d="M453 97q-59 -12 -115 -12q-78 0 -133 22t-89 64t-49.5 103t-15.5 138l139 -25q0 -60 12 -97.5t32 -58.5t46 -28.5t54 -7.5q34 1 62.5 4.5t49.5 12.5t35.5 25t20.5 42v7q0 25 -13 41.5t-29.5 26t-30.5 13t-15 3.5q-1 1 -7 -7t-17 -19l-15 -15l45 -6l-20 -54h-155l110 200
q0 1 10.5 2t27.5 1q50 0 91.5 -9.5t71 -31t46 -56t16.5 -84.5q0 -11 -1 -21.5t-3 -21.5q39 14 79 17v227h-695v65h865v-65h-28v-515l-142 11v145q-28 -2 -59.5 -20t-57.5 -57l71 -34v-78l-226 62l2 10q0 1 6.5 25t23.5 56z" />
    <glyph glyph-name="bn_t_ra" horiz-adv-x="644" 
d="M250 26q-50 15 -87 41.5t-61.5 60t-36.5 72t-12 79.5t8 70.5t10 34.5l124 -45v-2q0 -3 -3.5 -20.5t-3.5 -37.5q0 -22 6 -44.5t19.5 -42.5t35 -35.5t53.5 -22.5l173 60v142q-62 -8 -88 -56v-5l71 -22v-56l-196 24q0 32 11 64.5t29 61t40.5 50.5t45.5 32q50 22 87 26h142
v-455l-142 22v112zM646 557v-65h-648v65h648z" />
    <glyph glyph-name="bn_t_ra_ukaar" horiz-adv-x="873" 
d="M877 557v-65h-879v65h879zM617 193v-193l-142 22v112l-225 -108q-50 15 -87 41.5t-61.5 60t-36.5 72t-12 79.5t8 70.5t10 34.5l124 -45v-2q0 -3 -3.5 -20.5t-3.5 -37.5q0 -22 6 -44.5t19.5 -42.5t35 -35.5t53.5 -22.5l173 60v142q-62 -8 -88 -56v-5l71 -22v-56l-196 24
q0 32 11 64.5t29 61t40.5 50.5t45.5 32q50 22 87 26h142v-198q30 -12 51 -12t33.5 10t19.5 24.5t9 29.5t2 25v11l125 10v-2q2 -4 2.5 -16.5t0.5 -26.5q0 -20 -4.5 -45.5t-18.5 -47.5t-39.5 -37t-66.5 -15q-47 2 -86 17z" />
    <glyph glyph-name="bn_t_ra_uukaar" horiz-adv-x="883" 
d="M886 557v-65h-888v65h888zM617 276v-276l-142 22v112l-225 -108q-50 15 -87 41.5t-61.5 60t-36.5 72t-12 79.5t8 70.5t10 34.5l124 -45v-2q0 -3 -3.5 -20.5t-3.5 -37.5q0 -22 6 -44.5t19.5 -42.5t35 -35.5t53.5 -22.5l173 60v142q-62 -8 -88 -56v-5l71 -22v-56l-196 24
q0 32 11 64.5t29 61t40.5 50.5t45.5 32q50 22 87 26h142v-114l247 68l-11 -54q-7 -32 -11.5 -72.5t-4.5 -85.5q0 -62 17 -125l-137 22l-5 31q-3 17 -5.5 39.5t-2.5 48.5q0 20 1.5 39.5t5.5 39.5z" />
    <glyph glyph-name="bn_th_ba" horiz-adv-x="610" 
d="M463 53v61q-1 0 -9 -6t-17 -14.5t-16.5 -17.5t-7.5 -14zM375 186q17 11 35 19.5t30 12.5v339h173v-65h-30v-527l-292 30v19q0 29 6.5 54.5t17.5 47.5l-252 36l43 25q24 13 51.5 34.5t52 48.5t42.5 60t22 69v1q0 26 -22 43.5t-46 19.5h-8l-33 -32l44 -6l-21 -55h-157
l113 197h17q15 0 34.5 -0.5t40.5 -2t40.5 -5t34.5 -10.5l17 -8q9 -5 23.5 -16t28 -30.5t23.5 -47t11 -63.5q0 -42 -6 -72.5t-15.5 -52t-21 -35t-21.5 -22.5z" />
    <glyph glyph-name="bn_th_ra" horiz-adv-x="606" 
d="M608 492h-28v-633l-143 22l-1 12l-9 6q-8 5 -22 9.5t-32 4.5t-40 -6t-48 -22q-26 -17 -51 -23t-48 -6q-31 0 -55 8t-38 18h-1q-13 8 -16 9l-1 1l55 92v-1q2 0 3 -1l11 -4q13 -5 32 -10.5t39 -5.5q28 0 48 14q26 20 54 27.5t53 7.5q17 0 38 -3t26 -8h1q1 0 2 -1v25
l-363 61l29 21q19 14 48 39.5t55.5 59t45.5 74.5t19 86q0 32 -21 55t-46 26l-8 -1q-1 -1 -1 -2l-34 -39l-5 -5q0 -1 -1 -2l-1 -1l49 -8l-17 -53h-153l106 221h3h6t11 1q14 0 34 -0.5t41 -2.5t41 -6.5t35 -12.5l2 -1l13 -8q10 -6 25 -19.5t28.5 -35.5t23 -53t9.5 -73
q0 -45 -5 -78t-13.5 -57t-19 -40.5t-20.5 -28.5l-15 -17l99 -28v461h171v-65z" />
    <glyph glyph-name="bn_th_ra_ukaar" horiz-adv-x="863" 
d="M437 24l-363 61l29 21q19 14 48 39.5t55.5 59t45.5 74.5t19 86q0 32 -21 55t-46 26l-8 -1q-1 -1 -1 -2l-34 -39l-5 -5q0 -1 -1 -2l-1 -1l49 -8l-17 -53h-153l106 221h3h6t11 1q14 0 34 -0.5t41 -2.5t41 -6.5t35 -12.5l2 -1l13 -8q10 -6 25 -19.5t28.5 -35.5t23 -53
t9.5 -73q0 -45 -5 -78t-13.5 -57t-19 -40.5t-20.5 -28.5l-15 -17l99 -28v461h429v-65h-286v-229q20 -10 35.5 -14t28.5 -4q21 0 33.5 10t19.5 24.5t9 29.5t2 25v11l125 10v-2q2 -4 2.5 -16.5t0.5 -26.5q0 -20 -4.5 -45.5t-18.5 -47.5t-39.5 -37t-66.5 -15q-19 0 -38 3.5
t-35.5 9t-30.5 11.5t-23 11v-341l-143 22l-1 12l-9 6q-8 5 -22 9.5t-32 4.5t-40 -6t-48 -22q-26 -17 -51 -23t-48 -6q-31 0 -55 8t-38 18h-1q-13 8 -16 9l-1 1l55 92v-1q2 0 3 -1l11 -4q13 -5 32 -10.5t39 -5.5q28 0 48 14q26 20 54 27.5t53 7.5q17 0 38 -3t26 -8h1
q1 0 2 -1v25z" />
    <glyph glyph-name="bn_th_ra_uukaar" horiz-adv-x="861" 
d="M437 24l-363 61l29 21q19 14 48 39.5t55.5 59t45.5 74.5t19 86q0 32 -21 55t-46 26l-8 -1q-1 -1 -1 -2l-34 -39l-5 -5q0 -1 -1 -2l-1 -1l49 -8l-17 -53h-153l106 221h3h6t11 1q14 0 34 -0.5t41 -2.5t41 -6.5t35 -12.5l2 -1l13 -8q10 -6 25 -19.5t28.5 -35.5t23 -53
t9.5 -73q0 -45 -5 -78t-13.5 -57t-19 -40.5t-20.5 -28.5l-15 -17l99 -28v461h429v-65h-286v-153l254 70l-11 -54q-7 -32 -11.5 -72.5t-4.5 -85.5q0 -62 17 -125l-137 22l-5 31q-3 17 -5.5 39.5t-2.5 48.5q0 20 1.5 39.5t5.5 39.5l-101 -17v-416l-143 22l-1 12l-9 6
q-8 5 -22 9.5t-32 4.5t-40 -6t-48 -22q-26 -17 -51 -23t-48 -6q-31 0 -55 8t-38 18h-1q-13 8 -16 9l-1 1l55 92v-1q2 0 3 -1l11 -4q13 -5 32 -10.5t39 -5.5q28 0 48 14q26 20 54 27.5t53 7.5q17 0 38 -3t26 -8h1q1 0 2 -1v25z" />
    <glyph glyph-name="bn_th_la" horiz-adv-x="610" 
d="M441 99l-378 53l43 25q24 13 51.5 34.5t52 48.5t42.5 60t22 69v1q0 26 -22 43.5t-46 19.5h-8l-33 -32l44 -6l-21 -55h-157l113 197h17q15 0 34.5 -0.5t40.5 -2t40.5 -5t34.5 -10.5l17 -8q9 -5 23.5 -16t28 -30.5t23.5 -47t11 -63.5q0 -42 -6 -72.5t-15.5 -52t-21 -35
t-21.5 -22.5l90 -22v387h171v-65h-28v-615l-142 22v39l-158 -40v88q0 3 -4 3q-14 -2 -27 -6.5t-23.5 -11t-17.5 -13t-9 -11.5l48 -19v-72l-178 44q12 58 34.5 96.5t50 61t58 31.5t57.5 9q16 0 31 -6.5t26.5 -18t18.5 -26t8 -30.5l85 35v47z" />
    <glyph glyph-name="bn_d_da" horiz-adv-x="766" 
d="M474 86l-149 -6q-5 23 -8 51.5t-5 61.5q-59 -40 -118 -46l-1 -1q-5 -1 -19.5 -1.5t-33 -1t-38 -0.5h-32.5h-20v349h-54v65h773v-65h-576v-236q13 4 30.5 12t34.5 21t32.5 32t26.5 45l9 30l8 53h150l-5 -34q-6 -35 -11.5 -87.5t-5.5 -107.5v-24q16 5 35 16t36 28t30.5 40
t18.5 52l8 52h151l-5 -34q-5 -35 -11 -87t-6 -107q-1 -48 5.5 -91t11.5 -69l5 -25v-2h-151l-9 47q-9 46 -12 113q-58 -40 -95 -43z" />
    <glyph glyph-name="bn_d_d_ba" horiz-adv-x="765" 
d="M721 -158l-292 30v19q0 39 11 71.5t30 58t45 44t56 28.5l-2 36q-58 -40 -95 -43l-149 -6q-5 23 -8 51.5t-5 61.5q-59 -40 -118 -46l-1 -1q-5 -1 -19.5 -1.5t-33 -1t-38 -0.5h-32.5h-20v349h-54v65h773v-65h-576v-236q13 4 30.5 12t34.5 21t32.5 32t26.5 45l9 30l8 53h150
l-5 -34q-6 -35 -11.5 -87.5t-5.5 -107.5v-24q16 5 35 16t36 28t30.5 40t18.5 52l8 52h151l-5 -34q-5 -35 -11 -87t-6 -107q0 -10 0.5 -88t1.5 -226zM600 -8q-19 -15 -34 -30l-16 -23l50 -9v62z" />
    <glyph glyph-name="bn_d_dha" horiz-adv-x="719" 
d="M341 54v62l-8 -6.5t-17 -15t-16.5 -17.5t-7.5 -14zM316 218q-4 23 -4 35q-58 -39 -118 -47h-1q-6 -1 -25.5 -1t-52.5 -1l-65 -1v289h-54v65h725v-65h-528v-176q31 8 52 18t36 23.5t25.5 32.5t19.5 46l8 23h150l-5 -20q-3 -9 -6 -28.5t-5.5 -44t-4 -52.5t-1.5 -54v-28
l242 67l-11 -54q-7 -32 -11.5 -72.5t-4.5 -85.5q0 -62 17 -125l-137 22l-5 31q-3 17 -5.5 39.5t-2.5 48.5q0 20 1.5 39.5t5.5 39.5l-89 -15v-201l-292 30v20q0 40 11.5 73t31.5 58.5t46.5 43.5t56.5 27z" />
    <glyph glyph-name="bn_d_dh_ba" horiz-adv-x="718" 
d="M337 -132v61q-1 0 -8.5 -6.5t-16.5 -14.5t-16.5 -17t-7.5 -14zM235 -12q25 23 52.5 35t39.5 14v5h3v68q-17 -4 -35.5 -15t-35 -27t-29 -35.5t-15.5 -40.5zM316 218q-2 12 -3 21t-1 14q-58 -39 -118 -47h-1q-6 -1 -25.5 -1t-52.5 -1l-65 -1v289h-54v65h725v-65h-528v-176
q31 8 52 18t36 23.5t25.5 32.5t19.5 46l8 23h150l-5 -20q-3 -9 -6 -28.5t-5.5 -44t-4 -52.5t-1.5 -54v-38l242 67l-11 -54q-7 -32 -11.5 -72.5t-4.5 -85.5q0 -62 17 -125l-137 22l-5 31q-3 17 -5.5 39.5t-2.5 48.5q0 20 1.5 39.5t5.5 39.5l-93 -16v-376l-292 30v19
q0 26 5.5 50t14.5 45l-98 10v8q1 58 19.5 105t49.5 82t72 57.5t87 31.5z" />
    <glyph glyph-name="bn_d_na" horiz-adv-x="499" 
d="M317 215q-2 14 -3.5 23.5t-1.5 14.5q-58 -39 -118 -47h-1q-6 -1 -25.5 -1t-52.5 -1l-65 -1v289h-54v65h504v-65h-307v-176q31 8 52 18t36 23.5t25.5 32.5t19.5 46l8 23h150l-5 -20q-2 -9 -5 -28.5t-6 -44t-4.5 -52.5t-1.5 -54v-301l-142 11v137q-43 -8 -71 -48l45 -20
v-88l-209 53q12 41 23.5 69t26 47.5t32.5 34t43 28.5q48 26 107 32z" />
    <glyph glyph-name="bn_d_ba" horiz-adv-x="496" 
d="M341 54v62l-8 -6.5t-17 -15t-16.5 -17.5t-7.5 -14zM316 218q-4 23 -4 35q-58 -39 -118 -47h-1q-6 -1 -25.5 -1t-52.5 -1l-65 -1v289h-54v65h504v-65h-307v-176q31 8 52 18t36 23.5t25.5 32.5t19.5 46l8 23h150l-5 -20q-2 -9 -5 -28.5t-6 -44t-4.5 -52.5t-1.5 -54v-294
l-292 30v20q0 40 11.5 73t31.5 58.5t46.5 43.5t56.5 27z" />
    <glyph glyph-name="bn_d_bha" horiz-adv-x="661" 
d="M-2 557h670v-66h-472v-188q18 4 38 14t38.5 27.5t34.5 42t25 59.5l153 1q-5 -32 -8.5 -70.5t-5.5 -84.5h47l-14 -59l-65 -5v-53q0 -12 9 -20t20 -8q7 0 13 3l160 71q0 -18 3 -51t3 -79q0 -41 -22.5 -77.5t-60 -63.5t-86 -43t-99.5 -16q-52 0 -94 16.5t-73.5 47t-52 73
t-27.5 93.5l132 18q3 -24 10 -46t21 -38.5t36 -26t54 -9.5q46 0 72 13.5t38.5 29.5t15.5 30l3 14l-36 -12q-20 -7 -42 -7q-26 0 -48 8.5t-38 23.5t-25.5 34t-9.5 40v44q-59 -39 -117 -45v-1h-14.5t-32.5 -1t-40.5 -1.5t-37.5 -0.5h-22v303h-53v66z" />
    <glyph glyph-name="bn_d_bh_ra" horiz-adv-x="652" 
d="M497 109l-25 -9q-10 -4 -20 -5t-20 -1q-25 0 -47 8.5t-38 23t-25.5 33t-9.5 39.5v44q-59 -39 -116 -45v-1q-24 -1 -46 -1q-19 -1 -39.5 -1h-35.5h-22v298h-54v65h654v-65h-458v-185q16 4 36.5 14t40 27.5t35 41.5t21.5 57l151 1q-5 -31 -8.5 -69t-5.5 -83h62l-14 -58
l-79 -5v-52q0 -12 8.5 -20t20.5 -8q7 0 13 3l163 76v-307l-142 15v27q-8 5 -23 10t-32 5q-34 0 -80 -28q-26 -16 -51 -22.5t-48 -6.5q-31 -1 -55 8.5t-38 17.5l-16 9l-1 1l55 91l3 -2l10 -3q12 -5 31.5 -10.5t39.5 -5.5q29 0 49 14q27 20 52 27t53 7t51 -5v35z" />
    <glyph glyph-name="bn_d_ma" horiz-adv-x="683" 
d="M684 492h-29v-492l-142 11v182q-17 -1 -38 -6.5t-41.5 -15.5t-38.5 -24t-29 -31l71 -34v-78l-226 62l2 10q0 1 2 11t8 26t16 37t25 44l-2 -1q-2 14 -3 24t-1 18q-46 -31 -90 -35q-14 -1 -33 -2q-17 -1 -41.5 -1.5t-57.5 -0.5v296h-46v65h694v-65zM167 492v-188
q34 9 62.5 37.5t40.5 75.5l7 49h136v-7q-5 -26 -8.5 -51.5t-5.5 -50.5l-3 -57q28 11 56 17t61 8v167h-346z" />
    <glyph glyph-name="bn_d_ra" horiz-adv-x="506" 
d="M322 70q-4 24 -6.5 47t-3.5 46q-59 -40 -118 -46l-1 -1q-5 -1 -19.5 -1.5t-33 -1t-38 -0.5h-32.5h-20v379h-54v65h511v-65h-314v-266q13 4 30.5 12t34.5 21t32.5 32t26.5 45l9 30l8 53h150l-5 -34q-5 -36 -11 -88t-6 -107q0 -27 0.5 -46.5t4 -44t10.5 -59t21 -90.5
l-150 1q-1 1 -3 14l-18 6q-5 1 -11 1.5t-12 0.5q-18 0 -40 -6t-48 -22q-26 -17 -51 -23t-48 -6q-31 -1 -55 8.5t-38 17.5l-16 9l-2 1l55 92v-1q2 0 3 -1l11 -4q13 -5 32 -10.5t39 -5.5q13 0 25.5 3t22.5 11q26 20 52.5 27.5t51.5 7.5h10t10 -1h4z" />
    <glyph glyph-name="bn_d_ra_ukaar" horiz-adv-x="734" 
d="M345 -35l-18 6q-5 1 -11 1.5t-12 0.5q-18 0 -40 -6t-48 -22q-26 -17 -51 -23t-48 -6q-31 -1 -55 8.5t-38 17.5l-16 9l-2 1l55 92v-1q2 0 3 -1l11 -4q13 -5 32 -10.5t39 -5.5q13 0 25.5 3t22.5 11q26 20 52.5 27.5t51.5 7.5h10t10 -1h4q-4 24 -6.5 47t-3.5 46
q-59 -40 -118 -46l-1 -1q-5 -1 -19.5 -1.5t-33 -1t-38 -0.5h-32.5h-20v379h-54v65h740v-65h-543v-266q13 4 30.5 12t34.5 21t32.5 32t26.5 45l9 30l8 53h150l-5 -34q-4 -17 -6 -39t-5 -48l-4 -37q18 -9 33 -12.5t27 -3.5q21 0 33.5 10t19.5 24.5t9 29.5t2 25v11l125 10v-2
q2 -4 2.5 -16.5t0.5 -26.5q0 -20 -4.5 -45.5t-18.5 -47.5t-39.5 -37t-66.5 -15q-38 0 -71.5 12t-53.5 22v-9q0 -49 5.5 -90.5t16.5 -92.5l14 -57l-150 1q-1 1 -3 14z" />
    <glyph glyph-name="bn_d_ra_uukaar" horiz-adv-x="739" 
d="M345 -35l-18 6q-5 1 -11 1.5t-12 0.5q-18 0 -40 -6t-48 -22q-26 -17 -51 -23t-48 -6q-31 -1 -55 8.5t-38 17.5l-16 9l-2 1l55 92v-1q2 0 3 -1l11 -4q13 -5 32 -10.5t39 -5.5q13 0 25.5 3t22.5 11q26 20 52.5 27.5t51.5 7.5h10t10 -1h4q-4 24 -6.5 47t-3.5 46
q-59 -40 -118 -46l-1 -1q-5 -1 -19.5 -1.5t-33 -1t-38 -0.5h-32.5h-20v379h-54v65h750v-65h-553v-266q13 4 30.5 12t34.5 21t32.5 32t26.5 45l9 30l8 53h150l-5 -34q-2 -10 -4 -21t-3 -24l252 69l-11 -54q-7 -32 -11.5 -72.5t-4.5 -85.5q0 -62 17 -125l-137 22l-5 31
q-3 17 -5.5 39.5t-2.5 48.5q0 20 1.5 39.5t5.5 39.5l-106 -18q-3 -41 -3 -84q0 -27 0.5 -46.5t4 -44t10.5 -59t21 -90.5l-150 1q-1 1 -3 14z" />
    <glyph glyph-name="bn_dh_na" horiz-adv-x="553" 
d="M384 171v193q-38 -7 -72 -25t-59.5 -41.5t-40.5 -48.5t-15 -47zM384 103l-334 32q2 143 79 231l-4 -4q-34 21 -56 60.5t-22 84.5q0 39 21 80l166 -31q-34 -40 -34 -68q0 -25 19 -50q23 14 47 23.5t45.5 16t40.5 9.5t32 5v65h170v-65h-28v-630l-142 22v99q-43 -6 -54 -17
l30 -10v-89l-214 40q16 42 30 68t29 42.5t33 26.5t42 20q23 10 49 15.5t55 7.5v16z" />
    <glyph glyph-name="bn_dh_ba" horiz-adv-x="931" 
d="M762 85v250q-30 -6 -69.5 -27.5t-73.5 -66.5q-26 -38 -34.5 -70.5t-8.5 -48.5zM385 85v251q-30 -7 -69.5 -28.5t-73.5 -66.5q-25 -37 -34.5 -70t-9.5 -48zM385 557h547v-65h-28v-492l-377 44v-44l-476 56q2 163 77 267l4 5q-41 30 -62.5 76.5t-21.5 98.5q0 47 19 91
l161 -37q-27 -39 -27 -77q0 -33 20 -67q21 15 44.5 26.5t46 19.5t41.5 12.5t32 6.5v79zM527 348q30 34 63.5 58t65.5 39.5t59.5 23t46.5 9.5v14h-235v-144z" />
    <glyph glyph-name="bn_dh_ma" horiz-adv-x="820" 
d="M384 171v193q-38 -7 -72 -25t-59.5 -41.5t-40.5 -48.5t-15 -47zM526 223q59 38 127 42v227h-127v-269zM414 100l-364 35q2 143 79 231l-4 -4q-34 21 -56 60.5t-22 84.5q0 39 21 80l166 -31q-34 -40 -34 -68q0 -25 19 -50q23 14 47 23.5t45.5 16t40.5 9.5t32 5v65h437v-65
h-28v-515l-142 11v145q-26 -2 -57.5 -20t-57.5 -57l71 -34v-78l-226 62l2 10q0 1 7 25t24 59z" />
    <glyph glyph-name="bn_dh_ra" horiz-adv-x="554" 
d="M556 492h-29v-633l-142 22v13q-15 9 -31 14.5t-36 5.5q-18 0 -39 -6.5t-46 -21.5q-26 -17 -51 -23t-48 -6q-31 -1 -55 8.5t-38 17.5l-16 9l-2 1l55 92v-1q2 0 3 -1l11 -4q13 -5 32 -10.5t39 -5.5q28 0 48 14q26 20 54 27.5t53 7.5q17 0 38 -3t26 -8h2v16l-333 39
q2 163 77 267l4 5q-41 30 -62.5 76.5t-21.5 98.5q0 47 19 91l161 -37q-27 -39 -27 -77q0 -33 20 -67q21 15 44.5 26.5t46 19.5t41.5 12.5t32 6.5v79h171v-65zM384 85l1 251q-30 -7 -69.5 -28.5t-73.5 -66.5q-25 -37 -34.5 -70t-9.5 -48z" />
    <glyph glyph-name="bn_dh_ra_ukaar" horiz-adv-x="808" 
d="M386 -106q-15 9 -31 14.5t-36 5.5q-18 0 -39 -6.5t-46 -21.5q-26 -17 -51 -23t-48 -6q-31 -1 -55 8.5t-38 17.5l-16 9l-2 1l55 92v-1q2 0 3 -1l11 -4q13 -5 32 -10.5t39 -5.5q28 0 48 14q26 20 54 27.5t53 7.5q17 0 38 -3t26 -8h2v16l-333 39q2 163 77 267l4 5
q-41 30 -62.5 76.5t-21.5 98.5q0 47 19 91l161 -37q-27 -39 -27 -77q0 -33 20 -67q21 15 44.5 26.5t46 19.5t41.5 12.5t32 6.5v79h426v-65h-284v-232q17 -8 31.5 -11.5t25.5 -3.5q21 0 33.5 10t19.5 24.5t9 29.5t2 25v11l125 10v-2q2 -4 2.5 -16.5t0.5 -26.5
q0 -20 -4.5 -45.5t-18.5 -47.5t-39.5 -37t-66.5 -15q-35 0 -68.5 10.5t-51.5 20.5v-337l-142 22v13zM385 85l1 251q-30 -7 -69.5 -28.5t-73.5 -66.5q-25 -37 -34.5 -70t-9.5 -48z" />
    <glyph glyph-name="bn_dh_ra_uukaar" horiz-adv-x="794" 
d="M386 -106q-15 9 -31 14.5t-36 5.5q-18 0 -39 -6.5t-46 -21.5q-26 -17 -51 -23t-48 -6q-31 -1 -55 8.5t-38 17.5l-16 9l-2 1l55 92v-1q2 0 3 -1l11 -4q13 -5 32 -10.5t39 -5.5q28 0 48 14q26 20 54 27.5t53 7.5q17 0 38 -3t26 -8h2v16l-333 39q2 163 77 267l4 5
q-41 30 -62.5 76.5t-21.5 98.5q0 47 19 91l161 -37q-27 -39 -27 -77q0 -33 20 -67q21 15 44.5 26.5t46 19.5t41.5 12.5t32 6.5v79h413v-65h-271v-151l247 68l-11 -54q-7 -32 -11.5 -72.5t-4.5 -85.5q0 -62 17 -125l-137 22l-5 31q-3 17 -5.5 39.5t-2.5 48.5q0 20 1.5 39.5
t5.5 39.5l-94 -16v-417l-142 22v13zM385 85l1 251q-30 -7 -69.5 -28.5t-73.5 -66.5q-25 -37 -34.5 -70t-9.5 -48z" />
    <glyph glyph-name="bn_n_jha" horiz-adv-x="821" 
d="M301 485l1 6h-302v66h826v-66h-401l-7 -34h366l12 -74q5 -28 6.5 -59t1.5 -65q0 -17 0.5 -45t-4.5 -65.5t-17.5 -83.5t-37.5 -99l-146 48l21 48q14 30 26.5 84t12.5 117q0 59 -12 128l-243 -6l-11 -56l215 32l1 -2q6 -14 6 -82q0 -61 -23.5 -109.5t-63 -82t-91 -51.5
t-108.5 -18q-50 0 -92 16t-74 44.5t-54.5 68t-34.5 86.5l159 -21l6 -8q25 -40 90 -43q30 0 56 7t46 20.5t31.5 33t11.5 44.5l-205 -21l18 139q-73 -8 -83 -18l30 -10v-89l-214 40q16 42 30 68t29 42.5t33 26.5t42 20q48 20 147 23z" />
    <glyph glyph-name="bn_n_ttha" horiz-adv-x="787" 
d="M628 213q3 15 3 30q0 40 -18 81.5t-53 77.5q-13 -54 -45.5 -118.5t-93.5 -122.5q13 -15 35 -25.5t57 -10.5q31 0 52 8t34 20.5t20 28.5t9 31zM441 477q2 10 2 15h-455v65h435q-21 63 -21 116h133q0 -22 8.5 -55t18.5 -61h228v-65h-133q106 -111 106 -249
q0 -59 -18.5 -106t-52 -79t-79.5 -49t-101 -17q-56 2 -97.5 19t-71 41.5t-47 52t-23.5 51.5l-15 46l39 28q38 27 63 59t42 64q-8 1 -16 1.5t-16 0.5q-98 0 -183 -78l45 -19v-89l-209 53q82 259 345 259q17 0 35 -1t38 -3z" />
    <glyph glyph-name="bn_n_dda" horiz-adv-x="650" 
d="M292 485v7h-294v65h653v-65h-245v-151l210 83l1 -14q2 -20 4 -51t2 -76q-2 -61 -26 -108.5t-62 -80t-88 -49.5t-104 -17q-97 0 -161.5 57t-86.5 155l146 -8q28 -61 102 -64q33 0 59 11t44.5 29t28 41.5t9.5 48.5v2l-192 -51v132q-47 -6 -58 -17l30 -10v-89l-214 40
q16 42 30 68t29 42.5t33 26.5t42 20q48 20 108 23z" />
    <glyph glyph-name="bn_n_dd_ra" horiz-adv-x="650" 
d="M292 381q-47 -6 -58 -17l30 -10v-89l-214 40q16 42 30 68t29 42.5t33 26.5t42 20q48 20 108 23v7h-294v65h643v-65h-235v-151l210 83l1 -14q2 -20 4 -51t2 -76q0 -51 -16.5 -91t-43.5 -72v-257l-142 22v11l-11 7q-8 5 -22 9.5t-32 4.5t-40 -6t-48 -22q-26 -17 -51 -23
t-48 -6q-31 0 -55 8t-38 18h-1q-13 8 -16 9l-1 1l55 92v-1q2 0 3 -1l11 -4q13 -5 32 -10.5t39 -5.5q28 0 48 14q26 20 54 27.5t53 7.5q17 0 38 -3t26 -8h1q1 -1 3 -1v34q-38 -9 -78 -9q-97 0 -161.5 57t-86.5 155l146 -8q28 -61 102 -64q33 0 59 11t44.5 29t28 41.5
t9.5 48.5v2l-192 -51v132z" />
    <glyph glyph-name="bn_n_ta" horiz-adv-x="651" 
d="M-2 557h664v-65h-125v-184h2q21 -9 38.5 -22.5t30.5 -32.5t20.5 -44t7.5 -58q0 -43 -14 -74t-38 -52.5t-54.5 -34.5t-64 -20t-66.5 -9.5t-61 -2.5q-118 0 -185.5 58t-84.5 157q-1 3 -1 11l142 -16q6 -35 21.5 -56.5t36 -33.5t44 -16.5t45.5 -4.5q20 0 36.5 2t26.5 4h5
q15 3 31.5 9t30 16t22 24t8.5 34q0 26 -11.5 42.5t-27 26t-31.5 13t-24 3.5h-11l-5 -7q-4 -6 -9.5 -14.5t-9.5 -15.5l-4 -6l63 -7l-17 -45h-153l70 190h49v29q-29 7 -59 7q-31 0 -57.5 -6t-45.5 -14l-27 -11l70 -29v-59l-245 58l7 19q7 18 25.5 43.5t54 49.5t91.5 40.5
t138 16.5h23t25 -1v23h-397v65z" />
    <glyph glyph-name="bn_n_t_ba" horiz-adv-x="660" 
d="M295 25q-100 14 -155.5 60t-71.5 130q-2 6 -2 15q33 -4 73.5 -8t68.5 -6q6 -30 21.5 -49.5t36.5 -30t44.5 -14.5t45.5 -4q20 0 36.5 2t26.5 4h5q15 2 31 7t29.5 13.5t22 20t8.5 26.5q0 25 -17 41t-36.5 24t-35.5 11t-14 3l-2 1q0 -5 -4 -11.5t-8.5 -12t-9 -9.5t-5.5 -4
l-1 -1l66 -6l-21 -47h-154l73 175h48v17q-15 3 -30 4t-29 1q-31 0 -57.5 -4t-45.5 -8v-1q-10 -2 -16 -3t-9 -2h-2l70 -26v-59l-244 59l7 16t26.5 39t55.5 43.5t92 35t137 14.5h22t23 -1v12h-397v65h664v-65h-125v-153h2q20 -8 38 -20t31 -29.5t20.5 -41t7.5 -54.5
q0 -36 -13 -62.5t-34 -45.5t-48 -30.5t-56 -18.5v-245l-292 30v20q0 64 29 110.5t74 72.5zM364 -120v62q-8 -2 -35 -30l-15 -23z" />
    <glyph glyph-name="bn_n_t_ra" horiz-adv-x="672" 
d="M-3 492v65h678v-65h-139v-184l4 -2h109v-342l-142 20v23q-18 6 -41 6q-20 0 -44.5 -7t-53.5 -24q-29 -18 -57 -25.5t-54 -7.5q-35 0 -63 9t-44 20l-19 12l61 103l16 -7q14 -6 36.5 -11.5t44.5 -5.5q14 0 28.5 3.5t26.5 12.5q29 23 59 31.5t58 7.5q12 0 23 -1t21 -3v65
q-9 14 -20.5 23t-23.5 14t-23 7t-19 2h-10l-5 -7q-4 -6 -9.5 -14.5t-9.5 -15.5l-4 -6l63 -7l-17 -45h-153l70 190h49v29q-29 7 -59 7q-31 0 -57 -6t-45 -14l-27 -11l69 -29v-59l-245 58l7 19q7 18 25.5 43.5t54 49.5t91.5 40.5t138 16.5h23t25 -1v23h-396z" />
    <glyph glyph-name="bn_n_tha" horiz-adv-x="675" 
d="M679 492h-142v-174l15 -4q49 -21 78 -56t29 -82q0 -24 -8.5 -49t-28.5 -47.5t-53 -40t-81 -26.5l190 -49v-69l-475 109l-9 102l29 -2q21 -2 45 -2.5t48 -0.5q29 0 65.5 1t68.5 7.5t54 21t22 41.5q0 22 -13 36t-29.5 22t-32.5 11t-22 3l-10 1l-31 -39l41 -7l-19 -40h-145
l81 171h48v25q-29 7 -59 7q-31 0 -57 -6t-45 -14l-27 -11l69 -29v-59l-245 58l7 19q7 18 25.5 43.5t54 49.5t91.5 40.5t138 16.5h23t25 -1v23h-396v65h681v-65z" />
    <glyph glyph-name="bn_n_dha" horiz-adv-x="819" 
d="M416 355q-20 0 -49.5 -5.5t-59.5 -16t-56 -24.5t-38 -30l50 -18l-29 -70l-178 40l-5 4q12 49 36.5 85.5t55.5 63t67 44t72.5 27.5t71 14t62.5 4v19h-417v65h827v-65h-268v-201l246 68l-11 -54q-7 -32 -11.5 -72.5t-4.5 -85.5q0 -62 17 -125l-137 22l-5 31
q-3 17 -5.5 39.5t-2.5 48.5q0 20 1.5 39.5t5.5 39.5l-93 -16v-270l-370 38v8q1 69 24.5 118.5t58 82.5t74 51t71.5 24v77zM416 34v132q-16 -6 -32.5 -17.5t-31 -27t-24.5 -33.5t-13 -36z" />
    <glyph glyph-name="bn_n_dh_ba" horiz-adv-x="818" 
d="M437 -72v61q-1 0 -8.5 -6.5t-16.5 -14.5t-16.5 -17t-7.5 -14zM416 355q-20 0 -49.5 -5.5t-59.5 -16t-56 -24.5t-38 -30l50 -18l-29 -70l-178 40l-5 4q12 49 36.5 85.5t55.5 63t67 44t72.5 27.5t71 14t62.5 4v19h-417v65h827v-65h-268v-201l246 68l-11 -54
q-7 -32 -11.5 -72.5t-4.5 -85.5q0 -62 17 -125l-137 22l-5 31q-3 17 -5.5 39.5t-2.5 48.5q0 20 1.5 39.5t5.5 39.5l-93 -16v-386l-292 30v19q0 26 5.5 50t14.5 45l-98 10v8q1 69 24.5 118.5t58 82.5t74 51t71.5 24v77zM416 166q-16 -6 -32.5 -17.5t-31 -27t-24.5 -33.5
t-13 -36l20 -4q21 20 44.5 31t36.5 15v72z" />
    <glyph glyph-name="bn_n_dh_ra" horiz-adv-x="819" 
d="M416 34v132q-16 -6 -32.5 -17.5t-31 -27t-24.5 -33.5t-13 -36zM558 291l246 68l-11 -54q-7 -32 -11.5 -72.5t-4.5 -85.5q0 -62 17 -125l-137 22l-5 31q-3 17 -5.5 39.5t-2.5 48.5q0 20 1.5 39.5t5.5 39.5l-93 -16v-413l-142 22v11q-15 10 -31.5 16t-35.5 6q-38 0 -86 -29
q-26 -17 -51 -23t-48 -6q-31 0 -55 8t-38 18h-2q-11 7 -15 9l-1 1l55 92v-1q2 0 3 -1l11 -4q13 -5 32 -10.5t39 -5.5q28 0 48 14q26 20 54 27.5t53 7.5q20 0 35.5 -3t26.5 -7h1q2 -1 3 -1t2 -1v18l-228 23v8q1 69 24.5 118.5t58 82.5t74 51t71.5 24v77q-20 0 -49.5 -5.5
t-59.5 -16t-56 -24.5t-38 -30l50 -18l-29 -70l-178 40l-5 4q12 49 36.5 85.5t55.5 63t67 44t72.5 27.5t71 14t62.5 4v19h-417v65h827v-65h-268v-201z" />
    <glyph glyph-name="bn_n_na" horiz-adv-x="585" 
d="M416 355q-20 0 -49.5 -5.5t-59.5 -16t-56 -24.5t-38 -30l50 -18l-29 -70l-178 40l-5 4q12 49 36.5 85.5t55.5 63t67 44t72.5 27.5t71 14t62.5 4v19h-417v65h589v-65h-30v-537l-142 22v117q-20 0 -49.5 -5.5t-59.5 -16t-56 -24.5t-38 -30l50 -18l-29 -70l-178 40l-5 4
q19 73 62 119.5t96 72.5t108 36t99 11v142z" />
    <glyph glyph-name="bn_n_ba" horiz-adv-x="585" 
d="M416 27v132q-16 -6 -32.5 -17.5t-31 -27t-24.5 -33.5t-13 -36zM416 355q-20 0 -49.5 -5.5t-59.5 -16t-56 -24.5t-38 -30l50 -18l-29 -70l-178 40l-5 4q12 49 36.5 85.5t55.5 63t67 44t72.5 27.5t71 14t62.5 4v19h-417v65h589v-65h-30v-543l-370 38v8q1 69 24.5 118.5
t58 82.5t74 51t71.5 24v84z" />
    <glyph glyph-name="bn_n_ma" horiz-adv-x="742" 
d="M488 312l19 4q15 3 31.5 5.5t34.5 3.5v167h-85v-180zM354 231v114q-16 0 -41 -6.5t-51 -18.5t-49 -29.5t-35 -40.5l79 -38v-69l-222 61l-3 4q14 77 52.5 127t86.5 80t97.5 42t85.5 14v21h-357v65h746v-65h-28v-492l-142 11v182q-17 -1 -38 -6.5t-41.5 -15.5t-38.5 -24
t-29 -31l71 -34v-78l-226 62l2 10q5 26 16 52q9 23 24.5 50t40.5 53z" />
    <glyph glyph-name="bn_n_ra" horiz-adv-x="585" 
d="M416 292q-21 0 -50.5 -7t-59.5 -21t-57 -35.5t-43 -50.5l91 -43v-70l-245 69q16 85 58.5 140.5t95.5 88.5t109.5 46.5t100.5 15.5v67h-417v65h588v-65h-29v-598l-142 22v11q-15 10 -31.5 16t-35.5 6q-38 0 -86 -29q-26 -17 -51 -23t-48 -6q-31 0 -55 8t-38 18h-1
q-13 8 -16 9l-1 1l55 92v-1q2 0 3 -1l11 -4q13 -5 32 -10.5t39 -5.5q28 0 48 14q26 20 54 27.5t53 7.5q22 0 43 -4t25 -8v258z" />
    <glyph glyph-name="bn_n_sa" horiz-adv-x="685" 
d="M516 206v286h-198q64 -35 102 -96t38 -136v-14t-1 -14zM688 492h-30v-493l-142 22v88l-83 40q-64 -129 -226 -154q-1 -1 -3 -1h-3v97q22 5 43.5 18.5t38.5 34.5t27 48t10 58h-18q-56 0 -96.5 -19.5t-57.5 -50.5l33 -16v-75l-164 46l-5 5q12 59 39 100.5t61.5 68
t73.5 40.5t77 19q-25 19 -62 25v99h-208v65h695v-65z" />
    <glyph glyph-name="bn_p_tta" horiz-adv-x="935" 
d="M373 372q-42 35 -80 45.5t-84 12.5q1 -2 6 -19.5t10 -41.5t9.5 -50.5t5.5 -46.5zM576 155q22 5 53.5 19t61 39t51.5 62t26 89l-113 15l-15 64h269q1 -7 1 -13.5v-13.5q0 -70 -16.5 -125t-43.5 -97.5t-62 -73t-72 -51t-73.5 -31t-66.5 -13.5q-5 -1 -19.5 -1.5t-32.5 -1
t-37.5 -0.5h-32.5h-20v282l-8 13l-207 -177l-127 38q3 27 3 52q0 43 -7 78.5t-15 61t-15 39.5l-7 14v2q1 1 1 2l3 10q3 12 8.5 31.5t11.5 37.5l15 45h2q5 2 28.5 4t52.5 2q40 0 78 -8t71.5 -21.5t62 -30.5t49.5 -35v95h509v-65h-367v-337zM818 558q-4 9 -18.5 22t-46.5 13
q-12 0 -28.5 -3t-33.5 -6.5t-34 -6.5t-30 -3q-37 0 -65.5 10.5t-49 27t-34 36t-20.5 36.5l109 88q1 -8 5 -19.5t11.5 -22t18.5 -17.5t28 -7q13 0 29 3t32.5 6.5t32.5 6.5t29 3q53 0 91 -18t61 -44l-85 -104z" />
    <glyph glyph-name="bn_p_ta" horiz-adv-x="690" 
d="M575 269h4q21 -9 38.5 -22.5t30.5 -32.5t20.5 -44t7.5 -58q0 -63 -30 -101t-75 -58.5t-97 -27t-96 -6.5q-118 0 -185.5 58.5t-84.5 156.5q-1 3 -1 11l142 -16q6 -35 21.5 -56.5t36 -33.5t44 -16.5t45.5 -4.5q20 0 36.5 2t26.5 4h5q15 3 31.5 9t30 16t22 24t8.5 34
q0 26 -11.5 42.5t-27 26t-31.5 13t-24 3.5h-11l-4 -6q-7 -8 -14.5 -20.5t-7.5 -14.5l-2 -2l63 -7l-17 -45h-153l70 190h47l-1 55l-4 6t-4 5l-205 -151l-127 33q2 11 2 21.5v20.5q0 37 -6.5 67.5t-14 52.5t-14.5 34t-8 12l1 2q1 2 2 6t3 9l32 89l3 2q5 2 29 4t54 2
q38 0 75 -7t70.5 -18t62 -26t49.5 -30v81h259v-65h-116v-223zM372 399q-42 30 -80 39t-83 11q1 -3 5.5 -18t10 -35t9.5 -42t5 -39z" />
    <glyph glyph-name="bn_p_t_ra" horiz-adv-x="724" 
d="M432 326v16l-4 6t-4 5l-205 -151l-127 33q2 11 2 21.5v20.5q0 37 -6.5 67.5t-14 52.5t-14.5 34t-8 12l1 2q1 2 2 6t3 9l32 89l3 2q5 2 29 4t54 2q38 0 75 -7t70.5 -18t62 -26t49.5 -30v81h300v-65h-157v-186h134v-342l-142 17v26q-12 4 -25 5t-27 1q-11 0 -31.5 -5
t-55.5 -26q-53 -33 -107 -33q-33 0 -61.5 8.5t-48.5 20.5l-20 12l61 103l17 -6q18 -7 42 -13.5t48 -4.5q7 0 19 2.5t26 13.5q51 39 119 39q25 0 42 -4v65q-15 24 -39 35t-46 11h-11l-28 -43l63 -7l-17 -45h-153l70 190h28zM372 399q-42 30 -80 39t-83 11q1 -3 5.5 -18
t10 -35t9.5 -42t5 -39z" />
    <glyph glyph-name="bn_p_na" horiz-adv-x="606" 
d="M607 492h-30v-545l-142 12v170q-16 -1 -36.5 -6.5t-41 -15t-39 -23.5t-29.5 -32l70 -33v-79l-225 63q-1 -1 2.5 16.5t14.5 44.5t31.5 59.5t53.5 62t81.5 50.5t114.5 25v81l-4 6t-4 5l-205 -151l-127 33q2 11 2 21.5v20.5q0 37 -6.5 67.5t-14 52.5t-14.5 34t-8 12l1 2
q1 2 2 6t3 9l32 89l3 2q5 2 29 4t54 2q36 0 72.5 -6.5t70 -17.5t63 -26t51.5 -31v81h175v-65zM239 315l133 84q-42 30 -80 39t-83 11q1 -3 5.5 -18t10 -35t9.5 -42t5 -39z" />
    <glyph glyph-name="bn_p_pa" horiz-adv-x="602" 
d="M603 492h-29v-545l-142 12v124l-4 6t-4 5l-205 -151l-127 33q2 11 2 21.5v20.5q0 37 -6.5 67.5t-14 52.5t-14.5 34t-8 12l1 2q1 2 2 6t3 9l27 75l6 15l5 1q-2 35 -8.5 63t-14 47.5t-14 30t-7.5 10.5l1 2q1 2 2 6t3 9l32 89l3 2q5 2 29 4t54 2q38 0 75 -7t70.5 -18t62 -26
t49.5 -30v81h171v-65zM372 140q-42 30 -80 39t-83 11q1 -3 5.5 -18t10 -35t9.5 -42t5 -39zM372 399q-42 30 -80 39t-83 11q1 -3 5.5 -18t10 -35t9.5 -42t5 -39zM354 261q24 -11 43.5 -22t34.5 -22v125l-4 6t-4 5l-106 -78q9 -3 18 -6.5t18 -7.5z" />
    <glyph glyph-name="bn_p_ra" horiz-adv-x="604" 
d="M606 492h-30v-498l-142 22v9q-13 8 -28.5 13.5t-35.5 5.5q-18 0 -39.5 -6t-46.5 -22q-26 -17 -51 -23t-48 -6q-31 0 -55 8t-38 18l-17 9l-1 1l55 92v-1q2 0 3 -1l11 -4q13 -5 32 -10.5t39 -5.5q28 0 48 14q26 20 54 27.5t53 7.5q20 0 35.5 -3t26.5 -7l1 -1h2v173l-8 13
l-207 -177l-127 38q3 27 3 52q0 43 -7 78.5t-15 61t-15 39.5l-7 14v2q1 1 1 2l3 10q3 12 8.5 31.5t11.5 37.5l15 45h2q5 2 28.5 4t52.5 2q40 0 78 -8t71.5 -21.5t62 -30.5t49.5 -35v95h172v-65zM373 372q-42 35 -80 45.5t-84 12.5q1 -2 6 -19.5t10 -41.5t9.5 -50.5
t5.5 -46.5z" />
    <glyph glyph-name="bn_p_ra_ukaar" horiz-adv-x="857" 
d="M859 492h-282v-230q18 -10 33.5 -13.5t27.5 -3.5q21 0 33.5 10t19.5 24.5t9 29.5t2 25v11l125 10v-2q2 -4 2.5 -16.5t0.5 -26.5q0 -20 -4.5 -45.5t-18.5 -47.5t-39.5 -37t-66.5 -15q-37 0 -70.5 11.5t-53.5 21.5v-204l-143 22v9q-13 8 -28.5 13.5t-35.5 5.5
q-18 0 -39.5 -6t-46.5 -22q-26 -17 -51 -23t-48 -6q-31 0 -55 8t-38 18l-17 9l-1 1l55 92v-1q2 0 3 -1l11 -4q13 -5 32 -10.5t39 -5.5q28 0 48 14q26 20 54 27.5t53 7.5q20 0 35.5 -3t26.5 -7l1 -1h2v173l-8 13l-207 -177l-127 38q3 27 3 52q0 43 -7 78.5t-15 61t-15 39.5
l-7 14v2q1 1 1 2l3 10q3 12 8.5 31.5t11.5 37.5l15 45h2q5 2 28.5 4t52.5 2q40 0 78 -8t71.5 -21.5t62 -30.5t49.5 -35v95h425v-65zM373 372q-42 35 -80 45.5t-84 12.5q1 -2 6 -19.5t10 -41.5t9.5 -50.5t5.5 -46.5z" />
    <glyph glyph-name="bn_p_ra_uukaar" horiz-adv-x="858" 
d="M859 492h-282v-154l256 71l-11 -54q-7 -32 -11.5 -72t-4.5 -87q0 -62 17 -125l-136 23l-6 30q-8 37 -8 88q0 19 1.5 39.5t5.5 40.5l-103 -17v-281l-143 22v9q-13 8 -28.5 13.5t-35.5 5.5q-18 0 -39.5 -6t-46.5 -22q-26 -17 -51 -23t-48 -6q-31 0 -55 8t-38 18l-17 9l-1 1
l55 92v-1q2 0 3 -1l11 -4q13 -5 32 -10.5t39 -5.5q28 0 48 14q26 20 54 27.5t53 7.5q20 0 35.5 -3t26.5 -7l1 -1h2v173l-8 13l-207 -177l-127 38q3 27 3 52q0 43 -7 78.5t-15 61t-15 39.5l-7 14v2q1 1 1 2l3 10q3 12 8.5 31.5t11.5 37.5l15 45h2q5 2 28.5 4t52.5 2
q40 0 78 -8t71.5 -21.5t62 -30.5t49.5 -35v95h425v-65zM373 372q-42 35 -80 45.5t-84 12.5q1 -2 6 -19.5t10 -41.5t9.5 -50.5t5.5 -46.5z" />
    <glyph glyph-name="bn_p_la" horiz-adv-x="605" 
d="M606 492h-29v-493l-142 12v50l-154 -39v98q0 8 -5 11.5t-12 3.5q-42 -10 -70.5 -28t-40.5 -41l65 -27v-71l-192 54h-11q16 82 48.5 127t82.5 72l-54 14q2 11 2 21.5v20.5q0 37 -6.5 67.5t-14 52.5t-14.5 34t-8 12l1 2q1 2 2 6t3 9l32 89l3 2q5 2 29 4t54 2
q36 0 72.5 -6.5t70 -17.5t63 -26t51.5 -31v81h174v-65zM354 145l79 34l-1 163l-4 6t-4 5l-140 -103q33 -11 51.5 -37t18.5 -58v-10zM239 315l133 84q-42 30 -80 39t-83 11q1 -3 5.5 -18t10 -35t9.5 -42t5 -39z" />
    <glyph glyph-name="bn_p_sa" horiz-adv-x="785" 
d="M402 317q-15 32 -39.5 51.5t-61.5 24.5v99h-303v65h788v-65h-28v-493l-142 22v88l-83 40q-64 -129 -226 -154q-1 -1 -3 -1h-3v97q29 7 59 31t47 59q-5 4 -6 9l-205 -151l-127 33q2 11 2 21.5v20.5q0 37 -6.5 67.5t-14 52.5t-14.5 34t-8 12l1 2q1 2 2 6t3 9l32 89l3 2
q5 2 29 4t54 2q70 0 137 -21.5t113 -55.5zM616 206v286h-198q64 -35 102 -96t38 -136v-14t-1 -14zM216 152l133 84q-42 30 -80 39t-83 11q1 -3 5.5 -18t10 -35t9.5 -42t5 -39z" />
    <glyph glyph-name="bn_ph_tta" horiz-adv-x="801" 
d="M-2 492v65h806v-65h-593q14 -13 30 -33t30.5 -43t27 -47t20.5 -44l8 -21l-9.5 -7.5t-23 -18t-27.5 -22.5t-23 -22q-21 -22 -31.5 -38.5t-12.5 -33.5l171 -35v338h155q61 0 110.5 -27t76.5 -72l-142 -50q-19 30 -58 50v-228q21 1 42 4.5t38.5 12.5t30 23t16.5 36l-62 10
l-14 65l217 4q1 -7 1 -13.5v-13.5v-5q0 -73 -27 -120t-67.5 -75t-87.5 -41t-87 -18l-142 -18v76l-334 36q0 88 37 150t108 104l-3 6q-2 7 -10 21.5t-25 37.5q-51 58 -78 72h-68zM403 604q-50 36 -69 81l109 89q1 -8 5 -19.5t11.5 -22t18.5 -17.5t27 -7q15 0 36 6
q46 13 89 13q53 0 90.5 -18.5t61.5 -44.5l-85 -104h-2q-4 7 -18.5 20.5t-46.5 13.5q-12 0 -28 -3t-33 -6.5t-34.5 -6.5t-30.5 -3q-34 0 -59 8.5t-42 20.5zM695 559h1l-1 1v-1z" />
    <glyph glyph-name="bn_ph_ra" horiz-adv-x="775" 
d="M384 12l-333 29q0 98 37.5 172t107.5 122v1q0 1 -5.5 17.5t-31.5 56.5q-50 67 -78 82h-83v65h780v-65h-553q14 -15 30.5 -38t31.5 -50t27.5 -54.5t19.5 -49.5l7 -22l1 -2q-1 0 -10.5 -9t-23 -21t-27.5 -26t-23 -25q-21 -25 -30.5 -45.5t-13.5 -46.5l171 -41v363h154
q44 0 82 -17t66.5 -46t46 -67t19.5 -81l-160 -40q1 7 1.5 13t0.5 12q0 72 -68 111v-468l-142 22v12q-15 9 -31 14.5t-36 5.5q-18 0 -39 -6.5t-46 -21.5q-26 -17 -51 -23t-48 -6q-31 -1 -55 8.5t-38 17.5l-16 9l-2 1l55 92v-1q2 0 3 -1l11 -4q13 -5 32 -10.5t39 -5.5
q28 0 48 14q26 20 54 27.5t53 7.5q20 0 35.5 -3t26.5 -7h1q1 -1 3 -1v29z" />
    <glyph glyph-name="bn_ph_la" horiz-adv-x="749" 
d="M365 93l-338 32l4 1q0 78 36 141t106 103v-1q1 0 1 1q0 2 -6.5 13t-27.5 40q-50 55 -78 69h-65v65h761v-65h-541q14 -12 32 -38.5t34 -54.5t27 -53t11 -34q-2 -1 -11.5 -8.5t-23 -18t-27.5 -22t-23 -20.5q-21 -20 -30 -36.5t-11 -28.5l170 -34v304h154q43 0 81 -14.5
t66.5 -39t46.5 -56.5t20 -68v-11l-161 -33q1 6 1.5 11.5t0.5 10.5q0 62 -67 93v-489l-142 22v49l-158 -40v88q0 3 -4 3q-14 -2 -27 -6.5t-23.5 -11t-17.5 -13t-9 -11.5l48 -19v-72l-178 44q12 58 34.5 96.5t50 61t58 31.5t57.5 9q16 0 31 -6.5t26.5 -18t18.5 -26t8 -30.5
l85 35v56z" />
    <glyph glyph-name="bn_b_ja" horiz-adv-x="820" 
d="M279 316l8 63h-4q-17 -1 -39 -7.5t-36 -23.5l-15 -18zM302 488v3h-302v66h826v-66h-401l-7 -34h366l12 -74q5 -28 6.5 -59t1.5 -65q0 -17 0.5 -45t-4.5 -65.5t-17.5 -83.5t-37.5 -99l-146 48l21 48q14 30 26.5 84t12.5 117q0 59 -12 128l-243 -6l-11 -56l215 32l1 -2
q6 -14 6 -82q0 -61 -23.5 -109.5t-63 -82t-91 -51.5t-108.5 -18q-50 0 -92 16t-74 44.5t-54.5 68t-34.5 86.5l159 -21l6 -8q25 -40 90 -43q30 0 56 7t46 20.5t31.5 33t11.5 44.5l-205 -21l1 6l-198 21v17q0 39 13.5 72.5t42 60t71.5 44.5t103 24z" />
    <glyph glyph-name="bn_b_da" horiz-adv-x="733" 
d="M270 228v139q-17 -4 -35.5 -15t-35 -27t-29 -35.5t-15.5 -40.5zM270 492h-273v65h741v-65h-325v-240q13 4 30.5 12t34.5 21t32.5 32t26.5 45l17 57h150l-5 -34q-5 -36 -11 -88t-6 -107q0 -31 2.5 -61t6 -54.5t7.5 -43t6 -26.5v-2h-150l-9 60q-5 30 -8.5 61.5t-4.5 64.5
q-58 -39 -118 -47h-1q-5 -1 -19.5 -1.5t-33 -1t-38 -0.5h-32.5h-20v27l-242 25v8q1 66 22.5 115.5t56 83t77.5 52.5t86 25v17z" />
    <glyph glyph-name="bn_b_dha" horiz-adv-x="786" 
d="M397 -58v139q-17 -4 -35.5 -15t-35 -27t-29 -35.5t-15.5 -40.5zM525 -133l-370 38v8q1 71 27 127l-132 16q0 102 32.5 178.5t81.5 128.5t107.5 80.5t111.5 34.5v14h-387v65h792v-65h-263v-293l251 69l-11 -54q-7 -31 -11.5 -70.5t-4.5 -84.5q0 -64 17 -129l-136 22l-6 31
q-8 37 -8 88q0 19 1.5 39.5t5.5 40.5l-98 -17v-267zM237 115q34 32 74.5 50t71.5 24v146q-30 -6 -69.5 -27.5t-73.5 -66.5q-25 -37 -34 -70t-9 -48z" />
    <glyph glyph-name="bn_b_ba" horiz-adv-x="951" 
d="M382 85v250q-30 -6 -69.5 -27.5t-73.5 -66.5q-26 -38 -34.5 -70.5t-8.5 -48.5zM782 85v250q-30 -6 -69.5 -27.5t-73.5 -66.5q-26 -38 -34.5 -70.5t-8.5 -48.5zM953 492h-29v-492l-400 47v-47l-476 56q1 102 33 178.5t81.5 128.5t108 80.5t111.5 34.5v14h-384v65h955v-65z
M524 492v-172l2 3q32 41 68.5 69.5t71 47t65 27.5t51.5 11v14h-258z" />
    <glyph glyph-name="bn_b_bha" horiz-adv-x="667" 
d="M305 231v139q-17 -4 -35.5 -15t-35 -27t-29 -35.5t-15.5 -40.5zM291 492h-293v65h674v-65h-239v-203q11 2 23.5 3.5t26.5 1.5h47l-14 -59l-65 -5v-53q0 -12 9 -20t20 -8q7 0 13 3l160 71q0 -18 3 -51t3 -79q0 -41 -22.5 -77.5t-60 -63.5t-86 -43t-99.5 -16
q-52 0 -94 16.5t-73.5 47t-52 73t-27.5 93.5l132 18q3 -24 10 -46t21 -38.5t36 -26t54 -9.5q46 0 72 13.5t38.5 29.5t15.5 30l3 14l-36 -12q-20 -7 -42 -7q-19 0 -37.5 6t-34.5 16.5t-28 24.5t-17 30l-268 28v8q1 69 24.5 118.5t58 82.5t74 51t71.5 24v14z" />
    <glyph glyph-name="bn_b_ra" horiz-adv-x="551" 
d="M552 492h-28v-633l-142 22v13q-15 9 -31 14.5t-36 5.5q-18 0 -39 -6.5t-46 -21.5q-26 -17 -51 -23t-48 -6q-31 -1 -55 8.5t-38 17.5l-16 9l-2 1l55 92v-1q2 0 3 -1l11 -4q13 -5 32 -10.5t39 -5.5q28 0 48 14q26 20 54 27.5t53 7.5q17 0 38 -3t26 -8h2v16l-333 39
q1 102 33 178.5t81.5 128.5t108 80.5t111.5 34.5v14h-384v65h554v-65zM382 85v250q-30 -6 -69.5 -27.5t-73.5 -66.5q-26 -38 -34.5 -70.5t-8.5 -48.5z" />
    <glyph glyph-name="bn_b_ra_ukaar" horiz-adv-x="803" 
d="M805 492h-281v-231q18 -9 33 -12.5t27 -3.5q21 0 33.5 10t19.5 24.5t9 29.5t2 25v11l125 10v-2q2 -4 2.5 -16.5t0.5 -26.5q0 -20 -4.5 -45.5t-18.5 -47.5t-39.5 -37t-66.5 -15q-36 0 -70.5 11t-52.5 22v-339l-142 22v13q-15 9 -31 14.5t-36 5.5q-18 0 -39 -6.5t-46 -21.5
q-26 -17 -51 -23t-48 -6q-31 -1 -55 8.5t-38 17.5l-16 9l-2 1l55 92v-1q2 0 3 -1l11 -4q13 -5 32 -10.5t39 -5.5q28 0 48 14q26 20 54 27.5t53 7.5q17 0 38 -3t26 -8h2v16l-333 39q1 102 33 178.5t81.5 128.5t108 80.5t111.5 34.5v14h-384v65h807v-65zM382 85v250
q-30 -6 -69.5 -27.5t-73.5 -66.5q-26 -38 -34.5 -70.5t-8.5 -48.5z" />
    <glyph glyph-name="bn_b_ra_uukaar" horiz-adv-x="800" 
d="M382 -106q-15 9 -31 14.5t-36 5.5q-18 0 -39 -6.5t-46 -21.5q-26 -17 -51 -23t-48 -6q-31 -1 -55 8.5t-38 17.5l-16 9l-2 1l55 92v-1q2 0 3 -1l11 -4q13 -5 32 -10.5t39 -5.5q28 0 48 14q26 20 54 27.5t53 7.5q17 0 38 -3t26 -8h2v16l-333 39q1 102 33 178.5t81.5 128.5
t108 80.5t111.5 34.5v14h-384v65h803v-65h-277v-152l250 69l-11 -54q-7 -32 -11.5 -72.5t-4.5 -85.5q0 -62 17 -125l-137 22l-5 31q-3 17 -5.5 39.5t-2.5 48.5q0 20 1.5 39.5t5.5 39.5l-97 -16v-417l-142 22v13zM382 85v250q-30 -6 -69.5 -27.5t-73.5 -66.5
q-26 -38 -34.5 -70.5t-8.5 -48.5z" />
    <glyph glyph-name="bn_b_la" horiz-adv-x="552" 
d="M553 492h-28v-597l-142 12v72l-158 -40v88q0 3 -4 3q-14 -2 -27 -6.5t-23.5 -11t-17.5 -13t-9 -11.5l48 -19v-72l-178 44q12 58 34.5 96.5t50 61t58 31.5t57.5 9q16 0 31 -6.5t26.5 -18t18.5 -26t8 -30.5l86 36v38l-334 28q0 79 31 138t79.5 98.5t107.5 60.5t115 25v10
h-387v65h557v-65zM383 203v155q-33 -5 -66.5 -19.5t-60 -33t-43 -39t-16.5 -36.5z" />
    <glyph glyph-name="bn_bh_ra" horiz-adv-x="527" 
d="M424 355l85 43v-61q0 -29 1 -62t0 -71l1 -191l-142 20v23q-18 6 -41 6q-20 0 -45 -7t-54 -24q-30 -19 -57.5 -26.5t-53.5 -7.5q-34 1 -61.5 10t-44.5 20l-19 12l60 103l16 -7q14 -7 36.5 -12t44.5 -5q14 0 28.5 3.5t26.5 12.5q29 23 59.5 31.5t58.5 7.5q12 0 23 -1t21 -3
v97l-32 -12q-10 -4 -20 -5t-20 -1q-25 0 -48.5 8.5t-41.5 23.5t-29 36t-11 46v109h212l-15 -65l-68 -5v-58q0 -14 9.5 -22t21.5 -8h6.5t6.5 2l29 14zM-3 492v65h533v-65h-533z" />
    <glyph glyph-name="bn_bh_ra_ukaar" horiz-adv-x="786" 
d="M510 200q-1 -36 0 -68t1 -61v-58l-142 20v23q-18 6 -41 6q-20 0 -45.5 -7t-53.5 -24q-29 -19 -57 -26.5t-54 -7.5q-34 0 -61 9.5t-44 20.5l-3 2l-16 10h-1l61 103l1 -1q12 -5 38.5 -14t56.5 -9q14 0 29 3.5t26 12.5q29 23 59.5 31.5t58.5 7.5q12 0 23 -1t21 -3v97
l-32 -12q-10 -4 -20 -5t-20 -1q-25 0 -48.5 8.5t-41.5 23.5t-29 36t-11 46v109h212l-15 -65l-68 -5v-58q0 -14 9.5 -22t21.5 -8h6.5t6.5 2l86 40l85 43q-1 -1 0 -16t1 -44v-74q20 -11 35.5 -15t28.5 -4q21 0 33.5 10t19.5 24.5t9 29.5t2 25v11l125 10v-2q2 -4 2.5 -16.5
t0.5 -26.5q0 -20 -4.5 -45.5t-18.5 -47.5t-39.5 -37t-66.5 -15q-19 0 -38 3.5t-35.5 9t-30.5 11.5t-23 11zM-3 492v65h792v-65h-792z" />
    <glyph glyph-name="bn_bh_ra_uukaar" horiz-adv-x="779" 
d="M510 275v-71q-1 -38 0 -71t1 -62v-58l-142 20v23q-18 6 -41 6q-20 0 -45.5 -7t-53.5 -24q-29 -19 -57 -26.5t-54 -7.5q-34 0 -61 9.5t-44 20.5l-3 2l-16 10h-1l61 103l1 -1q12 -5 38.5 -14t56.5 -9q14 0 29 3.5t26 12.5q29 23 59.5 31.5t58.5 7.5q12 0 23 -1t21 -3v97
l-32 -12q-10 -4 -20 -5t-20 -1q-25 0 -48.5 8.5t-41.5 23.5t-29 36t-11 46v109h212l-15 -65l-68 -5v-58q0 -14 9.5 -22t21.5 -8h6.5t6.5 2l86 40l85 43v-59l255 70l-11 -54q-7 -32 -11.5 -72.5t-4.5 -85.5q0 -62 17 -125l-137 22l-5 31q-3 17 -5.5 39.5t-2.5 48.5
q0 20 1.5 39.5t5.5 39.5zM-3 492v65h785v-65h-785z" />
    <glyph glyph-name="bn_bh_la" horiz-adv-x="613" 
d="M383 -141l-158 -40v88q0 3 -4 3q-14 -2 -27 -6.5t-23.5 -11t-17.5 -13t-9 -11.5l48 -19v-72l-178 44q12 58 34 96t49.5 60.5t58 32t59.5 9.5q33 0 57 -24t26 -57l85 35v62q-32 -7 -70 -7q-64 0 -112.5 24t-81.5 67.5t-50 104t-17 132.5v22v25t-1 25l140 -36v-59
q0 -30 5.5 -59t19.5 -52t37.5 -38t59.5 -17q51 0 79.5 14.5t42.5 32t17 32.5t3 17l-38 -14q-10 -4 -20 -5t-20 -1q-25 0 -48.5 8.5t-41.5 23.5t-29 36t-11 46v108h212l-15 -64l-68 -5v-58q0 -14 9 -22.5t22 -8.5q5 0 13 3l166 77q0 -20 3.5 -56t3.5 -85q0 -79 -68 -139v-319
l-142 22v49zM616 557v-65h-618v65h618z" />
    <glyph glyph-name="bn_m_na" horiz-adv-x="562" 
d="M390 492h-131q36 -30 58 -76q20 4 38 5.5t35 2.5v68zM563 492h-28v-546l-142 9v127q-14 -1 -31 -5t-34.5 -10t-32.5 -14.5t-25 -18.5l47 -16v-68l-209 41l5 14l5 13t17 32.5t32.5 42.5t51.5 43.5t73 35.5t98 18v129q-6 1 -12 1h-11q-28 0 -54.5 -7.5t-48.5 -18
t-38.5 -23.5t-24.5 -23l48 -15v-48l-209 37h1l-2 1q17 57 58 95.5t95 61.5q-12 30 -36.5 50.5t-49.5 34t-45 19.5t-24 8h-41v65h567v-65z" />
    <glyph glyph-name="bn_m_pha" horiz-adv-x="1055" 
d="M419 274q-13 1 -24 1.5t-22 0.5q-117 0 -178 -96l54 -21v-44l-207 46q27 115 153 180q-26 80 -89 118q-51 30 -62 33h-48v65h1065v-65h-546q15 -15 30.5 -38t30.5 -50t27.5 -54.5t20.5 -49.5l8 -24l-17 -15q-33 -32 -53.5 -52t-32 -36.5t-17 -32t-8.5 -37.5l171 -41v363
h154q44 0 82 -17t66.5 -46t46 -67t19.5 -81l-160 -40q1 7 1.5 13.5t0.5 12.5q0 72 -68 110v-311l-476 42q0 140 78 233zM246 492q52 -52 73 -108q12 2 31 4t45 1l68 -2l-14 23q-50 67 -78 82h-125z" />
    <glyph glyph-name="bn_m_ba" horiz-adv-x="566" 
d="M396 492h-137q36 -30 58 -76q20 4 39.5 5.5t39.5 2.5v68zM411 -8v139q-17 -4 -35.5 -15t-35 -27t-29 -35.5t-15.5 -40.5zM396 239v80q-7 1 -13 1h-12q-30 0 -57.5 -7.5t-49.5 -18t-38.5 -23.5t-24.5 -23l48 -15v-48l-209 37h1l-2 1q17 57 58 95.5t95 61.5
q-12 30 -36 50.5t-49 34t-46 19.5t-26 8h-39v65h571v-65h-28v-575l-370 38v8q1 58 19.5 105t49 82t71.5 57.5t87 31.5z" />
    <glyph glyph-name="bn_m_b_ra" horiz-adv-x="566" 
d="M397 -68l-228 23v8q1 58 19.5 105t49 82t71.5 57.5t87 31.5v80q-7 1 -13 1h-12q-30 0 -57.5 -7.5t-49.5 -18t-38.5 -23.5t-24.5 -23l48 -15v-48l-209 37h1l-2 1q17 57 58 95.5t95 61.5q-12 30 -36 50.5t-49.5 34t-46 19.5t-24.5 8h-40v65h571v-65h-28v-725l-142 22l-1 11
l-10 7q-8 5 -22 9.5t-32 4.5t-40 -6t-48 -22q-26 -17 -51 -23t-48 -6q-31 -1 -55 8.5t-38 17.5l-16 9l-2 1l55 92v-1q2 0 3 -1l11 -4q13 -5 32 -10.5t39 -5.5q28 0 48 14q26 20 54 27.5t53 7.5q20 0 35.5 -3t26.5 -7l6 -2v25zM411 -8v139q-17 -4 -35.5 -15t-35 -27
t-29 -35.5t-15.5 -40.5zM396 492h-137q36 -30 58 -76q20 4 39.5 5.5t39.5 2.5v68z" />
    <glyph glyph-name="bn_m_bha" horiz-adv-x="722" 
d="M396 491h-137q37 -31 58 -75q20 4 39.5 5.5t39.5 2.5v67zM396 283v36q-7 1 -13 1h-12q-30 0 -57.5 -7.5t-49.5 -18t-38.5 -23.5t-24.5 -23l48 -15v-48l-209 37h1l-2 1q17 57 58 95.5t95 61.5q-12 30 -36.5 51t-49.5 33.5t-44.5 18.5t-22.5 6l1 2h-44v66h731v-66h-188
v-169h39l-14 -59l-65 -5v-53q0 -12 9 -20t20 -8q7 0 13 3l160 71q0 -18 3 -51t3 -79q0 -41 -22.5 -77.5t-60 -63.5t-86 -43t-99.5 -16q-52 0 -94 16.5t-73.5 47t-52 73t-27.5 93.5l132 18q3 -24 10 -46t21 -38.5t36 -26t54 -9.5q46 0 72 13.5t38.5 29.5t15.5 30l3 14
l-36 -12q-20 -7 -42 -7q-26 0 -48 8.5t-38 23.5t-25.5 34t-9.5 40v39q9 12 21 21z" />
    <glyph glyph-name="bn_m_bh_ra" horiz-adv-x="723" 
d="M539 360h60l-14 -58l-79 -5v-52q0 -12 8.5 -20t20.5 -8q7 0 13 3l163 76v-307l-142 15v27q-9 5 -23.5 9.5t-34.5 4.5q-32 0 -77 -27q-26 -16 -51 -22.5t-48 -6.5q-30 -1 -54.5 8t-38.5 18l-16 10h-1l55 91l3 -2l10 -3q12 -5 31.5 -10.5t39.5 -5.5q29 0 49 14
q26 19 51 26.5t52 7.5q20 0 35 -2t27 -6v41l-34 -12q-10 -4 -20 -5t-20 -1q-25 0 -47 8.5t-38 23t-25.5 33t-9.5 39.5v43l12 5v9q-7 1 -13 1h-12q-30 0 -57.5 -7.5t-49.5 -18t-38.5 -23.5t-24.5 -23l48 -15v-48l-209 37h1l-2 1q17 57 58 95.5t95 61.5q-12 30 -36.5 51
t-49.5 33.5t-44.5 18.5t-22.5 6l1 2h-44v66h731v-66h-188v-131zM396 491h-137q37 -31 58 -75q20 4 39.5 5.5t39.5 2.5v67z" />
    <glyph glyph-name="bn_m_ma" horiz-adv-x="770" 
d="M396 492h-137q36 -30 58 -76q20 4 39.5 5.5t39.5 2.5v68zM539 316q28 7 64 9v167h-64v-176zM396 243v76q-7 1 -13 1h-12q-30 0 -57.5 -7.5t-49.5 -18t-38.5 -23.5t-24.5 -23l48 -15v-48l-209 37h1l-2 1q17 57 58 95.5t95 61.5q-12 30 -36.5 50.5t-49.5 33.5t-45.5 19.5
t-24.5 8.5h-40v65h776v-65h-29v-492l-142 11v182q-17 -1 -38 -7t-41 -16t-37.5 -24t-28.5 -30l71 -34v-78l-226 62l2 10q0 1 4 16.5t14 39.5t28 53t45 56z" />
    <glyph glyph-name="bn_m_ra" horiz-adv-x="566" 
d="M325 385q39 9 72 12v95h-128q33 -42 56 -107zM397 176v87q-28 -3 -57 -12t-54.5 -24t-47 -35.5t-34.5 -45.5l94 -39v-69l-245 69q16 82 56.5 137.5t92.5 88.5q-11 44 -35 73.5t-48.5 47.5t-45 26.5t-24.5 11.5h-52v65h570v-65h-28v-623l-142 22v13q-16 9 -32 14.5
t-34 5.5t-39.5 -6.5t-47.5 -21.5q-27 -16 -51.5 -22.5t-47.5 -6.5q-31 -1 -55 8.5t-38 17.5l-16 9l-2 1l55 92v-1q2 0 3 -1l11 -4q13 -5 32 -10.5t39 -5.5q28 0 48 14q26 20 54 27.5t53 7.5q17 0 38 -3t26 -8h1q1 0 2 -1v166h1z" />
    <glyph glyph-name="bn_m_la" horiz-adv-x="566" 
d="M567 492h-28v-533l-142 22v31l-157 -39v88q0 3 -4 3q-14 -2 -27 -6.5t-23.5 -11t-17.5 -13t-9 -11.5l48 -19v-72l-178 44q12 58 34.5 96.5t50 61t58 31.5t57.5 9q16 0 31 -6.5t26.5 -18t18.5 -26t8 -30.5l83 35v192q-7 1 -13 1h-12q-30 0 -57.5 -7.5t-49.5 -18
t-38.5 -23.5t-24.5 -23l48 -15v-48l-209 37h1l-2 1q17 57 58 95.5t95 61.5q-12 30 -36 50.5t-49 34t-46 19.5t-26 8h-39v65h571v-65zM396 492h-137q36 -30 58 -76q20 4 39.5 5.5t39.5 2.5v68z" />
    <glyph glyph-name="bn_y_ra" horiz-adv-x="556" 
d="M386 11l-333 29q0 195 145 294l-1 3q-1 0 -7.5 18.5t-29.5 54.5q-50 67 -78 82h-83v65h559v-65h-29v-632l-142 22v12q-15 9 -31 14.5t-36 5.5q-18 0 -39 -6.5t-46 -21.5q-26 -17 -51 -23t-48 -6q-31 -1 -55 8.5t-38 17.5l-16 9l-2 1l55 92v-1q2 0 3 -1l11 -4
q13 -5 32 -10.5t39 -5.5q28 0 48 14q26 20 54 27.5t53 7.5q17 0 38 -3t26 -8h2v10zM386 492h-159q13 -15 29 -38t31 -50t27.5 -54.5t20.5 -49.5l7 -23l1 -2l-9.5 -8.5t-22.5 -21t-27 -26.5t-24 -25q-20 -25 -31 -45t-13 -46l170 -41v430z" />
    <glyph glyph-name="bn_ra_ukaar" horiz-adv-x="803" 
d="M385 84v251q-30 -7 -69.5 -28t-73.5 -66q-26 -38 -34.5 -70.5t-8.5 -48.5zM312 -1v-62l-138 15v4q3 3 3.5 13.5t1 22t1 20.5t3.5 9zM804 492h-277v-232q17 -8 31.5 -11.5t25.5 -3.5q21 0 33.5 10t19.5 24.5t9 29.5t2 25v11l125 10v-2q2 -4 2.5 -16.5t0.5 -26.5
q0 -20 -4.5 -45.5t-18.5 -47.5t-39.5 -37t-66.5 -15q-35 0 -68.5 10.5t-51.5 20.5v-197l-476 57q1 105 34.5 181.5t83 128t108 79t108.5 32.5v15h-386v65h805v-65z" />
    <glyph glyph-name="bn_ra_uukaar" horiz-adv-x="801" 
d="M385 84v251q-30 -7 -69.5 -28t-73.5 -66q-26 -38 -34.5 -70.5t-8.5 -48.5zM312 -1v-62l-138 15v4q3 3 3.5 13.5t1 22t1 20.5t3.5 9zM527 274v-275l-476 57q1 105 34.5 181.5t83 128t108 79t108.5 32.5v15h-386v65h805v-65h-277v-154l257 71l-11 -54q-7 -32 -11.5 -72.5
t-4.5 -85.5q0 -62 17 -125l-137 22l-5 31q-3 17 -5.5 39.5t-2.5 48.5q0 20 1.5 39.5t5.5 39.5z" />
    <glyph glyph-name="bn_l_ka" horiz-adv-x="823" 
d="M-5 557h830v-65h-212v-260q24 -6 50 -16t53 -26t52.5 -38.5t47.5 -53.5q0 -2 1 -3l1 -1l-144 -53l-3 6q-5 8 -12.5 16.5t-16 17t-16.5 15t-14 11.5l-6 3q-1 1 -2 1l-1 1v-230l-424 41v7q1 55 16 98.5t39 76.5t54 57t61 40t60.5 25t52.5 12v23l-135 -36v110q0 4 -6.5 9
t-18.5 5q-15 0 -39.5 -14t-55.5 -55l44 -28l8 -93l-224 66l13 34q10 25 29 61.5t49.5 70.5t72 57.5t96.5 23.5q24 0 47 -6.5t40.5 -19.5t28 -31t11.5 -42l40 17v101h-467v65zM466 -40v161q-22 -5 -47 -18.5t-46 -32t-35.5 -40.5t-15.5 -46z" />
    <glyph glyph-name="bn_l_ga" horiz-adv-x="747" 
d="M297 230q46 11 113 13v97l-10 7q-7 4 -16 4q-18 0 -44.5 -7t-52 -16.5t-46 -20.5t-25.5 -19l81 -25v-33zM578 208v55l-134 -22q79 -5 134 -33zM720 -92l-142 25v165q-21 12 -36 24q-23 17 -55.5 23t-58.5 6q-87 0 -101 -44h166q4 -17 5.5 -33.5t1.5 -30.5t-1.5 -30
t-8 -33.5t-20 -35t-36.5 -34.5q-62 -40 -132 -46l-101 116l29 -1q15 -1 37 1.5t43 10t35.5 20t14.5 32.5v4h-194v28q0 80 58 122l-177 37q36 139 123 189q103 58 191 58q20 0 41.5 -6t39 -19t29 -32.5t11.5 -47.5v-14l106 33v97h-594v65h754v-65h-28v-584z" />
    <glyph glyph-name="bn_l_dda" horiz-adv-x="746" 
d="M402 441v51h-404v65h753v-65h-235v-151l210 83l1 -14q2 -20 4 -51t2 -76q-2 -61 -26 -108.5t-62 -80t-88 -49.5t-104 -17q-97 0 -161.5 57t-86.5 155l146 -8q28 -61 102 -64q33 0 59 11t44.5 29t28 41.5t9.5 48.5v2l-192 -51v77l-162 -41v88q0 3 -4 3q-14 -2 -27 -6.5
t-23.5 -11t-17.5 -13t-9 -11.5l28 -12v-72l-158 37q12 58 34.5 96.5t50 61t58 31.5t57.5 9q16 0 31 -6.5t26.5 -18t18.5 -26t8 -30.5z" />
    <glyph glyph-name="bn_l_pa" horiz-adv-x="747" 
d="M375 -6l133 84q-42 30 -80 39t-83 11q1 -3 5.5 -18t10 -35t9.5 -42t5 -39zM578 155v106l-168 -25v104l-10 7q-7 4 -16 4q-18 0 -44.5 -7t-52 -16.5t-46 -20.5t-25.5 -19l81 -25v-27h15q75 0 142 -22.5t124 -58.5zM720 -92l-142 25v88l-18 11l-205 -151l-127 33q3 31 3 58
q0 24 -6 50.5t-13.5 49t-15 37t-9.5 14.5q1 0 1 2.5t5 13.5l22 60l-168 35q36 139 123 189q103 58 191 58q20 0 41.5 -6t39 -19t29 -32.5t11.5 -47.5v-14l96 33v97h-584v65h756v-65h-30v-584z" />
    <glyph glyph-name="bn_l_pha" horiz-adv-x="1103" 
d="M457 260l-130 -34v110q0 4 -6.5 9t-18.5 5q-15 0 -39.5 -14t-55.5 -55l44 -28l8 -93l-224 66l13 34q10 25 29 61.5t49.5 70.5t72 57.5t96.5 23.5q24 0 47 -6.5t40.5 -19.5t28 -31t11.5 -42l83 26l-6 10q-50 67 -78 82h-426v65h1116v-65h-546q15 -15 30.5 -38t30.5 -50
t27.5 -54.5t20.5 -49.5l8 -24l-17 -15q-33 -32 -53.5 -52t-32 -36.5t-17 -32t-8.5 -37.5l171 -41v363h154q44 0 82 -17t66.5 -46t46 -67t19.5 -81l-160 -40q1 7 1.5 13.5t0.5 12.5q0 72 -68 110v-311l-476 42q0 130 66 219z" />
    <glyph glyph-name="bn_l_ba" horiz-adv-x="639" 
d="M644 492h-31v-613l-434 44v7q1 55 16 98.5t39 76.5t54 57t61 40t60.5 25t52.5 12v23l-135 -36v110q0 4 -6.5 9t-18.5 5q-15 0 -39.5 -14t-55.5 -55l44 -28l8 -93l-224 65l12 35q10 25 29.5 61.5t49.5 70.5t72 57.5t97 23.5q24 0 47 -6.5t40.5 -19.5t28 -31t11.5 -42
l40 17v101h-467v65h649v-65zM466 -40v161q-22 -5 -47 -18.5t-46 -32t-35.5 -40.5t-15.5 -46z" />
    <glyph glyph-name="bn_l_ma" horiz-adv-x="846" 
d="M819 492v-492l-142 11v182q-16 -1 -36.5 -7t-40.5 -15.5t-38.5 -23.5t-29.5 -31l71 -34v-78l-226 62q19 95 85 167v29l-135 -36v110q0 4 -6.5 9t-18.5 5q-15 0 -39.5 -14t-55.5 -55l44 -28l8 -93l-224 66l13 34q10 25 29 61.5t49.5 70.5t72 57.5t96.5 23.5q24 0 47 -6.5
t40.5 -19.5t28 -31t11.5 -42l40 17v101h-467v65h855v-65h-31zM613 316q30 7 66 9v167h-66v-176z" />
    <glyph glyph-name="bn_l_ra" horiz-adv-x="749" 
d="M750 492h-28v-533l-142 12l-1 17q-9 5 -23 9.5t-32 4.5t-40 -6t-48 -22q-26 -17 -51 -23t-48 -6q-31 0 -55 8t-38 18h-1q-3 0 -8.5 4t-6.5 5l-2 1l55 92v-1q2 0 3 -1l11 -4q13 -5 32 -10.5t39 -5.5q13 0 25.5 3t23.5 11q26 20 52 27.5t52 7.5q17 0 33.5 -3t27.5 -6v111
l-168 -35v117q0 14 -9.5 23t-23.5 9q-24 0 -50 -9.5t-50 -25.5t-43 -36.5t-30 -41.5l93 -38v-70l-244 69h-1q15 76 48.5 130.5t77 89t91.5 50.5t92 16q25 0 47 -9t38.5 -25t26 -38t9.5 -47v-36l96 43v154h-584v65h754v-65z" />
    <glyph glyph-name="bn_l_la" horiz-adv-x="747" 
d="M749 492h-29v-538l-142 9v70l-169 -26v103l-1 1q-1 1 -3 1l-6 5q-7 4 -18 4q-26 0 -53.5 -7.5t-51.5 -17.5t-41 -20.5t-21 -15.5l83 -27v-81l-264 56q49 136 137 186l20 10l-143 30q36 141 122 189q47 26 96.5 42t95.5 16q23 0 44.5 -7t38.5 -20.5t27.5 -33t10.5 -44.5
v-14l96 33v97h-584v65h755v-65zM410 243v97l-2 1q-1 1 -2 1l-6 5q-8 4 -17 4q-26 0 -53.5 -7.5t-51 -17.5t-41 -20.5t-21.5 -17.5l81 -25v-20q32 8 60 8q26 0 53 -8zM578 263l-157 -25l17 -9q43 -28 43 -83v-14l97 33v98z" />
    <glyph glyph-name="bn_l_sa" horiz-adv-x="765" 
d="M395 204l-155 -39v88q0 3 -4 3q-14 -2 -27 -6.5t-23.5 -11t-17.5 -13t-9 -11.5l48 -19v-72l-178 44q12 58 34.5 96.5t50 61t58 31.5t57.5 9q16 0 31 -6.5t26.5 -18t18.5 -26t8 -30.5l71 30q-16 33 -40.5 53.5t-62.5 25.5v99h-282v65h769v-65h-30v-493l-142 22v88l-83 40
q-64 -129 -226 -154q-1 -1 -3 -1h-3v97q17 4 35 14t34 25t28 34t17 40zM596 206v286h-198q64 -35 102 -96t38 -136v-14t-1 -14z" />
    <glyph glyph-name="bn_sha_ukaar" horiz-adv-x="624" 
d="M564 259h39v-29q0 -18 -4 -45.5t-15.5 -57.5t-32 -61t-53 -55t-79 -39.5t-109.5 -15.5q-91 0 -166.5 45.5t-117.5 121.5l161 29q22 -33 54.5 -55t74.5 -25q37 1 62.5 15t41.5 33t23 38.5t7 33.5l-125 -5v56l86 16q32 17 41 45.5t9 63.5q-2 30 -15.5 45t-32.5 19l-49 -54
l-18 67q-15 14 -37 14q-16 0 -30 -9.5t-18 -27.5v-39q0 -17 12.5 -31t29.5 -16l40 -3l13 -71l-2 -1l-9 -2q-12 -4 -29.5 -7.5t-36.5 -3.5q-11 0 -22 1.5t-20.5 4t-16 4.5t-7.5 3h-2q-1 1 -2 1q-26 -45 -69 -67.5t-87 -22.5h-8v116q6 1 18 5.5t24 16t21 30.5t9 48
q0 12 -1.5 28t-9 31.5t-24 28t-45.5 16.5h-74v65h24q30 0 55 -0.5t47 -4t41.5 -11t38.5 -20.5l14 -10q5 6 13 12.5t14 10.5l2 1q1 0 2 1l10 3q10 4 25 7.5t33 3.5q14 0 29 -3.5t29 -12t26.5 -23t21.5 -36.5l61 73q2 -2 9 -5t15.5 -6t16.5 -6t12 -5q44 -35 61.5 -79t17.5 -86
q0 -8 -0.5 -15.5t-1.5 -14.5l-8 -47z" />
    <glyph glyph-name="bn_sh_ca" horiz-adv-x="866" 
d="M689 355l-134 40v-220l19 8q13 6 31 18t35.5 33t30.5 50.5t18 70.5zM869 491h-314v-27l284 -52q-9 -85 -34.5 -146t-60.5 -103.5t-76 -68.5t-81.5 -40.5t-77 -19.5t-61.5 -6h-40v350l-58 59q-17 14 -38 14q-17 0 -29 -10t-17 -26v-39q0 -15 6.5 -24.5t18 -14.5t27 -7.5
t33.5 -2.5l13 -78l-14 -4q-12 -3 -30.5 -6.5t-37.5 -3.5q-18 0 -35 3t-28 7l-8 3q-28 -48 -73 -70.5t-90 -22.5h-10l1 125q8 1 19.5 5t22 13.5t19.5 26t13 41.5v7q0 57 -19.5 88t-73.5 31h-66v65h67q10 0 29.5 -0.5t43 -4.5t47.5 -14t42 -28q38 44 98 44q6 0 17.5 -0.5
t26.5 -5t32 -15.5t34 -32l17 -21v77h461v-66z" />
    <glyph glyph-name="bn_sh_cha" horiz-adv-x="936" 
d="M637 376l-84 22v-87h2q1 1 2 1l8 2q5 1 16 5t22.5 11.5t21 17.5t12.5 24v4zM553 492v-28l198 -23v-8q30 -3 58 -16t50.5 -34.5t36 -50.5t13.5 -65q0 -50 -26 -98t-79 -78q-95 -47 -203 -55l234 -99v-65l-406 143v133h76q71 3 122.5 15t84.5 30t49 42t16 51q0 26 -9 38
t-22 17q-19 -48 -56 -77t-80 -45.5t-86 -22t-73 -5.5h-43v187l-58 59q-17 14 -38 14q-17 0 -29 -10t-17 -26v-39q0 -15 6.5 -24.5t18 -14.5t27 -7.5t33.5 -2.5l13 -78l-14 -4q-12 -3 -30.5 -6.5t-37.5 -3.5q-18 0 -35 3t-28 7l-8 3q-28 -48 -73 -70.5t-90 -22.5h-10l1 125
q8 1 19.5 5t22 13.5t19.5 26t13 41.5v7q0 57 -19.5 88t-73.5 31h-66v65h67q10 0 29.5 -0.5t43 -4.5t47.5 -14t42 -28q38 44 98 44q6 0 17.5 -0.5t26.5 -5t32 -15.5t34 -32l17 -21v77h531v-65h-386z" />
    <glyph glyph-name="bn_sh_tta" horiz-adv-x="911" 
d="M408 378l-58 59q-17 14 -38 14q-17 0 -29 -10t-17 -26v-39q0 -15 6.5 -24.5t18 -14.5t27 -7.5t33.5 -2.5l13 -78l-14 -4q-12 -3 -30.5 -6.5t-37.5 -3.5q-18 0 -35 3t-28 7l-8 3q-28 -48 -73 -70.5t-90 -22.5h-10l1 125q8 1 19.5 5t22 13.5t19.5 26t13 41.5v7
q0 57 -19.5 88t-73.5 31h-66v65h67q10 0 29.5 -0.5t43 -4.5t47.5 -14t42 -28q38 44 98 44q6 0 17.5 -0.5t26.5 -5t32 -15.5t34 -32l17 -21v77h509v-65h-367v-337q22 5 53.5 19t61 39t51.5 62t26 89l-113 15l-15 64h269q1 -7 1 -13.5v-13.5q0 -70 -16.5 -125t-43.5 -97.5
t-62 -73t-72 -51t-73.5 -31t-66.5 -13.5q-5 -1 -19.5 -1.5t-32.5 -1t-37.5 -0.5h-32.5h-20v356zM792 558q-4 9 -18.5 22t-46.5 13q-12 0 -28.5 -3t-33.5 -6.5t-34 -6.5t-30 -3q-37 0 -65.5 10.5t-49 27t-34 36t-20.5 36.5l109 88q1 -8 5 -19.5t11.5 -22t18.5 -17.5t28 -7
q13 0 29 3t32.5 6.5t32.5 6.5t29 3q53 0 91 -18t61 -44l-85 -104z" />
    <glyph glyph-name="bn_sh_na" horiz-adv-x="602" 
d="M604 492h-29v-565l-142 12v170q-15 -1 -35 -6t-40 -15t-38.5 -24t-30.5 -32l70 -33v-79l-225 63l1 4v2t2.5 10.5t8.5 30.5q9 30 29 64.5t54.5 65t84 53t118.5 28.5v137l-82 59q-9 6 -18 10t-20 4q-17 0 -29 -10t-17 -26v-39q0 -15 6.5 -24.5t18 -14.5t27 -7.5t33.5 -2.5
l13 -78l-14 -4q-11 -3 -30 -7t-38 -3q-18 0 -35 3t-28 7l-8 3q-28 -48 -73 -70.5t-90 -22.5h-10l1 125q8 1 19.5 5t22 13.5t19.5 26t13 41.5v7q0 66 -22.5 92.5t-70.5 26.5h-66v65h67q10 0 30 -0.5t43 -4.5t46.5 -13.5t42.5 -28.5q38 44 98 44h17t27 -6t42.5 -21.5
t64.5 -46.5v77h172v-65z" />
    <glyph glyph-name="bn_sh_ba" horiz-adv-x="602" 
d="M447 152q-17 -4 -35.5 -15t-35 -27t-29 -35.5t-15.5 -40.5l115 -21v139zM350 230q45 23 82 30v118l-82 59q-9 6 -18 10t-20 4q-17 0 -29 -10t-17 -26v-39q0 -15 6.5 -24.5t18 -14.5t27 -7.5t33.5 -2.5l13 -78l-14 -4q-11 -3 -30 -7t-38 -3q-18 0 -35 3t-28 7l-8 3
q-28 -48 -73 -70.5t-90 -22.5h-10l1 125q8 1 19.5 5t22 13.5t19.5 26t13 41.5v7q0 66 -22.5 92.5t-70.5 26.5h-66v65h67q10 0 30 -0.5t43 -4.5t46.5 -13.5t42.5 -28.5q38 44 98 44h17t27 -6t42.5 -21.5t64.5 -46.5v77h171v-65h-28v-554l-370 38v8q2 88 41.5 151.5
t103.5 94.5z" />
    <glyph glyph-name="bn_sh_ma" horiz-adv-x="780" 
d="M547 492v-176q30 7 66 9v167h-66zM782 492h-29v-492l-142 11v182q-16 -1 -36.5 -7t-40.5 -15.5t-38.5 -23.5t-29.5 -31l71 -34v-78l-226 62l2 10q0 1 4 16.5t14 39.5t28 53t45 56v141l-54 55q-17 14 -38 14q-17 0 -29 -10t-17 -26v-39q0 -15 6.5 -24.5t18 -14.5t27 -7.5
t33.5 -2.5l13 -78l-14 -4q-12 -3 -30.5 -6.5t-37.5 -3.5q-18 0 -35 3t-28 7l-8 3q-28 -48 -73 -70.5t-90 -22.5h-10l1 125q8 1 19.5 5t22 13.5t19.5 26t13 41.5v7q0 57 -19.5 88t-73.5 31h-66v65h67q10 0 29.5 -0.5t43 -4.5t47.5 -14t42 -28q38 44 98 44q6 0 17.5 -0.5
t26.5 -5t32 -15.5t34 -32l17 -21v77h374v-65z" />
    <glyph glyph-name="bn_sh_ra" horiz-adv-x="630" 
d="M632 492h-29v-493l-142 11v11l-12 7q-23 14 -57 14q-20 0 -41.5 -9t-45 -19.5t-47.5 -19.5t-48 -9q-28 -1 -53 7.5t-43 18.5l-18 10l54 92l15 -6q42 -17 79 -16q6 0 17 2t24 12q46 35 106 35q9 0 27 -2.5t36 -7.5l6 -2v237l-66 66q-19 16 -44 16q-19 0 -34 -11t-20 -31
v-44q0 -18 8.5 -29t21.5 -17t29.5 -8t33.5 -2l15 -82l-12 -3q-13 -4 -33 -7.5t-42 -3.5q-20 0 -38 3.5t-29 7.5l-12 3q-69 -102 -179 -102h-8l1 132q15 1 30 10t26.5 23.5t19 34.5t7.5 43q0 71 -26 99.5t-73 28.5h-77v65q24 0 42 0.5t29 0.5q15 0 36.5 -1.5t45.5 -6.5
t49 -15.5t47 -29.5q20 25 48.5 37t59.5 12q6 0 18 -1t28.5 -6t35 -16.5t37.5 -33.5l25 -30v90h172v-65z" />
    <glyph glyph-name="bn_sh_ra_ukaar" horiz-adv-x="887" 
d="M888 492h-284v-229q20 -10 35.5 -14t28.5 -4q21 0 33.5 10t19.5 24.5t9 29.5t2 25v11l125 10v-2q2 -4 2.5 -16.5t0.5 -26.5q0 -20 -4.5 -45.5t-18.5 -47.5t-39.5 -37t-66.5 -15q-19 0 -38 3.5t-35.5 9t-30.5 11.5t-23 11v-200l-142 12v29l-273 -118q-137 43 -179 157
l128 35l2 -4q14 -26 36 -48t65 -32l219 74v259l-66 66q-21 16 -43 16q-18 0 -33.5 -10t-21.5 -32v-44q0 -21 13.5 -36t35.5 -17l45 -4l14 -81l-2 -1q-3 0 -11.5 -2t-20.5 -5t-26 -5t-27 -2q-27 0 -50 7t-28 7l-2 1q-31 -52 -79 -77.5t-99 -25.5h-9l1 132q6 0 19.5 5.5
t27.5 17.5t24.5 33t10.5 53q0 10 -1.5 24.5t-4.5 30t-9 29.5t-15 23q-16 14 -33 18.5t-29 6.5h-84v65h52h15q17 0 40.5 -1.5t49 -6.5t50 -15.5t43.5 -29.5l12 13q23 19 47.5 27.5t50.5 8.5q32 0 63 -14.5t55 -42.5l25 -30v91h428v-65z" />
    <glyph glyph-name="bn_sh_ra_uukaar" horiz-adv-x="890" 
d="M891 492h-287v-155l259 72l-11 -54q-7 -32 -11.5 -72t-4.5 -87q0 -62 17 -125l-136 23l-6 30q-8 37 -8 88q0 19 1.5 39.5t5.5 40.5l-106 -18v-274l-142 12v29l-273 -118q-137 43 -179 157l128 35l2 -4q14 -26 36 -48t65 -32l219 74v259l-66 66q-21 16 -43 16
q-18 0 -33.5 -10t-21.5 -32v-44q0 -21 13.5 -36t35.5 -17l45 -4l14 -81l-2 -1q-3 0 -11.5 -2t-20.5 -5t-26 -5t-27 -2q-27 0 -50 7t-28 7l-2 1q-31 -52 -79 -77.5t-99 -25.5h-9l1 132q6 0 19.5 5.5t27.5 17.5t24.5 33t10.5 53q0 10 -1.5 24.5t-4.5 30t-9 29.5t-15 23
q-16 14 -33 18.5t-29 6.5h-84v65h52h15q17 0 40.5 -1.5t49 -6.5t50 -15.5t43.5 -29.5l12 13q23 19 47.5 27.5t50.5 8.5q32 0 63 -14.5t55 -42.5l25 -30v91h431v-65z" />
    <glyph glyph-name="bn_sh_la" horiz-adv-x="602" 
d="M433 378l-83 59q-9 6 -18 10.5t-20 3.5q-17 0 -29 -10t-17 -26v-39q0 -15 6.5 -24.5t18 -14.5t27 -7.5t33.5 -2.5l13 -78l-14 -4q-11 -3 -30 -7t-38 -3q-18 0 -35 3t-28 7l-8 3q-28 -48 -73 -70.5t-90 -22.5h-10l1 125q8 1 19.5 5t22 13.5t19.5 26t13 41.5v7
q0 66 -22.5 92.5t-70.5 26.5h-25v65h26q10 0 30 -0.5t43 -4.5t46.5 -13.5t42.5 -28.5q38 44 98 44h17.5t27 -6t42.5 -21.5t65 -46.5v77h171v-65h-29v-506l-142 22v29l-160 -40v88q0 3 -4 3q-14 -2 -27 -6.5t-23.5 -11t-17.5 -13t-9 -11.5l48 -19v-72l-178 44q23 111 76 149
q30 22 62 35.5t62 13.5q16 0 31 -6.5t26.5 -18t18.5 -26t8 -30.5l87 36v226z" />
    <glyph glyph-name="bn_ss_ka" horiz-adv-x="731" 
d="M-3 557h740v-65h-214v-260q41 -10 90 -34.5t91 -71.5q3 -5 11 -14t10 -14l3 -4l-144 -53l-3 6q-4 8 -11.5 17t-16 17t-17.5 15t-15 10l-8 6v-230l-424 41v7q0 70 24.5 128t72.5 96l-152 11q0 81 38.5 140.5t107.5 95.5l-2 6q-2 6 -17 30.5t-49 54.5h-115v65zM376 -40v161
q-23 -5 -47.5 -18.5t-45.5 -32t-35.5 -40.5t-15.5 -46zM199 215l61 -11q66 29 111 35v61l-78 29q-48 -35 -68.5 -60t-25.5 -54zM371 492h-125q20 -20 36.5 -47.5t27.5 -51.5l61 -23v122z" />
    <glyph glyph-name="bn_ss_k_ra" horiz-adv-x="924" 
d="M669 205l28 11q19 8 41 12.5t45 4.5q41 0 66.5 -15t39.5 -37t18.5 -47.5t4.5 -45.5v-15.5t-1 -12.5v-1q-1 -5 -1 -8.5t-1 -5.5v-2l-125 10v11q0 12 -2 27.5t-9.5 29.5t-21.5 23.5t-37 9.5q-10 0 -21 -4t-24 -9v-167l-142 17v26q-18 6 -41 6q-20 0 -44.5 -7t-53.5 -24
q-29 -18 -57 -25.5t-54 -7.5q-35 0 -62.5 9.5t-43.5 19.5h-1q-7 4 -11 6.5t-6 4.5l-2 1l62 103l1 -1q11 -4 37.5 -13.5t56.5 -9.5q15 0 29.5 3.5t26.5 12.5q29 23 59 31t58 8q12 0 23 -1t21 -3v65q-9 14 -20.5 23t-23.5 14t-23 7t-18 2h-11l-4 -6q-7 -8 -14.5 -20.5
t-7.5 -14.5l-2 -2l63 -7l-17 -45h-153l12 31l-259 22q7 49 20 82t30 55.5t38 37.5t45 27l-1 2q0 1 -2.5 8t-10 19t-20.5 28t-34 34h-115v65h929v-65h-362v-176h105v-111zM419 354v138h-173q20 -20 36.5 -47.5t27.5 -51.5zM325 230l28 77l-60 22q-29 -21 -49.5 -40.5
t-31.5 -39.5z" />
    <glyph glyph-name="bn_ss_tta" horiz-adv-x="877" 
d="M-5 557h770q-5 9 -19.5 21t-47.5 12q-12 0 -28.5 -3t-34 -6t-34.5 -6t-30 -3q-38 0 -66.5 11t-49 27.5t-34 36t-20.5 36.5l110 90q0 -8 4 -19.5t11.5 -22t19.5 -18t29 -7.5q15 0 35 6q26 8 49 11t43 3q48 0 88 -19t63 -45l-86 -105h112v-65h-359v-342q23 4 55 18.5
t62 40.5t52 63.5t26 88.5l-115 15l-15 66h273v-28q0 -105 -35.5 -178.5t-87.5 -120.5t-110.5 -70t-104.5 -27h-19.5t-33 -1t-38 -1.5t-33.5 -0.5h-20v104l-345 31q0 83 36.5 148t110.5 103l-3 6q-2 6 -10 19.5t-25 35.5l-30 30h-115v65zM196 215l173 -33v117l-80 30
q-46 -35 -67 -60t-26 -54zM244 492q21 -21 39 -53.5t30 -56.5l56 -24v134h-125z" />
    <glyph glyph-name="bn_ss_tt_ra" horiz-adv-x="872" 
d="M591 32q-18 -5 -29 -8.5t-24.5 -5t-35 -2t-60.5 -0.5l-46 -1h-20v104l-345 31q0 83 36.5 148t110.5 103l-1 2q-2 1 -8.5 16t-28.5 43l-30 30h-115v65h770q-5 9 -19.5 21t-47.5 12q-12 0 -28.5 -3t-34 -6t-34.5 -6t-30 -3q-38 0 -66.5 11t-49 27.5t-34 36t-20.5 36.5
l110 90q0 -8 4 -19.5t11.5 -22t19.5 -18t29 -7.5q15 0 35 6q26 8 49 11t43 3q48 0 88 -19t63 -45l-86 -105h112v-65h-359v-342q23 4 55 18.5t62 40.5t52 63.5t26 88.5l-115 15l-15 66h273v-28q0 -98 -30.5 -170t-93.5 -131v-264l-142 22v13q-15 9 -31 14.5t-36 5.5
q-18 0 -39 -6.5t-46 -21.5q-26 -17 -51 -23t-48 -6q-31 -1 -55 8.5t-38 17.5l-16 9l-2 1l55 92v-1q2 0 3 -1l11 -4q13 -5 32 -10.5t39 -5.5q28 0 48 14q26 20 54 27.5t53 7.5q21 0 38 -5.5t28 -5.5v41zM196 215l173 -33v117l-80 30q-46 -35 -67 -60t-26 -54zM244 492
q21 -21 39 -53.5t30 -56.5l56 -24v134h-125z" />
    <glyph glyph-name="bn_ss_ttha" horiz-adv-x="748" 
d="M500 674q0 -22 9 -55.5t19 -62.5h224v-64h-128q107 -113 107 -252q0 -61 -18.5 -108.5t-52 -80t-80.5 -49.5t-103 -17q-50 1 -89.5 15t-68.5 35t-48.5 46.5t-28.5 49.5l-206 19q0 83 36.5 148t109.5 103l-2 6q-2 6 -10.5 19.5t-25.5 35.5l-29 30h-121v64h393
q-21 64 -21 118h134zM595 208q3 15 3 31q0 40 -17.5 82t-54.5 79q-13 -55 -46 -120t-95 -125q13 -14 36 -25t59 -11q30 0 51 8t34.5 21t20.5 29t9 31zM407 492h-159q22 -22 40.5 -54t29.5 -56l51 -22q19 45 28 77.5t10 54.5zM245 289q-21 -20 -31 -36.5t-13 -37.5l35 -7
l24 18q26 20 46.5 40.5t35.5 44.5l-47 18q-14 -11 -26.5 -20.5t-23.5 -19.5z" />
    <glyph glyph-name="bn_ss_nna" horiz-adv-x="753" 
d="M325 261q-45 -38 -75.5 -77.5t-36.5 -81.5l171 -41v163zM384 492h-161q22 -22 49.5 -64.5t46.5 -91.5l65 -45v201zM526 436v-267q24 4 40.5 12.5t26 19t14 22t4.5 20.5h-62v45h24q24 14 31.5 36.5t7.5 50.5q0 16 -6.5 28t-17 19.5t-23 11t-25.5 3.5q-9 0 -14 -1zM526 71
v-73l-476 42q0 97 36.5 171t108.5 123v1q0 1 -5.5 17.5t-31.5 56.5q-50 66 -79 83h-82v65h529v-32q19 3 37 3q38 0 65.5 -17t45 -41.5t26 -52.5t8.5 -50q0 -17 -2 -31t-5 -25l-6 -23h31v-20q0 -19 -7 -49t-28.5 -60.5t-61 -55.5t-103.5 -32z" />
    <glyph glyph-name="bn_ss_pha" horiz-adv-x="1055" 
d="M1061 557v-65h-546q15 -15 30.5 -38t30.5 -50t27.5 -54.5t20.5 -49.5l8 -24l-17 -15q-33 -32 -53.5 -52t-32 -36.5t-17 -32t-8.5 -37.5l171 -41v363h154q44 0 82 -17t66.5 -46t46 -67t19.5 -81l-160 -40q1 7 1.5 13.5t0.5 12.5q0 72 -68 110v-311l-476 42q0 71 20 131
l-314 27q7 49 20 82t30 55.5t38 37.5t45 27l-1 2q0 1 -2.5 8t-10 19t-20.5 28t-34 34h-115v65h1064zM383 221q16 32 42 61l-132 47q-29 -21 -49.5 -40.5t-31.5 -39.5zM481 332l5 3l-2 8q-2 7 -10 23.5t-25 43.5q-50 67 -78 82h-125q20 -20 36.5 -47.5t27.5 -51.5z" />
    <glyph glyph-name="bn_ss_ba" horiz-adv-x="550" 
d="M-3 557h556v-65h-30v-612l-434 43v7q0 70 24.5 128t72.5 96l-152 11q0 81 38.5 140.5t107.5 95.5l-2 6q-2 6 -17 30.5t-49 54.5h-115v65zM376 -40v161q-23 -5 -47.5 -18.5t-45.5 -32t-35.5 -40.5t-15.5 -46zM199 215l61 -11q66 29 111 35v61l-78 29q-48 -35 -68.5 -60
t-25.5 -54zM371 492h-125q20 -20 36.5 -47.5t27.5 -51.5l61 -23v122z" />
    <glyph glyph-name="bn_ss_ma" horiz-adv-x="760" 
d="M593 325v167h-66v-176q30 7 66 9zM762 557v-65h-29v-492l-142 11v182q-16 -1 -36.5 -7t-40.5 -15.5t-38.5 -23.5t-29.5 -31l71 -34v-78l-226 62l2 10q0 2 7.5 27.5t27.5 63.5l4 8l-285 24q7 49 20 82t30 55.5t38 37.5t45 27l-1 2q0 1 -2.5 8t-10 19t-20.5 28t-34 34h-115
v65h765zM384 296l-91 33q-29 -21 -49.5 -40.5t-31.5 -39.5l156 -25l16 17v55zM384 492h-138q20 -20 36.5 -47.5t27.5 -51.5l74 -27v126z" />
    <glyph glyph-name="bn_ss_ra" horiz-adv-x="553" 
d="M556 492h-30v-643l-142 22v12q-15 9 -31 14.5t-36 5.5q-18 0 -39 -6.5t-46 -21.5q-26 -17 -51 -23t-48 -6q-31 -1 -55 8.5t-38 17.5l-16 9l-2 1l55 92v-1q2 0 3 -1l11 -4q13 -5 32 -10.5t39 -5.5q28 0 48 14q26 20 54 27.5t53 7.5q17 0 38 -3t26 -8h2v21l-333 29
q0 97 36.5 171t108.5 123v1q0 1 -5.5 17.5t-31.5 56.5q-50 66 -79 83h-80v65h557v-65zM384 156v68l-59 37q-45 -38 -75.5 -77.5t-36.5 -81.5l170 -41v95h1zM384 492h-161q22 -22 49.5 -64.5t46.5 -91.5l65 -45v201z" />
    <glyph glyph-name="bn_s_ka" horiz-adv-x="773" 
d="M-3 557h779v-65h-215v-260q48 -11 103 -41.5t100 -92.5l3 -4l-144 -53l-3 6q-4 8 -11.5 16.5t-16.5 17t-17.5 15t-14.5 10.5l-8 6v-230l-424 41v7q0 72 25 125t62.5 89.5t81 58t81.5 29.5l-102 29q-65 -100 -229 -119h-6v74q22 4 43.5 14.5t38.5 26t27.5 35.5t10.5 43
q0 44 -33 75.5t-87 37.5v44h-44v65zM219 492q82 -60 82 -146v-10.5t-1 -10.5l110 -32v199h-191zM415 -40l-5 161q-20 -5 -44 -18t-45 -31.5t-35.5 -41t-15.5 -46.5z" />
    <glyph glyph-name="bn_s_k_ba" horiz-adv-x="776" 
d="M410 330v162h-177q68 -44 68 -121l-1 -14zM431 -53v62l-8 -6.5t-17.5 -15t-17 -17t-7.5 -13.5zM272 -13l-144 12v12q0 51 18 94t49 76.5t72.5 56.5t87.5 35l-80 19q-65 -87 -228 -103h-6v74q23 3 44.5 12.5t38.5 22.5t27 29t10 34q0 30 -28.5 58t-91.5 35v38h-44v65h780
v-65h-216v-215q60 -13 106 -38t79 -61l26 -29l-148 -47q-18 29 -64 57q-4 4 -7 4l-2 -303l-292 30v19q0 22 4 41.5t9 36.5zM315 56q24 24 53.5 39.5t46.5 20.5v55q-30 -6 -56 -18.5t-45.5 -28t-31 -32t-12.5 -30.5z" />
    <glyph glyph-name="bn_s_k_ra" horiz-adv-x="877" 
d="M306 288l-24 7q-64 -75 -226 -91h-6v66q23 3 44.5 11t38 19t26.5 25t10 28q-6 68 -119 82v57h-53v65h882v-65h-371v-174l12 -2h109v-111l28 11q19 8 41 12.5t45 4.5q41 0 66.5 -15t39.5 -37t18.5 -47.5t4.5 -45.5v-15.5t-1 -12.5v-1q-1 -5 -1 -8.5t-1 -5.5v-2l-125 10v11
q0 12 -2 27.5t-9.5 29.5t-21.5 23.5t-37 9.5q-10 0 -21 -4t-24 -9v-167l-142 17v26q-18 6 -41 6q-20 0 -44.5 -7t-53.5 -24q-29 -18 -57 -25.5t-54 -7.5q-35 0 -62.5 9.5t-43.5 19.5h-1q-7 5 -11 7.5t-6 3.5l-2 1l62 103l1 -1q11 -4 37.5 -13.5t56.5 -9.5q15 0 29.5 3.5
t26.5 12.5q29 23 59 31t58 8q12 0 23 -1t21 -3v65q-9 14 -20.5 23t-23.5 14t-23 7t-18 2h-11l-4 -6q-7 -8 -14.5 -20.5t-7.5 -14.5l-2 -2l63 -7l-17 -45h-153zM365 337v155h-168q110 -39 110 -129v-12z" />
    <glyph glyph-name="bn_s_kha" horiz-adv-x="867" 
d="M508 409q18 22 18 76v16l110 -26v-2q3 -10 8 -32.5t10.5 -52t9.5 -64.5t4 -69q0 -44 -12.5 -82t-41.5 -80l82 -23v487h174v-57h-30v-505l-457 64l2 1l21 18q16 13 36.5 35.5t39.5 52.5t31.5 66.5t12.5 78.5l-18 -5v-61l-226 50q-64 -75 -226 -91h-6v66q23 3 44.5 11
t38 19t26.5 25t10 28q-6 68 -119 82v57h-53v65h511v-148zM365 337v155h-168q110 -39 110 -129v-12z" />
    <glyph glyph-name="bn_s_tta" horiz-adv-x="833" 
d="M836 492h-360v-342q22 4 54 18.5t62 40.5t52 63.5t26 88.5l-115 15l-15 66h273v-28q0 -70 -16.5 -126t-44 -99t-62.5 -74t-72.5 -51.5t-74.5 -31.5t-67 -14h-19.5t-33.5 -1t-38.5 -1.5t-33.5 -0.5h-20v186l-59 17q-65 -109 -229 -128q-1 -1 -3 -1h-3v80q22 4 44 15.5
t38.5 28.5t27 38.5t10.5 46.5q0 47 -33 81.5t-87 40.5v72h-38v65h721q-5 9 -19.5 21t-46.5 12q-12 0 -29 -3t-34.5 -6t-34.5 -6t-30 -3q-38 0 -66.5 11t-49 27.5t-34 36t-20.5 36.5l111 90q0 -8 3.5 -19.5t11 -22t19.5 -18t29 -7.5q15 0 35 6q26 8 49 11t43 3q48 0 88 -19
t63 -45l-86 -105h114v-65zM331 276v216h-152q55 -31 86.5 -78t31.5 -104v-11t-1 -12z" />
    <glyph glyph-name="bn_s_tt_ra" horiz-adv-x="833" 
d="M591 48q-25 -11 -43.5 -17.5t-38.5 -9.5t-46 -4t-66 -1l-46 -1h-20v186l-59 17q-65 -109 -229 -128q-1 -1 -3 -1h-3v80q22 4 44 15.5t38.5 28.5t27 38.5t10.5 46.5q0 47 -33 81.5t-87 40.5v72h-38v65h721q-5 9 -19.5 21t-46.5 12q-12 0 -29 -3t-34.5 -6t-34.5 -6t-30 -3
q-38 0 -66.5 11t-49 27.5t-34 36t-20.5 36.5l111 90q0 -8 3.5 -19.5t11 -22t19.5 -18t29 -7.5q15 0 35 6q26 8 49 11t43 3q48 0 88 -19t63 -45l-86 -105h114v-65h-360v-342q22 4 54 18.5t62 40.5t52 63.5t26 88.5l-115 15l-15 66h273v-28q0 -78 -19 -139.5t-60 -112.5v-313
l-142 22v13q-15 9 -31 14.5t-36 5.5q-18 0 -39 -6.5t-46 -21.5q-26 -17 -51 -23t-48 -6q-31 -1 -55 8.5t-38 17.5l-16 9l-2 1l55 92v-1q2 0 3 -1l11 -4q13 -5 32 -10.5t39 -5.5q28 0 48 14q26 20 54 27.5t53 7.5q21 0 38 -5.5t28 -5.5v57zM331 276v216h-152q55 -31 86.5 -78
t31.5 -104v-11t-1 -12z" />
    <glyph glyph-name="bn_s_ta" horiz-adv-x="642" 
d="M365 337v155h-168q110 -39 110 -129v-12zM325 279l-8 6l-35 10q-64 -75 -226 -91h-6v66q23 3 44.5 11t38 19t26.5 25t10 28q-6 68 -119 82v57h-53v65h650v-65h-139v-177l27 -9q44 -20 70.5 -56t26.5 -102q0 -54 -23.5 -91t-63.5 -59.5t-93.5 -32t-113.5 -9.5
q-119 0 -188 57.5t-86 157.5q-1 3 -1 11l142 -16q24 -111 139 -111q44 0 71 6h5q38 6 66 27t26 55l-1 16q-1 15 -10.5 28t-23.5 22t-30 14.5t-29 5.5h-11l-28 -43l63 -7l-17 -45h-153z" />
    <glyph glyph-name="bn_s_t_ra" horiz-adv-x="645" 
d="M508 318l12 -2h109v-342l-142 17v26q-18 6 -41 6q-20 0 -44.5 -7t-53.5 -24q-29 -18 -57 -25.5t-54 -7.5q-35 0 -62.5 9.5t-43.5 19.5h-1q-7 5 -11 7.5t-6 3.5l-2 1l62 103l1 -1q11 -4 37.5 -13.5t56.5 -9.5q15 0 29.5 3.5t26.5 12.5q29 23 59 31t58 8q12 0 23 -1t21 -3
v65q-9 14 -20.5 23t-23.5 14t-23 7t-18 2h-11l-4 -6q-7 -8 -14.5 -20.5t-7.5 -14.5l-2 -2l63 -7l-17 -45h-153l52 142l-24 7q-64 -75 -226 -91h-6v66q23 3 44.5 11t38 19t26.5 25t10 28q-6 68 -119 82v57h-53v65h650v-65h-139v-174zM365 337v155h-168q110 -39 110 -129v-12z
" />
    <glyph glyph-name="bn_s_tha" horiz-adv-x="651" 
d="M365 337v155h-168q110 -39 110 -129v-12zM508 325l25 -5q49 -21 78 -56t29 -82q0 -24 -8.5 -49t-28.5 -47.5t-53 -40t-81 -26.5l190 -49v-69l-475 109l-9 102l29 -2q21 -2 45 -2.5t48 -0.5q29 0 65.5 1t68.5 7.5t54 21t22 41.5q0 21 -13 35t-29.5 22t-32.5 11.5t-21 4.5
h-11l-31 -39l41 -7l-19 -40h-145l59 124l-23 6q-64 -75 -226 -91h-6v66q23 3 44.5 11t38 19t26.5 25t10 28q-6 68 -119 82v57h-53v65h657v-65h-146v-167z" />
    <glyph glyph-name="bn_s_na" horiz-adv-x="535" 
d="M365 337v155h-168q110 -39 110 -129v-12zM365 277l-83 18q-64 -75 -226 -91h-6v66q23 3 44.5 11t38 19t26.5 25t10 28q-6 68 -119 82v57h-53v65h540v-65h-29v-502l-142 22v142q-49 -7 -105 -59l45 -19v-89l-208 53q11 40 22.5 68t25.5 48t32.5 34.5t43.5 28.5
q37 20 72.5 31t70.5 14v13z" />
    <glyph glyph-name="bn_s_pha" horiz-adv-x="1055" 
d="M1061 557v-65h-546q15 -15 30.5 -38t30.5 -50t27.5 -54.5t20.5 -49.5l8 -24l-17 -15q-33 -32 -53.5 -52t-32 -36.5t-17 -32t-8.5 -37.5l171 -41v363h154q44 0 82 -17t66.5 -46t46 -67t19.5 -81l-160 -40q1 7 1.5 13.5t0.5 12.5q0 72 -68 110v-311l-476 42q0 109 46 188
l-54 16h1l-50 17q-65 -87 -227 -105h-6v65q22 3 43 12t37.5 22.5t27 31.5t10.5 39q0 42 -32.5 66.5t-85.5 32.5v66h-53v65h1063zM426 282q27 30 60 53l-2 8q-2 7 -10 23.5t-25 43.5q-50 67 -78 82h-201q138 -56 138 -156v-9.5t-1 -9.5z" />
    <glyph glyph-name="bn_s_ba" horiz-adv-x="536" 
d="M382 8v138q-17 -4 -36 -15.5t-36 -27t-29 -35t-14 -40.5zM170 492q138 -56 138 -156v-9.5t-1 -9.5l75 -17l-16 192h-196zM539 492h-30v-560l-369 38v8q0 45 12 85t32.5 72.5t49 56t61.5 37.5l39 16l-50 17q-65 -87 -227 -105h-6v65q22 3 43 12t37.5 22.5t27 31.5t10.5 39
q0 42 -32.5 66.5t-85.5 32.5v66h-53v65h541v-65z" />
    <glyph glyph-name="bn_s_ma" horiz-adv-x="742" 
d="M170 492q138 -56 138 -156v-9.5t-1 -9.5l59 -17v192h-196zM746 492h-29v-492l-142 11v182q-17 -1 -38 -6.5t-41.5 -15.5t-38.5 -24t-29 -31l71 -34v-78l-226 62l2 10q6 27 17 54q10 23 26.5 51.5t43.5 55.5l-29 8h1l-50 17q-65 -87 -227 -105h-6v65q22 3 43 12t37.5 22.5
t27 31.5t10.5 39q0 42 -32.5 66.5t-85.5 32.5v66h-53v65h748v-65zM509 492v-176q30 7 66 9v167h-66z" />
    <glyph glyph-name="bn_s_ra" horiz-adv-x="535" 
d="M366 206v286h-198q64 -35 102 -96t38 -136v-14t-1 -14zM538 492h-30v-420v-214l-141 22v12q-15 9 -31 14.5t-36 5.5q-18 0 -39 -6.5t-46 -21.5q-26 -17 -51 -23t-48 -6q-31 -1 -55 8.5t-38 17.5l-16 9l-2 1l55 92v-1q2 0 3 -1l11 -4q13 -5 32 -10.5t39 -5.5q28 0 48 14
q26 20 54 27.5t53 7.5q17 0 38 -3t26 -8h2v110l-83 40q-64 -129 -226 -154q-1 -1 -3 -1h-3v97q22 5 43 18.5t37.5 34t27 46.5t10.5 56q0 28 -8.5 53t-24 44.5t-37.5 32.5t-48 17v99h-53v65h540v-65z" />
    <glyph glyph-name="bn_s_ra_ukaar" horiz-adv-x="787" 
d="M366 206v286h-198q64 -35 102 -96t38 -136v-14t-1 -14zM367 -108q-15 9 -31 14.5t-36 5.5q-18 0 -39 -6.5t-46 -21.5q-26 -17 -51 -23t-48 -6q-31 -1 -55 8.5t-38 17.5l-16 9l-2 1l55 92v-1q2 0 3 -1l11 -4q13 -5 32 -10.5t39 -5.5q28 0 48 14q26 20 54 27.5t53 7.5
q17 0 38 -3t26 -8h2v110l-83 40q-64 -129 -226 -154q-1 -1 -3 -1h-3v97q22 5 43 18.5t37.5 34t27 46.5t10.5 56q0 28 -8.5 53t-24 44.5t-37.5 32.5t-48 17v99h-53v65h790v-65h-280v-232q19 -10 34.5 -13.5t27.5 -3.5q21 0 33.5 10t19.5 24.5t9 29.5t2 25v11l125 10v-2
q2 -4 2.5 -16.5t0.5 -26.5q0 -20 -4.5 -45.5t-18.5 -47.5t-39.5 -37t-66.5 -15q-38 0 -71.5 12t-53.5 22l1 -125v-214l-142 22v12z" />
    <glyph glyph-name="bn_s_ra_uukaar" horiz-adv-x="787" 
d="M366 206v286h-198q64 -35 102 -96t38 -136v-14t-1 -14zM367 -108q-15 9 -31 14.5t-36 5.5q-18 0 -39 -6.5t-46 -21.5q-26 -17 -51 -23t-48 -6q-31 -1 -55 8.5t-38 17.5l-16 9l-2 1l55 92v-1q2 0 3 -1l11 -4q13 -5 32 -10.5t39 -5.5q28 0 48 14q26 20 54 27.5t53 7.5
q17 0 38 -3t26 -8h2v110l-83 40q-64 -129 -226 -154q-1 -1 -3 -1h-3v97q22 5 43 18.5t37.5 34t27 46.5t10.5 56q0 28 -8.5 53t-24 44.5t-37.5 32.5t-48 17v99h-53v65h792v-65h-282v-154l256 71l-11 -54q-7 -32 -11.5 -72.5t-4.5 -85.5q0 -62 17 -125l-137 22l-5 31
q-3 17 -5.5 39.5t-2.5 48.5q0 20 1.5 39.5t5.5 39.5l-103 -17v-203v-214l-141 22v12z" />
    <glyph glyph-name="bn_s_la" horiz-adv-x="558" 
d="M389 230l-125 32q-65 -87 -227 -105h-6v65q22 3 43 12t37.5 22.5t27 31.5t10.5 39q0 42 -32.5 66.5t-85.5 32.5v66h-35v65h564v-65h-29v-535l-142 22v34l-159 -40v88q0 3 -4 3q-14 -2 -27 -6.5t-23.5 -11t-17.5 -13t-9 -11.5l48 -19v-72l-178 44q23 111 76 149
q30 22 62 35.5t62 13.5q16 0 31 -6.5t26.5 -18t18.5 -26t8 -30.5l86 36v102zM150 492q138 -56 138 -156v-9.5t-1 -9.5l102 -20v195h-239z" />
    <glyph glyph-name="bn_ha_ukaar" horiz-adv-x="527" 
d="M340 336q-19 8 -34 8q-9 0 -18 -3l-31 -76l-43 4l-23 87l-32 -1q-2 -2 -2 -7l-14 -36q-2 -2 -1.5 -3.5t-1.5 -3.5l48 -9l-17 -54h-144l67 226h4q6 0 11 1h82h21.5t18.5 -1l18 -83l17 80q9 1 18 1.5t18 0.5q48 0 86.5 -14t66 -40t42.5 -62.5t15 -80.5q0 -33 -10 -66.5
t-32.5 -62.5t-57.5 -51.5t-85 -33.5l204 -76v-73l-475 141l-8 132l29 -3q20 -2 43 -3t47 -1q30 0 66.5 1t68.5 10t54 28.5t22 55.5q0 23 -12 40.5t-26 27.5zM534 557v-65h-537v65h537z" />
    <glyph glyph-name="bn_ha_rikaar" horiz-adv-x="797" 
d="M801 557v-65h-804v65h804zM511 273q0 -35 -10 -68.5t-31.5 -63t-56.5 -51.5t-86 -34l204 -76v-73l-475 141l-8 132l29 -3q20 -2 43 -3t47 -1q30 0 66.5 1t68.5 10t54 28.5t22 55.5q0 28 -14 45.5t-32 27.5t-35.5 14t-24.5 4h-13q-2 0 -8 -6l-14 -14t-17 -15.5t-16 -11.5
l-3 -3l81 -8l-19 -53h-200l155 221l21 1h23q92 0 154.5 -31t85.5 -105l268 74l-11 -54q-7 -32 -11.5 -72t-4.5 -87q0 -62 17 -125l-136 22l-6 31q-8 37 -8 88q0 19 1.5 39.5t5.5 40.5z" />
    <glyph glyph-name="bn_h_nna" horiz-adv-x="529" 
d="M530 557v-65h-533v65h533zM389 -159q-44 -6 -55 -17l30 -10v-89l-214 40q16 42 29.5 67.5t28.5 42t33 27t43 20.5q48 20 105 23v4l-333 99l-8 132l29 -3q20 -2 43 -3t47 -1q30 0 66.5 1t68.5 10t54 28.5t22 55.5q0 28 -14 45.5t-32 27.5t-35.5 14t-24.5 4h-13q-2 0 -8 -6
l-14 -14t-17 -15.5t-16 -11.5l-3 -3l81 -8l-19 -53h-200l155 221l21 1h23q53 0 99 -11t79.5 -35t52.5 -62t19 -92q0 -33 -10 -66.5t-32.5 -62.5t-57.5 -51.5t-85 -33.5l204 -76v-260l-142 22v99z" />
    <glyph glyph-name="bn_h_na" horiz-adv-x="785" 
d="M791 557v-65h-794v65h794zM511 260q-1 -33 -12 -64.5t-33.5 -59t-56.5 -48.5t-82 -32l204 -76v-73l-475 141l-8 132l29 -3q20 -2 43 -3t47 -1q30 0 66.5 1t68.5 10t54 28.5t22 55.5q0 28 -14 45.5t-32 27.5t-35.5 14t-24.5 4h-13q-2 0 -8 -6l-14 -14t-17 -15.5t-16 -11.5
l-3 -3l81 -8l-19 -53h-200l155 221l21 1h23q95 0 157 -32.5t84 -108.5l2 -8q19 9 53.5 21.5t72.5 12.5q41 0 66.5 -15t39.5 -37t18.5 -47.5t4.5 -45.5v-15.5t-1 -12.5v-1q-1 -5 -1 -8.5t-1 -5.5v-2l-125 10v11q0 12 -2 27.5t-9.5 29.5t-21.5 23.5t-37 9.5q-11 0 -23.5 -5z
" />
    <glyph glyph-name="bn_h_ma" horiz-adv-x="967" 
d="M524 261q16 3 31 5t29 3v53q-30 9 -62.5 24.5t-60.5 36.5t-48 48.5t-24 60.5h-107q4 -6 12.5 -20t16.5 -28.5t14.5 -25.5t8.5 -11q26 0 52.5 -7.5t51 -24.5t46.5 -45t40 -69zM584 492h-73q8 -65 73 -87v87zM728 228v-238l-142 17v157q-62 -5 -113.5 -29t-76.5 -61l51 -23
v-54l-204 49q17 63 57 105t92 68q-3 9 -9 21.5t-16.5 23.5t-25.5 18.5t-35 7.5q-3 0 -9 -0.5t-13 -1t-13.5 -2.5t-9.5 -5h-1q-37 -22 -58 -55l51 -25v-57l-205 53q17 66 57 110.5t94 71.5q-15 45 -47 72t-63 41h-98v65h980v-65h-243v-198l232 64l-11 -54q-7 -32 -11.5 -72
t-4.5 -87q0 -62 17 -125l-136 22l-6 31q-8 37 -8 88q0 19 1.5 39.5t5.5 40.5z" />
    <glyph glyph-name="bn_h_ra" horiz-adv-x="527" 
d="M359 -42l-303 90l-8 132l29 -3q20 -2 43 -3t47 -1q30 0 66.5 1t68.5 10t54 28.5t22 55.5q0 28 -14 45.5t-32 27.5t-35.5 14t-24.5 4h-13q-2 0 -8 -6l-14 -14t-17 -15.5t-16 -11.5l-3 -3l81 -8l-19 -53h-200l155 221l21 1h23q53 0 99 -11t79.5 -35t52.5 -62t19 -92
q0 -33 -10 -66.5t-32.5 -62.5t-57.5 -51.5t-85 -33.5l204 -76v-73l-31 9v-120l-142 22l-1 18q-8 5 -22 9.5t-32 4.5t-40 -6t-48 -22q-26 -17 -51 -23t-48 -6q-31 -1 -55 8.5t-38 17.5l-16 9l-2 1l55 92v-1q2 0 3 -1l11 -4q13 -5 32 -10.5t39 -5.5q13 0 25.5 3t22.5 11
q26 20 52.5 27.5t51.5 7.5q19 0 34.5 -3t26.5 -6v19h1zM530 557v-65h-533v65h533z" />
    <glyph glyph-name="bn_h_la" horiz-adv-x="523" 
d="M389 -51l-333 99l-8 132l29 -3q20 -2 43 -3t47 -1q30 0 66.5 1t68.5 10t54 28.5t22 55.5q0 28 -14 45.5t-32 27.5t-35.5 14t-24.5 4h-13q-2 0 -8 -6l-14 -14t-17 -15.5t-16 -11.5l-3 -3l81 -8l-19 -53h-200l155 221l21 1h23q53 0 99 -11t79.5 -35t52.5 -62t19 -92
q0 -33 -10 -66.5t-32.5 -62.5t-57.5 -51.5t-85 -33.5l204 -76v-213l-142 22v24l-159 -40v88q0 3 -4 3q-14 -2 -27 -6.5t-23.5 -11t-17.5 -13t-9 -11.5l48 -19v-72l-178 44q12 58 34 96t49.5 60.5t58 32t59.5 9.5q33 0 57 -24t26 -57l86 36v21zM530 557v-65h-533v65h533z" />
    <glyph glyph-name="bn_h_ba" horiz-adv-x="940" 
d="M772 85v250q-30 -6 -69.5 -27.5t-73.5 -66.5q-26 -38 -34.5 -70.5t-8.5 -48.5zM942 492h-28v-492l-476 56q0 14 0.5 27t1.5 26q-43 -37 -113 -53l204 -76v-73l-475 141l-8 132l29 -3q20 -2 43 -3t47 -1q30 0 66.5 1t68.5 10t54 28.5t22 55.5q0 28 -14 45.5t-32 27.5
t-35.5 14t-24.5 4h-13q-2 0 -8 -6l-14 -14t-17 -15.5t-16 -11.5l-3 -3l81 -8l-19 -53h-200l155 221l21 1h23q49 0 90.5 -8.5t73.5 -27.5t53 -49.5t28 -73.5l9 12q32 41 68.5 69.5t71 47t65 27.5t51.5 11v14h-775v65h945v-65z" />
    <glyph glyph-name="asa_ra_ukaar" horiz-adv-x="803" 
d="M214 190q-8 -19 -11.5 -36.5t-3.5 -27.5v-4l186 -38v86zM385 239v96q-26 -7 -60 -23t-63 -48zM527 196v-197l-476 57q1 105 34.5 181.5t83 128t108 79t108.5 32.5v15h-386v65h811v-65h-283v-232q17 -8 31.5 -11.5t25.5 -3.5q21 0 33.5 10t19.5 24.5t9 29.5t2 25v11
l125 10v-2q2 -4 2.5 -16.5t0.5 -26.5q0 -20 -4.5 -45.5t-18.5 -47.5t-39.5 -37t-66.5 -15q-35 0 -68.5 10.5t-51.5 20.5z" />
    <glyph glyph-name="asa_ra_uukaar" horiz-adv-x="802" 
d="M214 190q-8 -19 -11.5 -36.5t-3.5 -27.5v-4l186 -38v86zM385 239v96q-26 -7 -60 -23t-63 -48zM527 276v-277l-476 57q1 105 34.5 181.5t83 128t108 79t108.5 32.5v15h-386v65h806v-65h-278v-151l247 68l-11 -54q-7 -32 -11.5 -72.5t-4.5 -85.5q0 -62 17 -125l-137 22
l-5 31q-3 17 -5.5 39.5t-2.5 48.5q0 20 1.5 39.5t5.5 39.5z" />
    <glyph glyph-name="asa_ba_ukaar" horiz-adv-x="808" 
d="M385 84v251q-30 -7 -69.5 -28t-73.5 -66q-26 -38 -34.5 -70.5t-8.5 -48.5zM439 -82l-341 23q0 40 11 79l330 -45v-57zM527 196v-197l-476 57q1 105 34.5 181.5t83 128t108 79t108.5 32.5v15h-386v65h813v-65h-285v-232q17 -8 31.5 -11.5t25.5 -3.5q21 0 33.5 10
t19.5 24.5t9 29.5t2 25v11l125 10v-2q2 -4 2.5 -16.5t0.5 -26.5q0 -20 -4.5 -45.5t-18.5 -47.5t-39.5 -37t-66.5 -15q-35 0 -68.5 10.5t-51.5 20.5z" />
    <glyph glyph-name="asa_ba_uukaar" horiz-adv-x="807" 
d="M385 84v251q-30 -7 -69.5 -28t-73.5 -66q-26 -38 -34.5 -70.5t-8.5 -48.5zM439 -82l-341 23q0 40 11 79l330 -45v-57zM527 274v-275l-476 57q1 105 34.5 181.5t83 128t108 79t108.5 32.5v15h-386v65h812v-65h-284v-154l257 71l-11 -54q-7 -32 -11.5 -72.5t-4.5 -85.5
q0 -62 17 -125l-137 22l-5 31q-3 17 -5.5 39.5t-2.5 48.5q0 20 1.5 39.5t5.5 39.5z" />
    <glyph glyph-name="bn_rra_ukar" horiz-adv-x="634" 
d="M490 83q92 -105 93 -175q32 -21 62 -47.5t50 -48.5l19 -21v-60l-12 13q-10 9 -23.5 20.5t-27.5 22.5t-28 20.5t-25 14.5l-10 4q-1 1 -3 1l-1 1v-11q0 -12 -5 -32.5t-20.5 -40t-43.5 -33.5t-74 -14q-42 0 -68.5 14.5t-42 35.5t-21.5 43.5t-7 39.5v4q2 54 35 86.5t81 32.5
q9 0 18 -1t19 -4q-8 16 -78 87q-30 -6 -63 -6q-64 0 -113 24.5t-82 68t-50 104t-17 131.5v22v25t-1 25l141 -37v-15t-1 -13v-30q0 -29 5.5 -57.5t19 -51.5t37.5 -38.5t61 -18.5q33 0 56.5 9.5t39 23.5t24.5 30.5t14 31.5t6 25t1 12l-193 -50v242h-264v65h649v-65h-271v-150
l210 83q0 -17 3 -52t4 -89q-4 -121 -86 -188zM159 -66v4q2 2 3.5 12t2.5 22t1.5 21.5t1.5 10.5l129 -22v-63zM451 -223q23 0 35.5 23t12.5 56q0 11 -6.5 13t-17.5 2q-23 0 -37 -18t-14 -41q0 -13 6.5 -22.5t20.5 -12.5z" />
    <glyph glyph-name="bn_rra_uukar" horiz-adv-x="608" 
d="M368 33q-23 -4 -54 -4q-64 0 -113 24.5t-82 68t-50 104t-17 131.5v22v25t-1 25l141 -37v-15t-1 -13v-30q0 -29 5.5 -57.5t19 -51.5t37.5 -38.5t61 -18.5q33 0 56.5 9.5t39 23.5t24.5 30.5t14 31.5t6 25t1 12l-193 -50v242h-264v65h615v-65h-237v-150l210 83q0 -17 3 -52
t4 -89q-4 -118 -82 -184v-169q-41 -13 -58 -41t-17 -54q0 -20 8.5 -36t24.5 -16q15 0 25 9.5t15 23.5t7 29t2 27v12l-3 1l112 15l107 -143l-31 -41l-100 95q0 -1 -1 -2v-6q-2 -7 -9 -23t-24 -33t-47 -30t-77 -13q-36 0 -60.5 14.5t-39 35.5t-21 43.5t-6.5 37.5q0 55 14.5 83
t35.5 45v69zM169 -65v4q2 2 3.5 12t2.5 22t1.5 21.5t1.5 10.5l129 -22v-63z" />
    <glyph glyph-name="bn_rra_rikaar" horiz-adv-x="621" 
d="M405 42q-42 -13 -91 -13q-64 0 -113 24.5t-82 68t-50 104t-17 131.5v22v25t-1 25l141 -37v-15t-1 -13v-30q0 -29 5.5 -57.5t19 -51.5t37.5 -38.5t61 -18.5q33 0 56.5 9.5t39 23.5t24.5 30.5t14 31.5t6 25t1 12l-193 -50v242h-264v65h627v-65h-249v-150l210 83
q0 -17 3 -52t4 -89q-4 -112 -75 -178v-193l-72 -61l72 -48v-47l-221 90l108 124v71zM206 -48v4q2 2 3.5 12t2.5 22t1.5 21.5t1.5 10.5l129 -22v-63z" />
    <glyph glyph-name="bn_rra_ga" horiz-adv-x="1137" 
d="M1139 492h-29v-492l-142 23v334q-25 43 -59 68.5t-91 25.5q-42 0 -69 -18t-38 -66h172q6 -42 6 -76q0 -51 -16.5 -92t-44 -71t-64.5 -48t-78 -23l-86 134q5 -1 9 -1h9q21 0 44 4.5t42 17t31 33.5t12 54v10h-154v-25q-2 -61 -26 -108.5t-62 -80t-87.5 -49.5t-103.5 -17
q-64 0 -113 24.5t-82 68t-50 104t-17 131.5v22v25t-1 25l141 -37v-15t-1 -13v-30q0 -29 5.5 -57.5t19 -51.5t37.5 -38.5t61 -18.5q33 0 56.5 9.5t39 23.5t24.5 30.5t14 31.5t6 25t1 12l-193 -50v242h-264v65h521v-65h-143v-150l187 74q9 25 25.5 49.5t43.5 43.5t67.5 31
t99.5 13q113 -3 167 -54v58h173v-65zM219 -65v4q2 2 3.5 12t2.5 22t1.5 21.5t1.5 10.5l129 -22v-63z" />
    <glyph glyph-name="bn_rha_ukar" horiz-adv-x="545" 
d="M351 -223q23 0 35.5 23t12.5 56q0 11 -6.5 13t-17.5 2q-23 0 -37 -18t-14 -41q0 -13 6.5 -22.5t20.5 -12.5zM377 98q105 -117 106 -190q32 -21 62 -47.5t50 -48.5l19 -21v-60l-12 13q-10 9 -23.5 20.5t-27.5 22.5t-28 20.5t-25 14.5l-10 4q-1 1 -3 1l-1 1v-11
q0 -12 -5 -32.5t-20.5 -40t-43.5 -33.5t-74 -14q-42 0 -68.5 14.5t-42 35.5t-21.5 43.5t-7 39.5v4q2 54 35 86.5t81 32.5q9 0 18 -1t19 -4q-8 17 -99 101q-16 -4 -32 -6t-37 -3t-48.5 -1.5t-67.5 -0.5l-20 -1v455h-53v65h549v-65h-354v-314q24 0 55.5 9t60.5 31t50 59.5
t26 94.5l-120 7l-8 65h269q1 -7 1 -13.5v-13.5q0 -105 -39 -186.5t-111 -132.5zM65 -3l129 -22v-63l-138 15v4q2 2 3.5 12t2.5 22t1.5 21.5t1.5 10.5z" />
    <glyph glyph-name="bn_rha_uukar" horiz-adv-x="542" 
d="M75 5l129 -22v-63l-138 15v4q2 2 3.5 12t2.5 22t1.5 21.5t1.5 10.5zM268 52q-20 -5 -37 -7.5t-38 -4t-50 -2t-72 -0.5l-20 -1v455h-53v65h549v-65h-354v-314q24 0 55.5 9t60.5 31t50 59.5t26 94.5l-120 7l-8 65h269q1 -7 1 -13.5v-13.5q0 -92 -28 -163.5t-88 -126.5v-196
q-41 -13 -58 -41t-17 -54q0 -20 8.5 -36t24.5 -16q15 0 25 9.5t15 23.5t7 29t2 27v12l-3 1l112 15l107 -143l-31 -41l-100 95q0 -1 -1 -2v-6q-2 -7 -9 -23t-24 -33t-47 -30t-77 -13q-36 0 -60.5 14.5t-39 35.5t-21 43.5t-6.5 37.5q0 55 14.5 83t35.5 45v88z" />
    <glyph glyph-name="bn_rha_rikaar" horiz-adv-x="550" 
d="M85 5l129 -22v-63l-138 15v4q2 2 3.5 12t2.5 22t1.5 21.5t1.5 10.5zM553 492h-360v-314q24 0 55.5 9t60.5 31t50 59.5t26 94.5l-120 7l-8 65h269q1 -7 1 -13.5v-13.5q0 -98 -31.5 -171t-97.5 -131v-202l-72 -61l72 -48v-47l-221 90l108 124v86q-23 -7 -41 -10.5
t-40.5 -5.5t-53.5 -2.5t-79 -0.5l-20 -1v455h-52v65h554v-65z" />
    <glyph glyph-name="bn_yya_ukar" horiz-adv-x="553" 
d="M555 492h-29v-493q30 -51 32 -93q32 -21 62 -47.5t50 -48.5l19 -21v-60l-12 13q-10 9 -23.5 20.5t-27.5 22.5t-28 20.5t-25 14.5l-10 4q-1 1 -3 1l-1 1v-11q0 -12 -5 -32.5t-20.5 -40t-43.5 -33.5t-74 -14q-42 0 -68.5 14.5t-42 35.5t-21.5 43.5t-7 39.5v4q2 54 35 86.5
t81 32.5q9 0 18 -1t19 -4q-5 14 -61 67l-318 28q0 195 144 294v1q0 1 -5.5 17.5t-31.5 56.5q-50 67 -78 82h-81v65h556v-65zM384 492h-160q14 -15 30 -38t31 -49t27.5 -53.5t20.5 -51.5l7 -22l1 -2l-9.5 -8.5t-23 -21t-27.5 -26.5t-24 -25q-21 -24 -30 -45t-13 -47l170 -41
v430zM117 -70v4q1 1 1 7q1 8 1.5 18t1.5 19t2 15t3 7l129 -22v-63zM426 -225q23 0 35.5 23t12.5 56q0 11 -6.5 13t-17.5 2q-23 0 -37 -18t-14 -41q0 -13 6.5 -22.5t20.5 -12.5z" />
    <glyph glyph-name="bn_yya_uukar" horiz-adv-x="553" 
d="M383 12l-332 29q0 195 144 294v1q0 1 -5.5 17.5t-31.5 56.5q-50 67 -78 82h-81v65h555v-65h-28v-560q-41 -13 -58 -41t-17 -54q0 -20 8.5 -36t24.5 -16q15 0 25 9.5t15 23.5t7 29t2 27v12l-3 1l112 15l107 -143l-31 -41l-100 95q0 -1 -1 -2v-6q-2 -7 -9 -23t-24 -33
t-47 -30t-77 -13q-36 0 -60.5 14.5t-39 35.5t-21 43.5t-6.5 37.5q0 55 14.5 83t35.5 45v47zM384 492h-160q14 -15 30 -38t31 -49t27.5 -53.5t20.5 -51.5l7 -22l1 -2l-9.5 -8.5t-23 -21t-27.5 -26.5t-24 -25q-21 -24 -30 -45t-13 -47l170 -41v430zM187 -70v4q1 1 1 7
q1 8 1.5 18t1.5 19t2 15t3 7l129 -22v-63z" />
    <glyph glyph-name="bn_yya_rikaar" horiz-adv-x="553" 
d="M555 492h-29v-578l-72 -61l72 -48v-47l-221 90l108 125v36l-362 32q0 195 144 294v1q0 1 -5.5 17.5t-31.5 56.5q-50 67 -78 82h-81v65h556v-65zM384 492h-160q14 -15 30 -38t31 -49t27.5 -53.5t20.5 -51.5l7 -22l1 -2l-9.5 -8.5t-23 -21t-27.5 -26.5t-24 -25
q-21 -24 -30 -45t-13 -47l170 -41v430zM157 -70v4q1 1 1 7q1 8 1.5 18t1.5 19t2 15t3 7l129 -22v-63z" />
    <glyph glyph-name="bn_reph" 
d="M-160 600l195 131l103 -26l-129 -105h-169z" />
    <glyph glyph-name="bn_iikaar_reph" horiz-adv-x="241" 
d="M150 709q54 -28 79 -67l-49 -85h67v-65h-54v-493l-142 22v471h-53v65h123v7q-6 13 -24 24t-54 11q-14 0 -31.5 -2t-31.5 -2q-51 0 -83 16q8 -27 18 -44t18 -25l8 -8l-50 -10q-22 10 -38.5 32.5t-28.5 49t-19 53.5t-10 47l-4 27l118 50q0 -6 4 -15.5t12.5 -18.5
t21.5 -15.5t31 -6.5q12 0 26 2t25 2l77 52l103 -26z" />
    <glyph glyph-name="bn_aumark_reph" horiz-adv-x="241" 
d="M138 629q1 -1 2 -1t3 -1l36 -16q14 -7 20 -18t6 -22q0 -4 -2 -14h44v-65h-54v-492l-142 22v470h-53v65h41q0 2 0.5 3.5t0.5 3.5q0 11 -7.5 21t-26.5 15q-28 7 -41 26.5t-16 33.5l-2 6q0 1 -1 2l144 1q0 -1 -0.5 -1.5t-0.5 -2.5q0 -3 2 -7l152 102l103 -26l-128 -105h-80z
" />
    <glyph glyph-name="bn_ba_phala" 
d="M-49 -100v62q-1 0 -8.5 -6.5t-16.5 -15.5t-16.5 -17.5t-7.5 -13.5zM72 75v-263l-292 30v19q0 55 20 93.5t46.5 63t53.5 36.5t41 15v6h131z" />
    <glyph glyph-name="bn_ya_phala" horiz-adv-x="206" 
d="M-4 492v65h216v-66h-46q-29 -34 -29 -99q0 -45 9.5 -88t26.5 -83q16 -38 23 -71t7 -60q0 -23 -3 -41.5t-10 -36.5t-18.5 -37t-28.5 -41l-120 68q23 15 34.5 37t11.5 48q0 22 -7.5 48.5t-18.5 58.5q-16 46 -26.5 87.5t-12.5 79.5q1 24 5 46t8.5 40t9 29.5t6.5 14.5z" />
    <glyph glyph-name="bn_ra_phala" 
d="M-77 -156l-4 3l-7 4q-8 5 -22 9.5t-32 4.5t-40 -6t-48 -22q-26 -17 -51 -23t-48 -6q-31 -1 -55 8.5t-38 17.5l-16 9l-1 1h-1l55 92v-1q2 0 3 -1l11 -4q13 -5 32 -10.5t39 -5.5q28 0 48 14q26 20 54 27.5t53 7.5q20 0 35.5 -3t26.5 -7h1q2 -1 3 -1t2 -1v74h142v-214
l-142 22v11z" />
    <glyph glyph-name="dottedcircle" unicode="&#x25cc;" horiz-adv-x="621" 
d="M435 414q-36 35 -82 46l38 104l120 -68l-73 -85zM273 459q-46 -11 -80 -45l-6 -6l-72 86l120 70zM150 342q-7 -21 -7 -49q0 -26 6 -48l-102 -19v137zM188 178q5 -10 15 -18t22 -15t24.5 -11.5t21.5 -6.5l-40 -105l-116 71zM352 126q48 11 83 46l3 3l73 -82l-121 -71z
M478 244q7 21 7 49t-7 49l103 21v-137z" />
    <glyph glyph-name="zwnj" unicode="&#x200c;" 
 />
    <glyph glyph-name="zwj" unicode="&#x200d;" 
 />
    <glyph glyph-name="indianrupeesign" unicode="&#x20b9;" horiz-adv-x="577" 
d="M204 476h-162l-10 80h496l28 -90l-136 4q39 -36 55 -84h60l21 -90l-71 2q-7 -68 -49.5 -119t-127.5 -71l190 -75v-72l-442 139v131l20 -3q20 -3 42 -3.5t44 -0.5q29 0 59.5 1.5t57.5 9t47.5 23t28.5 44.5l-309 8l-14 76h295q-41 52 -123 90z" />
    <glyph glyph-name="bn_nga.half" horiz-adv-x="389" 
d="M316 73h-33q-48 0 -91 9.5t-75.5 33.5t-51 64.5t-18.5 103.5v90l131 -34v-87q0 -21 8 -39.5t22.5 -32.5t33.5 -22t41 -8q34 0 56.5 22t22.5 54v26q-24 -6 -56 -6q-21 0 -39.5 8t-33 22t-22.5 33t-8 40v32l-89 42q-67 37 -67 106v58l131 -27v-72q0 -20 20 -31l5 -3v90h78
q5 1 10.5 1h11.5q16 0 41.5 -2.5t49.5 -13.5t41 -34.5t17 -65.5q0 -44 -29 -73.5t-88 -29.5l-7 1l-1 -5q1 -8 4.5 -11.5t7 -4.5t6 -1t1.5 0q34 0 148 54v-128q0 -25 -4.5 -46.5t-26.5 -48.5q-21 -26 -60 -45t-87 -19zM336 423q7 0 9 11v10q-4 5 -17 7v-27z" />
    <glyph glyph-name="bn_ca.half" horiz-adv-x="242" 
d="M-7 492v65h465v-65h-286v-15l242 -44q-8 -75 -30 -129t-52.5 -91t-66.5 -59t-71 -34t-66 -16t-53 -4q-32 0 -35 3v389h-47zM281 377l-109 33v-178l-2 1l13 6q11 5 25.5 14.5t28.5 26t26 40.5t18 57z" />
    <glyph glyph-name="bn_nna.half" horiz-adv-x="295" 
d="M399 325l-127 104q-2 -1 -15.5 -5.5t-29 -17t-28 -35t-12.5 -59.5q0 -32 15 -57l72 -24l15 -61l-206 23q-17 26 -26.5 56t-9.5 65q0 53 15.5 92t38 66t49.5 43.5t50.5 26t39 12.5t16.5 3l143 -141v-91z" />
    <glyph glyph-name="bn_da.half" horiz-adv-x="331" 
d="M401 492h-208v-266q13 4 30.5 12t34.5 21t32.5 32t26.5 45l9 30l8 53h150l-6 -35q-6 -34 -11 -86.5t-5 -107.5q1 -48 5.5 -90.5t10.5 -69.5l6 -27h-150l-10 47q-5 23 -7.5 51.5t-4.5 61.5q-59 -40 -118 -46l-1 -1q-5 -1 -19.5 -1.5t-33 -1t-38 -0.5h-33.5h-19v379h-54v65
h405v-65z" />
    <glyph glyph-name="bn_na.half" horiz-adv-x="316" 
d="M414 332q-22 -1 -51 -8t-58.5 -20.5t-56 -35t-42.5 -50.5l91 -43v-70l-245 69q16 84 58 139.5t94.5 89t108.5 47.5t101 15v-133zM414 492h-415v65h415v-65z" />
    <glyph glyph-name="bn_ma.half" horiz-adv-x="299" 
d="M442 491h-183q37 -31 58 -75q13 2 31.5 3.5t44.5 1.5h25.5t27.5 -1v-105q-33 3 -61 3q-42 0 -73 -7t-53 -17.5t-36 -23t-22 -22.5l48 -15v-48l-209 37h1l-2 1q17 57 58 95.5t95 61.5q-12 30 -36.5 51t-49.5 33.5t-44.5 18.5t-22.5 6l1 2h-44v66h446v-66z" />
    <glyph glyph-name="bn_la.half" horiz-adv-x="444" 
d="M513 274l-186 -48v110q0 4 -6.5 9t-18.5 5q-15 0 -39.5 -14t-55.5 -55l44 -28l8 -93l-224 65l12 35q10 25 29.5 61.5t49.5 70.5t72 57.5t97 23.5q24 0 47 -6.5t40.5 -19.5t28 -31t11.5 -42l91 28v-128zM512 492h-517v65h517v-65z" />
    <glyph glyph-name="bn_ssa.half" horiz-adv-x="303" 
d="M443 492h-197q20 -20 36.5 -47.5t27.5 -51.5l123 -45v-70l-140 51q-29 -21 -49.5 -40.5t-31.5 -39.5l223 -36v-47l-388 33q7 49 20 82t30 55.5t38 37.5t45 27l-2 6q-2 6 -17 30.5t-49 54.5h-115v65h446v-65z" />
    <glyph glyph-name="bn_sa.half" horiz-adv-x="301" 
d="M433 215l-100 30h1l-50 17q-65 -87 -227 -105h-6v65q22 3 43 12t37.5 22.5t27 31.5t10.5 39q0 42 -32.5 66.5t-85.5 32.5v66h-53v65h435v-65h-263q138 -56 138 -156v-9.5t-1 -9.5l126 -37v-65z" />
    <glyph glyph-name="bnk_ssa.half" horiz-adv-x="962" 
d="M-9 557h980v-65h-243v-107q28 -2 50.5 -6.5t39.5 -9.5l36 -11q25 -12 43 -28.5t30 -38.5t19 -51t12 -66l-193 -44v44l38 23q-2 37 -14 57t-49 33l-12 4v-301l-144 17v157q-60 -5 -111.5 -29t-76.5 -61l51 -23v-54l-204 49q17 63 57 105t92 68q-3 9 -9 21.5t-16.5 23.5
t-25.5 18.5t-35 7.5q-3 0 -9 -0.5t-13 -1t-13.5 -2.5t-9.5 -5h-1q-37 -22 -58 -55l51 -25v-57l-205 53q17 66 57 110.5t94 71.5q-15 45 -47 72t-63 41h-98v65zM524 261q16 3 31 5t29 3v53q-30 9 -62.5 24.5t-60.5 36.5t-48 48.5t-24 60.5h-107q4 -6 12.5 -20t16.5 -28.5
t14.5 -25.5t8.5 -11q26 0 52.5 -7.5t51 -24.5t46.5 -45t40 -69zM688 -48l17 -92l160 -41l-24 77zM584 492h-73q8 -65 73 -87v87z" />
    </font>
</defs>
</svg>
